M48
; DRILL file {KiCad 5.1.5+dfsg1-2build2} date Sa 20 Feb 2021 19:42:41 CET
; FORMAT={-:-/ absolute / inch / decimal}
; #@! TF.CreationDate,2021-02-20T19:42:41+01:00
; #@! TF.GenerationSoftware,Kicad,Pcbnew,5.1.5+dfsg1-2build2
; #@! TF.FileFunction,Plated,1,4,PTH
FMAT,2
INCH
T1C0.0079
T2C0.0118
T3C0.0157
T4C0.0236
T5C0.0394
%
G90
G05
T1
X4.1378Y-2.7067
X4.1378Y-2.7913
X4.2303Y-3.1201
X4.2303Y-3.1594
X5.3878Y-3.1496
X5.4606Y-3.1122
X5.4606Y-3.187
X5.4743Y-3.1496
X5.5531Y-3.0866
X5.5531Y-3.2126
X5.6161Y-3.1496
X5.8622Y-3.1831
X5.9567Y-3.2362
X6.0039Y-3.2047
X6.0413Y-3.1516
X6.0472Y-3.248
X6.0555Y-2.9583
X6.0886Y-3.1319
X6.0906Y-3.2913
X6.1024Y-2.9458
X6.1122Y-3.0965
X6.1142Y-3.3465
X6.128Y-3.0787
X6.1358Y-3.0059
X6.1417Y-3.2598
X6.1476Y-3.061
X6.1673Y-3.0413
X6.1693Y-3.3307
X6.1772Y-3.4094
X6.185Y-3.0236
X6.198Y-3.2886
X6.2047Y-3.4232
X6.2141Y-3.3046
X6.23Y-3.3208
X6.2365Y-2.9583
X6.248Y-3.3346
X6.2628Y-2.9359
X6.2815Y-2.8898
X6.283Y-3.3458
X6.2874Y-2.9488
X6.2953Y-3.3839
X6.3218Y-2.942
X6.33Y-3.3522
X6.3465Y-3.3366
X6.3558Y-2.9683
X6.3629Y-3.3205
X6.3731Y-2.9843
X6.3799Y-3.3054
X6.3899Y-3.005
X6.3917Y-3.4193
X6.4045Y-3.2785
X6.4076Y-2.9625
X6.4218Y-3.2637
X6.4252Y-3.0413
X6.4409Y-3.3661
X6.4627Y-3.2184
X6.4705Y-3.0827
X6.4921Y-3.189
X6.4921Y-3.315
X6.5009Y-2.8445
X6.5105Y-3.328
X6.5186Y-3.1664
X6.5472Y-2.8209
X6.5748Y-3.3839
X6.5787Y-3.0669
X6.5846Y-3.2283
X6.5945Y-3.1043
X6.6457Y-3.3839
X6.6772Y-3.0413
X6.689Y-3.3346
X6.7047Y-3.2126
X6.7165Y-3.3839
X6.7283Y-3.313
X6.7874Y-3.3839
X6.8583Y-3.3839
X6.9291Y-3.3839
X7.0Y-3.3839
X7.1673Y-3.3563
X7.4744Y-2.998
X7.5138Y-2.8858
X7.5315Y-2.998
T2
X5.7776Y-2.813
X6.1634Y-2.7402
X6.1634Y-2.8839
X6.2008Y-2.7402
X6.2008Y-2.8898
X6.2539Y-2.813
X6.311Y-2.8031
X6.3701Y-2.6398
X6.3701Y-2.6732
X6.4075Y-2.689
X6.4373Y-2.6992
X6.4488Y-2.5512
X6.4488Y-2.5827
X6.4488Y-2.6142
X6.4554Y-2.6818
X6.5906Y-2.752
X6.5984Y-2.689
X6.628Y-2.689
X6.6535Y-2.5512
X6.6535Y-2.5827
X6.6535Y-2.6142
X6.6575Y-2.689
X6.9055Y-3.1496
X6.9567Y-3.25
X6.9567Y-3.315
X6.9961Y-3.3228
X7.0413Y-3.0827
X7.1024Y-3.1339
X7.1024Y-3.1732
X7.1024Y-3.2106
X7.103Y-3.3189
T3
X4.2372Y-3.0551
X4.2372Y-3.2441
X6.1142Y-3.6732
X6.1142Y-3.7126
X6.1142Y-3.752
X6.1535Y-3.6732
X6.1535Y-3.7126
X6.1535Y-3.752
X6.1791Y-3.1496
X6.1929Y-3.6732
X6.1929Y-3.7126
X6.1929Y-3.752
X6.2185Y-3.1102
X6.2185Y-3.189
X6.2323Y-3.6732
X6.2323Y-3.7126
X6.2323Y-3.752
X6.2579Y-3.0709
X6.2579Y-3.1496
X6.2579Y-3.2283
X6.2717Y-3.6732
X6.2717Y-3.7126
X6.2717Y-3.752
X6.2972Y-3.0315
X6.2972Y-3.1102
X6.2972Y-3.189
X6.2972Y-3.2677
X6.311Y-3.6732
X6.311Y-3.7126
X6.311Y-3.752
X6.3366Y-3.0709
X6.3366Y-3.1496
X6.3366Y-3.2283
X6.3504Y-3.6732
X6.3504Y-3.7126
X6.3504Y-3.752
X6.376Y-3.1102
X6.376Y-3.189
X6.3898Y-3.6732
X6.3898Y-3.7126
X6.3898Y-3.752
X6.4154Y-3.1496
X6.4291Y-3.6732
X6.4291Y-3.7126
X6.4291Y-3.752
X6.5551Y-3.4724
X6.5551Y-3.5315
X6.5551Y-3.5906
X6.5551Y-3.6496
X6.5551Y-3.7087
X6.7264Y-2.9114
X6.7618Y-2.9488
X6.8209Y-2.9488
X6.8819Y-2.9488
X6.9075Y-2.8406
X7.1476Y-2.8878
X7.1476Y-2.9252
X7.1909Y-3.128
X7.1909Y-3.1713
X7.2303Y-3.128
X7.2303Y-3.1713
X7.2697Y-3.128
X7.2697Y-3.1713
X7.2815Y-2.874
X7.3091Y-3.128
X7.3091Y-3.1713
X7.3209Y-2.874
X7.3602Y-2.7303
X7.3602Y-2.8031
X7.3602Y-2.874
X7.3681Y-3.1496
X7.6693Y-2.9252
X7.6693Y-3.0394
X7.6693Y-3.2598
X7.6693Y-3.374
X7.7126Y-2.9252
X7.7126Y-3.0394
X7.7126Y-3.2598
X7.7126Y-3.374
X7.7559Y-2.9252
X7.7559Y-3.0394
X7.7559Y-3.2598
X7.7559Y-3.374
X7.7992Y-2.9252
X7.7992Y-3.0394
X7.7992Y-3.2598
X7.7992Y-3.374
X7.8425Y-2.9252
X7.8425Y-3.0394
X7.8425Y-3.2598
X7.8425Y-3.374
T5
X7.3012Y-2.811
X6.2756Y-2.6909
X6.3898Y-3.5157
X6.872Y-3.0992
X6.872Y-3.1992
X6.872Y-3.2992
X5.9921Y-2.6969
X5.9921Y-2.7953
X5.9921Y-2.8937
X4.6732Y-2.6575
X4.7732Y-2.6575
X4.8732Y-2.6575
X4.9732Y-2.6575
X5.9921Y-3.4055
X5.9921Y-3.5039
X5.9921Y-3.6024
X6.2756Y-3.5157
X6.1614Y-3.5157
X7.3484Y-3.3445
X6.076Y-2.5866
X6.176Y-2.5866
X6.276Y-2.5866
X6.376Y-2.5866
T4
G00X3.9906Y-2.9795
M15
G01X4.022Y-2.9795
M16
G05
G00X3.9906Y-3.3197
M15
G01X4.022Y-3.3197
M16
G05
G00X4.1488Y-2.9795
M15
G01X4.1921Y-2.9795
M16
G05
G00X4.1488Y-3.3197
M15
G01X4.1921Y-3.3197
M16
G05
T0
M30
