G04 #@! TF.GenerationSoftware,KiCad,Pcbnew,5.1.5+dfsg1-2build2*
G04 #@! TF.CreationDate,2021-02-20T19:42:40+01:00*
G04 #@! TF.ProjectId,charge-hf,63686172-6765-42d6-9866-2e6b69636164,rev?*
G04 #@! TF.SameCoordinates,Original*
G04 #@! TF.FileFunction,Copper,L4,Bot*
G04 #@! TF.FilePolarity,Positive*
%FSLAX46Y46*%
G04 Gerber Fmt 4.6, Leading zero omitted, Abs format (unit mm)*
G04 Created by KiCad (PCBNEW 5.1.5+dfsg1-2build2) date 2021-02-20 19:42:40*
%MOMM*%
%LPD*%
G04 APERTURE LIST*
%ADD10C,4.000000*%
%ADD11C,1.800000*%
%ADD12O,1.700000X1.700000*%
%ADD13R,1.700000X1.700000*%
%ADD14R,5.080000X1.500000*%
%ADD15O,1.700000X0.900000*%
%ADD16O,2.000000X0.900000*%
%ADD17C,0.450000*%
%ADD18C,0.800000*%
%ADD19C,0.600000*%
%ADD20C,0.150000*%
%ADD21C,0.300000*%
%ADD22C,0.130000*%
G04 APERTURE END LIST*
D10*
X145200000Y-84600000D03*
X145200000Y-93400000D03*
D11*
X152200000Y-86500000D03*
X152200000Y-89000000D03*
X152200000Y-91500000D03*
D10*
X145200000Y-66600000D03*
X145200000Y-75400000D03*
D11*
X152200000Y-68500000D03*
X152200000Y-71000000D03*
X152200000Y-73500000D03*
D12*
X126320000Y-67500000D03*
X123780000Y-67500000D03*
X121240000Y-67500000D03*
D13*
X118700000Y-67500000D03*
X161950000Y-65700000D03*
D12*
X159410000Y-65700000D03*
X156870000Y-65700000D03*
X154330000Y-65700000D03*
D13*
X162300000Y-89300000D03*
X159400000Y-68350000D03*
X159400000Y-89300000D03*
D12*
X174550000Y-78720000D03*
X174550000Y-81260000D03*
D13*
X174550000Y-83800000D03*
D14*
X197250000Y-75750000D03*
X197250000Y-84250000D03*
D13*
X186650000Y-84950000D03*
X156500000Y-89300000D03*
X185450000Y-71400000D03*
D15*
X101760000Y-84320000D03*
X101760000Y-75680000D03*
D16*
X105930000Y-84320000D03*
X105930000Y-75680000D03*
D17*
X166300000Y-71650004D03*
X160781372Y-85147106D03*
D18*
X107625000Y-82400000D03*
X107625000Y-77600000D03*
D19*
X157500000Y-69600000D03*
X163966599Y-68116599D03*
X163506616Y-68559723D03*
X177700157Y-84398157D03*
D17*
X167500000Y-78850000D03*
X163113131Y-82897192D03*
X157837448Y-83937272D03*
X190850000Y-73300000D03*
X159588442Y-84984558D03*
X155650000Y-78200000D03*
X105100000Y-70900000D03*
X160573740Y-74726260D03*
X155300000Y-85000000D03*
X139046116Y-80000000D03*
X105100000Y-68750000D03*
D19*
X157500000Y-73400000D03*
D17*
X165572377Y-80426248D03*
X154650000Y-79550000D03*
D19*
X146750000Y-71450000D03*
D17*
X161617018Y-84340014D03*
X157429348Y-83529354D03*
X158700000Y-84700000D03*
X191300000Y-76150000D03*
X159900000Y-85950000D03*
X156150000Y-77750000D03*
X162048506Y-83956936D03*
X155000000Y-74823000D03*
X157100000Y-76800000D03*
X162303990Y-76328095D03*
X141050000Y-81600000D03*
X161437015Y-75395123D03*
X138700000Y-79050000D03*
X163199996Y-77250000D03*
X141050000Y-78400000D03*
X156650000Y-77250000D03*
X161877010Y-75800000D03*
X107450000Y-80250000D03*
X107450000Y-79250000D03*
X138700000Y-80950000D03*
X164350000Y-78300000D03*
X161200000Y-84750000D03*
X159699996Y-74900000D03*
X159075212Y-74572271D03*
X155250000Y-78650000D03*
X153808694Y-75139958D03*
X158407051Y-75139958D03*
X164900000Y-81000000D03*
X164153561Y-81746439D03*
X162350000Y-86850000D03*
X165123000Y-72250000D03*
X162675000Y-83275000D03*
X158243025Y-84347699D03*
X182050000Y-85249994D03*
X174200000Y-85950000D03*
X172400000Y-85950000D03*
X170600000Y-85950000D03*
X168800000Y-85950000D03*
X167000000Y-85950000D03*
D18*
X159950000Y-77000000D03*
X162950000Y-80000000D03*
X161950000Y-79000000D03*
X160950000Y-78000000D03*
X158950000Y-78000000D03*
X161950000Y-81000000D03*
X160950000Y-80000000D03*
X159950000Y-79000000D03*
X157950000Y-79000000D03*
X158950000Y-80000000D03*
X159950000Y-81000000D03*
X160950000Y-82000000D03*
X157950000Y-81000000D03*
X158950000Y-82000000D03*
X159950000Y-83000000D03*
X156950000Y-80000000D03*
D19*
X167600000Y-68300000D03*
X168350000Y-68300000D03*
X167400000Y-69900000D03*
X169100000Y-68300000D03*
X163800000Y-66400000D03*
X163800000Y-65600000D03*
X163800000Y-64800000D03*
X162750000Y-68300000D03*
X161800000Y-67050000D03*
X161800000Y-67900000D03*
X158850000Y-71450000D03*
X160300000Y-71200000D03*
X169000000Y-64800000D03*
X169000000Y-65600000D03*
X169000000Y-66400000D03*
D17*
X159550000Y-73400000D03*
X151300000Y-82200000D03*
X156000000Y-82800000D03*
X153600000Y-82500000D03*
X152500000Y-81400000D03*
X154700000Y-83600000D03*
X177800000Y-85950000D03*
X176000000Y-85950000D03*
D18*
X155300000Y-95300000D03*
X157300000Y-95300000D03*
X159300000Y-95300000D03*
X161300000Y-95300000D03*
X163300000Y-95300000D03*
X162300000Y-95300000D03*
X160300000Y-95300000D03*
X158300000Y-95300000D03*
X156300000Y-95300000D03*
X155300000Y-94300000D03*
X155300000Y-93300000D03*
X156300000Y-93300000D03*
X156300000Y-94300000D03*
X157300000Y-94300000D03*
X157300000Y-93300000D03*
X158300000Y-93300000D03*
X159300000Y-93300000D03*
X160300000Y-93300000D03*
X161300000Y-93300000D03*
X162300000Y-93300000D03*
X163300000Y-93300000D03*
X163300000Y-94300000D03*
X162300000Y-94300000D03*
X161300000Y-94300000D03*
X160300000Y-94300000D03*
X159300000Y-94300000D03*
X158300000Y-94300000D03*
D19*
X156550000Y-69600000D03*
X156550000Y-73250000D03*
D17*
X164900000Y-84200000D03*
X163600000Y-85500000D03*
X165366259Y-84531291D03*
X167250000Y-82000000D03*
X162751935Y-75248065D03*
X167100000Y-77900000D03*
X169600000Y-77250000D03*
X155850000Y-76350000D03*
X153450000Y-80050000D03*
X156900000Y-86600000D03*
X157600000Y-86950000D03*
X156700000Y-84600000D03*
X142650000Y-80000000D03*
X136850000Y-80000000D03*
X148900000Y-80850000D03*
D19*
X180400000Y-81550000D03*
X180400000Y-80600000D03*
X180400000Y-79600000D03*
X175400000Y-80000000D03*
X176700000Y-84200000D03*
X176700000Y-82550000D03*
X178850000Y-78300000D03*
X180415000Y-84300000D03*
D18*
X187150000Y-80000000D03*
D17*
X170900000Y-84150000D03*
X169900000Y-84700000D03*
D18*
X166500000Y-94200000D03*
X166500000Y-92700000D03*
X166500000Y-88200000D03*
X166500000Y-89700000D03*
X166500000Y-91200000D03*
X182650000Y-79450000D03*
X183650000Y-79450000D03*
X184650000Y-79450000D03*
X185650000Y-79450000D03*
X182650000Y-80550000D03*
X183650000Y-80550000D03*
X184650000Y-80550000D03*
X185650000Y-80550000D03*
X197000000Y-77200000D03*
X198100000Y-77200000D03*
X195900000Y-77200000D03*
X194800000Y-77200000D03*
X199200000Y-77200000D03*
X197000000Y-82800000D03*
X195900000Y-82800000D03*
X198100000Y-82800000D03*
X199200000Y-82800000D03*
X194800000Y-82800000D03*
X197000000Y-85700000D03*
X198100000Y-85700000D03*
X195900000Y-85700000D03*
X194800000Y-85700000D03*
X199200000Y-85700000D03*
X199200000Y-74300000D03*
X197000000Y-74300000D03*
X198100000Y-74300000D03*
X195900000Y-74300000D03*
X194800000Y-74300000D03*
X184950000Y-73000000D03*
X185950000Y-73000000D03*
X186950000Y-73000000D03*
X186950000Y-71200000D03*
X186950000Y-69350000D03*
X181550000Y-74300000D03*
X181550000Y-73350000D03*
X170850000Y-73950000D03*
X171750000Y-74900000D03*
X173250000Y-74900000D03*
X174800000Y-74900000D03*
X175450000Y-72150000D03*
D17*
X189850000Y-76150000D03*
X170300000Y-81600000D03*
D20*
X164845990Y-79062260D02*
X162250000Y-81658250D01*
X164695999Y-72454961D02*
X164845990Y-72604952D01*
X166300000Y-71650004D02*
X165091034Y-71650004D01*
X164845990Y-72604952D02*
X164845990Y-79062260D01*
X164695999Y-72045039D02*
X164695999Y-72454961D01*
X165091034Y-71650004D02*
X164695999Y-72045039D01*
X161460403Y-85177001D02*
X160827001Y-85177001D01*
X162475507Y-84161897D02*
X161460403Y-85177001D01*
X162475507Y-83757443D02*
X162475507Y-84161897D01*
X162247999Y-83529935D02*
X162475507Y-83757443D01*
X162247999Y-81660251D02*
X162247999Y-83529935D01*
X162250000Y-81658250D02*
X162247999Y-81660251D01*
X160827001Y-85177001D02*
X160800000Y-85150000D01*
X167500000Y-78850000D02*
X165841750Y-78850000D01*
X163113131Y-82578994D02*
X163113131Y-82897192D01*
X165841750Y-78850000D02*
X163113131Y-81578619D01*
X163113131Y-81578619D02*
X163113131Y-82578994D01*
X158038064Y-83920698D02*
X158550000Y-83920698D01*
X158021490Y-83937272D02*
X158038064Y-83920698D01*
X157837448Y-83937272D02*
X158021490Y-83937272D01*
X180835259Y-77572990D02*
X189477010Y-77572990D01*
X189477010Y-77572990D02*
X190850000Y-76200000D01*
X179072990Y-84127010D02*
X179072990Y-79335259D01*
X178000000Y-85200000D02*
X179072990Y-84127010D01*
X163100000Y-87300000D02*
X165200000Y-85200000D01*
X190850000Y-76200000D02*
X190850000Y-73618198D01*
X179072990Y-79335259D02*
X180835259Y-77572990D01*
X162168038Y-87300000D02*
X163100000Y-87300000D01*
X158550000Y-83918038D02*
X159600000Y-84968038D01*
X165200000Y-85200000D02*
X178000000Y-85200000D01*
X190850000Y-73618198D02*
X190850000Y-73300000D01*
X159600000Y-84968038D02*
X159600000Y-85050000D01*
X159918038Y-85050000D02*
X162168038Y-87300000D01*
X159600000Y-85050000D02*
X159918038Y-85050000D01*
X155650000Y-78200000D02*
X154591750Y-78200000D01*
X154591751Y-78200000D02*
X150487740Y-82304011D01*
X154591750Y-78200000D02*
X154591751Y-78200000D01*
X150487740Y-82304011D02*
X143550000Y-82304011D01*
X116504011Y-82304011D02*
X105324999Y-71124999D01*
X143550000Y-82304011D02*
X116504011Y-82304011D01*
X105324999Y-71124999D02*
X105100000Y-70900000D01*
X119950000Y-68750000D02*
X121250000Y-67450000D01*
X105050000Y-68750000D02*
X119950000Y-68750000D01*
D21*
X146750000Y-71450000D02*
X140900000Y-65600000D01*
X140900000Y-65600000D02*
X123150000Y-65600000D01*
X123150000Y-65600000D02*
X121200000Y-67550000D01*
D20*
X154330000Y-65700000D02*
X152150000Y-67880000D01*
X155875000Y-85350000D02*
X152200000Y-89025000D01*
X155875000Y-84451740D02*
X155875000Y-85350000D01*
X157224387Y-83102353D02*
X155875000Y-84451740D01*
X158227353Y-83102353D02*
X157224387Y-83102353D01*
X159447999Y-84322999D02*
X158227353Y-83102353D01*
X161404961Y-84322999D02*
X159447999Y-84322999D01*
X161421976Y-84340014D02*
X161404961Y-84322999D01*
X161617018Y-84340014D02*
X161421976Y-84340014D01*
X158924999Y-84924999D02*
X158700000Y-84700000D01*
X161600000Y-87600000D02*
X158924999Y-84924999D01*
X178091752Y-85500000D02*
X165300000Y-85500000D01*
X165300000Y-85500000D02*
X163200000Y-87600000D01*
X179350001Y-79450000D02*
X179350001Y-84241751D01*
X180950000Y-77850001D02*
X179350001Y-79450000D01*
X191300000Y-76150000D02*
X189600000Y-77850000D01*
X179350001Y-84241751D02*
X178091752Y-85500000D01*
X163200000Y-87600000D02*
X161600000Y-87600000D01*
X189600000Y-77850000D02*
X180950000Y-77850001D01*
X161865902Y-83956936D02*
X161821979Y-83913013D01*
X162048506Y-83956936D02*
X161865902Y-83956936D01*
X161821979Y-83913013D02*
X159438013Y-83913013D01*
X159438013Y-83913013D02*
X159225000Y-83700000D01*
X159091750Y-83575000D02*
X158342094Y-82825343D01*
X159100000Y-83575000D02*
X159091750Y-83575000D01*
X159225000Y-83700000D02*
X159100000Y-83575000D01*
X158342094Y-82825343D02*
X158342094Y-82817094D01*
X158342094Y-82825343D02*
X158325343Y-82825343D01*
X155000000Y-74823000D02*
X155000000Y-73850000D01*
X155000000Y-73850000D02*
X152200000Y-71050000D01*
X156300000Y-77900000D02*
X156200000Y-77800000D01*
X156300000Y-79504002D02*
X156300000Y-77900000D01*
X156347999Y-79552001D02*
X156300000Y-79504002D01*
X156347999Y-80831248D02*
X156347999Y-79552001D01*
X158342094Y-82825343D02*
X156347999Y-80831248D01*
X159229011Y-76120989D02*
X161503418Y-76120989D01*
X157100000Y-76800000D02*
X158550000Y-76800000D01*
X158550000Y-76800000D02*
X159229011Y-76120989D01*
X161985792Y-76328095D02*
X162303990Y-76328095D01*
X161503418Y-76120989D02*
X161710524Y-76328095D01*
X161710524Y-76328095D02*
X161985792Y-76328095D01*
X157100000Y-76800000D02*
X155208248Y-76800000D01*
X155208248Y-76800000D02*
X150258248Y-81750000D01*
X150258248Y-81750000D02*
X141150000Y-81750000D01*
X141150000Y-81750000D02*
X141050000Y-81650000D01*
X161118817Y-75395123D02*
X161437015Y-75395123D01*
X152741280Y-75566968D02*
X160946972Y-75566968D01*
X150612260Y-77695988D02*
X152741280Y-75566968D01*
X139950000Y-78476288D02*
X140730298Y-77695988D01*
X140730298Y-77695988D02*
X150612260Y-77695988D01*
X139950000Y-79650000D02*
X139950000Y-78476288D01*
X139850000Y-79750000D02*
X139950000Y-79650000D01*
X139400000Y-79750000D02*
X139850000Y-79750000D01*
X160946972Y-75566968D02*
X161118817Y-75395123D01*
X138700000Y-79050000D02*
X139400000Y-79750000D01*
X163199996Y-77250000D02*
X162200000Y-77250000D01*
X159343752Y-76398000D02*
X158491752Y-77250000D01*
X162200000Y-77250000D02*
X161348000Y-76398000D01*
X158491752Y-77250000D02*
X156968198Y-77250000D01*
X161348000Y-76398000D02*
X159343752Y-76398000D01*
X156968198Y-77250000D02*
X156650000Y-77250000D01*
X156500000Y-77100000D02*
X156650000Y-77250000D01*
X155300000Y-77100000D02*
X156500000Y-77100000D01*
X150372999Y-82027001D02*
X155300000Y-77100000D01*
X140845039Y-82027001D02*
X150372999Y-82027001D01*
X140622999Y-81804961D02*
X140845039Y-82027001D01*
X140622999Y-78827001D02*
X140622999Y-81804961D01*
X141050000Y-78400000D02*
X140622999Y-78827001D01*
X107450000Y-80250000D02*
X107450000Y-79250000D01*
X138700000Y-80950000D02*
X138700000Y-81000000D01*
X140000000Y-80250000D02*
X139400000Y-80250000D01*
X150727001Y-77972999D02*
X140845039Y-77972999D01*
X139400000Y-80250000D02*
X138700000Y-80950000D01*
X140250000Y-80000000D02*
X140000000Y-80250000D01*
X161877010Y-75800000D02*
X161833031Y-75843979D01*
X140845039Y-77972999D02*
X140250000Y-78568038D01*
X161833031Y-75843979D02*
X152856021Y-75843979D01*
X140250000Y-78568038D02*
X140250000Y-80000000D01*
X152856021Y-75843979D02*
X150727001Y-77972999D01*
X159450000Y-72550000D02*
X159450000Y-68400000D01*
X164350000Y-77450000D02*
X159450000Y-72550000D01*
X164350000Y-78300000D02*
X164350000Y-77450000D01*
X159474997Y-75124999D02*
X159024056Y-75124999D01*
X159699996Y-74900000D02*
X159474997Y-75124999D01*
X159024056Y-75124999D02*
X158022990Y-74123933D01*
X158022990Y-74123933D02*
X158022990Y-66822990D01*
X158022990Y-66822990D02*
X156900000Y-65700000D01*
X159400000Y-65700000D02*
X158300000Y-66800000D01*
X158300000Y-66800000D02*
X158300000Y-73797059D01*
X158850213Y-74347272D02*
X159075212Y-74572271D01*
X158300000Y-73797059D02*
X158850213Y-74347272D01*
X141450000Y-67450000D02*
X149139958Y-75139958D01*
X126300000Y-67450000D02*
X141450000Y-67450000D01*
X149139958Y-75139958D02*
X153490496Y-75139958D01*
X153490496Y-75139958D02*
X153808694Y-75139958D01*
X158297009Y-75250000D02*
X158407051Y-75139958D01*
X153497713Y-74818975D02*
X153603732Y-74712956D01*
X149218975Y-74818975D02*
X153497713Y-74818975D01*
X141423038Y-67023038D02*
X149218975Y-74818975D01*
X154600000Y-75250000D02*
X158297009Y-75250000D01*
X154062956Y-74712956D02*
X154600000Y-75250000D01*
X153603732Y-74712956D02*
X154062956Y-74712956D01*
X127400000Y-67023038D02*
X141423038Y-67023038D01*
X124852001Y-66447999D02*
X126824961Y-66447999D01*
X126824961Y-66447999D02*
X127400000Y-67023038D01*
X123800000Y-67500000D02*
X124852001Y-66447999D01*
X162574999Y-86625001D02*
X162350000Y-86850000D01*
X165123000Y-79177002D02*
X162575000Y-81725002D01*
X165123000Y-72250000D02*
X165123000Y-79177002D01*
X162575000Y-81725002D02*
X162575000Y-83325000D01*
X162675000Y-83275000D02*
X162675000Y-83325000D01*
X162675000Y-83325000D02*
X162752517Y-83402517D01*
X162752517Y-83402517D02*
X162752517Y-86447483D01*
X162752517Y-86447483D02*
X162550000Y-86650000D01*
X161000000Y-88100000D02*
X158250000Y-85350000D01*
X180899994Y-86400000D02*
X165400000Y-86400000D01*
X158250000Y-85350000D02*
X158250000Y-84350000D01*
X163700000Y-88100000D02*
X161000000Y-88100000D01*
X165400000Y-86400000D02*
X163700000Y-88100000D01*
X182050000Y-85249994D02*
X180899994Y-86400000D01*
X189850000Y-76150000D02*
X189850000Y-76800000D01*
X189850000Y-76800000D02*
X189354020Y-77295980D01*
X189354020Y-77295980D02*
X180720518Y-77295980D01*
X180720518Y-77295980D02*
X178795980Y-79220518D01*
X178795980Y-79220518D02*
X178795980Y-83620520D01*
X178795980Y-83620520D02*
X178795980Y-84012270D01*
X178795980Y-84012270D02*
X177885260Y-84922990D01*
X177885260Y-84922990D02*
X170922990Y-84922990D01*
X170922990Y-84922990D02*
X170300000Y-84300000D01*
X170300000Y-84300000D02*
X170300000Y-81600000D01*
D22*
G36*
X197990709Y-64190000D02*
G01*
X198351385Y-64225365D01*
X198689391Y-64327415D01*
X199001135Y-64493173D01*
X199274746Y-64716324D01*
X199499804Y-64988372D01*
X199667732Y-65298950D01*
X199772138Y-65636232D01*
X199809986Y-65996323D01*
X199810000Y-66000382D01*
X199810001Y-73570825D01*
X199725061Y-73559643D01*
X199700000Y-73558000D01*
X194943303Y-73558000D01*
X194919753Y-73559450D01*
X194798020Y-73574495D01*
X194752335Y-73585963D01*
X194637928Y-73630194D01*
X194596411Y-73652438D01*
X194496215Y-73723192D01*
X194477814Y-73737962D01*
X194234511Y-73959147D01*
X194216094Y-73978386D01*
X194127564Y-74084748D01*
X194099547Y-74129903D01*
X194043563Y-74256458D01*
X194028997Y-74307563D01*
X194009847Y-74444616D01*
X194008000Y-74471185D01*
X194008000Y-85492893D01*
X194009643Y-85517954D01*
X194026680Y-85647364D01*
X194039652Y-85695778D01*
X194089602Y-85816368D01*
X194114663Y-85859775D01*
X194194123Y-85963329D01*
X194210682Y-85982212D01*
X194467788Y-86239318D01*
X194486671Y-86255877D01*
X194590225Y-86335337D01*
X194633632Y-86360398D01*
X194754222Y-86410348D01*
X194802636Y-86423320D01*
X194932046Y-86440357D01*
X194957107Y-86442000D01*
X199700000Y-86442000D01*
X199725061Y-86440357D01*
X199810001Y-86429174D01*
X199810002Y-93990699D01*
X199774636Y-94351387D01*
X199672586Y-94689393D01*
X199506829Y-95001136D01*
X199283677Y-95274747D01*
X199011627Y-95499805D01*
X198701052Y-95667732D01*
X198363768Y-95772139D01*
X198003676Y-95809987D01*
X197999903Y-95810000D01*
X102009301Y-95810002D01*
X101648613Y-95774636D01*
X101310607Y-95672586D01*
X100998864Y-95506829D01*
X100725253Y-95283677D01*
X100500195Y-95011627D01*
X100332268Y-94701052D01*
X100227861Y-94363768D01*
X100190013Y-94003676D01*
X100190000Y-93999903D01*
X100190000Y-93184107D01*
X143008000Y-93184107D01*
X143008000Y-93615893D01*
X143092237Y-94039383D01*
X143257475Y-94438301D01*
X143497363Y-94797318D01*
X143802682Y-95102637D01*
X144161699Y-95342525D01*
X144560617Y-95507763D01*
X144984107Y-95592000D01*
X145415893Y-95592000D01*
X145839383Y-95507763D01*
X146238301Y-95342525D01*
X146597318Y-95102637D01*
X146902637Y-94797318D01*
X147142525Y-94438301D01*
X147265384Y-94141693D01*
X165908000Y-94141693D01*
X165908000Y-94258307D01*
X165930751Y-94372680D01*
X165975377Y-94480417D01*
X166040164Y-94577378D01*
X166122622Y-94659836D01*
X166219583Y-94724623D01*
X166327320Y-94769249D01*
X166441693Y-94792000D01*
X166558307Y-94792000D01*
X166672680Y-94769249D01*
X166780417Y-94724623D01*
X166877378Y-94659836D01*
X166959836Y-94577378D01*
X167024623Y-94480417D01*
X167069249Y-94372680D01*
X167092000Y-94258307D01*
X167092000Y-94141693D01*
X167069249Y-94027320D01*
X167024623Y-93919583D01*
X166959836Y-93822622D01*
X166877378Y-93740164D01*
X166780417Y-93675377D01*
X166672680Y-93630751D01*
X166558307Y-93608000D01*
X166441693Y-93608000D01*
X166327320Y-93630751D01*
X166219583Y-93675377D01*
X166122622Y-93740164D01*
X166040164Y-93822622D01*
X165975377Y-93919583D01*
X165930751Y-94027320D01*
X165908000Y-94141693D01*
X147265384Y-94141693D01*
X147307763Y-94039383D01*
X147392000Y-93615893D01*
X147392000Y-93184107D01*
X147307763Y-92760617D01*
X147258503Y-92641693D01*
X165908000Y-92641693D01*
X165908000Y-92758307D01*
X165930751Y-92872680D01*
X165975377Y-92980417D01*
X166040164Y-93077378D01*
X166122622Y-93159836D01*
X166219583Y-93224623D01*
X166327320Y-93269249D01*
X166441693Y-93292000D01*
X166558307Y-93292000D01*
X166672680Y-93269249D01*
X166780417Y-93224623D01*
X166877378Y-93159836D01*
X166959836Y-93077378D01*
X167024623Y-92980417D01*
X167069249Y-92872680D01*
X167092000Y-92758307D01*
X167092000Y-92641693D01*
X167069249Y-92527320D01*
X167024623Y-92419583D01*
X166959836Y-92322622D01*
X166877378Y-92240164D01*
X166780417Y-92175377D01*
X166672680Y-92130751D01*
X166558307Y-92108000D01*
X166441693Y-92108000D01*
X166327320Y-92130751D01*
X166219583Y-92175377D01*
X166122622Y-92240164D01*
X166040164Y-92322622D01*
X165975377Y-92419583D01*
X165930751Y-92527320D01*
X165908000Y-92641693D01*
X147258503Y-92641693D01*
X147142525Y-92361699D01*
X147133911Y-92348807D01*
X151618479Y-92348807D01*
X151733771Y-92463254D01*
X151930652Y-92535702D01*
X152137883Y-92568349D01*
X152347501Y-92559939D01*
X152551450Y-92510796D01*
X152666229Y-92463254D01*
X152781521Y-92348807D01*
X152200000Y-91767286D01*
X151618479Y-92348807D01*
X147133911Y-92348807D01*
X146902637Y-92002682D01*
X146597318Y-91697363D01*
X146238301Y-91457475D01*
X146191002Y-91437883D01*
X151131651Y-91437883D01*
X151140061Y-91647501D01*
X151189204Y-91851450D01*
X151236746Y-91966229D01*
X151351193Y-92081521D01*
X151932714Y-91500000D01*
X152467286Y-91500000D01*
X153048807Y-92081521D01*
X153163254Y-91966229D01*
X153235702Y-91769348D01*
X153268349Y-91562117D01*
X153259939Y-91352499D01*
X153210796Y-91148550D01*
X153207956Y-91141693D01*
X165908000Y-91141693D01*
X165908000Y-91258307D01*
X165930751Y-91372680D01*
X165975377Y-91480417D01*
X166040164Y-91577378D01*
X166122622Y-91659836D01*
X166219583Y-91724623D01*
X166327320Y-91769249D01*
X166441693Y-91792000D01*
X166558307Y-91792000D01*
X166672680Y-91769249D01*
X166780417Y-91724623D01*
X166877378Y-91659836D01*
X166959836Y-91577378D01*
X167024623Y-91480417D01*
X167069249Y-91372680D01*
X167092000Y-91258307D01*
X167092000Y-91141693D01*
X167069249Y-91027320D01*
X167024623Y-90919583D01*
X166959836Y-90822622D01*
X166877378Y-90740164D01*
X166780417Y-90675377D01*
X166672680Y-90630751D01*
X166558307Y-90608000D01*
X166441693Y-90608000D01*
X166327320Y-90630751D01*
X166219583Y-90675377D01*
X166122622Y-90740164D01*
X166040164Y-90822622D01*
X165975377Y-90919583D01*
X165930751Y-91027320D01*
X165908000Y-91141693D01*
X153207956Y-91141693D01*
X153163254Y-91033771D01*
X153048807Y-90918479D01*
X152467286Y-91500000D01*
X151932714Y-91500000D01*
X151351193Y-90918479D01*
X151236746Y-91033771D01*
X151164298Y-91230652D01*
X151131651Y-91437883D01*
X146191002Y-91437883D01*
X145839383Y-91292237D01*
X145415893Y-91208000D01*
X144984107Y-91208000D01*
X144560617Y-91292237D01*
X144161699Y-91457475D01*
X143802682Y-91697363D01*
X143497363Y-92002682D01*
X143257475Y-92361699D01*
X143092237Y-92760617D01*
X143008000Y-93184107D01*
X100190000Y-93184107D01*
X100190000Y-90651193D01*
X151618479Y-90651193D01*
X152200000Y-91232714D01*
X152781521Y-90651193D01*
X152666229Y-90536746D01*
X152469348Y-90464298D01*
X152262117Y-90431651D01*
X152052499Y-90440061D01*
X151848550Y-90489204D01*
X151733771Y-90536746D01*
X151618479Y-90651193D01*
X100190000Y-90651193D01*
X100190000Y-84598224D01*
X100811533Y-84598224D01*
X100861176Y-84726351D01*
X100950036Y-84815859D01*
X101054651Y-84886311D01*
X101171000Y-84935000D01*
X101571000Y-84935000D01*
X101571000Y-84509000D01*
X101949000Y-84509000D01*
X101949000Y-84935000D01*
X102349000Y-84935000D01*
X102465349Y-84886311D01*
X102569964Y-84815859D01*
X102658824Y-84726351D01*
X102708467Y-84598224D01*
X104831533Y-84598224D01*
X104881176Y-84726351D01*
X104970036Y-84815859D01*
X105074651Y-84886311D01*
X105191000Y-84935000D01*
X105741000Y-84935000D01*
X105741000Y-84509000D01*
X106119000Y-84509000D01*
X106119000Y-84935000D01*
X106669000Y-84935000D01*
X106785349Y-84886311D01*
X106889964Y-84815859D01*
X106978824Y-84726351D01*
X107028467Y-84598224D01*
X107021727Y-84509000D01*
X106119000Y-84509000D01*
X105741000Y-84509000D01*
X104838273Y-84509000D01*
X104831533Y-84598224D01*
X102708467Y-84598224D01*
X102701727Y-84509000D01*
X101949000Y-84509000D01*
X101571000Y-84509000D01*
X100818273Y-84509000D01*
X100811533Y-84598224D01*
X100190000Y-84598224D01*
X100190000Y-84041776D01*
X100811533Y-84041776D01*
X100818273Y-84131000D01*
X101571000Y-84131000D01*
X101571000Y-83705000D01*
X101949000Y-83705000D01*
X101949000Y-84131000D01*
X102701727Y-84131000D01*
X102708467Y-84041776D01*
X104831533Y-84041776D01*
X104838273Y-84131000D01*
X105741000Y-84131000D01*
X105741000Y-83705000D01*
X106119000Y-83705000D01*
X106119000Y-84131000D01*
X107021727Y-84131000D01*
X107028467Y-84041776D01*
X106978824Y-83913649D01*
X106889964Y-83824141D01*
X106785349Y-83753689D01*
X106669000Y-83705000D01*
X106119000Y-83705000D01*
X105741000Y-83705000D01*
X105191000Y-83705000D01*
X105074651Y-83753689D01*
X104970036Y-83824141D01*
X104881176Y-83913649D01*
X104831533Y-84041776D01*
X102708467Y-84041776D01*
X102658824Y-83913649D01*
X102569964Y-83824141D01*
X102465349Y-83753689D01*
X102349000Y-83705000D01*
X101949000Y-83705000D01*
X101571000Y-83705000D01*
X101171000Y-83705000D01*
X101054651Y-83753689D01*
X100950036Y-83824141D01*
X100861176Y-83913649D01*
X100811533Y-84041776D01*
X100190000Y-84041776D01*
X100190000Y-82841542D01*
X104958000Y-82841542D01*
X104958000Y-82938458D01*
X104976907Y-83033511D01*
X105013995Y-83123050D01*
X105067838Y-83203632D01*
X105136368Y-83272162D01*
X105216950Y-83326005D01*
X105306489Y-83363093D01*
X105401542Y-83382000D01*
X105498458Y-83382000D01*
X105593511Y-83363093D01*
X105683050Y-83326005D01*
X105763632Y-83272162D01*
X105832162Y-83203632D01*
X105886005Y-83123050D01*
X105923093Y-83033511D01*
X105942000Y-82938458D01*
X105942000Y-82841542D01*
X105923093Y-82746489D01*
X105886005Y-82656950D01*
X105832162Y-82576368D01*
X105763632Y-82507838D01*
X105683050Y-82453995D01*
X105593511Y-82416907D01*
X105498458Y-82398000D01*
X105401542Y-82398000D01*
X105306489Y-82416907D01*
X105216950Y-82453995D01*
X105136368Y-82507838D01*
X105067838Y-82576368D01*
X105013995Y-82656950D01*
X104976907Y-82746489D01*
X104958000Y-82841542D01*
X100190000Y-82841542D01*
X100190000Y-82341693D01*
X107033000Y-82341693D01*
X107033000Y-82458307D01*
X107055751Y-82572680D01*
X107100377Y-82680417D01*
X107165164Y-82777378D01*
X107247622Y-82859836D01*
X107344583Y-82924623D01*
X107452320Y-82969249D01*
X107566693Y-82992000D01*
X107683307Y-82992000D01*
X107797680Y-82969249D01*
X107905417Y-82924623D01*
X108002378Y-82859836D01*
X108084836Y-82777378D01*
X108149623Y-82680417D01*
X108194249Y-82572680D01*
X108217000Y-82458307D01*
X108217000Y-82341693D01*
X108194249Y-82227320D01*
X108149623Y-82119583D01*
X108084836Y-82022622D01*
X108002378Y-81940164D01*
X107905417Y-81875377D01*
X107797680Y-81830751D01*
X107683307Y-81808000D01*
X107566693Y-81808000D01*
X107452320Y-81830751D01*
X107344583Y-81875377D01*
X107247622Y-81940164D01*
X107165164Y-82022622D01*
X107100377Y-82119583D01*
X107055751Y-82227320D01*
X107033000Y-82341693D01*
X100190000Y-82341693D01*
X100190000Y-79208929D01*
X107033000Y-79208929D01*
X107033000Y-79291071D01*
X107049025Y-79371635D01*
X107080459Y-79447524D01*
X107126095Y-79515822D01*
X107183001Y-79572728D01*
X107183000Y-79927273D01*
X107126095Y-79984178D01*
X107080459Y-80052476D01*
X107049025Y-80128365D01*
X107033000Y-80208929D01*
X107033000Y-80291071D01*
X107049025Y-80371635D01*
X107080459Y-80447524D01*
X107126095Y-80515822D01*
X107184178Y-80573905D01*
X107252476Y-80619541D01*
X107328365Y-80650975D01*
X107408929Y-80667000D01*
X107491071Y-80667000D01*
X107571635Y-80650975D01*
X107647524Y-80619541D01*
X107715822Y-80573905D01*
X107773905Y-80515822D01*
X107819541Y-80447524D01*
X107850975Y-80371635D01*
X107867000Y-80291071D01*
X107867000Y-80208929D01*
X107850975Y-80128365D01*
X107819541Y-80052476D01*
X107773905Y-79984178D01*
X107717000Y-79927273D01*
X107717000Y-79572727D01*
X107773905Y-79515822D01*
X107819541Y-79447524D01*
X107850975Y-79371635D01*
X107867000Y-79291071D01*
X107867000Y-79208929D01*
X107850975Y-79128365D01*
X107819541Y-79052476D01*
X107773905Y-78984178D01*
X107715822Y-78926095D01*
X107647524Y-78880459D01*
X107571635Y-78849025D01*
X107491071Y-78833000D01*
X107408929Y-78833000D01*
X107328365Y-78849025D01*
X107252476Y-78880459D01*
X107184178Y-78926095D01*
X107126095Y-78984178D01*
X107080459Y-79052476D01*
X107049025Y-79128365D01*
X107033000Y-79208929D01*
X100190000Y-79208929D01*
X100190000Y-77061542D01*
X104958000Y-77061542D01*
X104958000Y-77158458D01*
X104976907Y-77253511D01*
X105013995Y-77343050D01*
X105067838Y-77423632D01*
X105136368Y-77492162D01*
X105216950Y-77546005D01*
X105306489Y-77583093D01*
X105401542Y-77602000D01*
X105498458Y-77602000D01*
X105593511Y-77583093D01*
X105683050Y-77546005D01*
X105689503Y-77541693D01*
X107033000Y-77541693D01*
X107033000Y-77658307D01*
X107055751Y-77772680D01*
X107100377Y-77880417D01*
X107165164Y-77977378D01*
X107247622Y-78059836D01*
X107344583Y-78124623D01*
X107452320Y-78169249D01*
X107566693Y-78192000D01*
X107683307Y-78192000D01*
X107797680Y-78169249D01*
X107905417Y-78124623D01*
X108002378Y-78059836D01*
X108084836Y-77977378D01*
X108149623Y-77880417D01*
X108194249Y-77772680D01*
X108217000Y-77658307D01*
X108217000Y-77541693D01*
X108194249Y-77427320D01*
X108149623Y-77319583D01*
X108084836Y-77222622D01*
X108002378Y-77140164D01*
X107905417Y-77075377D01*
X107797680Y-77030751D01*
X107683307Y-77008000D01*
X107566693Y-77008000D01*
X107452320Y-77030751D01*
X107344583Y-77075377D01*
X107247622Y-77140164D01*
X107165164Y-77222622D01*
X107100377Y-77319583D01*
X107055751Y-77427320D01*
X107033000Y-77541693D01*
X105689503Y-77541693D01*
X105763632Y-77492162D01*
X105832162Y-77423632D01*
X105886005Y-77343050D01*
X105923093Y-77253511D01*
X105942000Y-77158458D01*
X105942000Y-77061542D01*
X105923093Y-76966489D01*
X105886005Y-76876950D01*
X105832162Y-76796368D01*
X105763632Y-76727838D01*
X105683050Y-76673995D01*
X105593511Y-76636907D01*
X105498458Y-76618000D01*
X105401542Y-76618000D01*
X105306489Y-76636907D01*
X105216950Y-76673995D01*
X105136368Y-76727838D01*
X105067838Y-76796368D01*
X105013995Y-76876950D01*
X104976907Y-76966489D01*
X104958000Y-77061542D01*
X100190000Y-77061542D01*
X100190000Y-75958224D01*
X100811533Y-75958224D01*
X100861176Y-76086351D01*
X100950036Y-76175859D01*
X101054651Y-76246311D01*
X101171000Y-76295000D01*
X101571000Y-76295000D01*
X101571000Y-75869000D01*
X101949000Y-75869000D01*
X101949000Y-76295000D01*
X102349000Y-76295000D01*
X102465349Y-76246311D01*
X102569964Y-76175859D01*
X102658824Y-76086351D01*
X102708467Y-75958224D01*
X104831533Y-75958224D01*
X104881176Y-76086351D01*
X104970036Y-76175859D01*
X105074651Y-76246311D01*
X105191000Y-76295000D01*
X105741000Y-76295000D01*
X105741000Y-75869000D01*
X106119000Y-75869000D01*
X106119000Y-76295000D01*
X106669000Y-76295000D01*
X106785349Y-76246311D01*
X106889964Y-76175859D01*
X106978824Y-76086351D01*
X107028467Y-75958224D01*
X107021727Y-75869000D01*
X106119000Y-75869000D01*
X105741000Y-75869000D01*
X104838273Y-75869000D01*
X104831533Y-75958224D01*
X102708467Y-75958224D01*
X102701727Y-75869000D01*
X101949000Y-75869000D01*
X101571000Y-75869000D01*
X100818273Y-75869000D01*
X100811533Y-75958224D01*
X100190000Y-75958224D01*
X100190000Y-75401776D01*
X100811533Y-75401776D01*
X100818273Y-75491000D01*
X101571000Y-75491000D01*
X101571000Y-75065000D01*
X101949000Y-75065000D01*
X101949000Y-75491000D01*
X102701727Y-75491000D01*
X102708467Y-75401776D01*
X104831533Y-75401776D01*
X104838273Y-75491000D01*
X105741000Y-75491000D01*
X105741000Y-75065000D01*
X106119000Y-75065000D01*
X106119000Y-75491000D01*
X107021727Y-75491000D01*
X107028467Y-75401776D01*
X106978824Y-75273649D01*
X106889964Y-75184141D01*
X106785349Y-75113689D01*
X106669000Y-75065000D01*
X106119000Y-75065000D01*
X105741000Y-75065000D01*
X105191000Y-75065000D01*
X105074651Y-75113689D01*
X104970036Y-75184141D01*
X104881176Y-75273649D01*
X104831533Y-75401776D01*
X102708467Y-75401776D01*
X102658824Y-75273649D01*
X102569964Y-75184141D01*
X102465349Y-75113689D01*
X102349000Y-75065000D01*
X101949000Y-75065000D01*
X101571000Y-75065000D01*
X101171000Y-75065000D01*
X101054651Y-75113689D01*
X100950036Y-75184141D01*
X100861176Y-75273649D01*
X100811533Y-75401776D01*
X100190000Y-75401776D01*
X100189999Y-68708929D01*
X104683000Y-68708929D01*
X104683000Y-68791071D01*
X104699025Y-68871635D01*
X104730459Y-68947524D01*
X104776095Y-69015822D01*
X104834178Y-69073905D01*
X104902476Y-69119541D01*
X104978365Y-69150975D01*
X105058929Y-69167000D01*
X105141071Y-69167000D01*
X105221635Y-69150975D01*
X105297524Y-69119541D01*
X105365822Y-69073905D01*
X105422727Y-69017000D01*
X119936902Y-69017000D01*
X119950000Y-69018290D01*
X119963098Y-69017000D01*
X119963108Y-69017000D01*
X120002341Y-69013136D01*
X120052671Y-68997869D01*
X120099054Y-68973076D01*
X120139710Y-68939710D01*
X120148067Y-68929527D01*
X120691133Y-68386462D01*
X120746428Y-68423409D01*
X120936060Y-68501957D01*
X121137372Y-68542000D01*
X121342628Y-68542000D01*
X121543940Y-68501957D01*
X121733572Y-68423409D01*
X121904236Y-68309374D01*
X122049374Y-68164236D01*
X122163409Y-67993572D01*
X122241957Y-67803940D01*
X122282000Y-67602628D01*
X122282000Y-67397372D01*
X122241957Y-67196060D01*
X122182102Y-67051558D01*
X123291661Y-65942000D01*
X140758340Y-65942000D01*
X146258000Y-71441661D01*
X146258000Y-71480405D01*
X141621103Y-66843509D01*
X141612748Y-66833328D01*
X141572092Y-66799962D01*
X141525709Y-66775169D01*
X141475379Y-66759902D01*
X141436146Y-66756038D01*
X141436136Y-66756038D01*
X141423038Y-66754748D01*
X141409940Y-66756038D01*
X127510595Y-66756038D01*
X127023028Y-66268472D01*
X127014671Y-66258289D01*
X126974015Y-66224923D01*
X126927632Y-66200130D01*
X126877302Y-66184863D01*
X126838069Y-66180999D01*
X126838059Y-66180999D01*
X126824961Y-66179709D01*
X126811863Y-66180999D01*
X124865098Y-66180999D01*
X124852000Y-66179709D01*
X124838902Y-66180999D01*
X124838893Y-66180999D01*
X124799660Y-66184863D01*
X124749330Y-66200130D01*
X124702947Y-66224923D01*
X124702945Y-66224924D01*
X124702946Y-66224924D01*
X124672472Y-66249933D01*
X124672469Y-66249936D01*
X124662291Y-66258289D01*
X124653938Y-66268467D01*
X124316878Y-66605527D01*
X124273572Y-66576591D01*
X124083940Y-66498043D01*
X123882628Y-66458000D01*
X123677372Y-66458000D01*
X123476060Y-66498043D01*
X123286428Y-66576591D01*
X123115764Y-66690626D01*
X122970626Y-66835764D01*
X122856591Y-67006428D01*
X122778043Y-67196060D01*
X122738000Y-67397372D01*
X122738000Y-67602628D01*
X122778043Y-67803940D01*
X122856591Y-67993572D01*
X122970626Y-68164236D01*
X123115764Y-68309374D01*
X123286428Y-68423409D01*
X123476060Y-68501957D01*
X123677372Y-68542000D01*
X123882628Y-68542000D01*
X124083940Y-68501957D01*
X124273572Y-68423409D01*
X124444236Y-68309374D01*
X124589374Y-68164236D01*
X124703409Y-67993572D01*
X124781957Y-67803940D01*
X124822000Y-67602628D01*
X124822000Y-67397372D01*
X124781957Y-67196060D01*
X124703409Y-67006428D01*
X124690494Y-66987100D01*
X124962596Y-66714999D01*
X125631391Y-66714999D01*
X125510626Y-66835764D01*
X125396591Y-67006428D01*
X125318043Y-67196060D01*
X125278000Y-67397372D01*
X125278000Y-67602628D01*
X125318043Y-67803940D01*
X125396591Y-67993572D01*
X125510626Y-68164236D01*
X125655764Y-68309374D01*
X125826428Y-68423409D01*
X126016060Y-68501957D01*
X126217372Y-68542000D01*
X126422628Y-68542000D01*
X126623940Y-68501957D01*
X126813572Y-68423409D01*
X126984236Y-68309374D01*
X127129374Y-68164236D01*
X127243409Y-67993572D01*
X127321957Y-67803940D01*
X127339250Y-67717000D01*
X141339406Y-67717000D01*
X148941895Y-75319490D01*
X148950248Y-75329668D01*
X148960426Y-75338021D01*
X148960429Y-75338024D01*
X148983393Y-75356870D01*
X148990904Y-75363034D01*
X149037287Y-75387827D01*
X149087617Y-75403094D01*
X149126850Y-75406958D01*
X149126860Y-75406958D01*
X149139958Y-75408248D01*
X149153056Y-75406958D01*
X152523695Y-75406958D01*
X150501666Y-77428988D01*
X146029562Y-77428988D01*
X146238301Y-77342525D01*
X146597318Y-77102637D01*
X146902637Y-76797318D01*
X147142525Y-76438301D01*
X147307763Y-76039383D01*
X147392000Y-75615893D01*
X147392000Y-75184107D01*
X147307763Y-74760617D01*
X147142525Y-74361699D01*
X146902637Y-74002682D01*
X146597318Y-73697363D01*
X146238301Y-73457475D01*
X145839383Y-73292237D01*
X145415893Y-73208000D01*
X144984107Y-73208000D01*
X144560617Y-73292237D01*
X144161699Y-73457475D01*
X143802682Y-73697363D01*
X143497363Y-74002682D01*
X143257475Y-74361699D01*
X143092237Y-74760617D01*
X143008000Y-75184107D01*
X143008000Y-75615893D01*
X143092237Y-76039383D01*
X143257475Y-76438301D01*
X143497363Y-76797318D01*
X143802682Y-77102637D01*
X144161699Y-77342525D01*
X144370438Y-77428988D01*
X140743395Y-77428988D01*
X140730297Y-77427698D01*
X140717199Y-77428988D01*
X140717190Y-77428988D01*
X140677957Y-77432852D01*
X140627627Y-77448119D01*
X140587234Y-77469710D01*
X140581242Y-77472913D01*
X140550834Y-77497869D01*
X140540588Y-77506278D01*
X140532235Y-77516456D01*
X139770469Y-78278225D01*
X139760291Y-78286578D01*
X139751938Y-78296756D01*
X139751934Y-78296760D01*
X139726924Y-78327234D01*
X139702131Y-78373618D01*
X139686865Y-78423947D01*
X139681710Y-78476288D01*
X139683001Y-78489396D01*
X139683000Y-79483000D01*
X139510595Y-79483000D01*
X139117000Y-79089406D01*
X139117000Y-79008929D01*
X139100975Y-78928365D01*
X139069541Y-78852476D01*
X139023905Y-78784178D01*
X138965822Y-78726095D01*
X138897524Y-78680459D01*
X138821635Y-78649025D01*
X138741071Y-78633000D01*
X138658929Y-78633000D01*
X138578365Y-78649025D01*
X138502476Y-78680459D01*
X138434178Y-78726095D01*
X138376095Y-78784178D01*
X138330459Y-78852476D01*
X138299025Y-78928365D01*
X138283000Y-79008929D01*
X138283000Y-79091071D01*
X138299025Y-79171635D01*
X138330459Y-79247524D01*
X138376095Y-79315822D01*
X138434178Y-79373905D01*
X138502476Y-79419541D01*
X138578365Y-79450975D01*
X138658929Y-79467000D01*
X138739406Y-79467000D01*
X138886969Y-79614563D01*
X138848592Y-79630459D01*
X138780294Y-79676095D01*
X138722211Y-79734178D01*
X138676575Y-79802476D01*
X138645141Y-79878365D01*
X138629116Y-79958929D01*
X138629116Y-80041071D01*
X138645141Y-80121635D01*
X138676575Y-80197524D01*
X138722211Y-80265822D01*
X138780294Y-80323905D01*
X138848592Y-80369541D01*
X138886969Y-80385437D01*
X138739406Y-80533000D01*
X138658929Y-80533000D01*
X138578365Y-80549025D01*
X138502476Y-80580459D01*
X138434178Y-80626095D01*
X138376095Y-80684178D01*
X138330459Y-80752476D01*
X138299025Y-80828365D01*
X138283000Y-80908929D01*
X138283000Y-80991071D01*
X138299025Y-81071635D01*
X138330459Y-81147524D01*
X138376095Y-81215822D01*
X138434178Y-81273905D01*
X138502476Y-81319541D01*
X138578365Y-81350975D01*
X138658929Y-81367000D01*
X138741071Y-81367000D01*
X138821635Y-81350975D01*
X138897524Y-81319541D01*
X138965822Y-81273905D01*
X139023905Y-81215822D01*
X139069541Y-81147524D01*
X139100975Y-81071635D01*
X139117000Y-80991071D01*
X139117000Y-80910594D01*
X139510595Y-80517000D01*
X139986902Y-80517000D01*
X140000000Y-80518290D01*
X140013098Y-80517000D01*
X140013108Y-80517000D01*
X140052341Y-80513136D01*
X140102671Y-80497869D01*
X140149054Y-80473076D01*
X140189710Y-80439710D01*
X140198067Y-80429527D01*
X140355999Y-80271595D01*
X140356000Y-81791853D01*
X140354709Y-81804961D01*
X140359864Y-81857302D01*
X140375130Y-81907631D01*
X140399924Y-81954015D01*
X140424933Y-81984489D01*
X140424937Y-81984493D01*
X140433290Y-81994671D01*
X140443468Y-82003024D01*
X140477455Y-82037011D01*
X116614606Y-82037011D01*
X105523070Y-70945476D01*
X105523065Y-70945470D01*
X105517000Y-70939405D01*
X105517000Y-70858929D01*
X105500975Y-70778365D01*
X105469541Y-70702476D01*
X105423905Y-70634178D01*
X105365822Y-70576095D01*
X105297524Y-70530459D01*
X105221635Y-70499025D01*
X105141071Y-70483000D01*
X105058929Y-70483000D01*
X104978365Y-70499025D01*
X104902476Y-70530459D01*
X104834178Y-70576095D01*
X104776095Y-70634178D01*
X104730459Y-70702476D01*
X104699025Y-70778365D01*
X104683000Y-70858929D01*
X104683000Y-70941071D01*
X104699025Y-71021635D01*
X104730459Y-71097524D01*
X104776095Y-71165822D01*
X104834178Y-71223905D01*
X104902476Y-71269541D01*
X104978365Y-71300975D01*
X105058929Y-71317000D01*
X105139405Y-71317000D01*
X105145470Y-71323065D01*
X105145476Y-71323070D01*
X116305948Y-82483543D01*
X116314301Y-82493721D01*
X116324479Y-82502074D01*
X116324481Y-82502076D01*
X116331502Y-82507838D01*
X116354957Y-82527087D01*
X116401340Y-82551880D01*
X116451670Y-82567147D01*
X116490903Y-82571011D01*
X116490912Y-82571011D01*
X116504010Y-82572301D01*
X116517108Y-82571011D01*
X144370441Y-82571011D01*
X144161699Y-82657475D01*
X143802682Y-82897363D01*
X143497363Y-83202682D01*
X143257475Y-83561699D01*
X143092237Y-83960617D01*
X143008000Y-84384107D01*
X143008000Y-84815893D01*
X143092237Y-85239383D01*
X143257475Y-85638301D01*
X143497363Y-85997318D01*
X143802682Y-86302637D01*
X144161699Y-86542525D01*
X144560617Y-86707763D01*
X144984107Y-86792000D01*
X145415893Y-86792000D01*
X145839383Y-86707763D01*
X146238301Y-86542525D01*
X146462908Y-86392447D01*
X151108000Y-86392447D01*
X151108000Y-86607553D01*
X151149965Y-86818525D01*
X151232282Y-87017256D01*
X151351788Y-87196110D01*
X151503890Y-87348212D01*
X151682744Y-87467718D01*
X151881475Y-87550035D01*
X152092447Y-87592000D01*
X152307553Y-87592000D01*
X152518525Y-87550035D01*
X152717256Y-87467718D01*
X152896110Y-87348212D01*
X153048212Y-87196110D01*
X153167718Y-87017256D01*
X153250035Y-86818525D01*
X153292000Y-86607553D01*
X153292000Y-86392447D01*
X153250035Y-86181475D01*
X153167718Y-85982744D01*
X153048212Y-85803890D01*
X152896110Y-85651788D01*
X152717256Y-85532282D01*
X152518525Y-85449965D01*
X152307553Y-85408000D01*
X152092447Y-85408000D01*
X151881475Y-85449965D01*
X151682744Y-85532282D01*
X151503890Y-85651788D01*
X151351788Y-85803890D01*
X151232282Y-85982744D01*
X151149965Y-86181475D01*
X151108000Y-86392447D01*
X146462908Y-86392447D01*
X146597318Y-86302637D01*
X146902637Y-85997318D01*
X147142525Y-85638301D01*
X147307763Y-85239383D01*
X147392000Y-84815893D01*
X147392000Y-84384107D01*
X147307763Y-83960617D01*
X147142525Y-83561699D01*
X146902637Y-83202682D01*
X146597318Y-82897363D01*
X146238301Y-82657475D01*
X146029559Y-82571011D01*
X150474642Y-82571011D01*
X150487740Y-82572301D01*
X150500838Y-82571011D01*
X150500848Y-82571011D01*
X150540081Y-82567147D01*
X150590411Y-82551880D01*
X150636794Y-82527087D01*
X150677450Y-82493721D01*
X150685807Y-82483538D01*
X153660416Y-79508929D01*
X154233000Y-79508929D01*
X154233000Y-79591071D01*
X154249025Y-79671635D01*
X154280459Y-79747524D01*
X154326095Y-79815822D01*
X154384178Y-79873905D01*
X154452476Y-79919541D01*
X154528365Y-79950975D01*
X154608929Y-79967000D01*
X154691071Y-79967000D01*
X154771635Y-79950975D01*
X154847524Y-79919541D01*
X154915822Y-79873905D01*
X154973905Y-79815822D01*
X155019541Y-79747524D01*
X155050975Y-79671635D01*
X155067000Y-79591071D01*
X155067000Y-79508929D01*
X155050975Y-79428365D01*
X155019541Y-79352476D01*
X154973905Y-79284178D01*
X154915822Y-79226095D01*
X154847524Y-79180459D01*
X154771635Y-79149025D01*
X154691071Y-79133000D01*
X154608929Y-79133000D01*
X154528365Y-79149025D01*
X154452476Y-79180459D01*
X154384178Y-79226095D01*
X154326095Y-79284178D01*
X154280459Y-79352476D01*
X154249025Y-79428365D01*
X154233000Y-79508929D01*
X153660416Y-79508929D01*
X154702346Y-78467000D01*
X154874443Y-78467000D01*
X154849025Y-78528365D01*
X154833000Y-78608929D01*
X154833000Y-78691071D01*
X154849025Y-78771635D01*
X154880459Y-78847524D01*
X154926095Y-78915822D01*
X154984178Y-78973905D01*
X155052476Y-79019541D01*
X155128365Y-79050975D01*
X155208929Y-79067000D01*
X155291071Y-79067000D01*
X155371635Y-79050975D01*
X155447524Y-79019541D01*
X155515822Y-78973905D01*
X155573905Y-78915822D01*
X155619541Y-78847524D01*
X155650975Y-78771635D01*
X155667000Y-78691071D01*
X155667000Y-78617000D01*
X155691071Y-78617000D01*
X155771635Y-78600975D01*
X155847524Y-78569541D01*
X155915822Y-78523905D01*
X155973905Y-78465822D01*
X156019541Y-78397524D01*
X156033001Y-78365029D01*
X156033000Y-79490904D01*
X156031710Y-79504002D01*
X156033000Y-79517100D01*
X156033000Y-79517109D01*
X156036864Y-79556342D01*
X156052131Y-79606672D01*
X156076924Y-79653056D01*
X156081000Y-79658022D01*
X156080999Y-80818150D01*
X156079709Y-80831248D01*
X156080999Y-80844346D01*
X156080999Y-80844355D01*
X156084863Y-80883588D01*
X156100130Y-80933918D01*
X156124923Y-80980302D01*
X156158289Y-81020958D01*
X156168472Y-81029315D01*
X157974509Y-82835353D01*
X157237484Y-82835353D01*
X157224386Y-82834063D01*
X157211288Y-82835353D01*
X157211279Y-82835353D01*
X157172046Y-82839217D01*
X157121716Y-82854484D01*
X157075333Y-82879277D01*
X157075331Y-82879278D01*
X157075332Y-82879278D01*
X157044859Y-82904287D01*
X157034677Y-82912643D01*
X157026324Y-82922821D01*
X155695473Y-84253673D01*
X155685290Y-84262030D01*
X155651924Y-84302686D01*
X155627131Y-84349070D01*
X155611864Y-84399400D01*
X155608000Y-84438633D01*
X155608000Y-84438642D01*
X155606710Y-84451740D01*
X155608000Y-84464838D01*
X155608000Y-84718273D01*
X155565822Y-84676095D01*
X155497524Y-84630459D01*
X155421635Y-84599025D01*
X155341071Y-84583000D01*
X155258929Y-84583000D01*
X155178365Y-84599025D01*
X155102476Y-84630459D01*
X155034178Y-84676095D01*
X154976095Y-84734178D01*
X154930459Y-84802476D01*
X154899025Y-84878365D01*
X154883000Y-84958929D01*
X154883000Y-85041071D01*
X154899025Y-85121635D01*
X154930459Y-85197524D01*
X154976095Y-85265822D01*
X155034178Y-85323905D01*
X155102476Y-85369541D01*
X155178365Y-85400975D01*
X155258929Y-85417000D01*
X155341071Y-85417000D01*
X155421635Y-85400975D01*
X155463963Y-85383442D01*
X152775924Y-88071482D01*
X152717256Y-88032282D01*
X152518525Y-87949965D01*
X152307553Y-87908000D01*
X152092447Y-87908000D01*
X151881475Y-87949965D01*
X151682744Y-88032282D01*
X151503890Y-88151788D01*
X151351788Y-88303890D01*
X151232282Y-88482744D01*
X151149965Y-88681475D01*
X151108000Y-88892447D01*
X151108000Y-89107553D01*
X151149965Y-89318525D01*
X151232282Y-89517256D01*
X151351788Y-89696110D01*
X151503890Y-89848212D01*
X151682744Y-89967718D01*
X151881475Y-90050035D01*
X152092447Y-90092000D01*
X152307553Y-90092000D01*
X152518525Y-90050035D01*
X152717256Y-89967718D01*
X152896110Y-89848212D01*
X153048212Y-89696110D01*
X153167718Y-89517256D01*
X153250035Y-89318525D01*
X153292000Y-89107553D01*
X153292000Y-88892447D01*
X153250035Y-88681475D01*
X153167718Y-88482744D01*
X153148545Y-88454049D01*
X153152594Y-88450000D01*
X155457071Y-88450000D01*
X155457071Y-90150000D01*
X155460778Y-90187639D01*
X155471757Y-90223831D01*
X155489585Y-90257186D01*
X155513579Y-90286421D01*
X155542814Y-90310415D01*
X155576169Y-90328243D01*
X155612361Y-90339222D01*
X155650000Y-90342929D01*
X157350000Y-90342929D01*
X157387639Y-90339222D01*
X157423831Y-90328243D01*
X157457186Y-90310415D01*
X157486421Y-90286421D01*
X157510415Y-90257186D01*
X157528243Y-90223831D01*
X157539222Y-90187639D01*
X157542929Y-90150000D01*
X157542929Y-88450000D01*
X158357071Y-88450000D01*
X158357071Y-90150000D01*
X158360778Y-90187639D01*
X158371757Y-90223831D01*
X158389585Y-90257186D01*
X158413579Y-90286421D01*
X158442814Y-90310415D01*
X158476169Y-90328243D01*
X158512361Y-90339222D01*
X158550000Y-90342929D01*
X160250000Y-90342929D01*
X160287639Y-90339222D01*
X160323831Y-90328243D01*
X160357186Y-90310415D01*
X160386421Y-90286421D01*
X160410415Y-90257186D01*
X160428243Y-90223831D01*
X160439222Y-90187639D01*
X160442929Y-90150000D01*
X160442929Y-88450000D01*
X160439222Y-88412361D01*
X160428243Y-88376169D01*
X160410415Y-88342814D01*
X160386421Y-88313579D01*
X160357186Y-88289585D01*
X160323831Y-88271757D01*
X160287639Y-88260778D01*
X160250000Y-88257071D01*
X158550000Y-88257071D01*
X158512361Y-88260778D01*
X158476169Y-88271757D01*
X158442814Y-88289585D01*
X158413579Y-88313579D01*
X158389585Y-88342814D01*
X158371757Y-88376169D01*
X158360778Y-88412361D01*
X158357071Y-88450000D01*
X157542929Y-88450000D01*
X157539222Y-88412361D01*
X157528243Y-88376169D01*
X157510415Y-88342814D01*
X157486421Y-88313579D01*
X157457186Y-88289585D01*
X157423831Y-88271757D01*
X157387639Y-88260778D01*
X157350000Y-88257071D01*
X155650000Y-88257071D01*
X155612361Y-88260778D01*
X155576169Y-88271757D01*
X155542814Y-88289585D01*
X155513579Y-88313579D01*
X155489585Y-88342814D01*
X155471757Y-88376169D01*
X155460778Y-88412361D01*
X155457071Y-88450000D01*
X153152594Y-88450000D01*
X156054532Y-85548063D01*
X156064710Y-85539710D01*
X156073063Y-85529532D01*
X156073066Y-85529529D01*
X156098076Y-85499055D01*
X156122869Y-85452671D01*
X156126671Y-85440136D01*
X156138136Y-85402341D01*
X156142000Y-85363108D01*
X156142000Y-85363098D01*
X156143290Y-85350000D01*
X156142000Y-85336902D01*
X156142000Y-84562334D01*
X157035687Y-83668647D01*
X157059807Y-83726878D01*
X157105443Y-83795176D01*
X157163526Y-83853259D01*
X157231824Y-83898895D01*
X157307713Y-83930329D01*
X157388277Y-83946354D01*
X157420448Y-83946354D01*
X157420448Y-83978343D01*
X157436473Y-84058907D01*
X157467907Y-84134796D01*
X157513543Y-84203094D01*
X157571626Y-84261177D01*
X157639924Y-84306813D01*
X157715813Y-84338247D01*
X157796377Y-84354272D01*
X157826025Y-84354272D01*
X157826025Y-84388770D01*
X157842050Y-84469334D01*
X157873484Y-84545223D01*
X157919120Y-84613521D01*
X157977203Y-84671604D01*
X157983001Y-84675478D01*
X157983000Y-85336902D01*
X157981710Y-85350000D01*
X157983000Y-85363098D01*
X157983000Y-85363107D01*
X157986864Y-85402340D01*
X158002131Y-85452670D01*
X158026924Y-85499054D01*
X158060290Y-85539710D01*
X158070473Y-85548067D01*
X160801937Y-88279532D01*
X160810290Y-88289710D01*
X160820468Y-88298063D01*
X160820471Y-88298066D01*
X160827568Y-88303890D01*
X160850946Y-88323076D01*
X160897329Y-88347869D01*
X160947659Y-88363136D01*
X160986892Y-88367000D01*
X160986901Y-88367000D01*
X160999999Y-88368290D01*
X161013097Y-88367000D01*
X161276658Y-88367000D01*
X161271757Y-88376169D01*
X161260778Y-88412361D01*
X161257071Y-88450000D01*
X161257071Y-90150000D01*
X161260778Y-90187639D01*
X161271757Y-90223831D01*
X161289585Y-90257186D01*
X161313579Y-90286421D01*
X161342814Y-90310415D01*
X161376169Y-90328243D01*
X161412361Y-90339222D01*
X161450000Y-90342929D01*
X163150000Y-90342929D01*
X163187639Y-90339222D01*
X163223831Y-90328243D01*
X163257186Y-90310415D01*
X163286421Y-90286421D01*
X163310415Y-90257186D01*
X163328243Y-90223831D01*
X163339222Y-90187639D01*
X163342929Y-90150000D01*
X163342929Y-89641693D01*
X165908000Y-89641693D01*
X165908000Y-89758307D01*
X165930751Y-89872680D01*
X165975377Y-89980417D01*
X166040164Y-90077378D01*
X166122622Y-90159836D01*
X166219583Y-90224623D01*
X166327320Y-90269249D01*
X166441693Y-90292000D01*
X166558307Y-90292000D01*
X166672680Y-90269249D01*
X166780417Y-90224623D01*
X166877378Y-90159836D01*
X166959836Y-90077378D01*
X167024623Y-89980417D01*
X167069249Y-89872680D01*
X167092000Y-89758307D01*
X167092000Y-89641693D01*
X167069249Y-89527320D01*
X167024623Y-89419583D01*
X166959836Y-89322622D01*
X166877378Y-89240164D01*
X166780417Y-89175377D01*
X166672680Y-89130751D01*
X166558307Y-89108000D01*
X166441693Y-89108000D01*
X166327320Y-89130751D01*
X166219583Y-89175377D01*
X166122622Y-89240164D01*
X166040164Y-89322622D01*
X165975377Y-89419583D01*
X165930751Y-89527320D01*
X165908000Y-89641693D01*
X163342929Y-89641693D01*
X163342929Y-88450000D01*
X163339222Y-88412361D01*
X163328243Y-88376169D01*
X163323342Y-88367000D01*
X163686902Y-88367000D01*
X163700000Y-88368290D01*
X163713098Y-88367000D01*
X163713108Y-88367000D01*
X163752341Y-88363136D01*
X163802671Y-88347869D01*
X163849054Y-88323076D01*
X163889710Y-88289710D01*
X163898067Y-88279527D01*
X164035901Y-88141693D01*
X165908000Y-88141693D01*
X165908000Y-88258307D01*
X165930751Y-88372680D01*
X165975377Y-88480417D01*
X166040164Y-88577378D01*
X166122622Y-88659836D01*
X166219583Y-88724623D01*
X166327320Y-88769249D01*
X166441693Y-88792000D01*
X166558307Y-88792000D01*
X166672680Y-88769249D01*
X166780417Y-88724623D01*
X166877378Y-88659836D01*
X166959836Y-88577378D01*
X167024623Y-88480417D01*
X167069249Y-88372680D01*
X167092000Y-88258307D01*
X167092000Y-88141693D01*
X167069249Y-88027320D01*
X167024623Y-87919583D01*
X166959836Y-87822622D01*
X166877378Y-87740164D01*
X166780417Y-87675377D01*
X166672680Y-87630751D01*
X166558307Y-87608000D01*
X166441693Y-87608000D01*
X166327320Y-87630751D01*
X166219583Y-87675377D01*
X166122622Y-87740164D01*
X166040164Y-87822622D01*
X165975377Y-87919583D01*
X165930751Y-88027320D01*
X165908000Y-88141693D01*
X164035901Y-88141693D01*
X165510595Y-86667000D01*
X180886896Y-86667000D01*
X180899994Y-86668290D01*
X180913092Y-86667000D01*
X180913102Y-86667000D01*
X180952335Y-86663136D01*
X181002665Y-86647869D01*
X181049048Y-86623076D01*
X181089704Y-86589710D01*
X181098061Y-86579527D01*
X182010595Y-85666994D01*
X182091071Y-85666994D01*
X182171635Y-85650969D01*
X182247524Y-85619535D01*
X182315822Y-85573899D01*
X182373905Y-85515816D01*
X182419541Y-85447518D01*
X182450975Y-85371629D01*
X182467000Y-85291065D01*
X182467000Y-85208923D01*
X182450975Y-85128359D01*
X182419541Y-85052470D01*
X182373905Y-84984172D01*
X182315822Y-84926089D01*
X182247524Y-84880453D01*
X182171635Y-84849019D01*
X182091071Y-84832994D01*
X182008929Y-84832994D01*
X181928365Y-84849019D01*
X181852476Y-84880453D01*
X181784178Y-84926089D01*
X181726095Y-84984172D01*
X181680459Y-85052470D01*
X181649025Y-85128359D01*
X181633000Y-85208923D01*
X181633000Y-85289399D01*
X180789400Y-86133000D01*
X165413097Y-86133000D01*
X165399999Y-86131710D01*
X165386901Y-86133000D01*
X165386892Y-86133000D01*
X165347659Y-86136864D01*
X165297329Y-86152131D01*
X165250946Y-86176924D01*
X165250944Y-86176925D01*
X165250945Y-86176925D01*
X165220471Y-86201934D01*
X165220468Y-86201937D01*
X165210290Y-86210290D01*
X165201937Y-86220468D01*
X163589406Y-87833000D01*
X163330488Y-87833000D01*
X163349054Y-87823076D01*
X163389710Y-87789710D01*
X163398067Y-87779527D01*
X165410595Y-85767000D01*
X178078654Y-85767000D01*
X178091752Y-85768290D01*
X178104850Y-85767000D01*
X178104860Y-85767000D01*
X178144093Y-85763136D01*
X178194423Y-85747869D01*
X178240806Y-85723076D01*
X178281462Y-85689710D01*
X178289819Y-85679527D01*
X179529533Y-84439814D01*
X179539711Y-84431461D01*
X179548064Y-84421283D01*
X179548067Y-84421280D01*
X179573077Y-84390806D01*
X179597870Y-84344422D01*
X179601335Y-84333000D01*
X179613137Y-84294092D01*
X179617001Y-84254859D01*
X179617001Y-84254849D01*
X179618291Y-84241751D01*
X179617001Y-84228653D01*
X179617001Y-81176919D01*
X181435000Y-81176919D01*
X181435000Y-83676919D01*
X181436249Y-83689600D01*
X181439948Y-83701793D01*
X181445954Y-83713031D01*
X181454038Y-83722881D01*
X183954038Y-86222881D01*
X183963888Y-86230965D01*
X183975126Y-86236971D01*
X183987319Y-86240670D01*
X184000000Y-86241919D01*
X190500000Y-86241919D01*
X190512681Y-86240670D01*
X190524874Y-86236971D01*
X190536112Y-86230965D01*
X190545962Y-86222881D01*
X190554046Y-86213031D01*
X190560052Y-86201793D01*
X190563751Y-86189600D01*
X190565000Y-86176919D01*
X190565000Y-82176919D01*
X190563751Y-82164238D01*
X190560052Y-82152045D01*
X190554046Y-82140807D01*
X190545962Y-82130957D01*
X189545962Y-81130957D01*
X189536112Y-81122873D01*
X189524874Y-81116867D01*
X189512681Y-81113168D01*
X189500000Y-81111919D01*
X185840376Y-81111919D01*
X185930417Y-81074623D01*
X186027378Y-81009836D01*
X186109836Y-80927378D01*
X186174623Y-80830417D01*
X186219249Y-80722680D01*
X186242000Y-80608307D01*
X186242000Y-80491693D01*
X186219249Y-80377320D01*
X186174623Y-80269583D01*
X186109836Y-80172622D01*
X186027378Y-80090164D01*
X185930417Y-80025377D01*
X185869151Y-80000000D01*
X185930417Y-79974623D01*
X186027378Y-79909836D01*
X186109836Y-79827378D01*
X186174623Y-79730417D01*
X186219249Y-79622680D01*
X186242000Y-79508307D01*
X186242000Y-79391693D01*
X186219249Y-79277320D01*
X186174623Y-79169583D01*
X186109836Y-79072622D01*
X186027378Y-78990164D01*
X185930417Y-78925377D01*
X185822680Y-78880751D01*
X185708307Y-78858000D01*
X185591693Y-78858000D01*
X185477320Y-78880751D01*
X185369583Y-78925377D01*
X185272622Y-78990164D01*
X185190164Y-79072622D01*
X185150000Y-79132732D01*
X185109836Y-79072622D01*
X185027378Y-78990164D01*
X184930417Y-78925377D01*
X184822680Y-78880751D01*
X184708307Y-78858000D01*
X184591693Y-78858000D01*
X184477320Y-78880751D01*
X184369583Y-78925377D01*
X184272622Y-78990164D01*
X184190164Y-79072622D01*
X184150000Y-79132732D01*
X184109836Y-79072622D01*
X184027378Y-78990164D01*
X183930417Y-78925377D01*
X183822680Y-78880751D01*
X183708307Y-78858000D01*
X183591693Y-78858000D01*
X183477320Y-78880751D01*
X183369583Y-78925377D01*
X183272622Y-78990164D01*
X183190164Y-79072622D01*
X183150000Y-79132732D01*
X183109836Y-79072622D01*
X183027378Y-78990164D01*
X182930417Y-78925377D01*
X182822680Y-78880751D01*
X182708307Y-78858000D01*
X182591693Y-78858000D01*
X182477320Y-78880751D01*
X182369583Y-78925377D01*
X182272622Y-78990164D01*
X182190164Y-79072622D01*
X182125377Y-79169583D01*
X182080751Y-79277320D01*
X182058000Y-79391693D01*
X182058000Y-79508307D01*
X182080751Y-79622680D01*
X182125377Y-79730417D01*
X182190164Y-79827378D01*
X182272622Y-79909836D01*
X182369583Y-79974623D01*
X182430849Y-80000000D01*
X182369583Y-80025377D01*
X182272622Y-80090164D01*
X182190164Y-80172622D01*
X182125377Y-80269583D01*
X182080751Y-80377320D01*
X182058000Y-80491693D01*
X182058000Y-80608307D01*
X182080751Y-80722680D01*
X182125377Y-80830417D01*
X182190164Y-80927378D01*
X182272622Y-81009836D01*
X182369583Y-81074623D01*
X182459624Y-81111919D01*
X181500000Y-81111919D01*
X181487319Y-81113168D01*
X181475126Y-81116867D01*
X181463888Y-81122873D01*
X181454038Y-81130957D01*
X181445954Y-81140807D01*
X181439948Y-81152045D01*
X181436249Y-81164238D01*
X181435000Y-81176919D01*
X179617001Y-81176919D01*
X179617001Y-79560594D01*
X181060595Y-78117001D01*
X189586892Y-78116999D01*
X189600000Y-78118290D01*
X189652341Y-78113135D01*
X189702670Y-78097869D01*
X189749054Y-78073075D01*
X189779528Y-78048066D01*
X189779532Y-78048062D01*
X189789710Y-78039709D01*
X189798064Y-78029530D01*
X191260595Y-76567000D01*
X191341071Y-76567000D01*
X191421635Y-76550975D01*
X191497524Y-76519541D01*
X191565822Y-76473905D01*
X191623905Y-76415822D01*
X191669541Y-76347524D01*
X191700975Y-76271635D01*
X191717000Y-76191071D01*
X191717000Y-76108929D01*
X191700975Y-76028365D01*
X191669541Y-75952476D01*
X191623905Y-75884178D01*
X191565822Y-75826095D01*
X191497524Y-75780459D01*
X191421635Y-75749025D01*
X191341071Y-75733000D01*
X191258929Y-75733000D01*
X191178365Y-75749025D01*
X191117000Y-75774443D01*
X191117000Y-73622727D01*
X191173905Y-73565822D01*
X191219541Y-73497524D01*
X191250975Y-73421635D01*
X191267000Y-73341071D01*
X191267000Y-73258929D01*
X191250975Y-73178365D01*
X191219541Y-73102476D01*
X191173905Y-73034178D01*
X191115822Y-72976095D01*
X191047524Y-72930459D01*
X190971635Y-72899025D01*
X190891071Y-72883000D01*
X190808929Y-72883000D01*
X190728365Y-72899025D01*
X190652476Y-72930459D01*
X190584178Y-72976095D01*
X190526095Y-73034178D01*
X190480459Y-73102476D01*
X190449025Y-73178365D01*
X190433000Y-73258929D01*
X190433000Y-73341071D01*
X190449025Y-73421635D01*
X190480459Y-73497524D01*
X190526095Y-73565822D01*
X190583000Y-73622727D01*
X190583000Y-73631305D01*
X190583001Y-73631315D01*
X190583000Y-76089405D01*
X190117000Y-76555405D01*
X190117000Y-76472727D01*
X190173905Y-76415822D01*
X190219541Y-76347524D01*
X190250975Y-76271635D01*
X190267000Y-76191071D01*
X190267000Y-76108929D01*
X190250975Y-76028365D01*
X190219541Y-75952476D01*
X190173905Y-75884178D01*
X190115822Y-75826095D01*
X190047524Y-75780459D01*
X189971635Y-75749025D01*
X189891071Y-75733000D01*
X189808929Y-75733000D01*
X189728365Y-75749025D01*
X189652476Y-75780459D01*
X189584178Y-75826095D01*
X189526095Y-75884178D01*
X189480459Y-75952476D01*
X189449025Y-76028365D01*
X189433000Y-76108929D01*
X189433000Y-76191071D01*
X189449025Y-76271635D01*
X189480459Y-76347524D01*
X189526095Y-76415822D01*
X189583000Y-76472727D01*
X189583001Y-76689404D01*
X189243426Y-77028980D01*
X180733616Y-77028980D01*
X180720518Y-77027690D01*
X180707420Y-77028980D01*
X180707410Y-77028980D01*
X180668177Y-77032844D01*
X180619337Y-77047659D01*
X180617847Y-77048111D01*
X180571463Y-77072904D01*
X180540989Y-77097914D01*
X180540986Y-77097917D01*
X180530808Y-77106270D01*
X180522455Y-77116448D01*
X178616453Y-79022451D01*
X178606270Y-79030808D01*
X178572904Y-79071464D01*
X178548111Y-79117848D01*
X178532844Y-79168178D01*
X178528980Y-79207411D01*
X178528980Y-79207420D01*
X178527690Y-79220518D01*
X178528980Y-79233616D01*
X178528981Y-83607403D01*
X178528980Y-83607413D01*
X178528980Y-83901675D01*
X178173708Y-84256948D01*
X178173250Y-84254646D01*
X178136162Y-84165107D01*
X178082319Y-84084525D01*
X178013789Y-84015995D01*
X177933207Y-83962152D01*
X177843668Y-83925064D01*
X177748615Y-83906157D01*
X177651699Y-83906157D01*
X177556646Y-83925064D01*
X177467107Y-83962152D01*
X177386525Y-84015995D01*
X177317995Y-84084525D01*
X177264152Y-84165107D01*
X177227064Y-84254646D01*
X177208157Y-84349699D01*
X177208157Y-84446615D01*
X177227064Y-84541668D01*
X177264152Y-84631207D01*
X177280711Y-84655990D01*
X175565208Y-84655990D01*
X175565798Y-84650000D01*
X175565000Y-84030250D01*
X175523750Y-83989000D01*
X174739000Y-83989000D01*
X174739000Y-84009000D01*
X174361000Y-84009000D01*
X174361000Y-83989000D01*
X173576250Y-83989000D01*
X173535000Y-84030250D01*
X173534202Y-84650000D01*
X173534792Y-84655990D01*
X171033585Y-84655990D01*
X170567000Y-84189406D01*
X170567000Y-82950000D01*
X173534202Y-82950000D01*
X173535000Y-83569750D01*
X173576250Y-83611000D01*
X174361000Y-83611000D01*
X174361000Y-82826250D01*
X174739000Y-82826250D01*
X174739000Y-83611000D01*
X175523750Y-83611000D01*
X175565000Y-83569750D01*
X175565798Y-82950000D01*
X175562612Y-82917654D01*
X175553177Y-82886552D01*
X175537856Y-82857888D01*
X175517237Y-82832763D01*
X175492112Y-82812144D01*
X175463448Y-82796823D01*
X175432346Y-82787388D01*
X175400000Y-82784202D01*
X174780250Y-82785000D01*
X174739000Y-82826250D01*
X174361000Y-82826250D01*
X174319750Y-82785000D01*
X173700000Y-82784202D01*
X173667654Y-82787388D01*
X173636552Y-82796823D01*
X173607888Y-82812144D01*
X173582763Y-82832763D01*
X173562144Y-82857888D01*
X173546823Y-82886552D01*
X173537388Y-82917654D01*
X173534202Y-82950000D01*
X170567000Y-82950000D01*
X170567000Y-81922727D01*
X170623905Y-81865822D01*
X170669541Y-81797524D01*
X170700975Y-81721635D01*
X170717000Y-81641071D01*
X170717000Y-81558929D01*
X170700975Y-81478365D01*
X170669541Y-81402476D01*
X170623905Y-81334178D01*
X170565822Y-81276095D01*
X170497524Y-81230459D01*
X170421635Y-81199025D01*
X170341071Y-81183000D01*
X170258929Y-81183000D01*
X170178365Y-81199025D01*
X170102476Y-81230459D01*
X170034178Y-81276095D01*
X169976095Y-81334178D01*
X169930459Y-81402476D01*
X169899025Y-81478365D01*
X169883000Y-81558929D01*
X169883000Y-81641071D01*
X169899025Y-81721635D01*
X169930459Y-81797524D01*
X169976095Y-81865822D01*
X170033001Y-81922728D01*
X170033000Y-84286902D01*
X170031710Y-84300000D01*
X170033000Y-84313098D01*
X170033000Y-84313107D01*
X170036864Y-84352340D01*
X170052131Y-84402670D01*
X170076924Y-84449054D01*
X170110290Y-84489710D01*
X170120473Y-84498067D01*
X170555405Y-84933000D01*
X165213097Y-84933000D01*
X165199999Y-84931710D01*
X165186901Y-84933000D01*
X165186892Y-84933000D01*
X165147659Y-84936864D01*
X165097329Y-84952131D01*
X165050946Y-84976924D01*
X165050944Y-84976925D01*
X165050945Y-84976925D01*
X165021676Y-85000946D01*
X165010290Y-85010290D01*
X165001937Y-85020468D01*
X162989406Y-87033000D01*
X162725557Y-87033000D01*
X162750975Y-86971635D01*
X162767000Y-86891071D01*
X162767000Y-86810595D01*
X162932049Y-86645546D01*
X162942227Y-86637193D01*
X162950580Y-86627015D01*
X162950583Y-86627012D01*
X162975592Y-86596538D01*
X163000386Y-86550154D01*
X163007684Y-86526095D01*
X163015653Y-86499824D01*
X163019517Y-86460591D01*
X163019517Y-86460582D01*
X163020807Y-86447484D01*
X163019517Y-86434386D01*
X163019517Y-83509974D01*
X163044541Y-83472524D01*
X163075975Y-83396635D01*
X163092000Y-83316071D01*
X163092000Y-83314192D01*
X163154202Y-83314192D01*
X163234766Y-83298167D01*
X163310655Y-83266733D01*
X163378953Y-83221097D01*
X163437036Y-83163014D01*
X163482672Y-83094716D01*
X163514106Y-83018827D01*
X163530131Y-82938263D01*
X163530131Y-82856121D01*
X163514106Y-82775557D01*
X163482672Y-82699668D01*
X163437036Y-82631370D01*
X163380131Y-82574465D01*
X163380131Y-81705368D01*
X163736561Y-81705368D01*
X163736561Y-81787510D01*
X163752586Y-81868074D01*
X163784020Y-81943963D01*
X163829656Y-82012261D01*
X163887739Y-82070344D01*
X163956037Y-82115980D01*
X164031926Y-82147414D01*
X164112490Y-82163439D01*
X164194632Y-82163439D01*
X164275196Y-82147414D01*
X164351085Y-82115980D01*
X164419383Y-82070344D01*
X164477466Y-82012261D01*
X164523102Y-81943963D01*
X164554536Y-81868074D01*
X164570561Y-81787510D01*
X164570561Y-81705368D01*
X164554536Y-81624804D01*
X164523102Y-81548915D01*
X164477466Y-81480617D01*
X164419383Y-81422534D01*
X164351085Y-81376898D01*
X164275196Y-81345464D01*
X164194632Y-81329439D01*
X164112490Y-81329439D01*
X164031926Y-81345464D01*
X163956037Y-81376898D01*
X163887739Y-81422534D01*
X163829656Y-81480617D01*
X163784020Y-81548915D01*
X163752586Y-81624804D01*
X163736561Y-81705368D01*
X163380131Y-81705368D01*
X163380131Y-81689213D01*
X164110415Y-80958929D01*
X164483000Y-80958929D01*
X164483000Y-81041071D01*
X164499025Y-81121635D01*
X164530459Y-81197524D01*
X164576095Y-81265822D01*
X164634178Y-81323905D01*
X164702476Y-81369541D01*
X164778365Y-81400975D01*
X164858929Y-81417000D01*
X164941071Y-81417000D01*
X165021635Y-81400975D01*
X165097524Y-81369541D01*
X165165822Y-81323905D01*
X165223905Y-81265822D01*
X165269541Y-81197524D01*
X165286172Y-81157372D01*
X173508000Y-81157372D01*
X173508000Y-81362628D01*
X173548043Y-81563940D01*
X173626591Y-81753572D01*
X173740626Y-81924236D01*
X173885764Y-82069374D01*
X174056428Y-82183409D01*
X174246060Y-82261957D01*
X174447372Y-82302000D01*
X174652628Y-82302000D01*
X174853940Y-82261957D01*
X175043572Y-82183409D01*
X175214236Y-82069374D01*
X175359374Y-81924236D01*
X175473409Y-81753572D01*
X175551957Y-81563940D01*
X175592000Y-81362628D01*
X175592000Y-81157372D01*
X175551957Y-80956060D01*
X175473409Y-80766428D01*
X175359374Y-80595764D01*
X175214236Y-80450626D01*
X175043572Y-80336591D01*
X174853940Y-80258043D01*
X174652628Y-80218000D01*
X174447372Y-80218000D01*
X174246060Y-80258043D01*
X174056428Y-80336591D01*
X173885764Y-80450626D01*
X173740626Y-80595764D01*
X173626591Y-80766428D01*
X173548043Y-80956060D01*
X173508000Y-81157372D01*
X165286172Y-81157372D01*
X165300975Y-81121635D01*
X165317000Y-81041071D01*
X165317000Y-80958929D01*
X165300975Y-80878365D01*
X165269541Y-80802476D01*
X165223905Y-80734178D01*
X165165822Y-80676095D01*
X165097524Y-80630459D01*
X165021635Y-80599025D01*
X164941071Y-80583000D01*
X164858929Y-80583000D01*
X164778365Y-80599025D01*
X164702476Y-80630459D01*
X164634178Y-80676095D01*
X164576095Y-80734178D01*
X164530459Y-80802476D01*
X164499025Y-80878365D01*
X164483000Y-80958929D01*
X164110415Y-80958929D01*
X164684167Y-80385177D01*
X165155377Y-80385177D01*
X165155377Y-80467319D01*
X165171402Y-80547883D01*
X165202836Y-80623772D01*
X165248472Y-80692070D01*
X165306555Y-80750153D01*
X165374853Y-80795789D01*
X165450742Y-80827223D01*
X165531306Y-80843248D01*
X165613448Y-80843248D01*
X165694012Y-80827223D01*
X165769901Y-80795789D01*
X165838199Y-80750153D01*
X165896282Y-80692070D01*
X165941918Y-80623772D01*
X165973352Y-80547883D01*
X165989377Y-80467319D01*
X165989377Y-80385177D01*
X165973352Y-80304613D01*
X165941918Y-80228724D01*
X165896282Y-80160426D01*
X165838199Y-80102343D01*
X165769901Y-80056707D01*
X165694012Y-80025273D01*
X165613448Y-80009248D01*
X165531306Y-80009248D01*
X165450742Y-80025273D01*
X165374853Y-80056707D01*
X165306555Y-80102343D01*
X165248472Y-80160426D01*
X165202836Y-80228724D01*
X165171402Y-80304613D01*
X165155377Y-80385177D01*
X164684167Y-80385177D01*
X165952345Y-79117000D01*
X167177273Y-79117000D01*
X167234178Y-79173905D01*
X167302476Y-79219541D01*
X167378365Y-79250975D01*
X167458929Y-79267000D01*
X167541071Y-79267000D01*
X167621635Y-79250975D01*
X167697524Y-79219541D01*
X167765822Y-79173905D01*
X167823905Y-79115822D01*
X167869541Y-79047524D01*
X167900975Y-78971635D01*
X167917000Y-78891071D01*
X167917000Y-78808929D01*
X167900975Y-78728365D01*
X167869541Y-78652476D01*
X167846085Y-78617372D01*
X173508000Y-78617372D01*
X173508000Y-78822628D01*
X173548043Y-79023940D01*
X173626591Y-79213572D01*
X173740626Y-79384236D01*
X173885764Y-79529374D01*
X174056428Y-79643409D01*
X174246060Y-79721957D01*
X174447372Y-79762000D01*
X174652628Y-79762000D01*
X174853940Y-79721957D01*
X175043572Y-79643409D01*
X175214236Y-79529374D01*
X175359374Y-79384236D01*
X175473409Y-79213572D01*
X175551957Y-79023940D01*
X175592000Y-78822628D01*
X175592000Y-78617372D01*
X175551957Y-78416060D01*
X175473409Y-78226428D01*
X175359374Y-78055764D01*
X175214236Y-77910626D01*
X175043572Y-77796591D01*
X174853940Y-77718043D01*
X174652628Y-77678000D01*
X174447372Y-77678000D01*
X174246060Y-77718043D01*
X174056428Y-77796591D01*
X173885764Y-77910626D01*
X173740626Y-78055764D01*
X173626591Y-78226428D01*
X173548043Y-78416060D01*
X173508000Y-78617372D01*
X167846085Y-78617372D01*
X167823905Y-78584178D01*
X167765822Y-78526095D01*
X167697524Y-78480459D01*
X167621635Y-78449025D01*
X167541071Y-78433000D01*
X167458929Y-78433000D01*
X167378365Y-78449025D01*
X167302476Y-78480459D01*
X167234178Y-78526095D01*
X167177273Y-78583000D01*
X165854848Y-78583000D01*
X165841750Y-78581710D01*
X165828652Y-78583000D01*
X165828642Y-78583000D01*
X165789409Y-78586864D01*
X165739079Y-78602131D01*
X165692696Y-78626924D01*
X165692694Y-78626925D01*
X165692695Y-78626925D01*
X165662221Y-78651934D01*
X165662218Y-78651937D01*
X165652040Y-78660290D01*
X165643687Y-78670468D01*
X165390000Y-78924155D01*
X165390000Y-74841693D01*
X171158000Y-74841693D01*
X171158000Y-74958307D01*
X171180751Y-75072680D01*
X171225377Y-75180417D01*
X171290164Y-75277378D01*
X171372622Y-75359836D01*
X171469583Y-75424623D01*
X171577320Y-75469249D01*
X171691693Y-75492000D01*
X171808307Y-75492000D01*
X171922680Y-75469249D01*
X172030417Y-75424623D01*
X172127378Y-75359836D01*
X172209836Y-75277378D01*
X172274623Y-75180417D01*
X172319249Y-75072680D01*
X172342000Y-74958307D01*
X172342000Y-74841693D01*
X172658000Y-74841693D01*
X172658000Y-74958307D01*
X172680751Y-75072680D01*
X172725377Y-75180417D01*
X172790164Y-75277378D01*
X172872622Y-75359836D01*
X172969583Y-75424623D01*
X173077320Y-75469249D01*
X173191693Y-75492000D01*
X173308307Y-75492000D01*
X173422680Y-75469249D01*
X173530417Y-75424623D01*
X173627378Y-75359836D01*
X173709836Y-75277378D01*
X173774623Y-75180417D01*
X173819249Y-75072680D01*
X173842000Y-74958307D01*
X173842000Y-74841693D01*
X174208000Y-74841693D01*
X174208000Y-74958307D01*
X174230751Y-75072680D01*
X174275377Y-75180417D01*
X174340164Y-75277378D01*
X174422622Y-75359836D01*
X174519583Y-75424623D01*
X174627320Y-75469249D01*
X174741693Y-75492000D01*
X174858307Y-75492000D01*
X174972680Y-75469249D01*
X175080417Y-75424623D01*
X175177378Y-75359836D01*
X175259836Y-75277378D01*
X175324623Y-75180417D01*
X175369249Y-75072680D01*
X175392000Y-74958307D01*
X175392000Y-74841693D01*
X175369249Y-74727320D01*
X175324623Y-74619583D01*
X175259836Y-74522622D01*
X175177378Y-74440164D01*
X175080417Y-74375377D01*
X174972680Y-74330751D01*
X174858307Y-74308000D01*
X174741693Y-74308000D01*
X174627320Y-74330751D01*
X174519583Y-74375377D01*
X174422622Y-74440164D01*
X174340164Y-74522622D01*
X174275377Y-74619583D01*
X174230751Y-74727320D01*
X174208000Y-74841693D01*
X173842000Y-74841693D01*
X173819249Y-74727320D01*
X173774623Y-74619583D01*
X173709836Y-74522622D01*
X173627378Y-74440164D01*
X173530417Y-74375377D01*
X173422680Y-74330751D01*
X173308307Y-74308000D01*
X173191693Y-74308000D01*
X173077320Y-74330751D01*
X172969583Y-74375377D01*
X172872622Y-74440164D01*
X172790164Y-74522622D01*
X172725377Y-74619583D01*
X172680751Y-74727320D01*
X172658000Y-74841693D01*
X172342000Y-74841693D01*
X172319249Y-74727320D01*
X172274623Y-74619583D01*
X172209836Y-74522622D01*
X172127378Y-74440164D01*
X172030417Y-74375377D01*
X171922680Y-74330751D01*
X171808307Y-74308000D01*
X171691693Y-74308000D01*
X171577320Y-74330751D01*
X171469583Y-74375377D01*
X171372622Y-74440164D01*
X171290164Y-74522622D01*
X171225377Y-74619583D01*
X171180751Y-74727320D01*
X171158000Y-74841693D01*
X165390000Y-74841693D01*
X165390000Y-73891693D01*
X170258000Y-73891693D01*
X170258000Y-74008307D01*
X170280751Y-74122680D01*
X170325377Y-74230417D01*
X170390164Y-74327378D01*
X170472622Y-74409836D01*
X170569583Y-74474623D01*
X170677320Y-74519249D01*
X170791693Y-74542000D01*
X170908307Y-74542000D01*
X171022680Y-74519249D01*
X171130417Y-74474623D01*
X171227378Y-74409836D01*
X171309836Y-74327378D01*
X171374623Y-74230417D01*
X171419249Y-74122680D01*
X171442000Y-74008307D01*
X171442000Y-73891693D01*
X171419249Y-73777320D01*
X171374623Y-73669583D01*
X171309836Y-73572622D01*
X171227378Y-73490164D01*
X171130417Y-73425377D01*
X171022680Y-73380751D01*
X170908307Y-73358000D01*
X170791693Y-73358000D01*
X170677320Y-73380751D01*
X170569583Y-73425377D01*
X170472622Y-73490164D01*
X170390164Y-73572622D01*
X170325377Y-73669583D01*
X170280751Y-73777320D01*
X170258000Y-73891693D01*
X165390000Y-73891693D01*
X165390000Y-73291693D01*
X180958000Y-73291693D01*
X180958000Y-73408307D01*
X180980751Y-73522680D01*
X181025377Y-73630417D01*
X181090164Y-73727378D01*
X181172622Y-73809836D01*
X181195317Y-73825000D01*
X181172622Y-73840164D01*
X181090164Y-73922622D01*
X181025377Y-74019583D01*
X180980751Y-74127320D01*
X180958000Y-74241693D01*
X180958000Y-74358307D01*
X180980751Y-74472680D01*
X181025377Y-74580417D01*
X181090164Y-74677378D01*
X181172622Y-74759836D01*
X181269583Y-74824623D01*
X181377320Y-74869249D01*
X181491693Y-74892000D01*
X181608307Y-74892000D01*
X181722680Y-74869249D01*
X181830417Y-74824623D01*
X181927378Y-74759836D01*
X182009836Y-74677378D01*
X182074623Y-74580417D01*
X182119249Y-74472680D01*
X182142000Y-74358307D01*
X182142000Y-74241693D01*
X182119249Y-74127320D01*
X182074623Y-74019583D01*
X182009836Y-73922622D01*
X181927378Y-73840164D01*
X181904683Y-73825000D01*
X181927378Y-73809836D01*
X182009836Y-73727378D01*
X182074623Y-73630417D01*
X182119249Y-73522680D01*
X182142000Y-73408307D01*
X182142000Y-73291693D01*
X182119249Y-73177320D01*
X182074623Y-73069583D01*
X182009836Y-72972622D01*
X181978907Y-72941693D01*
X184358000Y-72941693D01*
X184358000Y-73058307D01*
X184380751Y-73172680D01*
X184425377Y-73280417D01*
X184490164Y-73377378D01*
X184572622Y-73459836D01*
X184669583Y-73524623D01*
X184777320Y-73569249D01*
X184891693Y-73592000D01*
X185008307Y-73592000D01*
X185122680Y-73569249D01*
X185230417Y-73524623D01*
X185327378Y-73459836D01*
X185409836Y-73377378D01*
X185450000Y-73317268D01*
X185490164Y-73377378D01*
X185572622Y-73459836D01*
X185669583Y-73524623D01*
X185777320Y-73569249D01*
X185891693Y-73592000D01*
X186008307Y-73592000D01*
X186122680Y-73569249D01*
X186230417Y-73524623D01*
X186327378Y-73459836D01*
X186409836Y-73377378D01*
X186450000Y-73317268D01*
X186490164Y-73377378D01*
X186572622Y-73459836D01*
X186669583Y-73524623D01*
X186777320Y-73569249D01*
X186891693Y-73592000D01*
X187008307Y-73592000D01*
X187122680Y-73569249D01*
X187230417Y-73524623D01*
X187327378Y-73459836D01*
X187409836Y-73377378D01*
X187474623Y-73280417D01*
X187519249Y-73172680D01*
X187542000Y-73058307D01*
X187542000Y-72941693D01*
X187519249Y-72827320D01*
X187474623Y-72719583D01*
X187409836Y-72622622D01*
X187327378Y-72540164D01*
X187230417Y-72475377D01*
X187122680Y-72430751D01*
X187008307Y-72408000D01*
X186891693Y-72408000D01*
X186777320Y-72430751D01*
X186669583Y-72475377D01*
X186572622Y-72540164D01*
X186490164Y-72622622D01*
X186450000Y-72682732D01*
X186409836Y-72622622D01*
X186327378Y-72540164D01*
X186230417Y-72475377D01*
X186152080Y-72442929D01*
X186300000Y-72442929D01*
X186337639Y-72439222D01*
X186373831Y-72428243D01*
X186407186Y-72410415D01*
X186436421Y-72386421D01*
X186460415Y-72357186D01*
X186478243Y-72323831D01*
X186489222Y-72287639D01*
X186492929Y-72250000D01*
X186492929Y-71580143D01*
X186572622Y-71659836D01*
X186669583Y-71724623D01*
X186777320Y-71769249D01*
X186891693Y-71792000D01*
X187008307Y-71792000D01*
X187122680Y-71769249D01*
X187230417Y-71724623D01*
X187327378Y-71659836D01*
X187409836Y-71577378D01*
X187474623Y-71480417D01*
X187519249Y-71372680D01*
X187542000Y-71258307D01*
X187542000Y-71141693D01*
X187519249Y-71027320D01*
X187474623Y-70919583D01*
X187409836Y-70822622D01*
X187327378Y-70740164D01*
X187230417Y-70675377D01*
X187122680Y-70630751D01*
X187008307Y-70608000D01*
X186891693Y-70608000D01*
X186777320Y-70630751D01*
X186669583Y-70675377D01*
X186572622Y-70740164D01*
X186492929Y-70819857D01*
X186492929Y-70550000D01*
X186489222Y-70512361D01*
X186478243Y-70476169D01*
X186460415Y-70442814D01*
X186436421Y-70413579D01*
X186407186Y-70389585D01*
X186373831Y-70371757D01*
X186337639Y-70360778D01*
X186300000Y-70357071D01*
X184600000Y-70357071D01*
X184562361Y-70360778D01*
X184526169Y-70371757D01*
X184492814Y-70389585D01*
X184463579Y-70413579D01*
X184439585Y-70442814D01*
X184421757Y-70476169D01*
X184410778Y-70512361D01*
X184407071Y-70550000D01*
X184407071Y-72250000D01*
X184410778Y-72287639D01*
X184421757Y-72323831D01*
X184439585Y-72357186D01*
X184463579Y-72386421D01*
X184492814Y-72410415D01*
X184526169Y-72428243D01*
X184562361Y-72439222D01*
X184600000Y-72442929D01*
X184747920Y-72442929D01*
X184669583Y-72475377D01*
X184572622Y-72540164D01*
X184490164Y-72622622D01*
X184425377Y-72719583D01*
X184380751Y-72827320D01*
X184358000Y-72941693D01*
X181978907Y-72941693D01*
X181927378Y-72890164D01*
X181830417Y-72825377D01*
X181722680Y-72780751D01*
X181608307Y-72758000D01*
X181491693Y-72758000D01*
X181377320Y-72780751D01*
X181269583Y-72825377D01*
X181172622Y-72890164D01*
X181090164Y-72972622D01*
X181025377Y-73069583D01*
X180980751Y-73177320D01*
X180958000Y-73291693D01*
X165390000Y-73291693D01*
X165390000Y-72572727D01*
X165446905Y-72515822D01*
X165492541Y-72447524D01*
X165523975Y-72371635D01*
X165540000Y-72291071D01*
X165540000Y-72208929D01*
X165523975Y-72128365D01*
X165508786Y-72091693D01*
X174858000Y-72091693D01*
X174858000Y-72208307D01*
X174880751Y-72322680D01*
X174925377Y-72430417D01*
X174990164Y-72527378D01*
X175072622Y-72609836D01*
X175169583Y-72674623D01*
X175277320Y-72719249D01*
X175391693Y-72742000D01*
X175508307Y-72742000D01*
X175622680Y-72719249D01*
X175730417Y-72674623D01*
X175827378Y-72609836D01*
X175909836Y-72527378D01*
X175974623Y-72430417D01*
X176019249Y-72322680D01*
X176042000Y-72208307D01*
X176042000Y-72091693D01*
X176019249Y-71977320D01*
X175974623Y-71869583D01*
X175909836Y-71772622D01*
X175827378Y-71690164D01*
X175730417Y-71625377D01*
X175622680Y-71580751D01*
X175508307Y-71558000D01*
X175391693Y-71558000D01*
X175277320Y-71580751D01*
X175169583Y-71625377D01*
X175072622Y-71690164D01*
X174990164Y-71772622D01*
X174925377Y-71869583D01*
X174880751Y-71977320D01*
X174858000Y-72091693D01*
X165508786Y-72091693D01*
X165492541Y-72052476D01*
X165446905Y-71984178D01*
X165388822Y-71926095D01*
X165375217Y-71917004D01*
X165977273Y-71917004D01*
X166034178Y-71973909D01*
X166102476Y-72019545D01*
X166178365Y-72050979D01*
X166258929Y-72067004D01*
X166341071Y-72067004D01*
X166421635Y-72050979D01*
X166497524Y-72019545D01*
X166565822Y-71973909D01*
X166623905Y-71915826D01*
X166669541Y-71847528D01*
X166700975Y-71771639D01*
X166717000Y-71691075D01*
X166717000Y-71608933D01*
X166700975Y-71528369D01*
X166669541Y-71452480D01*
X166623905Y-71384182D01*
X166565822Y-71326099D01*
X166497524Y-71280463D01*
X166421635Y-71249029D01*
X166341071Y-71233004D01*
X166258929Y-71233004D01*
X166178365Y-71249029D01*
X166102476Y-71280463D01*
X166034178Y-71326099D01*
X165977273Y-71383004D01*
X165104132Y-71383004D01*
X165091034Y-71381714D01*
X165077936Y-71383004D01*
X165077926Y-71383004D01*
X165038693Y-71386868D01*
X164990318Y-71401542D01*
X164988363Y-71402135D01*
X164941979Y-71426928D01*
X164911505Y-71451938D01*
X164911502Y-71451941D01*
X164901324Y-71460294D01*
X164892971Y-71470472D01*
X164516472Y-71846972D01*
X164506289Y-71855329D01*
X164472923Y-71895985D01*
X164448130Y-71942369D01*
X164432863Y-71992699D01*
X164428999Y-72031932D01*
X164428999Y-72031941D01*
X164427709Y-72045039D01*
X164428999Y-72058137D01*
X164428999Y-72441863D01*
X164427709Y-72454961D01*
X164428999Y-72468059D01*
X164428999Y-72468069D01*
X164432863Y-72507302D01*
X164441795Y-72536746D01*
X164448130Y-72557631D01*
X164472924Y-72604015D01*
X164497933Y-72634489D01*
X164497937Y-72634493D01*
X164506290Y-72644671D01*
X164516468Y-72653024D01*
X164578990Y-72715546D01*
X164578991Y-77312011D01*
X164573076Y-77300946D01*
X164555499Y-77279529D01*
X164548065Y-77270470D01*
X164548063Y-77270468D01*
X164539710Y-77260290D01*
X164529532Y-77251937D01*
X159717000Y-72439406D01*
X159717000Y-69392929D01*
X160250000Y-69392929D01*
X160287639Y-69389222D01*
X160323831Y-69378243D01*
X160357186Y-69360415D01*
X160386421Y-69336421D01*
X160410415Y-69307186D01*
X160418695Y-69291693D01*
X186358000Y-69291693D01*
X186358000Y-69408307D01*
X186380751Y-69522680D01*
X186425377Y-69630417D01*
X186490164Y-69727378D01*
X186572622Y-69809836D01*
X186669583Y-69874623D01*
X186777320Y-69919249D01*
X186891693Y-69942000D01*
X187008307Y-69942000D01*
X187122680Y-69919249D01*
X187230417Y-69874623D01*
X187327378Y-69809836D01*
X187409836Y-69727378D01*
X187474623Y-69630417D01*
X187519249Y-69522680D01*
X187542000Y-69408307D01*
X187542000Y-69291693D01*
X187519249Y-69177320D01*
X187474623Y-69069583D01*
X187409836Y-68972622D01*
X187327378Y-68890164D01*
X187230417Y-68825377D01*
X187122680Y-68780751D01*
X187008307Y-68758000D01*
X186891693Y-68758000D01*
X186777320Y-68780751D01*
X186669583Y-68825377D01*
X186572622Y-68890164D01*
X186490164Y-68972622D01*
X186425377Y-69069583D01*
X186380751Y-69177320D01*
X186358000Y-69291693D01*
X160418695Y-69291693D01*
X160428243Y-69273831D01*
X160439222Y-69237639D01*
X160442929Y-69200000D01*
X160442929Y-68511265D01*
X163014616Y-68511265D01*
X163014616Y-68608181D01*
X163033523Y-68703234D01*
X163070611Y-68792773D01*
X163124454Y-68873355D01*
X163192984Y-68941885D01*
X163273566Y-68995728D01*
X163363105Y-69032816D01*
X163458158Y-69051723D01*
X163555074Y-69051723D01*
X163650127Y-69032816D01*
X163739666Y-68995728D01*
X163820248Y-68941885D01*
X163888778Y-68873355D01*
X163942621Y-68792773D01*
X163979709Y-68703234D01*
X163998533Y-68608599D01*
X164015057Y-68608599D01*
X164110110Y-68589692D01*
X164199649Y-68552604D01*
X164280231Y-68498761D01*
X164348761Y-68430231D01*
X164402604Y-68349649D01*
X164439692Y-68260110D01*
X164458599Y-68165057D01*
X164458599Y-68068141D01*
X164439692Y-67973088D01*
X164402604Y-67883549D01*
X164348761Y-67802967D01*
X164280231Y-67734437D01*
X164199649Y-67680594D01*
X164110110Y-67643506D01*
X164015057Y-67624599D01*
X163918141Y-67624599D01*
X163823088Y-67643506D01*
X163733549Y-67680594D01*
X163652967Y-67734437D01*
X163584437Y-67802967D01*
X163530594Y-67883549D01*
X163493506Y-67973088D01*
X163474682Y-68067723D01*
X163458158Y-68067723D01*
X163363105Y-68086630D01*
X163273566Y-68123718D01*
X163192984Y-68177561D01*
X163124454Y-68246091D01*
X163070611Y-68326673D01*
X163033523Y-68416212D01*
X163014616Y-68511265D01*
X160442929Y-68511265D01*
X160442929Y-67500000D01*
X160439222Y-67462361D01*
X160428243Y-67426169D01*
X160410415Y-67392814D01*
X160386421Y-67363579D01*
X160357186Y-67339585D01*
X160323831Y-67321757D01*
X160287639Y-67310778D01*
X160250000Y-67307071D01*
X158567000Y-67307071D01*
X158567000Y-66910594D01*
X158879116Y-66598478D01*
X158916428Y-66623409D01*
X159106060Y-66701957D01*
X159307372Y-66742000D01*
X159512628Y-66742000D01*
X159713940Y-66701957D01*
X159903572Y-66623409D01*
X160013435Y-66550000D01*
X160934202Y-66550000D01*
X160937388Y-66582346D01*
X160946823Y-66613448D01*
X160962144Y-66642112D01*
X160982763Y-66667237D01*
X161007888Y-66687856D01*
X161036552Y-66703177D01*
X161067654Y-66712612D01*
X161100000Y-66715798D01*
X161719750Y-66715000D01*
X161761000Y-66673750D01*
X161761000Y-65889000D01*
X162139000Y-65889000D01*
X162139000Y-66673750D01*
X162180250Y-66715000D01*
X162800000Y-66715798D01*
X162832346Y-66712612D01*
X162863448Y-66703177D01*
X162892112Y-66687856D01*
X162917237Y-66667237D01*
X162937856Y-66642112D01*
X162953177Y-66613448D01*
X162962612Y-66582346D01*
X162965798Y-66550000D01*
X162965000Y-65930250D01*
X162923750Y-65889000D01*
X162139000Y-65889000D01*
X161761000Y-65889000D01*
X160976250Y-65889000D01*
X160935000Y-65930250D01*
X160934202Y-66550000D01*
X160013435Y-66550000D01*
X160074236Y-66509374D01*
X160219374Y-66364236D01*
X160333409Y-66193572D01*
X160411957Y-66003940D01*
X160452000Y-65802628D01*
X160452000Y-65597372D01*
X160411957Y-65396060D01*
X160333409Y-65206428D01*
X160219374Y-65035764D01*
X160074236Y-64890626D01*
X160013436Y-64850000D01*
X160934202Y-64850000D01*
X160935000Y-65469750D01*
X160976250Y-65511000D01*
X161761000Y-65511000D01*
X161761000Y-64726250D01*
X162139000Y-64726250D01*
X162139000Y-65511000D01*
X162923750Y-65511000D01*
X162965000Y-65469750D01*
X162965798Y-64850000D01*
X162962612Y-64817654D01*
X162953177Y-64786552D01*
X162937856Y-64757888D01*
X162917237Y-64732763D01*
X162892112Y-64712144D01*
X162863448Y-64696823D01*
X162832346Y-64687388D01*
X162800000Y-64684202D01*
X162180250Y-64685000D01*
X162139000Y-64726250D01*
X161761000Y-64726250D01*
X161719750Y-64685000D01*
X161100000Y-64684202D01*
X161067654Y-64687388D01*
X161036552Y-64696823D01*
X161007888Y-64712144D01*
X160982763Y-64732763D01*
X160962144Y-64757888D01*
X160946823Y-64786552D01*
X160937388Y-64817654D01*
X160934202Y-64850000D01*
X160013436Y-64850000D01*
X159903572Y-64776591D01*
X159713940Y-64698043D01*
X159512628Y-64658000D01*
X159307372Y-64658000D01*
X159106060Y-64698043D01*
X158916428Y-64776591D01*
X158745764Y-64890626D01*
X158600626Y-65035764D01*
X158486591Y-65206428D01*
X158408043Y-65396060D01*
X158368000Y-65597372D01*
X158368000Y-65802628D01*
X158408043Y-66003940D01*
X158486591Y-66193572D01*
X158503511Y-66218895D01*
X158150000Y-66572406D01*
X157784500Y-66206905D01*
X157793409Y-66193572D01*
X157871957Y-66003940D01*
X157912000Y-65802628D01*
X157912000Y-65597372D01*
X157871957Y-65396060D01*
X157793409Y-65206428D01*
X157679374Y-65035764D01*
X157534236Y-64890626D01*
X157363572Y-64776591D01*
X157173940Y-64698043D01*
X156972628Y-64658000D01*
X156767372Y-64658000D01*
X156566060Y-64698043D01*
X156376428Y-64776591D01*
X156205764Y-64890626D01*
X156060626Y-65035764D01*
X155946591Y-65206428D01*
X155868043Y-65396060D01*
X155828000Y-65597372D01*
X155828000Y-65802628D01*
X155868043Y-66003940D01*
X155946591Y-66193572D01*
X156060626Y-66364236D01*
X156205764Y-66509374D01*
X156376428Y-66623409D01*
X156566060Y-66701957D01*
X156767372Y-66742000D01*
X156972628Y-66742000D01*
X157173940Y-66701957D01*
X157363572Y-66623409D01*
X157412873Y-66590467D01*
X157755991Y-66933586D01*
X157755991Y-69179323D01*
X157733050Y-69163995D01*
X157643511Y-69126907D01*
X157548458Y-69108000D01*
X157451542Y-69108000D01*
X157356489Y-69126907D01*
X157266950Y-69163995D01*
X157186368Y-69217838D01*
X157117838Y-69286368D01*
X157063995Y-69366950D01*
X157026907Y-69456489D01*
X157008000Y-69551542D01*
X157008000Y-69648458D01*
X157026907Y-69743511D01*
X157063995Y-69833050D01*
X157117838Y-69913632D01*
X157186368Y-69982162D01*
X157266950Y-70036005D01*
X157356489Y-70073093D01*
X157451542Y-70092000D01*
X157548458Y-70092000D01*
X157643511Y-70073093D01*
X157733050Y-70036005D01*
X157755991Y-70020677D01*
X157755990Y-72979323D01*
X157733050Y-72963995D01*
X157643511Y-72926907D01*
X157548458Y-72908000D01*
X157451542Y-72908000D01*
X157356489Y-72926907D01*
X157266950Y-72963995D01*
X157186368Y-73017838D01*
X157117838Y-73086368D01*
X157063995Y-73166950D01*
X157026907Y-73256489D01*
X157008000Y-73351542D01*
X157008000Y-73448458D01*
X157026907Y-73543511D01*
X157063995Y-73633050D01*
X157117838Y-73713632D01*
X157186368Y-73782162D01*
X157266950Y-73836005D01*
X157356489Y-73873093D01*
X157451542Y-73892000D01*
X157548458Y-73892000D01*
X157643511Y-73873093D01*
X157733050Y-73836005D01*
X157755990Y-73820677D01*
X157755990Y-74110835D01*
X157754700Y-74123933D01*
X157755990Y-74137031D01*
X157755990Y-74137040D01*
X157759854Y-74176273D01*
X157775121Y-74226603D01*
X157799914Y-74272987D01*
X157833280Y-74313643D01*
X157843463Y-74322000D01*
X158267759Y-74746297D01*
X158209527Y-74770417D01*
X158141229Y-74816053D01*
X158083146Y-74874136D01*
X158037510Y-74942434D01*
X158020707Y-74983000D01*
X155385084Y-74983000D01*
X155400975Y-74944635D01*
X155417000Y-74864071D01*
X155417000Y-74781929D01*
X155400975Y-74701365D01*
X155369541Y-74625476D01*
X155323905Y-74557178D01*
X155267000Y-74500273D01*
X155267000Y-73863098D01*
X155268290Y-73850000D01*
X155267000Y-73836902D01*
X155267000Y-73836892D01*
X155263136Y-73797659D01*
X155247869Y-73747329D01*
X155223076Y-73700946D01*
X155216912Y-73693435D01*
X155198066Y-73670471D01*
X155198063Y-73670468D01*
X155189710Y-73660290D01*
X155179532Y-73651937D01*
X153118504Y-71590910D01*
X153167718Y-71517256D01*
X153250035Y-71318525D01*
X153292000Y-71107553D01*
X153292000Y-70892447D01*
X153250035Y-70681475D01*
X153167718Y-70482744D01*
X153048212Y-70303890D01*
X152896110Y-70151788D01*
X152717256Y-70032282D01*
X152518525Y-69949965D01*
X152307553Y-69908000D01*
X152092447Y-69908000D01*
X151881475Y-69949965D01*
X151682744Y-70032282D01*
X151503890Y-70151788D01*
X151351788Y-70303890D01*
X151232282Y-70482744D01*
X151149965Y-70681475D01*
X151108000Y-70892447D01*
X151108000Y-71107553D01*
X151149965Y-71318525D01*
X151232282Y-71517256D01*
X151351788Y-71696110D01*
X151503890Y-71848212D01*
X151682744Y-71967718D01*
X151881475Y-72050035D01*
X152092447Y-72092000D01*
X152307553Y-72092000D01*
X152518525Y-72050035D01*
X152717256Y-71967718D01*
X152730964Y-71958558D01*
X154733001Y-73960596D01*
X154733000Y-74500273D01*
X154676095Y-74557178D01*
X154630459Y-74625476D01*
X154599025Y-74701365D01*
X154583000Y-74781929D01*
X154583000Y-74855405D01*
X154261023Y-74533429D01*
X154252666Y-74523246D01*
X154212010Y-74489880D01*
X154165627Y-74465087D01*
X154115297Y-74449820D01*
X154076064Y-74445956D01*
X154076054Y-74445956D01*
X154062956Y-74444666D01*
X154049858Y-74445956D01*
X153616830Y-74445956D01*
X153603732Y-74444666D01*
X153590634Y-74445956D01*
X153590624Y-74445956D01*
X153551391Y-74449820D01*
X153501061Y-74465087D01*
X153454678Y-74489880D01*
X153414022Y-74523246D01*
X153405664Y-74533430D01*
X153387119Y-74551975D01*
X152380552Y-74551975D01*
X152551450Y-74510796D01*
X152666229Y-74463254D01*
X152781521Y-74348807D01*
X152200000Y-73767286D01*
X151618479Y-74348807D01*
X151733771Y-74463254D01*
X151930652Y-74535702D01*
X152033947Y-74551975D01*
X149329570Y-74551975D01*
X148215478Y-73437883D01*
X151131651Y-73437883D01*
X151140061Y-73647501D01*
X151189204Y-73851450D01*
X151236746Y-73966229D01*
X151351193Y-74081521D01*
X151932714Y-73500000D01*
X152467286Y-73500000D01*
X153048807Y-74081521D01*
X153163254Y-73966229D01*
X153235702Y-73769348D01*
X153268349Y-73562117D01*
X153259939Y-73352499D01*
X153210796Y-73148550D01*
X153163254Y-73033771D01*
X153048807Y-72918479D01*
X152467286Y-73500000D01*
X151932714Y-73500000D01*
X151351193Y-72918479D01*
X151236746Y-73033771D01*
X151164298Y-73230652D01*
X151131651Y-73437883D01*
X148215478Y-73437883D01*
X147428788Y-72651193D01*
X151618479Y-72651193D01*
X152200000Y-73232714D01*
X152781521Y-72651193D01*
X152666229Y-72536746D01*
X152469348Y-72464298D01*
X152262117Y-72431651D01*
X152052499Y-72440061D01*
X151848550Y-72489204D01*
X151733771Y-72536746D01*
X151618479Y-72651193D01*
X147428788Y-72651193D01*
X146719595Y-71942000D01*
X146798458Y-71942000D01*
X146893511Y-71923093D01*
X146983050Y-71886005D01*
X147063632Y-71832162D01*
X147132162Y-71763632D01*
X147186005Y-71683050D01*
X147223093Y-71593511D01*
X147242000Y-71498458D01*
X147242000Y-71401542D01*
X147223093Y-71306489D01*
X147186005Y-71216950D01*
X147132162Y-71136368D01*
X147063632Y-71067838D01*
X146983050Y-71013995D01*
X146893511Y-70976907D01*
X146798458Y-70958000D01*
X146741661Y-70958000D01*
X144442496Y-68658835D01*
X144560617Y-68707763D01*
X144984107Y-68792000D01*
X145415893Y-68792000D01*
X145839383Y-68707763D01*
X146238301Y-68542525D01*
X146462908Y-68392447D01*
X151108000Y-68392447D01*
X151108000Y-68607553D01*
X151149965Y-68818525D01*
X151232282Y-69017256D01*
X151351788Y-69196110D01*
X151503890Y-69348212D01*
X151682744Y-69467718D01*
X151881475Y-69550035D01*
X152092447Y-69592000D01*
X152307553Y-69592000D01*
X152518525Y-69550035D01*
X152717256Y-69467718D01*
X152896110Y-69348212D01*
X153048212Y-69196110D01*
X153167718Y-69017256D01*
X153250035Y-68818525D01*
X153292000Y-68607553D01*
X153292000Y-68392447D01*
X153250035Y-68181475D01*
X153167718Y-67982744D01*
X153048212Y-67803890D01*
X152896110Y-67651788D01*
X152812004Y-67595590D01*
X153805111Y-66602484D01*
X153836428Y-66623409D01*
X154026060Y-66701957D01*
X154227372Y-66742000D01*
X154432628Y-66742000D01*
X154633940Y-66701957D01*
X154823572Y-66623409D01*
X154994236Y-66509374D01*
X155139374Y-66364236D01*
X155253409Y-66193572D01*
X155331957Y-66003940D01*
X155372000Y-65802628D01*
X155372000Y-65597372D01*
X155331957Y-65396060D01*
X155253409Y-65206428D01*
X155139374Y-65035764D01*
X154994236Y-64890626D01*
X154823572Y-64776591D01*
X154633940Y-64698043D01*
X154432628Y-64658000D01*
X154227372Y-64658000D01*
X154026060Y-64698043D01*
X153836428Y-64776591D01*
X153665764Y-64890626D01*
X153520626Y-65035764D01*
X153406591Y-65206428D01*
X153328043Y-65396060D01*
X153288000Y-65597372D01*
X153288000Y-65802628D01*
X153328043Y-66003940D01*
X153406591Y-66193572D01*
X153427516Y-66224889D01*
X152244406Y-67408000D01*
X152092447Y-67408000D01*
X151881475Y-67449965D01*
X151682744Y-67532282D01*
X151503890Y-67651788D01*
X151351788Y-67803890D01*
X151232282Y-67982744D01*
X151149965Y-68181475D01*
X151108000Y-68392447D01*
X146462908Y-68392447D01*
X146597318Y-68302637D01*
X146902637Y-67997318D01*
X147142525Y-67638301D01*
X147307763Y-67239383D01*
X147392000Y-66815893D01*
X147392000Y-66384107D01*
X147307763Y-65960617D01*
X147142525Y-65561699D01*
X146902637Y-65202682D01*
X146597318Y-64897363D01*
X146238301Y-64657475D01*
X145839383Y-64492237D01*
X145415893Y-64408000D01*
X144984107Y-64408000D01*
X144560617Y-64492237D01*
X144161699Y-64657475D01*
X143802682Y-64897363D01*
X143497363Y-65202682D01*
X143257475Y-65561699D01*
X143092237Y-65960617D01*
X143008000Y-66384107D01*
X143008000Y-66815893D01*
X143092237Y-67239383D01*
X143141165Y-67357504D01*
X141153710Y-65370050D01*
X141143000Y-65357000D01*
X141090924Y-65314262D01*
X141031511Y-65282505D01*
X140967044Y-65262949D01*
X140916794Y-65258000D01*
X140916784Y-65258000D01*
X140900000Y-65256347D01*
X140883216Y-65258000D01*
X123166783Y-65258000D01*
X123149999Y-65256347D01*
X123133215Y-65258000D01*
X123133206Y-65258000D01*
X123082956Y-65262949D01*
X123018489Y-65282505D01*
X122959076Y-65314262D01*
X122907000Y-65357000D01*
X122896295Y-65370044D01*
X121702584Y-66563755D01*
X121543940Y-66498043D01*
X121342628Y-66458000D01*
X121137372Y-66458000D01*
X120936060Y-66498043D01*
X120746428Y-66576591D01*
X120575764Y-66690626D01*
X120430626Y-66835764D01*
X120316591Y-67006428D01*
X120238043Y-67196060D01*
X120198000Y-67397372D01*
X120198000Y-67602628D01*
X120238043Y-67803940D01*
X120316591Y-67993572D01*
X120321495Y-68000911D01*
X119839406Y-68483000D01*
X119648029Y-68483000D01*
X119667237Y-68467237D01*
X119687856Y-68442112D01*
X119703177Y-68413448D01*
X119712612Y-68382346D01*
X119715798Y-68350000D01*
X119715000Y-67730250D01*
X119673750Y-67689000D01*
X118889000Y-67689000D01*
X118889000Y-67709000D01*
X118511000Y-67709000D01*
X118511000Y-67689000D01*
X117726250Y-67689000D01*
X117685000Y-67730250D01*
X117684202Y-68350000D01*
X117687388Y-68382346D01*
X117696823Y-68413448D01*
X117712144Y-68442112D01*
X117732763Y-68467237D01*
X117751971Y-68483000D01*
X105422727Y-68483000D01*
X105365822Y-68426095D01*
X105297524Y-68380459D01*
X105221635Y-68349025D01*
X105141071Y-68333000D01*
X105058929Y-68333000D01*
X104978365Y-68349025D01*
X104902476Y-68380459D01*
X104834178Y-68426095D01*
X104776095Y-68484178D01*
X104730459Y-68552476D01*
X104699025Y-68628365D01*
X104683000Y-68708929D01*
X100189999Y-68708929D01*
X100189999Y-66650000D01*
X117684202Y-66650000D01*
X117685000Y-67269750D01*
X117726250Y-67311000D01*
X118511000Y-67311000D01*
X118511000Y-66526250D01*
X118889000Y-66526250D01*
X118889000Y-67311000D01*
X119673750Y-67311000D01*
X119715000Y-67269750D01*
X119715798Y-66650000D01*
X119712612Y-66617654D01*
X119703177Y-66586552D01*
X119687856Y-66557888D01*
X119667237Y-66532763D01*
X119642112Y-66512144D01*
X119613448Y-66496823D01*
X119582346Y-66487388D01*
X119550000Y-66484202D01*
X118930250Y-66485000D01*
X118889000Y-66526250D01*
X118511000Y-66526250D01*
X118469750Y-66485000D01*
X117850000Y-66484202D01*
X117817654Y-66487388D01*
X117786552Y-66496823D01*
X117757888Y-66512144D01*
X117732763Y-66532763D01*
X117712144Y-66557888D01*
X117696823Y-66586552D01*
X117687388Y-66617654D01*
X117684202Y-66650000D01*
X100189999Y-66650000D01*
X100189998Y-66009301D01*
X100225364Y-65648615D01*
X100327414Y-65310609D01*
X100493172Y-64998864D01*
X100716320Y-64725256D01*
X100988373Y-64500195D01*
X101298949Y-64332267D01*
X101636232Y-64227861D01*
X101996323Y-64190013D01*
X102000667Y-64189998D01*
X197990709Y-64190000D01*
G37*
X197990709Y-64190000D02*
X198351385Y-64225365D01*
X198689391Y-64327415D01*
X199001135Y-64493173D01*
X199274746Y-64716324D01*
X199499804Y-64988372D01*
X199667732Y-65298950D01*
X199772138Y-65636232D01*
X199809986Y-65996323D01*
X199810000Y-66000382D01*
X199810001Y-73570825D01*
X199725061Y-73559643D01*
X199700000Y-73558000D01*
X194943303Y-73558000D01*
X194919753Y-73559450D01*
X194798020Y-73574495D01*
X194752335Y-73585963D01*
X194637928Y-73630194D01*
X194596411Y-73652438D01*
X194496215Y-73723192D01*
X194477814Y-73737962D01*
X194234511Y-73959147D01*
X194216094Y-73978386D01*
X194127564Y-74084748D01*
X194099547Y-74129903D01*
X194043563Y-74256458D01*
X194028997Y-74307563D01*
X194009847Y-74444616D01*
X194008000Y-74471185D01*
X194008000Y-85492893D01*
X194009643Y-85517954D01*
X194026680Y-85647364D01*
X194039652Y-85695778D01*
X194089602Y-85816368D01*
X194114663Y-85859775D01*
X194194123Y-85963329D01*
X194210682Y-85982212D01*
X194467788Y-86239318D01*
X194486671Y-86255877D01*
X194590225Y-86335337D01*
X194633632Y-86360398D01*
X194754222Y-86410348D01*
X194802636Y-86423320D01*
X194932046Y-86440357D01*
X194957107Y-86442000D01*
X199700000Y-86442000D01*
X199725061Y-86440357D01*
X199810001Y-86429174D01*
X199810002Y-93990699D01*
X199774636Y-94351387D01*
X199672586Y-94689393D01*
X199506829Y-95001136D01*
X199283677Y-95274747D01*
X199011627Y-95499805D01*
X198701052Y-95667732D01*
X198363768Y-95772139D01*
X198003676Y-95809987D01*
X197999903Y-95810000D01*
X102009301Y-95810002D01*
X101648613Y-95774636D01*
X101310607Y-95672586D01*
X100998864Y-95506829D01*
X100725253Y-95283677D01*
X100500195Y-95011627D01*
X100332268Y-94701052D01*
X100227861Y-94363768D01*
X100190013Y-94003676D01*
X100190000Y-93999903D01*
X100190000Y-93184107D01*
X143008000Y-93184107D01*
X143008000Y-93615893D01*
X143092237Y-94039383D01*
X143257475Y-94438301D01*
X143497363Y-94797318D01*
X143802682Y-95102637D01*
X144161699Y-95342525D01*
X144560617Y-95507763D01*
X144984107Y-95592000D01*
X145415893Y-95592000D01*
X145839383Y-95507763D01*
X146238301Y-95342525D01*
X146597318Y-95102637D01*
X146902637Y-94797318D01*
X147142525Y-94438301D01*
X147265384Y-94141693D01*
X165908000Y-94141693D01*
X165908000Y-94258307D01*
X165930751Y-94372680D01*
X165975377Y-94480417D01*
X166040164Y-94577378D01*
X166122622Y-94659836D01*
X166219583Y-94724623D01*
X166327320Y-94769249D01*
X166441693Y-94792000D01*
X166558307Y-94792000D01*
X166672680Y-94769249D01*
X166780417Y-94724623D01*
X166877378Y-94659836D01*
X166959836Y-94577378D01*
X167024623Y-94480417D01*
X167069249Y-94372680D01*
X167092000Y-94258307D01*
X167092000Y-94141693D01*
X167069249Y-94027320D01*
X167024623Y-93919583D01*
X166959836Y-93822622D01*
X166877378Y-93740164D01*
X166780417Y-93675377D01*
X166672680Y-93630751D01*
X166558307Y-93608000D01*
X166441693Y-93608000D01*
X166327320Y-93630751D01*
X166219583Y-93675377D01*
X166122622Y-93740164D01*
X166040164Y-93822622D01*
X165975377Y-93919583D01*
X165930751Y-94027320D01*
X165908000Y-94141693D01*
X147265384Y-94141693D01*
X147307763Y-94039383D01*
X147392000Y-93615893D01*
X147392000Y-93184107D01*
X147307763Y-92760617D01*
X147258503Y-92641693D01*
X165908000Y-92641693D01*
X165908000Y-92758307D01*
X165930751Y-92872680D01*
X165975377Y-92980417D01*
X166040164Y-93077378D01*
X166122622Y-93159836D01*
X166219583Y-93224623D01*
X166327320Y-93269249D01*
X166441693Y-93292000D01*
X166558307Y-93292000D01*
X166672680Y-93269249D01*
X166780417Y-93224623D01*
X166877378Y-93159836D01*
X166959836Y-93077378D01*
X167024623Y-92980417D01*
X167069249Y-92872680D01*
X167092000Y-92758307D01*
X167092000Y-92641693D01*
X167069249Y-92527320D01*
X167024623Y-92419583D01*
X166959836Y-92322622D01*
X166877378Y-92240164D01*
X166780417Y-92175377D01*
X166672680Y-92130751D01*
X166558307Y-92108000D01*
X166441693Y-92108000D01*
X166327320Y-92130751D01*
X166219583Y-92175377D01*
X166122622Y-92240164D01*
X166040164Y-92322622D01*
X165975377Y-92419583D01*
X165930751Y-92527320D01*
X165908000Y-92641693D01*
X147258503Y-92641693D01*
X147142525Y-92361699D01*
X147133911Y-92348807D01*
X151618479Y-92348807D01*
X151733771Y-92463254D01*
X151930652Y-92535702D01*
X152137883Y-92568349D01*
X152347501Y-92559939D01*
X152551450Y-92510796D01*
X152666229Y-92463254D01*
X152781521Y-92348807D01*
X152200000Y-91767286D01*
X151618479Y-92348807D01*
X147133911Y-92348807D01*
X146902637Y-92002682D01*
X146597318Y-91697363D01*
X146238301Y-91457475D01*
X146191002Y-91437883D01*
X151131651Y-91437883D01*
X151140061Y-91647501D01*
X151189204Y-91851450D01*
X151236746Y-91966229D01*
X151351193Y-92081521D01*
X151932714Y-91500000D01*
X152467286Y-91500000D01*
X153048807Y-92081521D01*
X153163254Y-91966229D01*
X153235702Y-91769348D01*
X153268349Y-91562117D01*
X153259939Y-91352499D01*
X153210796Y-91148550D01*
X153207956Y-91141693D01*
X165908000Y-91141693D01*
X165908000Y-91258307D01*
X165930751Y-91372680D01*
X165975377Y-91480417D01*
X166040164Y-91577378D01*
X166122622Y-91659836D01*
X166219583Y-91724623D01*
X166327320Y-91769249D01*
X166441693Y-91792000D01*
X166558307Y-91792000D01*
X166672680Y-91769249D01*
X166780417Y-91724623D01*
X166877378Y-91659836D01*
X166959836Y-91577378D01*
X167024623Y-91480417D01*
X167069249Y-91372680D01*
X167092000Y-91258307D01*
X167092000Y-91141693D01*
X167069249Y-91027320D01*
X167024623Y-90919583D01*
X166959836Y-90822622D01*
X166877378Y-90740164D01*
X166780417Y-90675377D01*
X166672680Y-90630751D01*
X166558307Y-90608000D01*
X166441693Y-90608000D01*
X166327320Y-90630751D01*
X166219583Y-90675377D01*
X166122622Y-90740164D01*
X166040164Y-90822622D01*
X165975377Y-90919583D01*
X165930751Y-91027320D01*
X165908000Y-91141693D01*
X153207956Y-91141693D01*
X153163254Y-91033771D01*
X153048807Y-90918479D01*
X152467286Y-91500000D01*
X151932714Y-91500000D01*
X151351193Y-90918479D01*
X151236746Y-91033771D01*
X151164298Y-91230652D01*
X151131651Y-91437883D01*
X146191002Y-91437883D01*
X145839383Y-91292237D01*
X145415893Y-91208000D01*
X144984107Y-91208000D01*
X144560617Y-91292237D01*
X144161699Y-91457475D01*
X143802682Y-91697363D01*
X143497363Y-92002682D01*
X143257475Y-92361699D01*
X143092237Y-92760617D01*
X143008000Y-93184107D01*
X100190000Y-93184107D01*
X100190000Y-90651193D01*
X151618479Y-90651193D01*
X152200000Y-91232714D01*
X152781521Y-90651193D01*
X152666229Y-90536746D01*
X152469348Y-90464298D01*
X152262117Y-90431651D01*
X152052499Y-90440061D01*
X151848550Y-90489204D01*
X151733771Y-90536746D01*
X151618479Y-90651193D01*
X100190000Y-90651193D01*
X100190000Y-84598224D01*
X100811533Y-84598224D01*
X100861176Y-84726351D01*
X100950036Y-84815859D01*
X101054651Y-84886311D01*
X101171000Y-84935000D01*
X101571000Y-84935000D01*
X101571000Y-84509000D01*
X101949000Y-84509000D01*
X101949000Y-84935000D01*
X102349000Y-84935000D01*
X102465349Y-84886311D01*
X102569964Y-84815859D01*
X102658824Y-84726351D01*
X102708467Y-84598224D01*
X104831533Y-84598224D01*
X104881176Y-84726351D01*
X104970036Y-84815859D01*
X105074651Y-84886311D01*
X105191000Y-84935000D01*
X105741000Y-84935000D01*
X105741000Y-84509000D01*
X106119000Y-84509000D01*
X106119000Y-84935000D01*
X106669000Y-84935000D01*
X106785349Y-84886311D01*
X106889964Y-84815859D01*
X106978824Y-84726351D01*
X107028467Y-84598224D01*
X107021727Y-84509000D01*
X106119000Y-84509000D01*
X105741000Y-84509000D01*
X104838273Y-84509000D01*
X104831533Y-84598224D01*
X102708467Y-84598224D01*
X102701727Y-84509000D01*
X101949000Y-84509000D01*
X101571000Y-84509000D01*
X100818273Y-84509000D01*
X100811533Y-84598224D01*
X100190000Y-84598224D01*
X100190000Y-84041776D01*
X100811533Y-84041776D01*
X100818273Y-84131000D01*
X101571000Y-84131000D01*
X101571000Y-83705000D01*
X101949000Y-83705000D01*
X101949000Y-84131000D01*
X102701727Y-84131000D01*
X102708467Y-84041776D01*
X104831533Y-84041776D01*
X104838273Y-84131000D01*
X105741000Y-84131000D01*
X105741000Y-83705000D01*
X106119000Y-83705000D01*
X106119000Y-84131000D01*
X107021727Y-84131000D01*
X107028467Y-84041776D01*
X106978824Y-83913649D01*
X106889964Y-83824141D01*
X106785349Y-83753689D01*
X106669000Y-83705000D01*
X106119000Y-83705000D01*
X105741000Y-83705000D01*
X105191000Y-83705000D01*
X105074651Y-83753689D01*
X104970036Y-83824141D01*
X104881176Y-83913649D01*
X104831533Y-84041776D01*
X102708467Y-84041776D01*
X102658824Y-83913649D01*
X102569964Y-83824141D01*
X102465349Y-83753689D01*
X102349000Y-83705000D01*
X101949000Y-83705000D01*
X101571000Y-83705000D01*
X101171000Y-83705000D01*
X101054651Y-83753689D01*
X100950036Y-83824141D01*
X100861176Y-83913649D01*
X100811533Y-84041776D01*
X100190000Y-84041776D01*
X100190000Y-82841542D01*
X104958000Y-82841542D01*
X104958000Y-82938458D01*
X104976907Y-83033511D01*
X105013995Y-83123050D01*
X105067838Y-83203632D01*
X105136368Y-83272162D01*
X105216950Y-83326005D01*
X105306489Y-83363093D01*
X105401542Y-83382000D01*
X105498458Y-83382000D01*
X105593511Y-83363093D01*
X105683050Y-83326005D01*
X105763632Y-83272162D01*
X105832162Y-83203632D01*
X105886005Y-83123050D01*
X105923093Y-83033511D01*
X105942000Y-82938458D01*
X105942000Y-82841542D01*
X105923093Y-82746489D01*
X105886005Y-82656950D01*
X105832162Y-82576368D01*
X105763632Y-82507838D01*
X105683050Y-82453995D01*
X105593511Y-82416907D01*
X105498458Y-82398000D01*
X105401542Y-82398000D01*
X105306489Y-82416907D01*
X105216950Y-82453995D01*
X105136368Y-82507838D01*
X105067838Y-82576368D01*
X105013995Y-82656950D01*
X104976907Y-82746489D01*
X104958000Y-82841542D01*
X100190000Y-82841542D01*
X100190000Y-82341693D01*
X107033000Y-82341693D01*
X107033000Y-82458307D01*
X107055751Y-82572680D01*
X107100377Y-82680417D01*
X107165164Y-82777378D01*
X107247622Y-82859836D01*
X107344583Y-82924623D01*
X107452320Y-82969249D01*
X107566693Y-82992000D01*
X107683307Y-82992000D01*
X107797680Y-82969249D01*
X107905417Y-82924623D01*
X108002378Y-82859836D01*
X108084836Y-82777378D01*
X108149623Y-82680417D01*
X108194249Y-82572680D01*
X108217000Y-82458307D01*
X108217000Y-82341693D01*
X108194249Y-82227320D01*
X108149623Y-82119583D01*
X108084836Y-82022622D01*
X108002378Y-81940164D01*
X107905417Y-81875377D01*
X107797680Y-81830751D01*
X107683307Y-81808000D01*
X107566693Y-81808000D01*
X107452320Y-81830751D01*
X107344583Y-81875377D01*
X107247622Y-81940164D01*
X107165164Y-82022622D01*
X107100377Y-82119583D01*
X107055751Y-82227320D01*
X107033000Y-82341693D01*
X100190000Y-82341693D01*
X100190000Y-79208929D01*
X107033000Y-79208929D01*
X107033000Y-79291071D01*
X107049025Y-79371635D01*
X107080459Y-79447524D01*
X107126095Y-79515822D01*
X107183001Y-79572728D01*
X107183000Y-79927273D01*
X107126095Y-79984178D01*
X107080459Y-80052476D01*
X107049025Y-80128365D01*
X107033000Y-80208929D01*
X107033000Y-80291071D01*
X107049025Y-80371635D01*
X107080459Y-80447524D01*
X107126095Y-80515822D01*
X107184178Y-80573905D01*
X107252476Y-80619541D01*
X107328365Y-80650975D01*
X107408929Y-80667000D01*
X107491071Y-80667000D01*
X107571635Y-80650975D01*
X107647524Y-80619541D01*
X107715822Y-80573905D01*
X107773905Y-80515822D01*
X107819541Y-80447524D01*
X107850975Y-80371635D01*
X107867000Y-80291071D01*
X107867000Y-80208929D01*
X107850975Y-80128365D01*
X107819541Y-80052476D01*
X107773905Y-79984178D01*
X107717000Y-79927273D01*
X107717000Y-79572727D01*
X107773905Y-79515822D01*
X107819541Y-79447524D01*
X107850975Y-79371635D01*
X107867000Y-79291071D01*
X107867000Y-79208929D01*
X107850975Y-79128365D01*
X107819541Y-79052476D01*
X107773905Y-78984178D01*
X107715822Y-78926095D01*
X107647524Y-78880459D01*
X107571635Y-78849025D01*
X107491071Y-78833000D01*
X107408929Y-78833000D01*
X107328365Y-78849025D01*
X107252476Y-78880459D01*
X107184178Y-78926095D01*
X107126095Y-78984178D01*
X107080459Y-79052476D01*
X107049025Y-79128365D01*
X107033000Y-79208929D01*
X100190000Y-79208929D01*
X100190000Y-77061542D01*
X104958000Y-77061542D01*
X104958000Y-77158458D01*
X104976907Y-77253511D01*
X105013995Y-77343050D01*
X105067838Y-77423632D01*
X105136368Y-77492162D01*
X105216950Y-77546005D01*
X105306489Y-77583093D01*
X105401542Y-77602000D01*
X105498458Y-77602000D01*
X105593511Y-77583093D01*
X105683050Y-77546005D01*
X105689503Y-77541693D01*
X107033000Y-77541693D01*
X107033000Y-77658307D01*
X107055751Y-77772680D01*
X107100377Y-77880417D01*
X107165164Y-77977378D01*
X107247622Y-78059836D01*
X107344583Y-78124623D01*
X107452320Y-78169249D01*
X107566693Y-78192000D01*
X107683307Y-78192000D01*
X107797680Y-78169249D01*
X107905417Y-78124623D01*
X108002378Y-78059836D01*
X108084836Y-77977378D01*
X108149623Y-77880417D01*
X108194249Y-77772680D01*
X108217000Y-77658307D01*
X108217000Y-77541693D01*
X108194249Y-77427320D01*
X108149623Y-77319583D01*
X108084836Y-77222622D01*
X108002378Y-77140164D01*
X107905417Y-77075377D01*
X107797680Y-77030751D01*
X107683307Y-77008000D01*
X107566693Y-77008000D01*
X107452320Y-77030751D01*
X107344583Y-77075377D01*
X107247622Y-77140164D01*
X107165164Y-77222622D01*
X107100377Y-77319583D01*
X107055751Y-77427320D01*
X107033000Y-77541693D01*
X105689503Y-77541693D01*
X105763632Y-77492162D01*
X105832162Y-77423632D01*
X105886005Y-77343050D01*
X105923093Y-77253511D01*
X105942000Y-77158458D01*
X105942000Y-77061542D01*
X105923093Y-76966489D01*
X105886005Y-76876950D01*
X105832162Y-76796368D01*
X105763632Y-76727838D01*
X105683050Y-76673995D01*
X105593511Y-76636907D01*
X105498458Y-76618000D01*
X105401542Y-76618000D01*
X105306489Y-76636907D01*
X105216950Y-76673995D01*
X105136368Y-76727838D01*
X105067838Y-76796368D01*
X105013995Y-76876950D01*
X104976907Y-76966489D01*
X104958000Y-77061542D01*
X100190000Y-77061542D01*
X100190000Y-75958224D01*
X100811533Y-75958224D01*
X100861176Y-76086351D01*
X100950036Y-76175859D01*
X101054651Y-76246311D01*
X101171000Y-76295000D01*
X101571000Y-76295000D01*
X101571000Y-75869000D01*
X101949000Y-75869000D01*
X101949000Y-76295000D01*
X102349000Y-76295000D01*
X102465349Y-76246311D01*
X102569964Y-76175859D01*
X102658824Y-76086351D01*
X102708467Y-75958224D01*
X104831533Y-75958224D01*
X104881176Y-76086351D01*
X104970036Y-76175859D01*
X105074651Y-76246311D01*
X105191000Y-76295000D01*
X105741000Y-76295000D01*
X105741000Y-75869000D01*
X106119000Y-75869000D01*
X106119000Y-76295000D01*
X106669000Y-76295000D01*
X106785349Y-76246311D01*
X106889964Y-76175859D01*
X106978824Y-76086351D01*
X107028467Y-75958224D01*
X107021727Y-75869000D01*
X106119000Y-75869000D01*
X105741000Y-75869000D01*
X104838273Y-75869000D01*
X104831533Y-75958224D01*
X102708467Y-75958224D01*
X102701727Y-75869000D01*
X101949000Y-75869000D01*
X101571000Y-75869000D01*
X100818273Y-75869000D01*
X100811533Y-75958224D01*
X100190000Y-75958224D01*
X100190000Y-75401776D01*
X100811533Y-75401776D01*
X100818273Y-75491000D01*
X101571000Y-75491000D01*
X101571000Y-75065000D01*
X101949000Y-75065000D01*
X101949000Y-75491000D01*
X102701727Y-75491000D01*
X102708467Y-75401776D01*
X104831533Y-75401776D01*
X104838273Y-75491000D01*
X105741000Y-75491000D01*
X105741000Y-75065000D01*
X106119000Y-75065000D01*
X106119000Y-75491000D01*
X107021727Y-75491000D01*
X107028467Y-75401776D01*
X106978824Y-75273649D01*
X106889964Y-75184141D01*
X106785349Y-75113689D01*
X106669000Y-75065000D01*
X106119000Y-75065000D01*
X105741000Y-75065000D01*
X105191000Y-75065000D01*
X105074651Y-75113689D01*
X104970036Y-75184141D01*
X104881176Y-75273649D01*
X104831533Y-75401776D01*
X102708467Y-75401776D01*
X102658824Y-75273649D01*
X102569964Y-75184141D01*
X102465349Y-75113689D01*
X102349000Y-75065000D01*
X101949000Y-75065000D01*
X101571000Y-75065000D01*
X101171000Y-75065000D01*
X101054651Y-75113689D01*
X100950036Y-75184141D01*
X100861176Y-75273649D01*
X100811533Y-75401776D01*
X100190000Y-75401776D01*
X100189999Y-68708929D01*
X104683000Y-68708929D01*
X104683000Y-68791071D01*
X104699025Y-68871635D01*
X104730459Y-68947524D01*
X104776095Y-69015822D01*
X104834178Y-69073905D01*
X104902476Y-69119541D01*
X104978365Y-69150975D01*
X105058929Y-69167000D01*
X105141071Y-69167000D01*
X105221635Y-69150975D01*
X105297524Y-69119541D01*
X105365822Y-69073905D01*
X105422727Y-69017000D01*
X119936902Y-69017000D01*
X119950000Y-69018290D01*
X119963098Y-69017000D01*
X119963108Y-69017000D01*
X120002341Y-69013136D01*
X120052671Y-68997869D01*
X120099054Y-68973076D01*
X120139710Y-68939710D01*
X120148067Y-68929527D01*
X120691133Y-68386462D01*
X120746428Y-68423409D01*
X120936060Y-68501957D01*
X121137372Y-68542000D01*
X121342628Y-68542000D01*
X121543940Y-68501957D01*
X121733572Y-68423409D01*
X121904236Y-68309374D01*
X122049374Y-68164236D01*
X122163409Y-67993572D01*
X122241957Y-67803940D01*
X122282000Y-67602628D01*
X122282000Y-67397372D01*
X122241957Y-67196060D01*
X122182102Y-67051558D01*
X123291661Y-65942000D01*
X140758340Y-65942000D01*
X146258000Y-71441661D01*
X146258000Y-71480405D01*
X141621103Y-66843509D01*
X141612748Y-66833328D01*
X141572092Y-66799962D01*
X141525709Y-66775169D01*
X141475379Y-66759902D01*
X141436146Y-66756038D01*
X141436136Y-66756038D01*
X141423038Y-66754748D01*
X141409940Y-66756038D01*
X127510595Y-66756038D01*
X127023028Y-66268472D01*
X127014671Y-66258289D01*
X126974015Y-66224923D01*
X126927632Y-66200130D01*
X126877302Y-66184863D01*
X126838069Y-66180999D01*
X126838059Y-66180999D01*
X126824961Y-66179709D01*
X126811863Y-66180999D01*
X124865098Y-66180999D01*
X124852000Y-66179709D01*
X124838902Y-66180999D01*
X124838893Y-66180999D01*
X124799660Y-66184863D01*
X124749330Y-66200130D01*
X124702947Y-66224923D01*
X124702945Y-66224924D01*
X124702946Y-66224924D01*
X124672472Y-66249933D01*
X124672469Y-66249936D01*
X124662291Y-66258289D01*
X124653938Y-66268467D01*
X124316878Y-66605527D01*
X124273572Y-66576591D01*
X124083940Y-66498043D01*
X123882628Y-66458000D01*
X123677372Y-66458000D01*
X123476060Y-66498043D01*
X123286428Y-66576591D01*
X123115764Y-66690626D01*
X122970626Y-66835764D01*
X122856591Y-67006428D01*
X122778043Y-67196060D01*
X122738000Y-67397372D01*
X122738000Y-67602628D01*
X122778043Y-67803940D01*
X122856591Y-67993572D01*
X122970626Y-68164236D01*
X123115764Y-68309374D01*
X123286428Y-68423409D01*
X123476060Y-68501957D01*
X123677372Y-68542000D01*
X123882628Y-68542000D01*
X124083940Y-68501957D01*
X124273572Y-68423409D01*
X124444236Y-68309374D01*
X124589374Y-68164236D01*
X124703409Y-67993572D01*
X124781957Y-67803940D01*
X124822000Y-67602628D01*
X124822000Y-67397372D01*
X124781957Y-67196060D01*
X124703409Y-67006428D01*
X124690494Y-66987100D01*
X124962596Y-66714999D01*
X125631391Y-66714999D01*
X125510626Y-66835764D01*
X125396591Y-67006428D01*
X125318043Y-67196060D01*
X125278000Y-67397372D01*
X125278000Y-67602628D01*
X125318043Y-67803940D01*
X125396591Y-67993572D01*
X125510626Y-68164236D01*
X125655764Y-68309374D01*
X125826428Y-68423409D01*
X126016060Y-68501957D01*
X126217372Y-68542000D01*
X126422628Y-68542000D01*
X126623940Y-68501957D01*
X126813572Y-68423409D01*
X126984236Y-68309374D01*
X127129374Y-68164236D01*
X127243409Y-67993572D01*
X127321957Y-67803940D01*
X127339250Y-67717000D01*
X141339406Y-67717000D01*
X148941895Y-75319490D01*
X148950248Y-75329668D01*
X148960426Y-75338021D01*
X148960429Y-75338024D01*
X148983393Y-75356870D01*
X148990904Y-75363034D01*
X149037287Y-75387827D01*
X149087617Y-75403094D01*
X149126850Y-75406958D01*
X149126860Y-75406958D01*
X149139958Y-75408248D01*
X149153056Y-75406958D01*
X152523695Y-75406958D01*
X150501666Y-77428988D01*
X146029562Y-77428988D01*
X146238301Y-77342525D01*
X146597318Y-77102637D01*
X146902637Y-76797318D01*
X147142525Y-76438301D01*
X147307763Y-76039383D01*
X147392000Y-75615893D01*
X147392000Y-75184107D01*
X147307763Y-74760617D01*
X147142525Y-74361699D01*
X146902637Y-74002682D01*
X146597318Y-73697363D01*
X146238301Y-73457475D01*
X145839383Y-73292237D01*
X145415893Y-73208000D01*
X144984107Y-73208000D01*
X144560617Y-73292237D01*
X144161699Y-73457475D01*
X143802682Y-73697363D01*
X143497363Y-74002682D01*
X143257475Y-74361699D01*
X143092237Y-74760617D01*
X143008000Y-75184107D01*
X143008000Y-75615893D01*
X143092237Y-76039383D01*
X143257475Y-76438301D01*
X143497363Y-76797318D01*
X143802682Y-77102637D01*
X144161699Y-77342525D01*
X144370438Y-77428988D01*
X140743395Y-77428988D01*
X140730297Y-77427698D01*
X140717199Y-77428988D01*
X140717190Y-77428988D01*
X140677957Y-77432852D01*
X140627627Y-77448119D01*
X140587234Y-77469710D01*
X140581242Y-77472913D01*
X140550834Y-77497869D01*
X140540588Y-77506278D01*
X140532235Y-77516456D01*
X139770469Y-78278225D01*
X139760291Y-78286578D01*
X139751938Y-78296756D01*
X139751934Y-78296760D01*
X139726924Y-78327234D01*
X139702131Y-78373618D01*
X139686865Y-78423947D01*
X139681710Y-78476288D01*
X139683001Y-78489396D01*
X139683000Y-79483000D01*
X139510595Y-79483000D01*
X139117000Y-79089406D01*
X139117000Y-79008929D01*
X139100975Y-78928365D01*
X139069541Y-78852476D01*
X139023905Y-78784178D01*
X138965822Y-78726095D01*
X138897524Y-78680459D01*
X138821635Y-78649025D01*
X138741071Y-78633000D01*
X138658929Y-78633000D01*
X138578365Y-78649025D01*
X138502476Y-78680459D01*
X138434178Y-78726095D01*
X138376095Y-78784178D01*
X138330459Y-78852476D01*
X138299025Y-78928365D01*
X138283000Y-79008929D01*
X138283000Y-79091071D01*
X138299025Y-79171635D01*
X138330459Y-79247524D01*
X138376095Y-79315822D01*
X138434178Y-79373905D01*
X138502476Y-79419541D01*
X138578365Y-79450975D01*
X138658929Y-79467000D01*
X138739406Y-79467000D01*
X138886969Y-79614563D01*
X138848592Y-79630459D01*
X138780294Y-79676095D01*
X138722211Y-79734178D01*
X138676575Y-79802476D01*
X138645141Y-79878365D01*
X138629116Y-79958929D01*
X138629116Y-80041071D01*
X138645141Y-80121635D01*
X138676575Y-80197524D01*
X138722211Y-80265822D01*
X138780294Y-80323905D01*
X138848592Y-80369541D01*
X138886969Y-80385437D01*
X138739406Y-80533000D01*
X138658929Y-80533000D01*
X138578365Y-80549025D01*
X138502476Y-80580459D01*
X138434178Y-80626095D01*
X138376095Y-80684178D01*
X138330459Y-80752476D01*
X138299025Y-80828365D01*
X138283000Y-80908929D01*
X138283000Y-80991071D01*
X138299025Y-81071635D01*
X138330459Y-81147524D01*
X138376095Y-81215822D01*
X138434178Y-81273905D01*
X138502476Y-81319541D01*
X138578365Y-81350975D01*
X138658929Y-81367000D01*
X138741071Y-81367000D01*
X138821635Y-81350975D01*
X138897524Y-81319541D01*
X138965822Y-81273905D01*
X139023905Y-81215822D01*
X139069541Y-81147524D01*
X139100975Y-81071635D01*
X139117000Y-80991071D01*
X139117000Y-80910594D01*
X139510595Y-80517000D01*
X139986902Y-80517000D01*
X140000000Y-80518290D01*
X140013098Y-80517000D01*
X140013108Y-80517000D01*
X140052341Y-80513136D01*
X140102671Y-80497869D01*
X140149054Y-80473076D01*
X140189710Y-80439710D01*
X140198067Y-80429527D01*
X140355999Y-80271595D01*
X140356000Y-81791853D01*
X140354709Y-81804961D01*
X140359864Y-81857302D01*
X140375130Y-81907631D01*
X140399924Y-81954015D01*
X140424933Y-81984489D01*
X140424937Y-81984493D01*
X140433290Y-81994671D01*
X140443468Y-82003024D01*
X140477455Y-82037011D01*
X116614606Y-82037011D01*
X105523070Y-70945476D01*
X105523065Y-70945470D01*
X105517000Y-70939405D01*
X105517000Y-70858929D01*
X105500975Y-70778365D01*
X105469541Y-70702476D01*
X105423905Y-70634178D01*
X105365822Y-70576095D01*
X105297524Y-70530459D01*
X105221635Y-70499025D01*
X105141071Y-70483000D01*
X105058929Y-70483000D01*
X104978365Y-70499025D01*
X104902476Y-70530459D01*
X104834178Y-70576095D01*
X104776095Y-70634178D01*
X104730459Y-70702476D01*
X104699025Y-70778365D01*
X104683000Y-70858929D01*
X104683000Y-70941071D01*
X104699025Y-71021635D01*
X104730459Y-71097524D01*
X104776095Y-71165822D01*
X104834178Y-71223905D01*
X104902476Y-71269541D01*
X104978365Y-71300975D01*
X105058929Y-71317000D01*
X105139405Y-71317000D01*
X105145470Y-71323065D01*
X105145476Y-71323070D01*
X116305948Y-82483543D01*
X116314301Y-82493721D01*
X116324479Y-82502074D01*
X116324481Y-82502076D01*
X116331502Y-82507838D01*
X116354957Y-82527087D01*
X116401340Y-82551880D01*
X116451670Y-82567147D01*
X116490903Y-82571011D01*
X116490912Y-82571011D01*
X116504010Y-82572301D01*
X116517108Y-82571011D01*
X144370441Y-82571011D01*
X144161699Y-82657475D01*
X143802682Y-82897363D01*
X143497363Y-83202682D01*
X143257475Y-83561699D01*
X143092237Y-83960617D01*
X143008000Y-84384107D01*
X143008000Y-84815893D01*
X143092237Y-85239383D01*
X143257475Y-85638301D01*
X143497363Y-85997318D01*
X143802682Y-86302637D01*
X144161699Y-86542525D01*
X144560617Y-86707763D01*
X144984107Y-86792000D01*
X145415893Y-86792000D01*
X145839383Y-86707763D01*
X146238301Y-86542525D01*
X146462908Y-86392447D01*
X151108000Y-86392447D01*
X151108000Y-86607553D01*
X151149965Y-86818525D01*
X151232282Y-87017256D01*
X151351788Y-87196110D01*
X151503890Y-87348212D01*
X151682744Y-87467718D01*
X151881475Y-87550035D01*
X152092447Y-87592000D01*
X152307553Y-87592000D01*
X152518525Y-87550035D01*
X152717256Y-87467718D01*
X152896110Y-87348212D01*
X153048212Y-87196110D01*
X153167718Y-87017256D01*
X153250035Y-86818525D01*
X153292000Y-86607553D01*
X153292000Y-86392447D01*
X153250035Y-86181475D01*
X153167718Y-85982744D01*
X153048212Y-85803890D01*
X152896110Y-85651788D01*
X152717256Y-85532282D01*
X152518525Y-85449965D01*
X152307553Y-85408000D01*
X152092447Y-85408000D01*
X151881475Y-85449965D01*
X151682744Y-85532282D01*
X151503890Y-85651788D01*
X151351788Y-85803890D01*
X151232282Y-85982744D01*
X151149965Y-86181475D01*
X151108000Y-86392447D01*
X146462908Y-86392447D01*
X146597318Y-86302637D01*
X146902637Y-85997318D01*
X147142525Y-85638301D01*
X147307763Y-85239383D01*
X147392000Y-84815893D01*
X147392000Y-84384107D01*
X147307763Y-83960617D01*
X147142525Y-83561699D01*
X146902637Y-83202682D01*
X146597318Y-82897363D01*
X146238301Y-82657475D01*
X146029559Y-82571011D01*
X150474642Y-82571011D01*
X150487740Y-82572301D01*
X150500838Y-82571011D01*
X150500848Y-82571011D01*
X150540081Y-82567147D01*
X150590411Y-82551880D01*
X150636794Y-82527087D01*
X150677450Y-82493721D01*
X150685807Y-82483538D01*
X153660416Y-79508929D01*
X154233000Y-79508929D01*
X154233000Y-79591071D01*
X154249025Y-79671635D01*
X154280459Y-79747524D01*
X154326095Y-79815822D01*
X154384178Y-79873905D01*
X154452476Y-79919541D01*
X154528365Y-79950975D01*
X154608929Y-79967000D01*
X154691071Y-79967000D01*
X154771635Y-79950975D01*
X154847524Y-79919541D01*
X154915822Y-79873905D01*
X154973905Y-79815822D01*
X155019541Y-79747524D01*
X155050975Y-79671635D01*
X155067000Y-79591071D01*
X155067000Y-79508929D01*
X155050975Y-79428365D01*
X155019541Y-79352476D01*
X154973905Y-79284178D01*
X154915822Y-79226095D01*
X154847524Y-79180459D01*
X154771635Y-79149025D01*
X154691071Y-79133000D01*
X154608929Y-79133000D01*
X154528365Y-79149025D01*
X154452476Y-79180459D01*
X154384178Y-79226095D01*
X154326095Y-79284178D01*
X154280459Y-79352476D01*
X154249025Y-79428365D01*
X154233000Y-79508929D01*
X153660416Y-79508929D01*
X154702346Y-78467000D01*
X154874443Y-78467000D01*
X154849025Y-78528365D01*
X154833000Y-78608929D01*
X154833000Y-78691071D01*
X154849025Y-78771635D01*
X154880459Y-78847524D01*
X154926095Y-78915822D01*
X154984178Y-78973905D01*
X155052476Y-79019541D01*
X155128365Y-79050975D01*
X155208929Y-79067000D01*
X155291071Y-79067000D01*
X155371635Y-79050975D01*
X155447524Y-79019541D01*
X155515822Y-78973905D01*
X155573905Y-78915822D01*
X155619541Y-78847524D01*
X155650975Y-78771635D01*
X155667000Y-78691071D01*
X155667000Y-78617000D01*
X155691071Y-78617000D01*
X155771635Y-78600975D01*
X155847524Y-78569541D01*
X155915822Y-78523905D01*
X155973905Y-78465822D01*
X156019541Y-78397524D01*
X156033001Y-78365029D01*
X156033000Y-79490904D01*
X156031710Y-79504002D01*
X156033000Y-79517100D01*
X156033000Y-79517109D01*
X156036864Y-79556342D01*
X156052131Y-79606672D01*
X156076924Y-79653056D01*
X156081000Y-79658022D01*
X156080999Y-80818150D01*
X156079709Y-80831248D01*
X156080999Y-80844346D01*
X156080999Y-80844355D01*
X156084863Y-80883588D01*
X156100130Y-80933918D01*
X156124923Y-80980302D01*
X156158289Y-81020958D01*
X156168472Y-81029315D01*
X157974509Y-82835353D01*
X157237484Y-82835353D01*
X157224386Y-82834063D01*
X157211288Y-82835353D01*
X157211279Y-82835353D01*
X157172046Y-82839217D01*
X157121716Y-82854484D01*
X157075333Y-82879277D01*
X157075331Y-82879278D01*
X157075332Y-82879278D01*
X157044859Y-82904287D01*
X157034677Y-82912643D01*
X157026324Y-82922821D01*
X155695473Y-84253673D01*
X155685290Y-84262030D01*
X155651924Y-84302686D01*
X155627131Y-84349070D01*
X155611864Y-84399400D01*
X155608000Y-84438633D01*
X155608000Y-84438642D01*
X155606710Y-84451740D01*
X155608000Y-84464838D01*
X155608000Y-84718273D01*
X155565822Y-84676095D01*
X155497524Y-84630459D01*
X155421635Y-84599025D01*
X155341071Y-84583000D01*
X155258929Y-84583000D01*
X155178365Y-84599025D01*
X155102476Y-84630459D01*
X155034178Y-84676095D01*
X154976095Y-84734178D01*
X154930459Y-84802476D01*
X154899025Y-84878365D01*
X154883000Y-84958929D01*
X154883000Y-85041071D01*
X154899025Y-85121635D01*
X154930459Y-85197524D01*
X154976095Y-85265822D01*
X155034178Y-85323905D01*
X155102476Y-85369541D01*
X155178365Y-85400975D01*
X155258929Y-85417000D01*
X155341071Y-85417000D01*
X155421635Y-85400975D01*
X155463963Y-85383442D01*
X152775924Y-88071482D01*
X152717256Y-88032282D01*
X152518525Y-87949965D01*
X152307553Y-87908000D01*
X152092447Y-87908000D01*
X151881475Y-87949965D01*
X151682744Y-88032282D01*
X151503890Y-88151788D01*
X151351788Y-88303890D01*
X151232282Y-88482744D01*
X151149965Y-88681475D01*
X151108000Y-88892447D01*
X151108000Y-89107553D01*
X151149965Y-89318525D01*
X151232282Y-89517256D01*
X151351788Y-89696110D01*
X151503890Y-89848212D01*
X151682744Y-89967718D01*
X151881475Y-90050035D01*
X152092447Y-90092000D01*
X152307553Y-90092000D01*
X152518525Y-90050035D01*
X152717256Y-89967718D01*
X152896110Y-89848212D01*
X153048212Y-89696110D01*
X153167718Y-89517256D01*
X153250035Y-89318525D01*
X153292000Y-89107553D01*
X153292000Y-88892447D01*
X153250035Y-88681475D01*
X153167718Y-88482744D01*
X153148545Y-88454049D01*
X153152594Y-88450000D01*
X155457071Y-88450000D01*
X155457071Y-90150000D01*
X155460778Y-90187639D01*
X155471757Y-90223831D01*
X155489585Y-90257186D01*
X155513579Y-90286421D01*
X155542814Y-90310415D01*
X155576169Y-90328243D01*
X155612361Y-90339222D01*
X155650000Y-90342929D01*
X157350000Y-90342929D01*
X157387639Y-90339222D01*
X157423831Y-90328243D01*
X157457186Y-90310415D01*
X157486421Y-90286421D01*
X157510415Y-90257186D01*
X157528243Y-90223831D01*
X157539222Y-90187639D01*
X157542929Y-90150000D01*
X157542929Y-88450000D01*
X158357071Y-88450000D01*
X158357071Y-90150000D01*
X158360778Y-90187639D01*
X158371757Y-90223831D01*
X158389585Y-90257186D01*
X158413579Y-90286421D01*
X158442814Y-90310415D01*
X158476169Y-90328243D01*
X158512361Y-90339222D01*
X158550000Y-90342929D01*
X160250000Y-90342929D01*
X160287639Y-90339222D01*
X160323831Y-90328243D01*
X160357186Y-90310415D01*
X160386421Y-90286421D01*
X160410415Y-90257186D01*
X160428243Y-90223831D01*
X160439222Y-90187639D01*
X160442929Y-90150000D01*
X160442929Y-88450000D01*
X160439222Y-88412361D01*
X160428243Y-88376169D01*
X160410415Y-88342814D01*
X160386421Y-88313579D01*
X160357186Y-88289585D01*
X160323831Y-88271757D01*
X160287639Y-88260778D01*
X160250000Y-88257071D01*
X158550000Y-88257071D01*
X158512361Y-88260778D01*
X158476169Y-88271757D01*
X158442814Y-88289585D01*
X158413579Y-88313579D01*
X158389585Y-88342814D01*
X158371757Y-88376169D01*
X158360778Y-88412361D01*
X158357071Y-88450000D01*
X157542929Y-88450000D01*
X157539222Y-88412361D01*
X157528243Y-88376169D01*
X157510415Y-88342814D01*
X157486421Y-88313579D01*
X157457186Y-88289585D01*
X157423831Y-88271757D01*
X157387639Y-88260778D01*
X157350000Y-88257071D01*
X155650000Y-88257071D01*
X155612361Y-88260778D01*
X155576169Y-88271757D01*
X155542814Y-88289585D01*
X155513579Y-88313579D01*
X155489585Y-88342814D01*
X155471757Y-88376169D01*
X155460778Y-88412361D01*
X155457071Y-88450000D01*
X153152594Y-88450000D01*
X156054532Y-85548063D01*
X156064710Y-85539710D01*
X156073063Y-85529532D01*
X156073066Y-85529529D01*
X156098076Y-85499055D01*
X156122869Y-85452671D01*
X156126671Y-85440136D01*
X156138136Y-85402341D01*
X156142000Y-85363108D01*
X156142000Y-85363098D01*
X156143290Y-85350000D01*
X156142000Y-85336902D01*
X156142000Y-84562334D01*
X157035687Y-83668647D01*
X157059807Y-83726878D01*
X157105443Y-83795176D01*
X157163526Y-83853259D01*
X157231824Y-83898895D01*
X157307713Y-83930329D01*
X157388277Y-83946354D01*
X157420448Y-83946354D01*
X157420448Y-83978343D01*
X157436473Y-84058907D01*
X157467907Y-84134796D01*
X157513543Y-84203094D01*
X157571626Y-84261177D01*
X157639924Y-84306813D01*
X157715813Y-84338247D01*
X157796377Y-84354272D01*
X157826025Y-84354272D01*
X157826025Y-84388770D01*
X157842050Y-84469334D01*
X157873484Y-84545223D01*
X157919120Y-84613521D01*
X157977203Y-84671604D01*
X157983001Y-84675478D01*
X157983000Y-85336902D01*
X157981710Y-85350000D01*
X157983000Y-85363098D01*
X157983000Y-85363107D01*
X157986864Y-85402340D01*
X158002131Y-85452670D01*
X158026924Y-85499054D01*
X158060290Y-85539710D01*
X158070473Y-85548067D01*
X160801937Y-88279532D01*
X160810290Y-88289710D01*
X160820468Y-88298063D01*
X160820471Y-88298066D01*
X160827568Y-88303890D01*
X160850946Y-88323076D01*
X160897329Y-88347869D01*
X160947659Y-88363136D01*
X160986892Y-88367000D01*
X160986901Y-88367000D01*
X160999999Y-88368290D01*
X161013097Y-88367000D01*
X161276658Y-88367000D01*
X161271757Y-88376169D01*
X161260778Y-88412361D01*
X161257071Y-88450000D01*
X161257071Y-90150000D01*
X161260778Y-90187639D01*
X161271757Y-90223831D01*
X161289585Y-90257186D01*
X161313579Y-90286421D01*
X161342814Y-90310415D01*
X161376169Y-90328243D01*
X161412361Y-90339222D01*
X161450000Y-90342929D01*
X163150000Y-90342929D01*
X163187639Y-90339222D01*
X163223831Y-90328243D01*
X163257186Y-90310415D01*
X163286421Y-90286421D01*
X163310415Y-90257186D01*
X163328243Y-90223831D01*
X163339222Y-90187639D01*
X163342929Y-90150000D01*
X163342929Y-89641693D01*
X165908000Y-89641693D01*
X165908000Y-89758307D01*
X165930751Y-89872680D01*
X165975377Y-89980417D01*
X166040164Y-90077378D01*
X166122622Y-90159836D01*
X166219583Y-90224623D01*
X166327320Y-90269249D01*
X166441693Y-90292000D01*
X166558307Y-90292000D01*
X166672680Y-90269249D01*
X166780417Y-90224623D01*
X166877378Y-90159836D01*
X166959836Y-90077378D01*
X167024623Y-89980417D01*
X167069249Y-89872680D01*
X167092000Y-89758307D01*
X167092000Y-89641693D01*
X167069249Y-89527320D01*
X167024623Y-89419583D01*
X166959836Y-89322622D01*
X166877378Y-89240164D01*
X166780417Y-89175377D01*
X166672680Y-89130751D01*
X166558307Y-89108000D01*
X166441693Y-89108000D01*
X166327320Y-89130751D01*
X166219583Y-89175377D01*
X166122622Y-89240164D01*
X166040164Y-89322622D01*
X165975377Y-89419583D01*
X165930751Y-89527320D01*
X165908000Y-89641693D01*
X163342929Y-89641693D01*
X163342929Y-88450000D01*
X163339222Y-88412361D01*
X163328243Y-88376169D01*
X163323342Y-88367000D01*
X163686902Y-88367000D01*
X163700000Y-88368290D01*
X163713098Y-88367000D01*
X163713108Y-88367000D01*
X163752341Y-88363136D01*
X163802671Y-88347869D01*
X163849054Y-88323076D01*
X163889710Y-88289710D01*
X163898067Y-88279527D01*
X164035901Y-88141693D01*
X165908000Y-88141693D01*
X165908000Y-88258307D01*
X165930751Y-88372680D01*
X165975377Y-88480417D01*
X166040164Y-88577378D01*
X166122622Y-88659836D01*
X166219583Y-88724623D01*
X166327320Y-88769249D01*
X166441693Y-88792000D01*
X166558307Y-88792000D01*
X166672680Y-88769249D01*
X166780417Y-88724623D01*
X166877378Y-88659836D01*
X166959836Y-88577378D01*
X167024623Y-88480417D01*
X167069249Y-88372680D01*
X167092000Y-88258307D01*
X167092000Y-88141693D01*
X167069249Y-88027320D01*
X167024623Y-87919583D01*
X166959836Y-87822622D01*
X166877378Y-87740164D01*
X166780417Y-87675377D01*
X166672680Y-87630751D01*
X166558307Y-87608000D01*
X166441693Y-87608000D01*
X166327320Y-87630751D01*
X166219583Y-87675377D01*
X166122622Y-87740164D01*
X166040164Y-87822622D01*
X165975377Y-87919583D01*
X165930751Y-88027320D01*
X165908000Y-88141693D01*
X164035901Y-88141693D01*
X165510595Y-86667000D01*
X180886896Y-86667000D01*
X180899994Y-86668290D01*
X180913092Y-86667000D01*
X180913102Y-86667000D01*
X180952335Y-86663136D01*
X181002665Y-86647869D01*
X181049048Y-86623076D01*
X181089704Y-86589710D01*
X181098061Y-86579527D01*
X182010595Y-85666994D01*
X182091071Y-85666994D01*
X182171635Y-85650969D01*
X182247524Y-85619535D01*
X182315822Y-85573899D01*
X182373905Y-85515816D01*
X182419541Y-85447518D01*
X182450975Y-85371629D01*
X182467000Y-85291065D01*
X182467000Y-85208923D01*
X182450975Y-85128359D01*
X182419541Y-85052470D01*
X182373905Y-84984172D01*
X182315822Y-84926089D01*
X182247524Y-84880453D01*
X182171635Y-84849019D01*
X182091071Y-84832994D01*
X182008929Y-84832994D01*
X181928365Y-84849019D01*
X181852476Y-84880453D01*
X181784178Y-84926089D01*
X181726095Y-84984172D01*
X181680459Y-85052470D01*
X181649025Y-85128359D01*
X181633000Y-85208923D01*
X181633000Y-85289399D01*
X180789400Y-86133000D01*
X165413097Y-86133000D01*
X165399999Y-86131710D01*
X165386901Y-86133000D01*
X165386892Y-86133000D01*
X165347659Y-86136864D01*
X165297329Y-86152131D01*
X165250946Y-86176924D01*
X165250944Y-86176925D01*
X165250945Y-86176925D01*
X165220471Y-86201934D01*
X165220468Y-86201937D01*
X165210290Y-86210290D01*
X165201937Y-86220468D01*
X163589406Y-87833000D01*
X163330488Y-87833000D01*
X163349054Y-87823076D01*
X163389710Y-87789710D01*
X163398067Y-87779527D01*
X165410595Y-85767000D01*
X178078654Y-85767000D01*
X178091752Y-85768290D01*
X178104850Y-85767000D01*
X178104860Y-85767000D01*
X178144093Y-85763136D01*
X178194423Y-85747869D01*
X178240806Y-85723076D01*
X178281462Y-85689710D01*
X178289819Y-85679527D01*
X179529533Y-84439814D01*
X179539711Y-84431461D01*
X179548064Y-84421283D01*
X179548067Y-84421280D01*
X179573077Y-84390806D01*
X179597870Y-84344422D01*
X179601335Y-84333000D01*
X179613137Y-84294092D01*
X179617001Y-84254859D01*
X179617001Y-84254849D01*
X179618291Y-84241751D01*
X179617001Y-84228653D01*
X179617001Y-81176919D01*
X181435000Y-81176919D01*
X181435000Y-83676919D01*
X181436249Y-83689600D01*
X181439948Y-83701793D01*
X181445954Y-83713031D01*
X181454038Y-83722881D01*
X183954038Y-86222881D01*
X183963888Y-86230965D01*
X183975126Y-86236971D01*
X183987319Y-86240670D01*
X184000000Y-86241919D01*
X190500000Y-86241919D01*
X190512681Y-86240670D01*
X190524874Y-86236971D01*
X190536112Y-86230965D01*
X190545962Y-86222881D01*
X190554046Y-86213031D01*
X190560052Y-86201793D01*
X190563751Y-86189600D01*
X190565000Y-86176919D01*
X190565000Y-82176919D01*
X190563751Y-82164238D01*
X190560052Y-82152045D01*
X190554046Y-82140807D01*
X190545962Y-82130957D01*
X189545962Y-81130957D01*
X189536112Y-81122873D01*
X189524874Y-81116867D01*
X189512681Y-81113168D01*
X189500000Y-81111919D01*
X185840376Y-81111919D01*
X185930417Y-81074623D01*
X186027378Y-81009836D01*
X186109836Y-80927378D01*
X186174623Y-80830417D01*
X186219249Y-80722680D01*
X186242000Y-80608307D01*
X186242000Y-80491693D01*
X186219249Y-80377320D01*
X186174623Y-80269583D01*
X186109836Y-80172622D01*
X186027378Y-80090164D01*
X185930417Y-80025377D01*
X185869151Y-80000000D01*
X185930417Y-79974623D01*
X186027378Y-79909836D01*
X186109836Y-79827378D01*
X186174623Y-79730417D01*
X186219249Y-79622680D01*
X186242000Y-79508307D01*
X186242000Y-79391693D01*
X186219249Y-79277320D01*
X186174623Y-79169583D01*
X186109836Y-79072622D01*
X186027378Y-78990164D01*
X185930417Y-78925377D01*
X185822680Y-78880751D01*
X185708307Y-78858000D01*
X185591693Y-78858000D01*
X185477320Y-78880751D01*
X185369583Y-78925377D01*
X185272622Y-78990164D01*
X185190164Y-79072622D01*
X185150000Y-79132732D01*
X185109836Y-79072622D01*
X185027378Y-78990164D01*
X184930417Y-78925377D01*
X184822680Y-78880751D01*
X184708307Y-78858000D01*
X184591693Y-78858000D01*
X184477320Y-78880751D01*
X184369583Y-78925377D01*
X184272622Y-78990164D01*
X184190164Y-79072622D01*
X184150000Y-79132732D01*
X184109836Y-79072622D01*
X184027378Y-78990164D01*
X183930417Y-78925377D01*
X183822680Y-78880751D01*
X183708307Y-78858000D01*
X183591693Y-78858000D01*
X183477320Y-78880751D01*
X183369583Y-78925377D01*
X183272622Y-78990164D01*
X183190164Y-79072622D01*
X183150000Y-79132732D01*
X183109836Y-79072622D01*
X183027378Y-78990164D01*
X182930417Y-78925377D01*
X182822680Y-78880751D01*
X182708307Y-78858000D01*
X182591693Y-78858000D01*
X182477320Y-78880751D01*
X182369583Y-78925377D01*
X182272622Y-78990164D01*
X182190164Y-79072622D01*
X182125377Y-79169583D01*
X182080751Y-79277320D01*
X182058000Y-79391693D01*
X182058000Y-79508307D01*
X182080751Y-79622680D01*
X182125377Y-79730417D01*
X182190164Y-79827378D01*
X182272622Y-79909836D01*
X182369583Y-79974623D01*
X182430849Y-80000000D01*
X182369583Y-80025377D01*
X182272622Y-80090164D01*
X182190164Y-80172622D01*
X182125377Y-80269583D01*
X182080751Y-80377320D01*
X182058000Y-80491693D01*
X182058000Y-80608307D01*
X182080751Y-80722680D01*
X182125377Y-80830417D01*
X182190164Y-80927378D01*
X182272622Y-81009836D01*
X182369583Y-81074623D01*
X182459624Y-81111919D01*
X181500000Y-81111919D01*
X181487319Y-81113168D01*
X181475126Y-81116867D01*
X181463888Y-81122873D01*
X181454038Y-81130957D01*
X181445954Y-81140807D01*
X181439948Y-81152045D01*
X181436249Y-81164238D01*
X181435000Y-81176919D01*
X179617001Y-81176919D01*
X179617001Y-79560594D01*
X181060595Y-78117001D01*
X189586892Y-78116999D01*
X189600000Y-78118290D01*
X189652341Y-78113135D01*
X189702670Y-78097869D01*
X189749054Y-78073075D01*
X189779528Y-78048066D01*
X189779532Y-78048062D01*
X189789710Y-78039709D01*
X189798064Y-78029530D01*
X191260595Y-76567000D01*
X191341071Y-76567000D01*
X191421635Y-76550975D01*
X191497524Y-76519541D01*
X191565822Y-76473905D01*
X191623905Y-76415822D01*
X191669541Y-76347524D01*
X191700975Y-76271635D01*
X191717000Y-76191071D01*
X191717000Y-76108929D01*
X191700975Y-76028365D01*
X191669541Y-75952476D01*
X191623905Y-75884178D01*
X191565822Y-75826095D01*
X191497524Y-75780459D01*
X191421635Y-75749025D01*
X191341071Y-75733000D01*
X191258929Y-75733000D01*
X191178365Y-75749025D01*
X191117000Y-75774443D01*
X191117000Y-73622727D01*
X191173905Y-73565822D01*
X191219541Y-73497524D01*
X191250975Y-73421635D01*
X191267000Y-73341071D01*
X191267000Y-73258929D01*
X191250975Y-73178365D01*
X191219541Y-73102476D01*
X191173905Y-73034178D01*
X191115822Y-72976095D01*
X191047524Y-72930459D01*
X190971635Y-72899025D01*
X190891071Y-72883000D01*
X190808929Y-72883000D01*
X190728365Y-72899025D01*
X190652476Y-72930459D01*
X190584178Y-72976095D01*
X190526095Y-73034178D01*
X190480459Y-73102476D01*
X190449025Y-73178365D01*
X190433000Y-73258929D01*
X190433000Y-73341071D01*
X190449025Y-73421635D01*
X190480459Y-73497524D01*
X190526095Y-73565822D01*
X190583000Y-73622727D01*
X190583000Y-73631305D01*
X190583001Y-73631315D01*
X190583000Y-76089405D01*
X190117000Y-76555405D01*
X190117000Y-76472727D01*
X190173905Y-76415822D01*
X190219541Y-76347524D01*
X190250975Y-76271635D01*
X190267000Y-76191071D01*
X190267000Y-76108929D01*
X190250975Y-76028365D01*
X190219541Y-75952476D01*
X190173905Y-75884178D01*
X190115822Y-75826095D01*
X190047524Y-75780459D01*
X189971635Y-75749025D01*
X189891071Y-75733000D01*
X189808929Y-75733000D01*
X189728365Y-75749025D01*
X189652476Y-75780459D01*
X189584178Y-75826095D01*
X189526095Y-75884178D01*
X189480459Y-75952476D01*
X189449025Y-76028365D01*
X189433000Y-76108929D01*
X189433000Y-76191071D01*
X189449025Y-76271635D01*
X189480459Y-76347524D01*
X189526095Y-76415822D01*
X189583000Y-76472727D01*
X189583001Y-76689404D01*
X189243426Y-77028980D01*
X180733616Y-77028980D01*
X180720518Y-77027690D01*
X180707420Y-77028980D01*
X180707410Y-77028980D01*
X180668177Y-77032844D01*
X180619337Y-77047659D01*
X180617847Y-77048111D01*
X180571463Y-77072904D01*
X180540989Y-77097914D01*
X180540986Y-77097917D01*
X180530808Y-77106270D01*
X180522455Y-77116448D01*
X178616453Y-79022451D01*
X178606270Y-79030808D01*
X178572904Y-79071464D01*
X178548111Y-79117848D01*
X178532844Y-79168178D01*
X178528980Y-79207411D01*
X178528980Y-79207420D01*
X178527690Y-79220518D01*
X178528980Y-79233616D01*
X178528981Y-83607403D01*
X178528980Y-83607413D01*
X178528980Y-83901675D01*
X178173708Y-84256948D01*
X178173250Y-84254646D01*
X178136162Y-84165107D01*
X178082319Y-84084525D01*
X178013789Y-84015995D01*
X177933207Y-83962152D01*
X177843668Y-83925064D01*
X177748615Y-83906157D01*
X177651699Y-83906157D01*
X177556646Y-83925064D01*
X177467107Y-83962152D01*
X177386525Y-84015995D01*
X177317995Y-84084525D01*
X177264152Y-84165107D01*
X177227064Y-84254646D01*
X177208157Y-84349699D01*
X177208157Y-84446615D01*
X177227064Y-84541668D01*
X177264152Y-84631207D01*
X177280711Y-84655990D01*
X175565208Y-84655990D01*
X175565798Y-84650000D01*
X175565000Y-84030250D01*
X175523750Y-83989000D01*
X174739000Y-83989000D01*
X174739000Y-84009000D01*
X174361000Y-84009000D01*
X174361000Y-83989000D01*
X173576250Y-83989000D01*
X173535000Y-84030250D01*
X173534202Y-84650000D01*
X173534792Y-84655990D01*
X171033585Y-84655990D01*
X170567000Y-84189406D01*
X170567000Y-82950000D01*
X173534202Y-82950000D01*
X173535000Y-83569750D01*
X173576250Y-83611000D01*
X174361000Y-83611000D01*
X174361000Y-82826250D01*
X174739000Y-82826250D01*
X174739000Y-83611000D01*
X175523750Y-83611000D01*
X175565000Y-83569750D01*
X175565798Y-82950000D01*
X175562612Y-82917654D01*
X175553177Y-82886552D01*
X175537856Y-82857888D01*
X175517237Y-82832763D01*
X175492112Y-82812144D01*
X175463448Y-82796823D01*
X175432346Y-82787388D01*
X175400000Y-82784202D01*
X174780250Y-82785000D01*
X174739000Y-82826250D01*
X174361000Y-82826250D01*
X174319750Y-82785000D01*
X173700000Y-82784202D01*
X173667654Y-82787388D01*
X173636552Y-82796823D01*
X173607888Y-82812144D01*
X173582763Y-82832763D01*
X173562144Y-82857888D01*
X173546823Y-82886552D01*
X173537388Y-82917654D01*
X173534202Y-82950000D01*
X170567000Y-82950000D01*
X170567000Y-81922727D01*
X170623905Y-81865822D01*
X170669541Y-81797524D01*
X170700975Y-81721635D01*
X170717000Y-81641071D01*
X170717000Y-81558929D01*
X170700975Y-81478365D01*
X170669541Y-81402476D01*
X170623905Y-81334178D01*
X170565822Y-81276095D01*
X170497524Y-81230459D01*
X170421635Y-81199025D01*
X170341071Y-81183000D01*
X170258929Y-81183000D01*
X170178365Y-81199025D01*
X170102476Y-81230459D01*
X170034178Y-81276095D01*
X169976095Y-81334178D01*
X169930459Y-81402476D01*
X169899025Y-81478365D01*
X169883000Y-81558929D01*
X169883000Y-81641071D01*
X169899025Y-81721635D01*
X169930459Y-81797524D01*
X169976095Y-81865822D01*
X170033001Y-81922728D01*
X170033000Y-84286902D01*
X170031710Y-84300000D01*
X170033000Y-84313098D01*
X170033000Y-84313107D01*
X170036864Y-84352340D01*
X170052131Y-84402670D01*
X170076924Y-84449054D01*
X170110290Y-84489710D01*
X170120473Y-84498067D01*
X170555405Y-84933000D01*
X165213097Y-84933000D01*
X165199999Y-84931710D01*
X165186901Y-84933000D01*
X165186892Y-84933000D01*
X165147659Y-84936864D01*
X165097329Y-84952131D01*
X165050946Y-84976924D01*
X165050944Y-84976925D01*
X165050945Y-84976925D01*
X165021676Y-85000946D01*
X165010290Y-85010290D01*
X165001937Y-85020468D01*
X162989406Y-87033000D01*
X162725557Y-87033000D01*
X162750975Y-86971635D01*
X162767000Y-86891071D01*
X162767000Y-86810595D01*
X162932049Y-86645546D01*
X162942227Y-86637193D01*
X162950580Y-86627015D01*
X162950583Y-86627012D01*
X162975592Y-86596538D01*
X163000386Y-86550154D01*
X163007684Y-86526095D01*
X163015653Y-86499824D01*
X163019517Y-86460591D01*
X163019517Y-86460582D01*
X163020807Y-86447484D01*
X163019517Y-86434386D01*
X163019517Y-83509974D01*
X163044541Y-83472524D01*
X163075975Y-83396635D01*
X163092000Y-83316071D01*
X163092000Y-83314192D01*
X163154202Y-83314192D01*
X163234766Y-83298167D01*
X163310655Y-83266733D01*
X163378953Y-83221097D01*
X163437036Y-83163014D01*
X163482672Y-83094716D01*
X163514106Y-83018827D01*
X163530131Y-82938263D01*
X163530131Y-82856121D01*
X163514106Y-82775557D01*
X163482672Y-82699668D01*
X163437036Y-82631370D01*
X163380131Y-82574465D01*
X163380131Y-81705368D01*
X163736561Y-81705368D01*
X163736561Y-81787510D01*
X163752586Y-81868074D01*
X163784020Y-81943963D01*
X163829656Y-82012261D01*
X163887739Y-82070344D01*
X163956037Y-82115980D01*
X164031926Y-82147414D01*
X164112490Y-82163439D01*
X164194632Y-82163439D01*
X164275196Y-82147414D01*
X164351085Y-82115980D01*
X164419383Y-82070344D01*
X164477466Y-82012261D01*
X164523102Y-81943963D01*
X164554536Y-81868074D01*
X164570561Y-81787510D01*
X164570561Y-81705368D01*
X164554536Y-81624804D01*
X164523102Y-81548915D01*
X164477466Y-81480617D01*
X164419383Y-81422534D01*
X164351085Y-81376898D01*
X164275196Y-81345464D01*
X164194632Y-81329439D01*
X164112490Y-81329439D01*
X164031926Y-81345464D01*
X163956037Y-81376898D01*
X163887739Y-81422534D01*
X163829656Y-81480617D01*
X163784020Y-81548915D01*
X163752586Y-81624804D01*
X163736561Y-81705368D01*
X163380131Y-81705368D01*
X163380131Y-81689213D01*
X164110415Y-80958929D01*
X164483000Y-80958929D01*
X164483000Y-81041071D01*
X164499025Y-81121635D01*
X164530459Y-81197524D01*
X164576095Y-81265822D01*
X164634178Y-81323905D01*
X164702476Y-81369541D01*
X164778365Y-81400975D01*
X164858929Y-81417000D01*
X164941071Y-81417000D01*
X165021635Y-81400975D01*
X165097524Y-81369541D01*
X165165822Y-81323905D01*
X165223905Y-81265822D01*
X165269541Y-81197524D01*
X165286172Y-81157372D01*
X173508000Y-81157372D01*
X173508000Y-81362628D01*
X173548043Y-81563940D01*
X173626591Y-81753572D01*
X173740626Y-81924236D01*
X173885764Y-82069374D01*
X174056428Y-82183409D01*
X174246060Y-82261957D01*
X174447372Y-82302000D01*
X174652628Y-82302000D01*
X174853940Y-82261957D01*
X175043572Y-82183409D01*
X175214236Y-82069374D01*
X175359374Y-81924236D01*
X175473409Y-81753572D01*
X175551957Y-81563940D01*
X175592000Y-81362628D01*
X175592000Y-81157372D01*
X175551957Y-80956060D01*
X175473409Y-80766428D01*
X175359374Y-80595764D01*
X175214236Y-80450626D01*
X175043572Y-80336591D01*
X174853940Y-80258043D01*
X174652628Y-80218000D01*
X174447372Y-80218000D01*
X174246060Y-80258043D01*
X174056428Y-80336591D01*
X173885764Y-80450626D01*
X173740626Y-80595764D01*
X173626591Y-80766428D01*
X173548043Y-80956060D01*
X173508000Y-81157372D01*
X165286172Y-81157372D01*
X165300975Y-81121635D01*
X165317000Y-81041071D01*
X165317000Y-80958929D01*
X165300975Y-80878365D01*
X165269541Y-80802476D01*
X165223905Y-80734178D01*
X165165822Y-80676095D01*
X165097524Y-80630459D01*
X165021635Y-80599025D01*
X164941071Y-80583000D01*
X164858929Y-80583000D01*
X164778365Y-80599025D01*
X164702476Y-80630459D01*
X164634178Y-80676095D01*
X164576095Y-80734178D01*
X164530459Y-80802476D01*
X164499025Y-80878365D01*
X164483000Y-80958929D01*
X164110415Y-80958929D01*
X164684167Y-80385177D01*
X165155377Y-80385177D01*
X165155377Y-80467319D01*
X165171402Y-80547883D01*
X165202836Y-80623772D01*
X165248472Y-80692070D01*
X165306555Y-80750153D01*
X165374853Y-80795789D01*
X165450742Y-80827223D01*
X165531306Y-80843248D01*
X165613448Y-80843248D01*
X165694012Y-80827223D01*
X165769901Y-80795789D01*
X165838199Y-80750153D01*
X165896282Y-80692070D01*
X165941918Y-80623772D01*
X165973352Y-80547883D01*
X165989377Y-80467319D01*
X165989377Y-80385177D01*
X165973352Y-80304613D01*
X165941918Y-80228724D01*
X165896282Y-80160426D01*
X165838199Y-80102343D01*
X165769901Y-80056707D01*
X165694012Y-80025273D01*
X165613448Y-80009248D01*
X165531306Y-80009248D01*
X165450742Y-80025273D01*
X165374853Y-80056707D01*
X165306555Y-80102343D01*
X165248472Y-80160426D01*
X165202836Y-80228724D01*
X165171402Y-80304613D01*
X165155377Y-80385177D01*
X164684167Y-80385177D01*
X165952345Y-79117000D01*
X167177273Y-79117000D01*
X167234178Y-79173905D01*
X167302476Y-79219541D01*
X167378365Y-79250975D01*
X167458929Y-79267000D01*
X167541071Y-79267000D01*
X167621635Y-79250975D01*
X167697524Y-79219541D01*
X167765822Y-79173905D01*
X167823905Y-79115822D01*
X167869541Y-79047524D01*
X167900975Y-78971635D01*
X167917000Y-78891071D01*
X167917000Y-78808929D01*
X167900975Y-78728365D01*
X167869541Y-78652476D01*
X167846085Y-78617372D01*
X173508000Y-78617372D01*
X173508000Y-78822628D01*
X173548043Y-79023940D01*
X173626591Y-79213572D01*
X173740626Y-79384236D01*
X173885764Y-79529374D01*
X174056428Y-79643409D01*
X174246060Y-79721957D01*
X174447372Y-79762000D01*
X174652628Y-79762000D01*
X174853940Y-79721957D01*
X175043572Y-79643409D01*
X175214236Y-79529374D01*
X175359374Y-79384236D01*
X175473409Y-79213572D01*
X175551957Y-79023940D01*
X175592000Y-78822628D01*
X175592000Y-78617372D01*
X175551957Y-78416060D01*
X175473409Y-78226428D01*
X175359374Y-78055764D01*
X175214236Y-77910626D01*
X175043572Y-77796591D01*
X174853940Y-77718043D01*
X174652628Y-77678000D01*
X174447372Y-77678000D01*
X174246060Y-77718043D01*
X174056428Y-77796591D01*
X173885764Y-77910626D01*
X173740626Y-78055764D01*
X173626591Y-78226428D01*
X173548043Y-78416060D01*
X173508000Y-78617372D01*
X167846085Y-78617372D01*
X167823905Y-78584178D01*
X167765822Y-78526095D01*
X167697524Y-78480459D01*
X167621635Y-78449025D01*
X167541071Y-78433000D01*
X167458929Y-78433000D01*
X167378365Y-78449025D01*
X167302476Y-78480459D01*
X167234178Y-78526095D01*
X167177273Y-78583000D01*
X165854848Y-78583000D01*
X165841750Y-78581710D01*
X165828652Y-78583000D01*
X165828642Y-78583000D01*
X165789409Y-78586864D01*
X165739079Y-78602131D01*
X165692696Y-78626924D01*
X165692694Y-78626925D01*
X165692695Y-78626925D01*
X165662221Y-78651934D01*
X165662218Y-78651937D01*
X165652040Y-78660290D01*
X165643687Y-78670468D01*
X165390000Y-78924155D01*
X165390000Y-74841693D01*
X171158000Y-74841693D01*
X171158000Y-74958307D01*
X171180751Y-75072680D01*
X171225377Y-75180417D01*
X171290164Y-75277378D01*
X171372622Y-75359836D01*
X171469583Y-75424623D01*
X171577320Y-75469249D01*
X171691693Y-75492000D01*
X171808307Y-75492000D01*
X171922680Y-75469249D01*
X172030417Y-75424623D01*
X172127378Y-75359836D01*
X172209836Y-75277378D01*
X172274623Y-75180417D01*
X172319249Y-75072680D01*
X172342000Y-74958307D01*
X172342000Y-74841693D01*
X172658000Y-74841693D01*
X172658000Y-74958307D01*
X172680751Y-75072680D01*
X172725377Y-75180417D01*
X172790164Y-75277378D01*
X172872622Y-75359836D01*
X172969583Y-75424623D01*
X173077320Y-75469249D01*
X173191693Y-75492000D01*
X173308307Y-75492000D01*
X173422680Y-75469249D01*
X173530417Y-75424623D01*
X173627378Y-75359836D01*
X173709836Y-75277378D01*
X173774623Y-75180417D01*
X173819249Y-75072680D01*
X173842000Y-74958307D01*
X173842000Y-74841693D01*
X174208000Y-74841693D01*
X174208000Y-74958307D01*
X174230751Y-75072680D01*
X174275377Y-75180417D01*
X174340164Y-75277378D01*
X174422622Y-75359836D01*
X174519583Y-75424623D01*
X174627320Y-75469249D01*
X174741693Y-75492000D01*
X174858307Y-75492000D01*
X174972680Y-75469249D01*
X175080417Y-75424623D01*
X175177378Y-75359836D01*
X175259836Y-75277378D01*
X175324623Y-75180417D01*
X175369249Y-75072680D01*
X175392000Y-74958307D01*
X175392000Y-74841693D01*
X175369249Y-74727320D01*
X175324623Y-74619583D01*
X175259836Y-74522622D01*
X175177378Y-74440164D01*
X175080417Y-74375377D01*
X174972680Y-74330751D01*
X174858307Y-74308000D01*
X174741693Y-74308000D01*
X174627320Y-74330751D01*
X174519583Y-74375377D01*
X174422622Y-74440164D01*
X174340164Y-74522622D01*
X174275377Y-74619583D01*
X174230751Y-74727320D01*
X174208000Y-74841693D01*
X173842000Y-74841693D01*
X173819249Y-74727320D01*
X173774623Y-74619583D01*
X173709836Y-74522622D01*
X173627378Y-74440164D01*
X173530417Y-74375377D01*
X173422680Y-74330751D01*
X173308307Y-74308000D01*
X173191693Y-74308000D01*
X173077320Y-74330751D01*
X172969583Y-74375377D01*
X172872622Y-74440164D01*
X172790164Y-74522622D01*
X172725377Y-74619583D01*
X172680751Y-74727320D01*
X172658000Y-74841693D01*
X172342000Y-74841693D01*
X172319249Y-74727320D01*
X172274623Y-74619583D01*
X172209836Y-74522622D01*
X172127378Y-74440164D01*
X172030417Y-74375377D01*
X171922680Y-74330751D01*
X171808307Y-74308000D01*
X171691693Y-74308000D01*
X171577320Y-74330751D01*
X171469583Y-74375377D01*
X171372622Y-74440164D01*
X171290164Y-74522622D01*
X171225377Y-74619583D01*
X171180751Y-74727320D01*
X171158000Y-74841693D01*
X165390000Y-74841693D01*
X165390000Y-73891693D01*
X170258000Y-73891693D01*
X170258000Y-74008307D01*
X170280751Y-74122680D01*
X170325377Y-74230417D01*
X170390164Y-74327378D01*
X170472622Y-74409836D01*
X170569583Y-74474623D01*
X170677320Y-74519249D01*
X170791693Y-74542000D01*
X170908307Y-74542000D01*
X171022680Y-74519249D01*
X171130417Y-74474623D01*
X171227378Y-74409836D01*
X171309836Y-74327378D01*
X171374623Y-74230417D01*
X171419249Y-74122680D01*
X171442000Y-74008307D01*
X171442000Y-73891693D01*
X171419249Y-73777320D01*
X171374623Y-73669583D01*
X171309836Y-73572622D01*
X171227378Y-73490164D01*
X171130417Y-73425377D01*
X171022680Y-73380751D01*
X170908307Y-73358000D01*
X170791693Y-73358000D01*
X170677320Y-73380751D01*
X170569583Y-73425377D01*
X170472622Y-73490164D01*
X170390164Y-73572622D01*
X170325377Y-73669583D01*
X170280751Y-73777320D01*
X170258000Y-73891693D01*
X165390000Y-73891693D01*
X165390000Y-73291693D01*
X180958000Y-73291693D01*
X180958000Y-73408307D01*
X180980751Y-73522680D01*
X181025377Y-73630417D01*
X181090164Y-73727378D01*
X181172622Y-73809836D01*
X181195317Y-73825000D01*
X181172622Y-73840164D01*
X181090164Y-73922622D01*
X181025377Y-74019583D01*
X180980751Y-74127320D01*
X180958000Y-74241693D01*
X180958000Y-74358307D01*
X180980751Y-74472680D01*
X181025377Y-74580417D01*
X181090164Y-74677378D01*
X181172622Y-74759836D01*
X181269583Y-74824623D01*
X181377320Y-74869249D01*
X181491693Y-74892000D01*
X181608307Y-74892000D01*
X181722680Y-74869249D01*
X181830417Y-74824623D01*
X181927378Y-74759836D01*
X182009836Y-74677378D01*
X182074623Y-74580417D01*
X182119249Y-74472680D01*
X182142000Y-74358307D01*
X182142000Y-74241693D01*
X182119249Y-74127320D01*
X182074623Y-74019583D01*
X182009836Y-73922622D01*
X181927378Y-73840164D01*
X181904683Y-73825000D01*
X181927378Y-73809836D01*
X182009836Y-73727378D01*
X182074623Y-73630417D01*
X182119249Y-73522680D01*
X182142000Y-73408307D01*
X182142000Y-73291693D01*
X182119249Y-73177320D01*
X182074623Y-73069583D01*
X182009836Y-72972622D01*
X181978907Y-72941693D01*
X184358000Y-72941693D01*
X184358000Y-73058307D01*
X184380751Y-73172680D01*
X184425377Y-73280417D01*
X184490164Y-73377378D01*
X184572622Y-73459836D01*
X184669583Y-73524623D01*
X184777320Y-73569249D01*
X184891693Y-73592000D01*
X185008307Y-73592000D01*
X185122680Y-73569249D01*
X185230417Y-73524623D01*
X185327378Y-73459836D01*
X185409836Y-73377378D01*
X185450000Y-73317268D01*
X185490164Y-73377378D01*
X185572622Y-73459836D01*
X185669583Y-73524623D01*
X185777320Y-73569249D01*
X185891693Y-73592000D01*
X186008307Y-73592000D01*
X186122680Y-73569249D01*
X186230417Y-73524623D01*
X186327378Y-73459836D01*
X186409836Y-73377378D01*
X186450000Y-73317268D01*
X186490164Y-73377378D01*
X186572622Y-73459836D01*
X186669583Y-73524623D01*
X186777320Y-73569249D01*
X186891693Y-73592000D01*
X187008307Y-73592000D01*
X187122680Y-73569249D01*
X187230417Y-73524623D01*
X187327378Y-73459836D01*
X187409836Y-73377378D01*
X187474623Y-73280417D01*
X187519249Y-73172680D01*
X187542000Y-73058307D01*
X187542000Y-72941693D01*
X187519249Y-72827320D01*
X187474623Y-72719583D01*
X187409836Y-72622622D01*
X187327378Y-72540164D01*
X187230417Y-72475377D01*
X187122680Y-72430751D01*
X187008307Y-72408000D01*
X186891693Y-72408000D01*
X186777320Y-72430751D01*
X186669583Y-72475377D01*
X186572622Y-72540164D01*
X186490164Y-72622622D01*
X186450000Y-72682732D01*
X186409836Y-72622622D01*
X186327378Y-72540164D01*
X186230417Y-72475377D01*
X186152080Y-72442929D01*
X186300000Y-72442929D01*
X186337639Y-72439222D01*
X186373831Y-72428243D01*
X186407186Y-72410415D01*
X186436421Y-72386421D01*
X186460415Y-72357186D01*
X186478243Y-72323831D01*
X186489222Y-72287639D01*
X186492929Y-72250000D01*
X186492929Y-71580143D01*
X186572622Y-71659836D01*
X186669583Y-71724623D01*
X186777320Y-71769249D01*
X186891693Y-71792000D01*
X187008307Y-71792000D01*
X187122680Y-71769249D01*
X187230417Y-71724623D01*
X187327378Y-71659836D01*
X187409836Y-71577378D01*
X187474623Y-71480417D01*
X187519249Y-71372680D01*
X187542000Y-71258307D01*
X187542000Y-71141693D01*
X187519249Y-71027320D01*
X187474623Y-70919583D01*
X187409836Y-70822622D01*
X187327378Y-70740164D01*
X187230417Y-70675377D01*
X187122680Y-70630751D01*
X187008307Y-70608000D01*
X186891693Y-70608000D01*
X186777320Y-70630751D01*
X186669583Y-70675377D01*
X186572622Y-70740164D01*
X186492929Y-70819857D01*
X186492929Y-70550000D01*
X186489222Y-70512361D01*
X186478243Y-70476169D01*
X186460415Y-70442814D01*
X186436421Y-70413579D01*
X186407186Y-70389585D01*
X186373831Y-70371757D01*
X186337639Y-70360778D01*
X186300000Y-70357071D01*
X184600000Y-70357071D01*
X184562361Y-70360778D01*
X184526169Y-70371757D01*
X184492814Y-70389585D01*
X184463579Y-70413579D01*
X184439585Y-70442814D01*
X184421757Y-70476169D01*
X184410778Y-70512361D01*
X184407071Y-70550000D01*
X184407071Y-72250000D01*
X184410778Y-72287639D01*
X184421757Y-72323831D01*
X184439585Y-72357186D01*
X184463579Y-72386421D01*
X184492814Y-72410415D01*
X184526169Y-72428243D01*
X184562361Y-72439222D01*
X184600000Y-72442929D01*
X184747920Y-72442929D01*
X184669583Y-72475377D01*
X184572622Y-72540164D01*
X184490164Y-72622622D01*
X184425377Y-72719583D01*
X184380751Y-72827320D01*
X184358000Y-72941693D01*
X181978907Y-72941693D01*
X181927378Y-72890164D01*
X181830417Y-72825377D01*
X181722680Y-72780751D01*
X181608307Y-72758000D01*
X181491693Y-72758000D01*
X181377320Y-72780751D01*
X181269583Y-72825377D01*
X181172622Y-72890164D01*
X181090164Y-72972622D01*
X181025377Y-73069583D01*
X180980751Y-73177320D01*
X180958000Y-73291693D01*
X165390000Y-73291693D01*
X165390000Y-72572727D01*
X165446905Y-72515822D01*
X165492541Y-72447524D01*
X165523975Y-72371635D01*
X165540000Y-72291071D01*
X165540000Y-72208929D01*
X165523975Y-72128365D01*
X165508786Y-72091693D01*
X174858000Y-72091693D01*
X174858000Y-72208307D01*
X174880751Y-72322680D01*
X174925377Y-72430417D01*
X174990164Y-72527378D01*
X175072622Y-72609836D01*
X175169583Y-72674623D01*
X175277320Y-72719249D01*
X175391693Y-72742000D01*
X175508307Y-72742000D01*
X175622680Y-72719249D01*
X175730417Y-72674623D01*
X175827378Y-72609836D01*
X175909836Y-72527378D01*
X175974623Y-72430417D01*
X176019249Y-72322680D01*
X176042000Y-72208307D01*
X176042000Y-72091693D01*
X176019249Y-71977320D01*
X175974623Y-71869583D01*
X175909836Y-71772622D01*
X175827378Y-71690164D01*
X175730417Y-71625377D01*
X175622680Y-71580751D01*
X175508307Y-71558000D01*
X175391693Y-71558000D01*
X175277320Y-71580751D01*
X175169583Y-71625377D01*
X175072622Y-71690164D01*
X174990164Y-71772622D01*
X174925377Y-71869583D01*
X174880751Y-71977320D01*
X174858000Y-72091693D01*
X165508786Y-72091693D01*
X165492541Y-72052476D01*
X165446905Y-71984178D01*
X165388822Y-71926095D01*
X165375217Y-71917004D01*
X165977273Y-71917004D01*
X166034178Y-71973909D01*
X166102476Y-72019545D01*
X166178365Y-72050979D01*
X166258929Y-72067004D01*
X166341071Y-72067004D01*
X166421635Y-72050979D01*
X166497524Y-72019545D01*
X166565822Y-71973909D01*
X166623905Y-71915826D01*
X166669541Y-71847528D01*
X166700975Y-71771639D01*
X166717000Y-71691075D01*
X166717000Y-71608933D01*
X166700975Y-71528369D01*
X166669541Y-71452480D01*
X166623905Y-71384182D01*
X166565822Y-71326099D01*
X166497524Y-71280463D01*
X166421635Y-71249029D01*
X166341071Y-71233004D01*
X166258929Y-71233004D01*
X166178365Y-71249029D01*
X166102476Y-71280463D01*
X166034178Y-71326099D01*
X165977273Y-71383004D01*
X165104132Y-71383004D01*
X165091034Y-71381714D01*
X165077936Y-71383004D01*
X165077926Y-71383004D01*
X165038693Y-71386868D01*
X164990318Y-71401542D01*
X164988363Y-71402135D01*
X164941979Y-71426928D01*
X164911505Y-71451938D01*
X164911502Y-71451941D01*
X164901324Y-71460294D01*
X164892971Y-71470472D01*
X164516472Y-71846972D01*
X164506289Y-71855329D01*
X164472923Y-71895985D01*
X164448130Y-71942369D01*
X164432863Y-71992699D01*
X164428999Y-72031932D01*
X164428999Y-72031941D01*
X164427709Y-72045039D01*
X164428999Y-72058137D01*
X164428999Y-72441863D01*
X164427709Y-72454961D01*
X164428999Y-72468059D01*
X164428999Y-72468069D01*
X164432863Y-72507302D01*
X164441795Y-72536746D01*
X164448130Y-72557631D01*
X164472924Y-72604015D01*
X164497933Y-72634489D01*
X164497937Y-72634493D01*
X164506290Y-72644671D01*
X164516468Y-72653024D01*
X164578990Y-72715546D01*
X164578991Y-77312011D01*
X164573076Y-77300946D01*
X164555499Y-77279529D01*
X164548065Y-77270470D01*
X164548063Y-77270468D01*
X164539710Y-77260290D01*
X164529532Y-77251937D01*
X159717000Y-72439406D01*
X159717000Y-69392929D01*
X160250000Y-69392929D01*
X160287639Y-69389222D01*
X160323831Y-69378243D01*
X160357186Y-69360415D01*
X160386421Y-69336421D01*
X160410415Y-69307186D01*
X160418695Y-69291693D01*
X186358000Y-69291693D01*
X186358000Y-69408307D01*
X186380751Y-69522680D01*
X186425377Y-69630417D01*
X186490164Y-69727378D01*
X186572622Y-69809836D01*
X186669583Y-69874623D01*
X186777320Y-69919249D01*
X186891693Y-69942000D01*
X187008307Y-69942000D01*
X187122680Y-69919249D01*
X187230417Y-69874623D01*
X187327378Y-69809836D01*
X187409836Y-69727378D01*
X187474623Y-69630417D01*
X187519249Y-69522680D01*
X187542000Y-69408307D01*
X187542000Y-69291693D01*
X187519249Y-69177320D01*
X187474623Y-69069583D01*
X187409836Y-68972622D01*
X187327378Y-68890164D01*
X187230417Y-68825377D01*
X187122680Y-68780751D01*
X187008307Y-68758000D01*
X186891693Y-68758000D01*
X186777320Y-68780751D01*
X186669583Y-68825377D01*
X186572622Y-68890164D01*
X186490164Y-68972622D01*
X186425377Y-69069583D01*
X186380751Y-69177320D01*
X186358000Y-69291693D01*
X160418695Y-69291693D01*
X160428243Y-69273831D01*
X160439222Y-69237639D01*
X160442929Y-69200000D01*
X160442929Y-68511265D01*
X163014616Y-68511265D01*
X163014616Y-68608181D01*
X163033523Y-68703234D01*
X163070611Y-68792773D01*
X163124454Y-68873355D01*
X163192984Y-68941885D01*
X163273566Y-68995728D01*
X163363105Y-69032816D01*
X163458158Y-69051723D01*
X163555074Y-69051723D01*
X163650127Y-69032816D01*
X163739666Y-68995728D01*
X163820248Y-68941885D01*
X163888778Y-68873355D01*
X163942621Y-68792773D01*
X163979709Y-68703234D01*
X163998533Y-68608599D01*
X164015057Y-68608599D01*
X164110110Y-68589692D01*
X164199649Y-68552604D01*
X164280231Y-68498761D01*
X164348761Y-68430231D01*
X164402604Y-68349649D01*
X164439692Y-68260110D01*
X164458599Y-68165057D01*
X164458599Y-68068141D01*
X164439692Y-67973088D01*
X164402604Y-67883549D01*
X164348761Y-67802967D01*
X164280231Y-67734437D01*
X164199649Y-67680594D01*
X164110110Y-67643506D01*
X164015057Y-67624599D01*
X163918141Y-67624599D01*
X163823088Y-67643506D01*
X163733549Y-67680594D01*
X163652967Y-67734437D01*
X163584437Y-67802967D01*
X163530594Y-67883549D01*
X163493506Y-67973088D01*
X163474682Y-68067723D01*
X163458158Y-68067723D01*
X163363105Y-68086630D01*
X163273566Y-68123718D01*
X163192984Y-68177561D01*
X163124454Y-68246091D01*
X163070611Y-68326673D01*
X163033523Y-68416212D01*
X163014616Y-68511265D01*
X160442929Y-68511265D01*
X160442929Y-67500000D01*
X160439222Y-67462361D01*
X160428243Y-67426169D01*
X160410415Y-67392814D01*
X160386421Y-67363579D01*
X160357186Y-67339585D01*
X160323831Y-67321757D01*
X160287639Y-67310778D01*
X160250000Y-67307071D01*
X158567000Y-67307071D01*
X158567000Y-66910594D01*
X158879116Y-66598478D01*
X158916428Y-66623409D01*
X159106060Y-66701957D01*
X159307372Y-66742000D01*
X159512628Y-66742000D01*
X159713940Y-66701957D01*
X159903572Y-66623409D01*
X160013435Y-66550000D01*
X160934202Y-66550000D01*
X160937388Y-66582346D01*
X160946823Y-66613448D01*
X160962144Y-66642112D01*
X160982763Y-66667237D01*
X161007888Y-66687856D01*
X161036552Y-66703177D01*
X161067654Y-66712612D01*
X161100000Y-66715798D01*
X161719750Y-66715000D01*
X161761000Y-66673750D01*
X161761000Y-65889000D01*
X162139000Y-65889000D01*
X162139000Y-66673750D01*
X162180250Y-66715000D01*
X162800000Y-66715798D01*
X162832346Y-66712612D01*
X162863448Y-66703177D01*
X162892112Y-66687856D01*
X162917237Y-66667237D01*
X162937856Y-66642112D01*
X162953177Y-66613448D01*
X162962612Y-66582346D01*
X162965798Y-66550000D01*
X162965000Y-65930250D01*
X162923750Y-65889000D01*
X162139000Y-65889000D01*
X161761000Y-65889000D01*
X160976250Y-65889000D01*
X160935000Y-65930250D01*
X160934202Y-66550000D01*
X160013435Y-66550000D01*
X160074236Y-66509374D01*
X160219374Y-66364236D01*
X160333409Y-66193572D01*
X160411957Y-66003940D01*
X160452000Y-65802628D01*
X160452000Y-65597372D01*
X160411957Y-65396060D01*
X160333409Y-65206428D01*
X160219374Y-65035764D01*
X160074236Y-64890626D01*
X160013436Y-64850000D01*
X160934202Y-64850000D01*
X160935000Y-65469750D01*
X160976250Y-65511000D01*
X161761000Y-65511000D01*
X161761000Y-64726250D01*
X162139000Y-64726250D01*
X162139000Y-65511000D01*
X162923750Y-65511000D01*
X162965000Y-65469750D01*
X162965798Y-64850000D01*
X162962612Y-64817654D01*
X162953177Y-64786552D01*
X162937856Y-64757888D01*
X162917237Y-64732763D01*
X162892112Y-64712144D01*
X162863448Y-64696823D01*
X162832346Y-64687388D01*
X162800000Y-64684202D01*
X162180250Y-64685000D01*
X162139000Y-64726250D01*
X161761000Y-64726250D01*
X161719750Y-64685000D01*
X161100000Y-64684202D01*
X161067654Y-64687388D01*
X161036552Y-64696823D01*
X161007888Y-64712144D01*
X160982763Y-64732763D01*
X160962144Y-64757888D01*
X160946823Y-64786552D01*
X160937388Y-64817654D01*
X160934202Y-64850000D01*
X160013436Y-64850000D01*
X159903572Y-64776591D01*
X159713940Y-64698043D01*
X159512628Y-64658000D01*
X159307372Y-64658000D01*
X159106060Y-64698043D01*
X158916428Y-64776591D01*
X158745764Y-64890626D01*
X158600626Y-65035764D01*
X158486591Y-65206428D01*
X158408043Y-65396060D01*
X158368000Y-65597372D01*
X158368000Y-65802628D01*
X158408043Y-66003940D01*
X158486591Y-66193572D01*
X158503511Y-66218895D01*
X158150000Y-66572406D01*
X157784500Y-66206905D01*
X157793409Y-66193572D01*
X157871957Y-66003940D01*
X157912000Y-65802628D01*
X157912000Y-65597372D01*
X157871957Y-65396060D01*
X157793409Y-65206428D01*
X157679374Y-65035764D01*
X157534236Y-64890626D01*
X157363572Y-64776591D01*
X157173940Y-64698043D01*
X156972628Y-64658000D01*
X156767372Y-64658000D01*
X156566060Y-64698043D01*
X156376428Y-64776591D01*
X156205764Y-64890626D01*
X156060626Y-65035764D01*
X155946591Y-65206428D01*
X155868043Y-65396060D01*
X155828000Y-65597372D01*
X155828000Y-65802628D01*
X155868043Y-66003940D01*
X155946591Y-66193572D01*
X156060626Y-66364236D01*
X156205764Y-66509374D01*
X156376428Y-66623409D01*
X156566060Y-66701957D01*
X156767372Y-66742000D01*
X156972628Y-66742000D01*
X157173940Y-66701957D01*
X157363572Y-66623409D01*
X157412873Y-66590467D01*
X157755991Y-66933586D01*
X157755991Y-69179323D01*
X157733050Y-69163995D01*
X157643511Y-69126907D01*
X157548458Y-69108000D01*
X157451542Y-69108000D01*
X157356489Y-69126907D01*
X157266950Y-69163995D01*
X157186368Y-69217838D01*
X157117838Y-69286368D01*
X157063995Y-69366950D01*
X157026907Y-69456489D01*
X157008000Y-69551542D01*
X157008000Y-69648458D01*
X157026907Y-69743511D01*
X157063995Y-69833050D01*
X157117838Y-69913632D01*
X157186368Y-69982162D01*
X157266950Y-70036005D01*
X157356489Y-70073093D01*
X157451542Y-70092000D01*
X157548458Y-70092000D01*
X157643511Y-70073093D01*
X157733050Y-70036005D01*
X157755991Y-70020677D01*
X157755990Y-72979323D01*
X157733050Y-72963995D01*
X157643511Y-72926907D01*
X157548458Y-72908000D01*
X157451542Y-72908000D01*
X157356489Y-72926907D01*
X157266950Y-72963995D01*
X157186368Y-73017838D01*
X157117838Y-73086368D01*
X157063995Y-73166950D01*
X157026907Y-73256489D01*
X157008000Y-73351542D01*
X157008000Y-73448458D01*
X157026907Y-73543511D01*
X157063995Y-73633050D01*
X157117838Y-73713632D01*
X157186368Y-73782162D01*
X157266950Y-73836005D01*
X157356489Y-73873093D01*
X157451542Y-73892000D01*
X157548458Y-73892000D01*
X157643511Y-73873093D01*
X157733050Y-73836005D01*
X157755990Y-73820677D01*
X157755990Y-74110835D01*
X157754700Y-74123933D01*
X157755990Y-74137031D01*
X157755990Y-74137040D01*
X157759854Y-74176273D01*
X157775121Y-74226603D01*
X157799914Y-74272987D01*
X157833280Y-74313643D01*
X157843463Y-74322000D01*
X158267759Y-74746297D01*
X158209527Y-74770417D01*
X158141229Y-74816053D01*
X158083146Y-74874136D01*
X158037510Y-74942434D01*
X158020707Y-74983000D01*
X155385084Y-74983000D01*
X155400975Y-74944635D01*
X155417000Y-74864071D01*
X155417000Y-74781929D01*
X155400975Y-74701365D01*
X155369541Y-74625476D01*
X155323905Y-74557178D01*
X155267000Y-74500273D01*
X155267000Y-73863098D01*
X155268290Y-73850000D01*
X155267000Y-73836902D01*
X155267000Y-73836892D01*
X155263136Y-73797659D01*
X155247869Y-73747329D01*
X155223076Y-73700946D01*
X155216912Y-73693435D01*
X155198066Y-73670471D01*
X155198063Y-73670468D01*
X155189710Y-73660290D01*
X155179532Y-73651937D01*
X153118504Y-71590910D01*
X153167718Y-71517256D01*
X153250035Y-71318525D01*
X153292000Y-71107553D01*
X153292000Y-70892447D01*
X153250035Y-70681475D01*
X153167718Y-70482744D01*
X153048212Y-70303890D01*
X152896110Y-70151788D01*
X152717256Y-70032282D01*
X152518525Y-69949965D01*
X152307553Y-69908000D01*
X152092447Y-69908000D01*
X151881475Y-69949965D01*
X151682744Y-70032282D01*
X151503890Y-70151788D01*
X151351788Y-70303890D01*
X151232282Y-70482744D01*
X151149965Y-70681475D01*
X151108000Y-70892447D01*
X151108000Y-71107553D01*
X151149965Y-71318525D01*
X151232282Y-71517256D01*
X151351788Y-71696110D01*
X151503890Y-71848212D01*
X151682744Y-71967718D01*
X151881475Y-72050035D01*
X152092447Y-72092000D01*
X152307553Y-72092000D01*
X152518525Y-72050035D01*
X152717256Y-71967718D01*
X152730964Y-71958558D01*
X154733001Y-73960596D01*
X154733000Y-74500273D01*
X154676095Y-74557178D01*
X154630459Y-74625476D01*
X154599025Y-74701365D01*
X154583000Y-74781929D01*
X154583000Y-74855405D01*
X154261023Y-74533429D01*
X154252666Y-74523246D01*
X154212010Y-74489880D01*
X154165627Y-74465087D01*
X154115297Y-74449820D01*
X154076064Y-74445956D01*
X154076054Y-74445956D01*
X154062956Y-74444666D01*
X154049858Y-74445956D01*
X153616830Y-74445956D01*
X153603732Y-74444666D01*
X153590634Y-74445956D01*
X153590624Y-74445956D01*
X153551391Y-74449820D01*
X153501061Y-74465087D01*
X153454678Y-74489880D01*
X153414022Y-74523246D01*
X153405664Y-74533430D01*
X153387119Y-74551975D01*
X152380552Y-74551975D01*
X152551450Y-74510796D01*
X152666229Y-74463254D01*
X152781521Y-74348807D01*
X152200000Y-73767286D01*
X151618479Y-74348807D01*
X151733771Y-74463254D01*
X151930652Y-74535702D01*
X152033947Y-74551975D01*
X149329570Y-74551975D01*
X148215478Y-73437883D01*
X151131651Y-73437883D01*
X151140061Y-73647501D01*
X151189204Y-73851450D01*
X151236746Y-73966229D01*
X151351193Y-74081521D01*
X151932714Y-73500000D01*
X152467286Y-73500000D01*
X153048807Y-74081521D01*
X153163254Y-73966229D01*
X153235702Y-73769348D01*
X153268349Y-73562117D01*
X153259939Y-73352499D01*
X153210796Y-73148550D01*
X153163254Y-73033771D01*
X153048807Y-72918479D01*
X152467286Y-73500000D01*
X151932714Y-73500000D01*
X151351193Y-72918479D01*
X151236746Y-73033771D01*
X151164298Y-73230652D01*
X151131651Y-73437883D01*
X148215478Y-73437883D01*
X147428788Y-72651193D01*
X151618479Y-72651193D01*
X152200000Y-73232714D01*
X152781521Y-72651193D01*
X152666229Y-72536746D01*
X152469348Y-72464298D01*
X152262117Y-72431651D01*
X152052499Y-72440061D01*
X151848550Y-72489204D01*
X151733771Y-72536746D01*
X151618479Y-72651193D01*
X147428788Y-72651193D01*
X146719595Y-71942000D01*
X146798458Y-71942000D01*
X146893511Y-71923093D01*
X146983050Y-71886005D01*
X147063632Y-71832162D01*
X147132162Y-71763632D01*
X147186005Y-71683050D01*
X147223093Y-71593511D01*
X147242000Y-71498458D01*
X147242000Y-71401542D01*
X147223093Y-71306489D01*
X147186005Y-71216950D01*
X147132162Y-71136368D01*
X147063632Y-71067838D01*
X146983050Y-71013995D01*
X146893511Y-70976907D01*
X146798458Y-70958000D01*
X146741661Y-70958000D01*
X144442496Y-68658835D01*
X144560617Y-68707763D01*
X144984107Y-68792000D01*
X145415893Y-68792000D01*
X145839383Y-68707763D01*
X146238301Y-68542525D01*
X146462908Y-68392447D01*
X151108000Y-68392447D01*
X151108000Y-68607553D01*
X151149965Y-68818525D01*
X151232282Y-69017256D01*
X151351788Y-69196110D01*
X151503890Y-69348212D01*
X151682744Y-69467718D01*
X151881475Y-69550035D01*
X152092447Y-69592000D01*
X152307553Y-69592000D01*
X152518525Y-69550035D01*
X152717256Y-69467718D01*
X152896110Y-69348212D01*
X153048212Y-69196110D01*
X153167718Y-69017256D01*
X153250035Y-68818525D01*
X153292000Y-68607553D01*
X153292000Y-68392447D01*
X153250035Y-68181475D01*
X153167718Y-67982744D01*
X153048212Y-67803890D01*
X152896110Y-67651788D01*
X152812004Y-67595590D01*
X153805111Y-66602484D01*
X153836428Y-66623409D01*
X154026060Y-66701957D01*
X154227372Y-66742000D01*
X154432628Y-66742000D01*
X154633940Y-66701957D01*
X154823572Y-66623409D01*
X154994236Y-66509374D01*
X155139374Y-66364236D01*
X155253409Y-66193572D01*
X155331957Y-66003940D01*
X155372000Y-65802628D01*
X155372000Y-65597372D01*
X155331957Y-65396060D01*
X155253409Y-65206428D01*
X155139374Y-65035764D01*
X154994236Y-64890626D01*
X154823572Y-64776591D01*
X154633940Y-64698043D01*
X154432628Y-64658000D01*
X154227372Y-64658000D01*
X154026060Y-64698043D01*
X153836428Y-64776591D01*
X153665764Y-64890626D01*
X153520626Y-65035764D01*
X153406591Y-65206428D01*
X153328043Y-65396060D01*
X153288000Y-65597372D01*
X153288000Y-65802628D01*
X153328043Y-66003940D01*
X153406591Y-66193572D01*
X153427516Y-66224889D01*
X152244406Y-67408000D01*
X152092447Y-67408000D01*
X151881475Y-67449965D01*
X151682744Y-67532282D01*
X151503890Y-67651788D01*
X151351788Y-67803890D01*
X151232282Y-67982744D01*
X151149965Y-68181475D01*
X151108000Y-68392447D01*
X146462908Y-68392447D01*
X146597318Y-68302637D01*
X146902637Y-67997318D01*
X147142525Y-67638301D01*
X147307763Y-67239383D01*
X147392000Y-66815893D01*
X147392000Y-66384107D01*
X147307763Y-65960617D01*
X147142525Y-65561699D01*
X146902637Y-65202682D01*
X146597318Y-64897363D01*
X146238301Y-64657475D01*
X145839383Y-64492237D01*
X145415893Y-64408000D01*
X144984107Y-64408000D01*
X144560617Y-64492237D01*
X144161699Y-64657475D01*
X143802682Y-64897363D01*
X143497363Y-65202682D01*
X143257475Y-65561699D01*
X143092237Y-65960617D01*
X143008000Y-66384107D01*
X143008000Y-66815893D01*
X143092237Y-67239383D01*
X143141165Y-67357504D01*
X141153710Y-65370050D01*
X141143000Y-65357000D01*
X141090924Y-65314262D01*
X141031511Y-65282505D01*
X140967044Y-65262949D01*
X140916794Y-65258000D01*
X140916784Y-65258000D01*
X140900000Y-65256347D01*
X140883216Y-65258000D01*
X123166783Y-65258000D01*
X123149999Y-65256347D01*
X123133215Y-65258000D01*
X123133206Y-65258000D01*
X123082956Y-65262949D01*
X123018489Y-65282505D01*
X122959076Y-65314262D01*
X122907000Y-65357000D01*
X122896295Y-65370044D01*
X121702584Y-66563755D01*
X121543940Y-66498043D01*
X121342628Y-66458000D01*
X121137372Y-66458000D01*
X120936060Y-66498043D01*
X120746428Y-66576591D01*
X120575764Y-66690626D01*
X120430626Y-66835764D01*
X120316591Y-67006428D01*
X120238043Y-67196060D01*
X120198000Y-67397372D01*
X120198000Y-67602628D01*
X120238043Y-67803940D01*
X120316591Y-67993572D01*
X120321495Y-68000911D01*
X119839406Y-68483000D01*
X119648029Y-68483000D01*
X119667237Y-68467237D01*
X119687856Y-68442112D01*
X119703177Y-68413448D01*
X119712612Y-68382346D01*
X119715798Y-68350000D01*
X119715000Y-67730250D01*
X119673750Y-67689000D01*
X118889000Y-67689000D01*
X118889000Y-67709000D01*
X118511000Y-67709000D01*
X118511000Y-67689000D01*
X117726250Y-67689000D01*
X117685000Y-67730250D01*
X117684202Y-68350000D01*
X117687388Y-68382346D01*
X117696823Y-68413448D01*
X117712144Y-68442112D01*
X117732763Y-68467237D01*
X117751971Y-68483000D01*
X105422727Y-68483000D01*
X105365822Y-68426095D01*
X105297524Y-68380459D01*
X105221635Y-68349025D01*
X105141071Y-68333000D01*
X105058929Y-68333000D01*
X104978365Y-68349025D01*
X104902476Y-68380459D01*
X104834178Y-68426095D01*
X104776095Y-68484178D01*
X104730459Y-68552476D01*
X104699025Y-68628365D01*
X104683000Y-68708929D01*
X100189999Y-68708929D01*
X100189999Y-66650000D01*
X117684202Y-66650000D01*
X117685000Y-67269750D01*
X117726250Y-67311000D01*
X118511000Y-67311000D01*
X118511000Y-66526250D01*
X118889000Y-66526250D01*
X118889000Y-67311000D01*
X119673750Y-67311000D01*
X119715000Y-67269750D01*
X119715798Y-66650000D01*
X119712612Y-66617654D01*
X119703177Y-66586552D01*
X119687856Y-66557888D01*
X119667237Y-66532763D01*
X119642112Y-66512144D01*
X119613448Y-66496823D01*
X119582346Y-66487388D01*
X119550000Y-66484202D01*
X118930250Y-66485000D01*
X118889000Y-66526250D01*
X118511000Y-66526250D01*
X118469750Y-66485000D01*
X117850000Y-66484202D01*
X117817654Y-66487388D01*
X117786552Y-66496823D01*
X117757888Y-66512144D01*
X117732763Y-66532763D01*
X117712144Y-66557888D01*
X117696823Y-66586552D01*
X117687388Y-66617654D01*
X117684202Y-66650000D01*
X100189999Y-66650000D01*
X100189998Y-66009301D01*
X100225364Y-65648615D01*
X100327414Y-65310609D01*
X100493172Y-64998864D01*
X100716320Y-64725256D01*
X100988373Y-64500195D01*
X101298949Y-64332267D01*
X101636232Y-64227861D01*
X101996323Y-64190013D01*
X102000667Y-64189998D01*
X197990709Y-64190000D01*
G36*
X162001937Y-77429532D02*
G01*
X162010290Y-77439710D01*
X162020468Y-77448063D01*
X162020471Y-77448066D01*
X162043435Y-77466912D01*
X162050946Y-77473076D01*
X162097329Y-77497869D01*
X162147659Y-77513136D01*
X162186892Y-77517000D01*
X162186902Y-77517000D01*
X162200000Y-77518290D01*
X162213098Y-77517000D01*
X162877269Y-77517000D01*
X162934174Y-77573905D01*
X163002472Y-77619541D01*
X163078361Y-77650975D01*
X163158925Y-77667000D01*
X163241067Y-77667000D01*
X163321631Y-77650975D01*
X163397520Y-77619541D01*
X163465818Y-77573905D01*
X163523901Y-77515822D01*
X163569537Y-77447524D01*
X163600971Y-77371635D01*
X163616996Y-77291071D01*
X163616996Y-77208929D01*
X163600971Y-77128365D01*
X163569537Y-77052476D01*
X163558775Y-77036370D01*
X164083001Y-77560596D01*
X164083000Y-77977273D01*
X164026095Y-78034178D01*
X163980459Y-78102476D01*
X163949025Y-78178365D01*
X163933000Y-78258929D01*
X163933000Y-78341071D01*
X163949025Y-78421635D01*
X163980459Y-78497524D01*
X164026095Y-78565822D01*
X164084178Y-78623905D01*
X164152476Y-78669541D01*
X164228365Y-78700975D01*
X164308929Y-78717000D01*
X164391071Y-78717000D01*
X164471635Y-78700975D01*
X164547524Y-78669541D01*
X164578991Y-78648515D01*
X164578991Y-78951664D01*
X162070472Y-81460184D01*
X162068473Y-81462183D01*
X162058289Y-81470541D01*
X162024923Y-81511197D01*
X162000130Y-81557581D01*
X161984863Y-81607911D01*
X161980999Y-81647144D01*
X161980999Y-81647153D01*
X161979709Y-81660251D01*
X161980999Y-81673349D01*
X161981000Y-83516827D01*
X161979709Y-83529935D01*
X161981208Y-83545153D01*
X161926871Y-83555961D01*
X161850982Y-83587395D01*
X161782684Y-83633031D01*
X161769702Y-83646013D01*
X159548608Y-83646013D01*
X159404528Y-83501934D01*
X159298065Y-83395471D01*
X159289710Y-83385290D01*
X159249054Y-83351924D01*
X159243071Y-83348726D01*
X158568368Y-82674023D01*
X158565170Y-82668040D01*
X158531804Y-82627384D01*
X158491148Y-82594018D01*
X158485167Y-82590821D01*
X156614999Y-80720654D01*
X156614999Y-79565099D01*
X156616289Y-79552001D01*
X156614999Y-79538903D01*
X156614999Y-79538893D01*
X156611135Y-79499660D01*
X156595868Y-79449330D01*
X156571075Y-79402947D01*
X156567000Y-79397982D01*
X156567000Y-77913097D01*
X156568290Y-77899999D01*
X156567000Y-77886901D01*
X156567000Y-77886892D01*
X156563136Y-77847659D01*
X156558672Y-77832941D01*
X156567000Y-77791071D01*
X156567000Y-77708929D01*
X156556589Y-77656589D01*
X156608929Y-77667000D01*
X156691071Y-77667000D01*
X156771635Y-77650975D01*
X156847524Y-77619541D01*
X156915822Y-77573905D01*
X156972727Y-77517000D01*
X158478654Y-77517000D01*
X158491752Y-77518290D01*
X158504850Y-77517000D01*
X158504860Y-77517000D01*
X158544093Y-77513136D01*
X158594423Y-77497869D01*
X158640806Y-77473076D01*
X158681462Y-77439710D01*
X158689819Y-77429527D01*
X159454347Y-76665000D01*
X161237406Y-76665000D01*
X162001937Y-77429532D01*
G37*
X162001937Y-77429532D02*
X162010290Y-77439710D01*
X162020468Y-77448063D01*
X162020471Y-77448066D01*
X162043435Y-77466912D01*
X162050946Y-77473076D01*
X162097329Y-77497869D01*
X162147659Y-77513136D01*
X162186892Y-77517000D01*
X162186902Y-77517000D01*
X162200000Y-77518290D01*
X162213098Y-77517000D01*
X162877269Y-77517000D01*
X162934174Y-77573905D01*
X163002472Y-77619541D01*
X163078361Y-77650975D01*
X163158925Y-77667000D01*
X163241067Y-77667000D01*
X163321631Y-77650975D01*
X163397520Y-77619541D01*
X163465818Y-77573905D01*
X163523901Y-77515822D01*
X163569537Y-77447524D01*
X163600971Y-77371635D01*
X163616996Y-77291071D01*
X163616996Y-77208929D01*
X163600971Y-77128365D01*
X163569537Y-77052476D01*
X163558775Y-77036370D01*
X164083001Y-77560596D01*
X164083000Y-77977273D01*
X164026095Y-78034178D01*
X163980459Y-78102476D01*
X163949025Y-78178365D01*
X163933000Y-78258929D01*
X163933000Y-78341071D01*
X163949025Y-78421635D01*
X163980459Y-78497524D01*
X164026095Y-78565822D01*
X164084178Y-78623905D01*
X164152476Y-78669541D01*
X164228365Y-78700975D01*
X164308929Y-78717000D01*
X164391071Y-78717000D01*
X164471635Y-78700975D01*
X164547524Y-78669541D01*
X164578991Y-78648515D01*
X164578991Y-78951664D01*
X162070472Y-81460184D01*
X162068473Y-81462183D01*
X162058289Y-81470541D01*
X162024923Y-81511197D01*
X162000130Y-81557581D01*
X161984863Y-81607911D01*
X161980999Y-81647144D01*
X161980999Y-81647153D01*
X161979709Y-81660251D01*
X161980999Y-81673349D01*
X161981000Y-83516827D01*
X161979709Y-83529935D01*
X161981208Y-83545153D01*
X161926871Y-83555961D01*
X161850982Y-83587395D01*
X161782684Y-83633031D01*
X161769702Y-83646013D01*
X159548608Y-83646013D01*
X159404528Y-83501934D01*
X159298065Y-83395471D01*
X159289710Y-83385290D01*
X159249054Y-83351924D01*
X159243071Y-83348726D01*
X158568368Y-82674023D01*
X158565170Y-82668040D01*
X158531804Y-82627384D01*
X158491148Y-82594018D01*
X158485167Y-82590821D01*
X156614999Y-80720654D01*
X156614999Y-79565099D01*
X156616289Y-79552001D01*
X156614999Y-79538903D01*
X156614999Y-79538893D01*
X156611135Y-79499660D01*
X156595868Y-79449330D01*
X156571075Y-79402947D01*
X156567000Y-79397982D01*
X156567000Y-77913097D01*
X156568290Y-77899999D01*
X156567000Y-77886901D01*
X156567000Y-77886892D01*
X156563136Y-77847659D01*
X156558672Y-77832941D01*
X156567000Y-77791071D01*
X156567000Y-77708929D01*
X156556589Y-77656589D01*
X156608929Y-77667000D01*
X156691071Y-77667000D01*
X156771635Y-77650975D01*
X156847524Y-77619541D01*
X156915822Y-77573905D01*
X156972727Y-77517000D01*
X158478654Y-77517000D01*
X158491752Y-77518290D01*
X158504850Y-77517000D01*
X158504860Y-77517000D01*
X158544093Y-77513136D01*
X158594423Y-77497869D01*
X158640806Y-77473076D01*
X158681462Y-77439710D01*
X158689819Y-77429527D01*
X159454347Y-76665000D01*
X161237406Y-76665000D01*
X162001937Y-77429532D01*
G36*
X158439406Y-76533000D02*
G01*
X157422727Y-76533000D01*
X157365822Y-76476095D01*
X157297524Y-76430459D01*
X157221635Y-76399025D01*
X157141071Y-76383000D01*
X157058929Y-76383000D01*
X156978365Y-76399025D01*
X156902476Y-76430459D01*
X156834178Y-76476095D01*
X156777273Y-76533000D01*
X155221345Y-76533000D01*
X155208247Y-76531710D01*
X155195149Y-76533000D01*
X155195140Y-76533000D01*
X155155907Y-76536864D01*
X155105577Y-76552131D01*
X155059194Y-76576924D01*
X155059192Y-76576925D01*
X155059193Y-76576925D01*
X155028719Y-76601934D01*
X155028716Y-76601937D01*
X155018538Y-76610290D01*
X155010185Y-76620468D01*
X150147654Y-81483000D01*
X141451897Y-81483000D01*
X141450975Y-81478365D01*
X141419541Y-81402476D01*
X141373905Y-81334178D01*
X141315822Y-81276095D01*
X141247524Y-81230459D01*
X141171635Y-81199025D01*
X141091071Y-81183000D01*
X141008929Y-81183000D01*
X140928365Y-81199025D01*
X140889999Y-81214917D01*
X140889999Y-78937595D01*
X141010594Y-78817000D01*
X141091071Y-78817000D01*
X141171635Y-78800975D01*
X141247524Y-78769541D01*
X141315822Y-78723905D01*
X141373905Y-78665822D01*
X141419541Y-78597524D01*
X141450975Y-78521635D01*
X141467000Y-78441071D01*
X141467000Y-78358929D01*
X141450975Y-78278365D01*
X141435083Y-78239999D01*
X150713903Y-78239999D01*
X150727001Y-78241289D01*
X150740099Y-78239999D01*
X150740109Y-78239999D01*
X150779342Y-78236135D01*
X150829672Y-78220868D01*
X150876055Y-78196075D01*
X150916711Y-78162709D01*
X150925068Y-78152526D01*
X152966616Y-76110979D01*
X158861426Y-76110979D01*
X158439406Y-76533000D01*
G37*
X158439406Y-76533000D02*
X157422727Y-76533000D01*
X157365822Y-76476095D01*
X157297524Y-76430459D01*
X157221635Y-76399025D01*
X157141071Y-76383000D01*
X157058929Y-76383000D01*
X156978365Y-76399025D01*
X156902476Y-76430459D01*
X156834178Y-76476095D01*
X156777273Y-76533000D01*
X155221345Y-76533000D01*
X155208247Y-76531710D01*
X155195149Y-76533000D01*
X155195140Y-76533000D01*
X155155907Y-76536864D01*
X155105577Y-76552131D01*
X155059194Y-76576924D01*
X155059192Y-76576925D01*
X155059193Y-76576925D01*
X155028719Y-76601934D01*
X155028716Y-76601937D01*
X155018538Y-76610290D01*
X155010185Y-76620468D01*
X150147654Y-81483000D01*
X141451897Y-81483000D01*
X141450975Y-81478365D01*
X141419541Y-81402476D01*
X141373905Y-81334178D01*
X141315822Y-81276095D01*
X141247524Y-81230459D01*
X141171635Y-81199025D01*
X141091071Y-81183000D01*
X141008929Y-81183000D01*
X140928365Y-81199025D01*
X140889999Y-81214917D01*
X140889999Y-78937595D01*
X141010594Y-78817000D01*
X141091071Y-78817000D01*
X141171635Y-78800975D01*
X141247524Y-78769541D01*
X141315822Y-78723905D01*
X141373905Y-78665822D01*
X141419541Y-78597524D01*
X141450975Y-78521635D01*
X141467000Y-78441071D01*
X141467000Y-78358929D01*
X141450975Y-78278365D01*
X141435083Y-78239999D01*
X150713903Y-78239999D01*
X150727001Y-78241289D01*
X150740099Y-78239999D01*
X150740109Y-78239999D01*
X150779342Y-78236135D01*
X150829672Y-78220868D01*
X150876055Y-78196075D01*
X150916711Y-78162709D01*
X150925068Y-78152526D01*
X152966616Y-76110979D01*
X158861426Y-76110979D01*
X158439406Y-76533000D01*
G36*
X159183000Y-72536902D02*
G01*
X159181710Y-72550000D01*
X159183000Y-72563098D01*
X159183000Y-72563107D01*
X159186864Y-72602340D01*
X159202131Y-72652670D01*
X159226924Y-72699054D01*
X159260290Y-72739710D01*
X159270473Y-72748068D01*
X161506101Y-74983695D01*
X161478086Y-74978123D01*
X161395944Y-74978123D01*
X161315380Y-74994148D01*
X161239491Y-75025582D01*
X161171193Y-75071218D01*
X161115224Y-75127187D01*
X161105719Y-75128123D01*
X161105709Y-75128123D01*
X161066476Y-75131987D01*
X161029313Y-75143260D01*
X161016146Y-75147254D01*
X160969762Y-75172047D01*
X160946884Y-75190824D01*
X160929107Y-75205413D01*
X160920749Y-75215597D01*
X160836378Y-75299968D01*
X159824062Y-75299968D01*
X159897520Y-75269541D01*
X159965818Y-75223905D01*
X160023901Y-75165822D01*
X160069537Y-75097524D01*
X160100971Y-75021635D01*
X160116996Y-74941071D01*
X160116996Y-74858929D01*
X160100971Y-74778365D01*
X160069537Y-74702476D01*
X160057987Y-74685189D01*
X160156740Y-74685189D01*
X160156740Y-74767331D01*
X160172765Y-74847895D01*
X160204199Y-74923784D01*
X160249835Y-74992082D01*
X160307918Y-75050165D01*
X160376216Y-75095801D01*
X160452105Y-75127235D01*
X160532669Y-75143260D01*
X160614811Y-75143260D01*
X160695375Y-75127235D01*
X160771264Y-75095801D01*
X160839562Y-75050165D01*
X160897645Y-74992082D01*
X160943281Y-74923784D01*
X160974715Y-74847895D01*
X160990740Y-74767331D01*
X160990740Y-74685189D01*
X160974715Y-74604625D01*
X160943281Y-74528736D01*
X160897645Y-74460438D01*
X160839562Y-74402355D01*
X160771264Y-74356719D01*
X160695375Y-74325285D01*
X160614811Y-74309260D01*
X160532669Y-74309260D01*
X160452105Y-74325285D01*
X160376216Y-74356719D01*
X160307918Y-74402355D01*
X160249835Y-74460438D01*
X160204199Y-74528736D01*
X160172765Y-74604625D01*
X160156740Y-74685189D01*
X160057987Y-74685189D01*
X160023901Y-74634178D01*
X159965818Y-74576095D01*
X159897520Y-74530459D01*
X159821631Y-74499025D01*
X159741067Y-74483000D01*
X159658925Y-74483000D01*
X159578361Y-74499025D01*
X159502472Y-74530459D01*
X159492212Y-74537315D01*
X159492212Y-74531200D01*
X159476187Y-74450636D01*
X159444753Y-74374747D01*
X159399117Y-74306449D01*
X159341034Y-74248366D01*
X159272736Y-74202730D01*
X159196847Y-74171296D01*
X159116283Y-74155271D01*
X159035807Y-74155271D01*
X158567000Y-73686465D01*
X158567000Y-69392929D01*
X159183001Y-69392929D01*
X159183000Y-72536902D01*
G37*
X159183000Y-72536902D02*
X159181710Y-72550000D01*
X159183000Y-72563098D01*
X159183000Y-72563107D01*
X159186864Y-72602340D01*
X159202131Y-72652670D01*
X159226924Y-72699054D01*
X159260290Y-72739710D01*
X159270473Y-72748068D01*
X161506101Y-74983695D01*
X161478086Y-74978123D01*
X161395944Y-74978123D01*
X161315380Y-74994148D01*
X161239491Y-75025582D01*
X161171193Y-75071218D01*
X161115224Y-75127187D01*
X161105719Y-75128123D01*
X161105709Y-75128123D01*
X161066476Y-75131987D01*
X161029313Y-75143260D01*
X161016146Y-75147254D01*
X160969762Y-75172047D01*
X160946884Y-75190824D01*
X160929107Y-75205413D01*
X160920749Y-75215597D01*
X160836378Y-75299968D01*
X159824062Y-75299968D01*
X159897520Y-75269541D01*
X159965818Y-75223905D01*
X160023901Y-75165822D01*
X160069537Y-75097524D01*
X160100971Y-75021635D01*
X160116996Y-74941071D01*
X160116996Y-74858929D01*
X160100971Y-74778365D01*
X160069537Y-74702476D01*
X160057987Y-74685189D01*
X160156740Y-74685189D01*
X160156740Y-74767331D01*
X160172765Y-74847895D01*
X160204199Y-74923784D01*
X160249835Y-74992082D01*
X160307918Y-75050165D01*
X160376216Y-75095801D01*
X160452105Y-75127235D01*
X160532669Y-75143260D01*
X160614811Y-75143260D01*
X160695375Y-75127235D01*
X160771264Y-75095801D01*
X160839562Y-75050165D01*
X160897645Y-74992082D01*
X160943281Y-74923784D01*
X160974715Y-74847895D01*
X160990740Y-74767331D01*
X160990740Y-74685189D01*
X160974715Y-74604625D01*
X160943281Y-74528736D01*
X160897645Y-74460438D01*
X160839562Y-74402355D01*
X160771264Y-74356719D01*
X160695375Y-74325285D01*
X160614811Y-74309260D01*
X160532669Y-74309260D01*
X160452105Y-74325285D01*
X160376216Y-74356719D01*
X160307918Y-74402355D01*
X160249835Y-74460438D01*
X160204199Y-74528736D01*
X160172765Y-74604625D01*
X160156740Y-74685189D01*
X160057987Y-74685189D01*
X160023901Y-74634178D01*
X159965818Y-74576095D01*
X159897520Y-74530459D01*
X159821631Y-74499025D01*
X159741067Y-74483000D01*
X159658925Y-74483000D01*
X159578361Y-74499025D01*
X159502472Y-74530459D01*
X159492212Y-74537315D01*
X159492212Y-74531200D01*
X159476187Y-74450636D01*
X159444753Y-74374747D01*
X159399117Y-74306449D01*
X159341034Y-74248366D01*
X159272736Y-74202730D01*
X159196847Y-74171296D01*
X159116283Y-74155271D01*
X159035807Y-74155271D01*
X158567000Y-73686465D01*
X158567000Y-69392929D01*
X159183001Y-69392929D01*
X159183000Y-72536902D01*
G36*
X199810001Y-73830042D02*
G01*
X199810001Y-86169957D01*
X199695739Y-86185000D01*
X194961368Y-86185000D01*
X194844664Y-86169636D01*
X194739890Y-86126237D01*
X194646501Y-86054577D01*
X194395423Y-85803499D01*
X194323763Y-85710110D01*
X194280364Y-85605336D01*
X194265000Y-85488632D01*
X194265000Y-74475707D01*
X194282269Y-74352119D01*
X194330902Y-74242181D01*
X194410733Y-74146270D01*
X194647731Y-73930817D01*
X194738094Y-73867007D01*
X194837517Y-73828568D01*
X194947303Y-73815000D01*
X199695739Y-73815000D01*
X199810001Y-73830042D01*
G37*
X199810001Y-73830042D02*
X199810001Y-86169957D01*
X199695739Y-86185000D01*
X194961368Y-86185000D01*
X194844664Y-86169636D01*
X194739890Y-86126237D01*
X194646501Y-86054577D01*
X194395423Y-85803499D01*
X194323763Y-85710110D01*
X194280364Y-85605336D01*
X194265000Y-85488632D01*
X194265000Y-74475707D01*
X194282269Y-74352119D01*
X194330902Y-74242181D01*
X194410733Y-74146270D01*
X194647731Y-73930817D01*
X194738094Y-73867007D01*
X194837517Y-73828568D01*
X194947303Y-73815000D01*
X199695739Y-73815000D01*
X199810001Y-73830042D01*
M02*
