G04 #@! TF.GenerationSoftware,KiCad,Pcbnew,5.1.5+dfsg1-2build2*
G04 #@! TF.CreationDate,2021-02-20T19:42:40+01:00*
G04 #@! TF.ProjectId,charge-hf,63686172-6765-42d6-9866-2e6b69636164,rev?*
G04 #@! TF.SameCoordinates,Original*
G04 #@! TF.FileFunction,Copper,L3,Inr*
G04 #@! TF.FilePolarity,Positive*
%FSLAX46Y46*%
G04 Gerber Fmt 4.6, Leading zero omitted, Abs format (unit mm)*
G04 Created by KiCad (PCBNEW 5.1.5+dfsg1-2build2) date 2021-02-20 19:42:40*
%MOMM*%
%LPD*%
G04 APERTURE LIST*
%ADD10C,4.000000*%
%ADD11C,1.800000*%
%ADD12O,1.700000X1.700000*%
%ADD13R,1.700000X1.700000*%
%ADD14O,1.700000X0.900000*%
%ADD15O,2.000000X0.900000*%
%ADD16C,0.450000*%
%ADD17C,0.800000*%
%ADD18C,0.600000*%
%ADD19C,1.000000*%
%ADD20C,0.500000*%
%ADD21C,0.300000*%
%ADD22C,0.150000*%
G04 APERTURE END LIST*
D10*
X145200000Y-84600000D03*
X145200000Y-93400000D03*
D11*
X152200000Y-86500000D03*
X152200000Y-89000000D03*
X152200000Y-91500000D03*
D10*
X145200000Y-66600000D03*
X145200000Y-75400000D03*
D11*
X152200000Y-68500000D03*
X152200000Y-71000000D03*
X152200000Y-73500000D03*
D12*
X126320000Y-67500000D03*
X123780000Y-67500000D03*
X121240000Y-67500000D03*
D13*
X118700000Y-67500000D03*
X161950000Y-65700000D03*
D12*
X159410000Y-65700000D03*
X156870000Y-65700000D03*
X154330000Y-65700000D03*
D13*
X162300000Y-89300000D03*
X159400000Y-68350000D03*
X159400000Y-89300000D03*
D12*
X174550000Y-78720000D03*
X174550000Y-81260000D03*
D13*
X174550000Y-83800000D03*
X186650000Y-84950000D03*
X156500000Y-89300000D03*
X185450000Y-71400000D03*
D14*
X101760000Y-84320000D03*
X101760000Y-75680000D03*
D15*
X105930000Y-84320000D03*
X105930000Y-75680000D03*
D16*
X166300000Y-71650004D03*
X160781372Y-85147106D03*
D17*
X107625000Y-82400000D03*
X107625000Y-77600000D03*
D18*
X157500000Y-69600000D03*
X163966599Y-68116599D03*
X163506616Y-68559723D03*
X177700157Y-84398157D03*
D16*
X167500000Y-78850000D03*
X163113131Y-82897192D03*
X157837448Y-83937272D03*
X190850000Y-73300000D03*
X159588442Y-84984558D03*
X155650000Y-78200000D03*
X105100000Y-70900000D03*
X160573740Y-74726260D03*
X155300000Y-85000000D03*
X139046116Y-80000000D03*
X105100000Y-68750000D03*
D18*
X157500000Y-73400000D03*
D16*
X165572377Y-80426248D03*
X154650000Y-79550000D03*
D18*
X146750000Y-71450000D03*
D16*
X161617018Y-84340014D03*
X157429348Y-83529354D03*
X158700000Y-84700000D03*
X191300000Y-76150000D03*
X159900000Y-85950000D03*
X156150000Y-77750000D03*
X162048506Y-83956936D03*
X155000000Y-74823000D03*
X157100000Y-76800000D03*
X162303990Y-76328095D03*
X141050000Y-81600000D03*
X161437015Y-75395123D03*
X138700000Y-79050000D03*
X163199996Y-77250000D03*
X141050000Y-78400000D03*
X156650000Y-77250000D03*
X161877010Y-75800000D03*
X107450000Y-80250000D03*
X107450000Y-79250000D03*
X138700000Y-80950000D03*
X164350000Y-78300000D03*
X161200000Y-84750000D03*
X159699996Y-74900000D03*
X159075212Y-74572271D03*
X155250000Y-78650000D03*
X153808694Y-75139958D03*
X158407051Y-75139958D03*
X164900000Y-81000000D03*
X164153561Y-81746439D03*
X162350000Y-86850000D03*
X165123000Y-72250000D03*
X162675000Y-83275000D03*
X158243025Y-84347699D03*
X182050000Y-85249994D03*
X174200000Y-85950000D03*
X172400000Y-85950000D03*
X170600000Y-85950000D03*
X168800000Y-85950000D03*
X167000000Y-85950000D03*
D17*
X159950000Y-77000000D03*
X162950000Y-80000000D03*
X161950000Y-79000000D03*
X160950000Y-78000000D03*
X158950000Y-78000000D03*
X161950000Y-81000000D03*
X160950000Y-80000000D03*
X159950000Y-79000000D03*
X157950000Y-79000000D03*
X158950000Y-80000000D03*
X159950000Y-81000000D03*
X160950000Y-82000000D03*
X157950000Y-81000000D03*
X158950000Y-82000000D03*
X159950000Y-83000000D03*
X156950000Y-80000000D03*
D18*
X167600000Y-68300000D03*
X168350000Y-68300000D03*
X167400000Y-69900000D03*
X169100000Y-68300000D03*
X163800000Y-66400000D03*
X163800000Y-65600000D03*
X163800000Y-64800000D03*
X162750000Y-68300000D03*
X161800000Y-67050000D03*
X161800000Y-67900000D03*
X158850000Y-71450000D03*
X160300000Y-71200000D03*
X169000000Y-64800000D03*
X169000000Y-65600000D03*
X169000000Y-66400000D03*
D16*
X159550000Y-73400000D03*
X151300000Y-82200000D03*
X156000000Y-82800000D03*
X153600000Y-82500000D03*
X152500000Y-81400000D03*
X154700000Y-83600000D03*
X177800000Y-85950000D03*
X176000000Y-85950000D03*
D17*
X155300000Y-95300000D03*
X157300000Y-95300000D03*
X159300000Y-95300000D03*
X161300000Y-95300000D03*
X163300000Y-95300000D03*
X162300000Y-95300000D03*
X160300000Y-95300000D03*
X158300000Y-95300000D03*
X156300000Y-95300000D03*
X155300000Y-94300000D03*
X155300000Y-93300000D03*
X156300000Y-93300000D03*
X156300000Y-94300000D03*
X157300000Y-94300000D03*
X157300000Y-93300000D03*
X158300000Y-93300000D03*
X159300000Y-93300000D03*
X160300000Y-93300000D03*
X161300000Y-93300000D03*
X162300000Y-93300000D03*
X163300000Y-93300000D03*
X163300000Y-94300000D03*
X162300000Y-94300000D03*
X161300000Y-94300000D03*
X160300000Y-94300000D03*
X159300000Y-94300000D03*
X158300000Y-94300000D03*
D18*
X156550000Y-69600000D03*
X156550000Y-73250000D03*
D16*
X164900000Y-84200000D03*
X163600000Y-85500000D03*
X165366259Y-84531291D03*
X167250000Y-82000000D03*
X162751935Y-75248065D03*
X167100000Y-77900000D03*
X169600000Y-77250000D03*
X155850000Y-76350000D03*
X153450000Y-80050000D03*
X156900000Y-86600000D03*
X157600000Y-86950000D03*
X156700000Y-84600000D03*
X142650000Y-80000000D03*
X136850000Y-80000000D03*
X148900000Y-80850000D03*
D18*
X180400000Y-81550000D03*
X180400000Y-80600000D03*
X180400000Y-79600000D03*
X175400000Y-80000000D03*
X176700000Y-84200000D03*
X176700000Y-82550000D03*
X178850000Y-78300000D03*
X180415000Y-84300000D03*
D17*
X187150000Y-80000000D03*
D16*
X170900000Y-84150000D03*
X169900000Y-84700000D03*
D17*
X166500000Y-94200000D03*
X166500000Y-92700000D03*
X166500000Y-88200000D03*
X166500000Y-89700000D03*
X166500000Y-91200000D03*
X182650000Y-79450000D03*
X183650000Y-79450000D03*
X184650000Y-79450000D03*
X185650000Y-79450000D03*
X182650000Y-80550000D03*
X183650000Y-80550000D03*
X184650000Y-80550000D03*
X185650000Y-80550000D03*
X197000000Y-77200000D03*
X198100000Y-77200000D03*
X195900000Y-77200000D03*
X194800000Y-77200000D03*
X199200000Y-77200000D03*
X197000000Y-82800000D03*
X195900000Y-82800000D03*
X198100000Y-82800000D03*
X199200000Y-82800000D03*
X194800000Y-82800000D03*
X197000000Y-85700000D03*
X198100000Y-85700000D03*
X195900000Y-85700000D03*
X194800000Y-85700000D03*
X199200000Y-85700000D03*
X199200000Y-74300000D03*
X197000000Y-74300000D03*
X198100000Y-74300000D03*
X195900000Y-74300000D03*
X194800000Y-74300000D03*
X184950000Y-73000000D03*
X185950000Y-73000000D03*
X186950000Y-73000000D03*
X186950000Y-71200000D03*
X186950000Y-69350000D03*
X181550000Y-74300000D03*
X181550000Y-73350000D03*
X170850000Y-73950000D03*
X171750000Y-74900000D03*
X173250000Y-74900000D03*
X174800000Y-74900000D03*
X175450000Y-72150000D03*
D16*
X189850000Y-76150000D03*
X170300000Y-81600000D03*
D19*
X108302001Y-81722999D02*
X108302001Y-78202001D01*
X107625000Y-82400000D02*
X108302001Y-81722999D01*
X108302001Y-78202001D02*
X107650000Y-77550000D01*
X162594961Y-69827001D02*
X158177001Y-69827001D01*
X163677001Y-68744961D02*
X162594961Y-69827001D01*
X163677001Y-68272999D02*
X163677001Y-68744961D01*
X163833401Y-68116599D02*
X163677001Y-68272999D01*
X163966599Y-68116599D02*
X163833401Y-68116599D01*
X158177001Y-69827001D02*
X157350000Y-69000000D01*
X162594961Y-69827001D02*
X162522999Y-69827001D01*
X162077001Y-70272999D02*
X160744961Y-70272999D01*
X162522999Y-69827001D02*
X162077001Y-70272999D01*
X157468997Y-70527001D02*
X156105039Y-70527001D01*
X157722999Y-70272999D02*
X157468997Y-70527001D01*
X160744961Y-70272999D02*
X157722999Y-70272999D01*
X155622999Y-69155039D02*
X156105039Y-68672999D01*
X155622999Y-70044961D02*
X155622999Y-69155039D01*
X156105039Y-70527001D02*
X155622999Y-70044961D01*
X157477001Y-69155039D02*
X157477001Y-70044961D01*
X156994961Y-68672999D02*
X157477001Y-69155039D01*
X156105039Y-68672999D02*
X156994961Y-68672999D01*
X157477001Y-70044961D02*
X157185981Y-70335981D01*
X155622999Y-69155039D02*
X155622999Y-68672999D01*
X155622999Y-68672999D02*
X154650000Y-67700000D01*
X154650000Y-67700000D02*
X153700000Y-67700000D01*
X153700000Y-67700000D02*
X153050000Y-67050000D01*
X148577001Y-66972999D02*
X139200000Y-76350000D01*
X152932961Y-66972999D02*
X148577001Y-66972999D01*
X110200000Y-76350000D02*
X108350000Y-78200000D01*
X155501265Y-67177001D02*
X153136963Y-67177001D01*
X139200000Y-76350000D02*
X110200000Y-76350000D01*
X157500000Y-69175736D02*
X155501265Y-67177001D01*
X153136963Y-67177001D02*
X152932961Y-66972999D01*
X157500000Y-69600000D02*
X157500000Y-69175736D01*
X151467039Y-66972999D02*
X150672999Y-67767039D01*
X152932961Y-66972999D02*
X151467039Y-66972999D01*
X150672999Y-67767039D02*
X148944999Y-67767039D01*
X148944999Y-67767039D02*
X143939039Y-72772999D01*
X143939039Y-72772999D02*
X139512038Y-77200000D01*
X139512038Y-77200000D02*
X110200000Y-77200000D01*
X110200000Y-77200000D02*
X108400000Y-79000000D01*
D20*
X177700157Y-80054195D02*
X174895962Y-77250000D01*
X177700157Y-84398157D02*
X177700157Y-80054195D01*
X174293961Y-76647999D02*
X169247999Y-76647999D01*
X174895962Y-77250000D02*
X174293961Y-76647999D01*
X166902001Y-71361043D02*
X165490958Y-69950000D01*
X166902001Y-74302001D02*
X166902001Y-71361043D01*
X169247999Y-76647999D02*
X166902001Y-74302001D01*
X165490958Y-69950000D02*
X162050000Y-69950000D01*
D21*
X155092962Y-79550000D02*
X154968198Y-79550000D01*
X154968198Y-79550000D02*
X154650000Y-79550000D01*
X155092962Y-79550000D02*
X155300000Y-79757038D01*
X155300000Y-79757038D02*
X155300000Y-85000000D01*
X155075001Y-85224999D02*
X153475001Y-85224999D01*
X155300000Y-85000000D02*
X155075001Y-85224999D01*
X153475001Y-85224999D02*
X152150000Y-86550000D01*
X152979180Y-68500000D02*
X157500000Y-73020820D01*
X152200000Y-68500000D02*
X152979180Y-68500000D01*
X157500000Y-73020820D02*
X157500000Y-73350000D01*
X160573740Y-74726260D02*
X159749481Y-73902001D01*
X159749481Y-73902001D02*
X159102001Y-73902001D01*
X159102001Y-73902001D02*
X158600000Y-73400000D01*
X158600000Y-73400000D02*
X157550000Y-73400000D01*
X162973092Y-74726260D02*
X165550000Y-77303168D01*
X160573740Y-74726260D02*
X162973092Y-74726260D01*
X165550000Y-77303168D02*
X165550000Y-80450000D01*
X139552001Y-79497999D02*
X139050000Y-80000000D01*
X154597999Y-79497999D02*
X139552001Y-79497999D01*
X154650000Y-79550000D02*
X154597999Y-79497999D01*
X153377001Y-74064961D02*
X152764961Y-74677001D01*
X152764961Y-74677001D02*
X149977001Y-74677001D01*
X156835039Y-74064961D02*
X153377001Y-74064961D01*
X157500000Y-73400000D02*
X156835039Y-74064961D01*
X149977001Y-74677001D02*
X146750000Y-71450000D01*
X155250000Y-79550000D02*
X155092962Y-79550000D01*
X157799999Y-77000001D02*
X155250000Y-79550000D01*
X157799999Y-73699999D02*
X157799999Y-77000001D01*
X157500000Y-73400000D02*
X157799999Y-73699999D01*
D22*
X158700000Y-84172712D02*
X158027288Y-83500000D01*
X158700000Y-84700000D02*
X158700000Y-84172712D01*
X158027288Y-83500000D02*
X157400000Y-83500000D01*
X156150000Y-77750000D02*
X155000000Y-76600000D01*
X155000000Y-76600000D02*
X155000000Y-74823000D01*
X161225000Y-84775000D02*
X161200000Y-84750000D01*
X161225000Y-88200000D02*
X161225000Y-84775000D01*
X162300000Y-89275000D02*
X161225000Y-88200000D01*
X162300000Y-89300000D02*
X162300000Y-89275000D01*
X153808694Y-77208694D02*
X153808694Y-75139958D01*
X155250000Y-78650000D02*
X153808694Y-77208694D01*
D19*
X187150000Y-77200000D02*
X187150000Y-80000000D01*
D22*
G36*
X190275000Y-64250000D02*
G01*
X190275000Y-73250000D01*
X190276441Y-73264632D01*
X190280709Y-73278701D01*
X190287640Y-73291668D01*
X190296967Y-73303033D01*
X190415332Y-73421398D01*
X190417294Y-73431260D01*
X190451215Y-73513155D01*
X190500462Y-73586858D01*
X190563142Y-73649538D01*
X190636845Y-73698785D01*
X190718740Y-73732706D01*
X190805679Y-73750000D01*
X190894321Y-73750000D01*
X190981260Y-73732706D01*
X191063155Y-73698785D01*
X191098752Y-73675000D01*
X192568934Y-73675000D01*
X192875000Y-73981066D01*
X192875000Y-78122256D01*
X192615505Y-78425000D01*
X181000000Y-78425000D01*
X180985368Y-78426441D01*
X180971299Y-78430709D01*
X180958332Y-78437640D01*
X180946967Y-78446967D01*
X180937640Y-78458332D01*
X180930709Y-78471299D01*
X180926441Y-78485368D01*
X180925000Y-78500000D01*
X180925000Y-85968934D01*
X180468934Y-86425000D01*
X165500000Y-86425000D01*
X165485368Y-86426441D01*
X165471299Y-86430709D01*
X165458332Y-86437640D01*
X165446967Y-86446967D01*
X164946967Y-86946967D01*
X164937640Y-86958332D01*
X164930709Y-86971299D01*
X164926441Y-86985368D01*
X164925000Y-87000000D01*
X164925000Y-95750001D01*
X102012239Y-95750002D01*
X101660321Y-95715496D01*
X101333584Y-95616848D01*
X101032225Y-95456613D01*
X100767734Y-95240899D01*
X100550177Y-94977918D01*
X100387845Y-94677691D01*
X100286916Y-94351642D01*
X100250002Y-94000424D01*
X100250000Y-93999978D01*
X100250000Y-93180857D01*
X142975000Y-93180857D01*
X142975000Y-93619143D01*
X143060505Y-94049009D01*
X143228230Y-94453933D01*
X143471730Y-94818355D01*
X143781645Y-95128270D01*
X144146067Y-95371770D01*
X144550991Y-95539495D01*
X144980857Y-95625000D01*
X145419143Y-95625000D01*
X145849009Y-95539495D01*
X146253933Y-95371770D01*
X146618355Y-95128270D01*
X146928270Y-94818355D01*
X147171770Y-94453933D01*
X147339495Y-94049009D01*
X147425000Y-93619143D01*
X147425000Y-93180857D01*
X147339495Y-92750991D01*
X147185236Y-92378575D01*
X151568912Y-92378575D01*
X151679152Y-92514613D01*
X151887102Y-92596730D01*
X152107076Y-92636700D01*
X152330620Y-92632988D01*
X152549145Y-92585736D01*
X152720848Y-92514613D01*
X152831088Y-92378575D01*
X152200000Y-91747487D01*
X151568912Y-92378575D01*
X147185236Y-92378575D01*
X147171770Y-92346067D01*
X146928270Y-91981645D01*
X146618355Y-91671730D01*
X146253933Y-91428230D01*
X146202863Y-91407076D01*
X151063300Y-91407076D01*
X151067012Y-91630620D01*
X151114264Y-91849145D01*
X151185387Y-92020848D01*
X151321425Y-92131088D01*
X151952513Y-91500000D01*
X152447487Y-91500000D01*
X153078575Y-92131088D01*
X153214613Y-92020848D01*
X153296730Y-91812898D01*
X153336700Y-91592924D01*
X153332988Y-91369380D01*
X153285736Y-91150855D01*
X153214613Y-90979152D01*
X153078575Y-90868912D01*
X152447487Y-91500000D01*
X151952513Y-91500000D01*
X151321425Y-90868912D01*
X151185387Y-90979152D01*
X151103270Y-91187102D01*
X151063300Y-91407076D01*
X146202863Y-91407076D01*
X145849009Y-91260505D01*
X145419143Y-91175000D01*
X144980857Y-91175000D01*
X144550991Y-91260505D01*
X144146067Y-91428230D01*
X143781645Y-91671730D01*
X143471730Y-91981645D01*
X143228230Y-92346067D01*
X143060505Y-92750991D01*
X142975000Y-93180857D01*
X100250000Y-93180857D01*
X100250000Y-90621425D01*
X151568912Y-90621425D01*
X152200000Y-91252513D01*
X152831088Y-90621425D01*
X152720848Y-90485387D01*
X152512898Y-90403270D01*
X152292924Y-90363300D01*
X152069380Y-90367012D01*
X151850855Y-90414264D01*
X151679152Y-90485387D01*
X151568912Y-90621425D01*
X100250000Y-90621425D01*
X100250000Y-88889197D01*
X151075000Y-88889197D01*
X151075000Y-89110803D01*
X151118233Y-89328150D01*
X151203038Y-89532887D01*
X151326156Y-89717145D01*
X151482855Y-89873844D01*
X151667113Y-89996962D01*
X151871850Y-90081767D01*
X152089197Y-90125000D01*
X152310803Y-90125000D01*
X152528150Y-90081767D01*
X152732887Y-89996962D01*
X152917145Y-89873844D01*
X153073844Y-89717145D01*
X153196962Y-89532887D01*
X153281767Y-89328150D01*
X153325000Y-89110803D01*
X153325000Y-88889197D01*
X153281767Y-88671850D01*
X153196962Y-88467113D01*
X153185528Y-88450000D01*
X155423912Y-88450000D01*
X155423912Y-90150000D01*
X155428256Y-90194108D01*
X155441122Y-90236520D01*
X155462015Y-90275608D01*
X155490132Y-90309868D01*
X155524392Y-90337985D01*
X155563480Y-90358878D01*
X155605892Y-90371744D01*
X155650000Y-90376088D01*
X157350000Y-90376088D01*
X157394108Y-90371744D01*
X157436520Y-90358878D01*
X157475608Y-90337985D01*
X157509868Y-90309868D01*
X157537985Y-90275608D01*
X157558878Y-90236520D01*
X157571744Y-90194108D01*
X157576088Y-90150000D01*
X157576088Y-88450000D01*
X158323912Y-88450000D01*
X158323912Y-90150000D01*
X158328256Y-90194108D01*
X158341122Y-90236520D01*
X158362015Y-90275608D01*
X158390132Y-90309868D01*
X158424392Y-90337985D01*
X158463480Y-90358878D01*
X158505892Y-90371744D01*
X158550000Y-90376088D01*
X160250000Y-90376088D01*
X160294108Y-90371744D01*
X160336520Y-90358878D01*
X160375608Y-90337985D01*
X160409868Y-90309868D01*
X160437985Y-90275608D01*
X160458878Y-90236520D01*
X160471744Y-90194108D01*
X160476088Y-90150000D01*
X160476088Y-88450000D01*
X160471744Y-88405892D01*
X160458878Y-88363480D01*
X160437985Y-88324392D01*
X160409868Y-88290132D01*
X160375608Y-88262015D01*
X160336520Y-88241122D01*
X160294108Y-88228256D01*
X160250000Y-88223912D01*
X158550000Y-88223912D01*
X158505892Y-88228256D01*
X158463480Y-88241122D01*
X158424392Y-88262015D01*
X158390132Y-88290132D01*
X158362015Y-88324392D01*
X158341122Y-88363480D01*
X158328256Y-88405892D01*
X158323912Y-88450000D01*
X157576088Y-88450000D01*
X157571744Y-88405892D01*
X157558878Y-88363480D01*
X157537985Y-88324392D01*
X157509868Y-88290132D01*
X157475608Y-88262015D01*
X157436520Y-88241122D01*
X157394108Y-88228256D01*
X157350000Y-88223912D01*
X155650000Y-88223912D01*
X155605892Y-88228256D01*
X155563480Y-88241122D01*
X155524392Y-88262015D01*
X155490132Y-88290132D01*
X155462015Y-88324392D01*
X155441122Y-88363480D01*
X155428256Y-88405892D01*
X155423912Y-88450000D01*
X153185528Y-88450000D01*
X153073844Y-88282855D01*
X152917145Y-88126156D01*
X152732887Y-88003038D01*
X152528150Y-87918233D01*
X152310803Y-87875000D01*
X152089197Y-87875000D01*
X151871850Y-87918233D01*
X151667113Y-88003038D01*
X151482855Y-88126156D01*
X151326156Y-88282855D01*
X151203038Y-88467113D01*
X151118233Y-88671850D01*
X151075000Y-88889197D01*
X100250000Y-88889197D01*
X100250000Y-84596447D01*
X100733261Y-84596447D01*
X100751888Y-84680625D01*
X100833927Y-84792332D01*
X100936183Y-84885888D01*
X101054726Y-84957697D01*
X101185000Y-85005000D01*
X101585000Y-85005000D01*
X101585000Y-84495000D01*
X101935000Y-84495000D01*
X101935000Y-85005000D01*
X102335000Y-85005000D01*
X102465274Y-84957697D01*
X102583817Y-84885888D01*
X102686073Y-84792332D01*
X102768112Y-84680625D01*
X102786739Y-84596447D01*
X104753261Y-84596447D01*
X104771888Y-84680625D01*
X104853927Y-84792332D01*
X104956183Y-84885888D01*
X105074726Y-84957697D01*
X105205000Y-85005000D01*
X105755000Y-85005000D01*
X105755000Y-84495000D01*
X106105000Y-84495000D01*
X106105000Y-85005000D01*
X106655000Y-85005000D01*
X106785274Y-84957697D01*
X106903817Y-84885888D01*
X107006073Y-84792332D01*
X107088112Y-84680625D01*
X107106739Y-84596447D01*
X107081302Y-84495000D01*
X106105000Y-84495000D01*
X105755000Y-84495000D01*
X104778698Y-84495000D01*
X104753261Y-84596447D01*
X102786739Y-84596447D01*
X102761302Y-84495000D01*
X101935000Y-84495000D01*
X101585000Y-84495000D01*
X100758698Y-84495000D01*
X100733261Y-84596447D01*
X100250000Y-84596447D01*
X100250000Y-84380857D01*
X142975000Y-84380857D01*
X142975000Y-84819143D01*
X143060505Y-85249009D01*
X143228230Y-85653933D01*
X143471730Y-86018355D01*
X143781645Y-86328270D01*
X144146067Y-86571770D01*
X144550991Y-86739495D01*
X144980857Y-86825000D01*
X145419143Y-86825000D01*
X145849009Y-86739495D01*
X146253933Y-86571770D01*
X146618355Y-86328270D01*
X146928270Y-86018355D01*
X147171770Y-85653933D01*
X147339495Y-85249009D01*
X147425000Y-84819143D01*
X147425000Y-84380857D01*
X147339495Y-83950991D01*
X147171770Y-83546067D01*
X146928270Y-83181645D01*
X146618355Y-82871730D01*
X146253933Y-82628230D01*
X145849009Y-82460505D01*
X145419143Y-82375000D01*
X144980857Y-82375000D01*
X144550991Y-82460505D01*
X144146067Y-82628230D01*
X143781645Y-82871730D01*
X143471730Y-83181645D01*
X143228230Y-83546067D01*
X143060505Y-83950991D01*
X142975000Y-84380857D01*
X100250000Y-84380857D01*
X100250000Y-84043553D01*
X100733261Y-84043553D01*
X100758698Y-84145000D01*
X101585000Y-84145000D01*
X101585000Y-83635000D01*
X101935000Y-83635000D01*
X101935000Y-84145000D01*
X102761302Y-84145000D01*
X102786739Y-84043553D01*
X104753261Y-84043553D01*
X104778698Y-84145000D01*
X105755000Y-84145000D01*
X105755000Y-83635000D01*
X106105000Y-83635000D01*
X106105000Y-84145000D01*
X107081302Y-84145000D01*
X107106739Y-84043553D01*
X107088112Y-83959375D01*
X107006073Y-83847668D01*
X106903817Y-83754112D01*
X106785274Y-83682303D01*
X106655000Y-83635000D01*
X106105000Y-83635000D01*
X105755000Y-83635000D01*
X105205000Y-83635000D01*
X105074726Y-83682303D01*
X104956183Y-83754112D01*
X104853927Y-83847668D01*
X104771888Y-83959375D01*
X104753261Y-84043553D01*
X102786739Y-84043553D01*
X102768112Y-83959375D01*
X102686073Y-83847668D01*
X102583817Y-83754112D01*
X102465274Y-83682303D01*
X102335000Y-83635000D01*
X101935000Y-83635000D01*
X101585000Y-83635000D01*
X101185000Y-83635000D01*
X101054726Y-83682303D01*
X100936183Y-83754112D01*
X100833927Y-83847668D01*
X100751888Y-83959375D01*
X100733261Y-84043553D01*
X100250000Y-84043553D01*
X100250000Y-82838292D01*
X104925000Y-82838292D01*
X104925000Y-82941708D01*
X104945176Y-83043137D01*
X104984751Y-83138681D01*
X105042206Y-83224668D01*
X105115332Y-83297794D01*
X105201319Y-83355249D01*
X105296863Y-83394824D01*
X105398292Y-83415000D01*
X105501708Y-83415000D01*
X105603137Y-83394824D01*
X105698681Y-83355249D01*
X105784668Y-83297794D01*
X105857794Y-83224668D01*
X105915249Y-83138681D01*
X105954824Y-83043137D01*
X105975000Y-82941708D01*
X105975000Y-82838292D01*
X105954824Y-82736863D01*
X105915249Y-82641319D01*
X105857794Y-82555332D01*
X105784668Y-82482206D01*
X105698681Y-82424751D01*
X105638926Y-82400000D01*
X106896494Y-82400000D01*
X106910492Y-82542124D01*
X106951947Y-82678787D01*
X107019269Y-82804736D01*
X107109868Y-82915132D01*
X107220264Y-83005731D01*
X107346213Y-83073053D01*
X107482876Y-83114508D01*
X107625000Y-83128506D01*
X107767124Y-83114508D01*
X107903787Y-83073053D01*
X108029736Y-83005731D01*
X108112474Y-82937830D01*
X108789483Y-82260822D01*
X108817132Y-82238131D01*
X108839824Y-82210481D01*
X108839831Y-82210474D01*
X108907732Y-82127736D01*
X108975054Y-82001787D01*
X108990903Y-81949538D01*
X109016510Y-81865124D01*
X109027001Y-81758606D01*
X109027001Y-81758596D01*
X109030507Y-81722999D01*
X109027001Y-81687402D01*
X109027001Y-81555679D01*
X140600000Y-81555679D01*
X140600000Y-81644321D01*
X140617294Y-81731260D01*
X140651215Y-81813155D01*
X140700462Y-81886858D01*
X140763142Y-81949538D01*
X140836845Y-81998785D01*
X140918740Y-82032706D01*
X141005679Y-82050000D01*
X141094321Y-82050000D01*
X141181260Y-82032706D01*
X141263155Y-81998785D01*
X141336858Y-81949538D01*
X141399538Y-81886858D01*
X141448785Y-81813155D01*
X141482706Y-81731260D01*
X141500000Y-81644321D01*
X141500000Y-81555679D01*
X141482706Y-81468740D01*
X141448785Y-81386845D01*
X141399538Y-81313142D01*
X141336858Y-81250462D01*
X141263155Y-81201215D01*
X141181260Y-81167294D01*
X141094321Y-81150000D01*
X141005679Y-81150000D01*
X140918740Y-81167294D01*
X140836845Y-81201215D01*
X140763142Y-81250462D01*
X140700462Y-81313142D01*
X140651215Y-81386845D01*
X140617294Y-81468740D01*
X140600000Y-81555679D01*
X109027001Y-81555679D01*
X109027001Y-80905679D01*
X138250000Y-80905679D01*
X138250000Y-80994321D01*
X138267294Y-81081260D01*
X138301215Y-81163155D01*
X138350462Y-81236858D01*
X138413142Y-81299538D01*
X138486845Y-81348785D01*
X138568740Y-81382706D01*
X138655679Y-81400000D01*
X138744321Y-81400000D01*
X138831260Y-81382706D01*
X138913155Y-81348785D01*
X138986858Y-81299538D01*
X139049538Y-81236858D01*
X139098785Y-81163155D01*
X139132706Y-81081260D01*
X139150000Y-80994321D01*
X139150000Y-80905679D01*
X139132706Y-80818740D01*
X139098785Y-80736845D01*
X139049538Y-80663142D01*
X138986858Y-80600462D01*
X138913155Y-80551215D01*
X138831260Y-80517294D01*
X138744321Y-80500000D01*
X138655679Y-80500000D01*
X138568740Y-80517294D01*
X138486845Y-80551215D01*
X138413142Y-80600462D01*
X138350462Y-80663142D01*
X138301215Y-80736845D01*
X138267294Y-80818740D01*
X138250000Y-80905679D01*
X109027001Y-80905679D01*
X109027001Y-79398303D01*
X109419625Y-79005679D01*
X138250000Y-79005679D01*
X138250000Y-79094321D01*
X138267294Y-79181260D01*
X138301215Y-79263155D01*
X138350462Y-79336858D01*
X138413142Y-79399538D01*
X138486845Y-79448785D01*
X138568740Y-79482706D01*
X138655679Y-79500000D01*
X138744321Y-79500000D01*
X138831260Y-79482706D01*
X138913155Y-79448785D01*
X138986858Y-79399538D01*
X139049538Y-79336858D01*
X139098785Y-79263155D01*
X139132706Y-79181260D01*
X139150000Y-79094321D01*
X139150000Y-79005679D01*
X139132706Y-78918740D01*
X139098785Y-78836845D01*
X139049538Y-78763142D01*
X138986858Y-78700462D01*
X138913155Y-78651215D01*
X138831260Y-78617294D01*
X138744321Y-78600000D01*
X138655679Y-78600000D01*
X138568740Y-78617294D01*
X138486845Y-78651215D01*
X138413142Y-78700462D01*
X138350462Y-78763142D01*
X138301215Y-78836845D01*
X138267294Y-78918740D01*
X138250000Y-79005679D01*
X109419625Y-79005679D01*
X110069625Y-78355679D01*
X140600000Y-78355679D01*
X140600000Y-78444321D01*
X140617294Y-78531260D01*
X140651215Y-78613155D01*
X140700462Y-78686858D01*
X140763142Y-78749538D01*
X140836845Y-78798785D01*
X140918740Y-78832706D01*
X141005679Y-78850000D01*
X141094321Y-78850000D01*
X141181260Y-78832706D01*
X141263155Y-78798785D01*
X141336858Y-78749538D01*
X141399538Y-78686858D01*
X141448785Y-78613155D01*
X141482706Y-78531260D01*
X141500000Y-78444321D01*
X141500000Y-78355679D01*
X141482706Y-78268740D01*
X141448785Y-78186845D01*
X141399538Y-78113142D01*
X141336858Y-78050462D01*
X141263155Y-78001215D01*
X141181260Y-77967294D01*
X141094321Y-77950000D01*
X141005679Y-77950000D01*
X140918740Y-77967294D01*
X140836845Y-78001215D01*
X140763142Y-78050462D01*
X140700462Y-78113142D01*
X140651215Y-78186845D01*
X140617294Y-78268740D01*
X140600000Y-78355679D01*
X110069625Y-78355679D01*
X110500305Y-77925000D01*
X139476441Y-77925000D01*
X139512038Y-77928506D01*
X139547635Y-77925000D01*
X139547645Y-77925000D01*
X139654163Y-77914509D01*
X139790826Y-77873053D01*
X139916775Y-77805731D01*
X140027170Y-77715132D01*
X140049870Y-77687472D01*
X143112939Y-74624403D01*
X143060505Y-74750991D01*
X142975000Y-75180857D01*
X142975000Y-75619143D01*
X143060505Y-76049009D01*
X143228230Y-76453933D01*
X143471730Y-76818355D01*
X143781645Y-77128270D01*
X144146067Y-77371770D01*
X144550991Y-77539495D01*
X144980857Y-77625000D01*
X145419143Y-77625000D01*
X145849009Y-77539495D01*
X146253933Y-77371770D01*
X146618355Y-77128270D01*
X146928270Y-76818355D01*
X147171770Y-76453933D01*
X147339495Y-76049009D01*
X147425000Y-75619143D01*
X147425000Y-75180857D01*
X147339495Y-74750991D01*
X147171770Y-74346067D01*
X146928270Y-73981645D01*
X146618355Y-73671730D01*
X146253933Y-73428230D01*
X145849009Y-73260505D01*
X145419143Y-73175000D01*
X144980857Y-73175000D01*
X144550991Y-73260505D01*
X144424404Y-73312939D01*
X144476869Y-73260474D01*
X144476874Y-73260468D01*
X146226764Y-71510578D01*
X146245176Y-71603137D01*
X146284751Y-71698681D01*
X146342206Y-71784668D01*
X146415332Y-71857794D01*
X146501319Y-71915249D01*
X146596863Y-71954824D01*
X146698292Y-71975000D01*
X146744671Y-71975000D01*
X149698810Y-74929140D01*
X149710553Y-74943449D01*
X149724860Y-74955190D01*
X149767654Y-74990311D01*
X149812108Y-75014071D01*
X149832801Y-75025132D01*
X149903488Y-75046575D01*
X149958582Y-75052001D01*
X149958585Y-75052001D01*
X149977001Y-75053815D01*
X149995417Y-75052001D01*
X152746545Y-75052001D01*
X152764961Y-75053815D01*
X152783377Y-75052001D01*
X152783380Y-75052001D01*
X152838474Y-75046575D01*
X152909161Y-75025132D01*
X152974308Y-74990310D01*
X153031409Y-74943449D01*
X153043156Y-74929135D01*
X153532332Y-74439961D01*
X154763280Y-74439961D01*
X154713142Y-74473462D01*
X154650462Y-74536142D01*
X154601215Y-74609845D01*
X154567294Y-74691740D01*
X154550000Y-74778679D01*
X154550000Y-74867321D01*
X154567294Y-74954260D01*
X154601215Y-75036155D01*
X154650462Y-75109858D01*
X154700001Y-75159397D01*
X154700000Y-76585277D01*
X154698550Y-76600000D01*
X154700000Y-76614723D01*
X154700000Y-76614732D01*
X154704341Y-76658809D01*
X154721496Y-76715359D01*
X154734464Y-76739620D01*
X154749353Y-76767477D01*
X154755800Y-76775332D01*
X154786842Y-76813158D01*
X154798290Y-76822553D01*
X155700000Y-77724264D01*
X155700000Y-77751130D01*
X155694321Y-77750000D01*
X155605679Y-77750000D01*
X155518740Y-77767294D01*
X155436845Y-77801215D01*
X155363142Y-77850462D01*
X155300462Y-77913142D01*
X155251215Y-77986845D01*
X155217294Y-78068740D01*
X155200000Y-78155679D01*
X155200000Y-78175736D01*
X154108694Y-77084431D01*
X154108694Y-75476354D01*
X154158232Y-75426816D01*
X154207479Y-75353113D01*
X154241400Y-75271218D01*
X154258694Y-75184279D01*
X154258694Y-75095637D01*
X154241400Y-75008698D01*
X154207479Y-74926803D01*
X154158232Y-74853100D01*
X154095552Y-74790420D01*
X154021849Y-74741173D01*
X153939954Y-74707252D01*
X153853015Y-74689958D01*
X153764373Y-74689958D01*
X153677434Y-74707252D01*
X153595539Y-74741173D01*
X153521836Y-74790420D01*
X153459156Y-74853100D01*
X153409909Y-74926803D01*
X153375988Y-75008698D01*
X153358694Y-75095637D01*
X153358694Y-75184279D01*
X153375988Y-75271218D01*
X153409909Y-75353113D01*
X153459156Y-75426816D01*
X153508695Y-75476355D01*
X153508694Y-77193971D01*
X153507244Y-77208694D01*
X153508694Y-77223417D01*
X153508694Y-77223426D01*
X153513035Y-77267503D01*
X153530190Y-77324053D01*
X153530191Y-77324054D01*
X153558047Y-77376171D01*
X153575052Y-77396892D01*
X153595536Y-77421852D01*
X153606984Y-77431247D01*
X154800000Y-78624264D01*
X154800000Y-78694321D01*
X154817294Y-78781260D01*
X154851215Y-78863155D01*
X154900462Y-78936858D01*
X154963142Y-78999538D01*
X155036845Y-79048785D01*
X155118740Y-79082706D01*
X155175645Y-79094026D01*
X155096169Y-79173502D01*
X155092962Y-79173186D01*
X155074546Y-79175000D01*
X154898752Y-79175000D01*
X154863155Y-79151215D01*
X154781260Y-79117294D01*
X154694321Y-79100000D01*
X154605679Y-79100000D01*
X154518740Y-79117294D01*
X154504966Y-79122999D01*
X139570417Y-79122999D01*
X139552001Y-79121185D01*
X139533585Y-79122999D01*
X139533582Y-79122999D01*
X139478488Y-79128425D01*
X139407801Y-79149868D01*
X139387108Y-79160929D01*
X139342654Y-79184689D01*
X139309893Y-79211576D01*
X139285553Y-79231551D01*
X139273810Y-79245860D01*
X138961694Y-79557977D01*
X138914856Y-79567294D01*
X138832961Y-79601215D01*
X138759258Y-79650462D01*
X138696578Y-79713142D01*
X138647331Y-79786845D01*
X138613410Y-79868740D01*
X138596116Y-79955679D01*
X138596116Y-80044321D01*
X138613410Y-80131260D01*
X138647331Y-80213155D01*
X138696578Y-80286858D01*
X138759258Y-80349538D01*
X138832961Y-80398785D01*
X138914856Y-80432706D01*
X139001795Y-80450000D01*
X139090437Y-80450000D01*
X139177376Y-80432706D01*
X139259271Y-80398785D01*
X139332974Y-80349538D01*
X139395654Y-80286858D01*
X139444901Y-80213155D01*
X139478822Y-80131260D01*
X139486210Y-80094119D01*
X139707331Y-79872999D01*
X154336603Y-79872999D01*
X154363142Y-79899538D01*
X154436845Y-79948785D01*
X154518740Y-79982706D01*
X154605679Y-80000000D01*
X154694321Y-80000000D01*
X154781260Y-79982706D01*
X154863155Y-79948785D01*
X154898752Y-79925000D01*
X154925000Y-79925000D01*
X154925001Y-84751247D01*
X154901215Y-84786845D01*
X154875057Y-84849999D01*
X153493416Y-84849999D01*
X153475000Y-84848185D01*
X153456584Y-84849999D01*
X153456582Y-84849999D01*
X153401488Y-84855425D01*
X153330801Y-84876868D01*
X153330799Y-84876869D01*
X153265653Y-84911690D01*
X153258602Y-84917477D01*
X153208553Y-84958551D01*
X153196811Y-84972859D01*
X152686038Y-85483632D01*
X152528150Y-85418233D01*
X152310803Y-85375000D01*
X152089197Y-85375000D01*
X151871850Y-85418233D01*
X151667113Y-85503038D01*
X151482855Y-85626156D01*
X151326156Y-85782855D01*
X151203038Y-85967113D01*
X151118233Y-86171850D01*
X151075000Y-86389197D01*
X151075000Y-86610803D01*
X151118233Y-86828150D01*
X151203038Y-87032887D01*
X151326156Y-87217145D01*
X151482855Y-87373844D01*
X151667113Y-87496962D01*
X151871850Y-87581767D01*
X152089197Y-87625000D01*
X152310803Y-87625000D01*
X152528150Y-87581767D01*
X152732887Y-87496962D01*
X152917145Y-87373844D01*
X153073844Y-87217145D01*
X153196962Y-87032887D01*
X153281767Y-86828150D01*
X153325000Y-86610803D01*
X153325000Y-86389197D01*
X153281767Y-86171850D01*
X153216368Y-86013962D01*
X153324651Y-85905679D01*
X159450000Y-85905679D01*
X159450000Y-85994321D01*
X159467294Y-86081260D01*
X159501215Y-86163155D01*
X159550462Y-86236858D01*
X159613142Y-86299538D01*
X159686845Y-86348785D01*
X159768740Y-86382706D01*
X159855679Y-86400000D01*
X159944321Y-86400000D01*
X160031260Y-86382706D01*
X160113155Y-86348785D01*
X160186858Y-86299538D01*
X160249538Y-86236858D01*
X160298785Y-86163155D01*
X160332706Y-86081260D01*
X160350000Y-85994321D01*
X160350000Y-85905679D01*
X160332706Y-85818740D01*
X160298785Y-85736845D01*
X160249538Y-85663142D01*
X160186858Y-85600462D01*
X160113155Y-85551215D01*
X160031260Y-85517294D01*
X159944321Y-85500000D01*
X159855679Y-85500000D01*
X159768740Y-85517294D01*
X159686845Y-85551215D01*
X159613142Y-85600462D01*
X159550462Y-85663142D01*
X159501215Y-85736845D01*
X159467294Y-85818740D01*
X159450000Y-85905679D01*
X153324651Y-85905679D01*
X153630331Y-85599999D01*
X155056585Y-85599999D01*
X155075001Y-85601813D01*
X155093417Y-85599999D01*
X155093420Y-85599999D01*
X155148514Y-85594573D01*
X155219201Y-85573130D01*
X155284348Y-85538308D01*
X155341449Y-85491447D01*
X155353196Y-85477133D01*
X155389270Y-85441059D01*
X155431260Y-85432706D01*
X155513155Y-85398785D01*
X155586858Y-85349538D01*
X155649538Y-85286858D01*
X155698785Y-85213155D01*
X155732706Y-85131260D01*
X155750000Y-85044321D01*
X155750000Y-84955679D01*
X155732706Y-84868740D01*
X155698785Y-84786845D01*
X155675000Y-84751248D01*
X155675000Y-83485033D01*
X156979348Y-83485033D01*
X156979348Y-83573675D01*
X156996642Y-83660614D01*
X157030563Y-83742509D01*
X157079810Y-83816212D01*
X157142490Y-83878892D01*
X157216193Y-83928139D01*
X157298088Y-83962060D01*
X157385027Y-83979354D01*
X157387448Y-83979354D01*
X157387448Y-83981593D01*
X157404742Y-84068532D01*
X157438663Y-84150427D01*
X157487910Y-84224130D01*
X157550590Y-84286810D01*
X157624293Y-84336057D01*
X157706188Y-84369978D01*
X157793025Y-84387252D01*
X157793025Y-84392020D01*
X157810319Y-84478959D01*
X157844240Y-84560854D01*
X157893487Y-84634557D01*
X157956167Y-84697237D01*
X158029870Y-84746484D01*
X158111765Y-84780405D01*
X158198704Y-84797699D01*
X158260618Y-84797699D01*
X158267294Y-84831260D01*
X158301215Y-84913155D01*
X158350462Y-84986858D01*
X158413142Y-85049538D01*
X158486845Y-85098785D01*
X158568740Y-85132706D01*
X158655679Y-85150000D01*
X158744321Y-85150000D01*
X158831260Y-85132706D01*
X158913155Y-85098785D01*
X158986858Y-85049538D01*
X159049538Y-84986858D01*
X159080689Y-84940237D01*
X159138442Y-84940237D01*
X159138442Y-85028879D01*
X159155736Y-85115818D01*
X159189657Y-85197713D01*
X159238904Y-85271416D01*
X159301584Y-85334096D01*
X159375287Y-85383343D01*
X159457182Y-85417264D01*
X159544121Y-85434558D01*
X159632763Y-85434558D01*
X159719702Y-85417264D01*
X159801597Y-85383343D01*
X159875300Y-85334096D01*
X159937980Y-85271416D01*
X159987227Y-85197713D01*
X160021148Y-85115818D01*
X160023740Y-85102785D01*
X160331372Y-85102785D01*
X160331372Y-85191427D01*
X160348666Y-85278366D01*
X160382587Y-85360261D01*
X160431834Y-85433964D01*
X160494514Y-85496644D01*
X160568217Y-85545891D01*
X160650112Y-85579812D01*
X160737051Y-85597106D01*
X160825693Y-85597106D01*
X160912632Y-85579812D01*
X160925001Y-85574689D01*
X160925000Y-88185277D01*
X160923550Y-88200000D01*
X160925000Y-88214723D01*
X160925000Y-88214732D01*
X160929341Y-88258809D01*
X160946496Y-88315359D01*
X160959464Y-88339620D01*
X160974353Y-88367477D01*
X160986523Y-88382306D01*
X161011842Y-88413158D01*
X161023290Y-88422553D01*
X161223912Y-88623175D01*
X161223912Y-90150000D01*
X161228256Y-90194108D01*
X161241122Y-90236520D01*
X161262015Y-90275608D01*
X161290132Y-90309868D01*
X161324392Y-90337985D01*
X161363480Y-90358878D01*
X161405892Y-90371744D01*
X161450000Y-90376088D01*
X163150000Y-90376088D01*
X163194108Y-90371744D01*
X163236520Y-90358878D01*
X163275608Y-90337985D01*
X163309868Y-90309868D01*
X163337985Y-90275608D01*
X163358878Y-90236520D01*
X163371744Y-90194108D01*
X163376088Y-90150000D01*
X163376088Y-88450000D01*
X163371744Y-88405892D01*
X163358878Y-88363480D01*
X163337985Y-88324392D01*
X163309868Y-88290132D01*
X163275608Y-88262015D01*
X163236520Y-88241122D01*
X163194108Y-88228256D01*
X163150000Y-88223912D01*
X161673175Y-88223912D01*
X161525000Y-88075737D01*
X161525000Y-86805679D01*
X161900000Y-86805679D01*
X161900000Y-86894321D01*
X161917294Y-86981260D01*
X161951215Y-87063155D01*
X162000462Y-87136858D01*
X162063142Y-87199538D01*
X162136845Y-87248785D01*
X162218740Y-87282706D01*
X162305679Y-87300000D01*
X162394321Y-87300000D01*
X162481260Y-87282706D01*
X162563155Y-87248785D01*
X162636858Y-87199538D01*
X162699538Y-87136858D01*
X162748785Y-87063155D01*
X162782706Y-86981260D01*
X162800000Y-86894321D01*
X162800000Y-86805679D01*
X162782706Y-86718740D01*
X162748785Y-86636845D01*
X162699538Y-86563142D01*
X162636858Y-86500462D01*
X162563155Y-86451215D01*
X162481260Y-86417294D01*
X162394321Y-86400000D01*
X162305679Y-86400000D01*
X162218740Y-86417294D01*
X162136845Y-86451215D01*
X162063142Y-86500462D01*
X162000462Y-86563142D01*
X161951215Y-86636845D01*
X161917294Y-86718740D01*
X161900000Y-86805679D01*
X161525000Y-86805679D01*
X161525000Y-85061396D01*
X161549538Y-85036858D01*
X161598785Y-84963155D01*
X161632706Y-84881260D01*
X161650000Y-84794321D01*
X161650000Y-84790014D01*
X161661339Y-84790014D01*
X161748278Y-84772720D01*
X161830173Y-84738799D01*
X161903876Y-84689552D01*
X161943428Y-84650000D01*
X173463863Y-84650000D01*
X173468400Y-84696068D01*
X173481838Y-84740366D01*
X173503659Y-84781191D01*
X173533026Y-84816974D01*
X173568809Y-84846341D01*
X173609634Y-84868162D01*
X173653932Y-84881600D01*
X173700000Y-84886137D01*
X174316250Y-84885000D01*
X174375000Y-84826250D01*
X174375000Y-83975000D01*
X174725000Y-83975000D01*
X174725000Y-84826250D01*
X174783750Y-84885000D01*
X175400000Y-84886137D01*
X175446068Y-84881600D01*
X175490366Y-84868162D01*
X175531191Y-84846341D01*
X175566974Y-84816974D01*
X175596341Y-84781191D01*
X175618162Y-84740366D01*
X175631600Y-84696068D01*
X175636137Y-84650000D01*
X175635000Y-84033750D01*
X175576250Y-83975000D01*
X174725000Y-83975000D01*
X174375000Y-83975000D01*
X173523750Y-83975000D01*
X173465000Y-84033750D01*
X173463863Y-84650000D01*
X161943428Y-84650000D01*
X161966556Y-84626872D01*
X162015803Y-84553169D01*
X162049724Y-84471274D01*
X162062522Y-84406936D01*
X162092827Y-84406936D01*
X162179766Y-84389642D01*
X162261661Y-84355721D01*
X162335364Y-84306474D01*
X162398044Y-84243794D01*
X162447291Y-84170091D01*
X162481212Y-84088196D01*
X162498506Y-84001257D01*
X162498506Y-83912615D01*
X162481212Y-83825676D01*
X162447291Y-83743781D01*
X162398044Y-83670078D01*
X162335364Y-83607398D01*
X162261661Y-83558151D01*
X162179766Y-83524230D01*
X162092827Y-83506936D01*
X162004185Y-83506936D01*
X161917246Y-83524230D01*
X161835351Y-83558151D01*
X161761648Y-83607398D01*
X161698968Y-83670078D01*
X161649721Y-83743781D01*
X161615800Y-83825676D01*
X161603002Y-83890014D01*
X161572697Y-83890014D01*
X161485758Y-83907308D01*
X161403863Y-83941229D01*
X161330160Y-83990476D01*
X161267480Y-84053156D01*
X161218233Y-84126859D01*
X161184312Y-84208754D01*
X161167018Y-84295693D01*
X161167018Y-84300000D01*
X161155679Y-84300000D01*
X161068740Y-84317294D01*
X160986845Y-84351215D01*
X160913142Y-84400462D01*
X160850462Y-84463142D01*
X160801215Y-84536845D01*
X160767294Y-84618740D01*
X160751705Y-84697106D01*
X160737051Y-84697106D01*
X160650112Y-84714400D01*
X160568217Y-84748321D01*
X160494514Y-84797568D01*
X160431834Y-84860248D01*
X160382587Y-84933951D01*
X160348666Y-85015846D01*
X160331372Y-85102785D01*
X160023740Y-85102785D01*
X160038442Y-85028879D01*
X160038442Y-84940237D01*
X160021148Y-84853298D01*
X159987227Y-84771403D01*
X159937980Y-84697700D01*
X159875300Y-84635020D01*
X159801597Y-84585773D01*
X159719702Y-84551852D01*
X159632763Y-84534558D01*
X159544121Y-84534558D01*
X159457182Y-84551852D01*
X159375287Y-84585773D01*
X159301584Y-84635020D01*
X159238904Y-84697700D01*
X159189657Y-84771403D01*
X159155736Y-84853298D01*
X159138442Y-84940237D01*
X159080689Y-84940237D01*
X159098785Y-84913155D01*
X159132706Y-84831260D01*
X159150000Y-84744321D01*
X159150000Y-84655679D01*
X159132706Y-84568740D01*
X159098785Y-84486845D01*
X159049538Y-84413142D01*
X159000000Y-84363604D01*
X159000000Y-84187434D01*
X159001450Y-84172711D01*
X159000000Y-84157988D01*
X159000000Y-84157979D01*
X158995659Y-84113902D01*
X158978504Y-84057352D01*
X158955054Y-84013480D01*
X158950647Y-84005234D01*
X158922549Y-83970997D01*
X158913158Y-83959554D01*
X158901715Y-83950163D01*
X158249841Y-83298290D01*
X158240446Y-83286842D01*
X158194765Y-83249353D01*
X158159829Y-83230679D01*
X162225000Y-83230679D01*
X162225000Y-83319321D01*
X162242294Y-83406260D01*
X162276215Y-83488155D01*
X162325462Y-83561858D01*
X162388142Y-83624538D01*
X162461845Y-83673785D01*
X162543740Y-83707706D01*
X162630679Y-83725000D01*
X162719321Y-83725000D01*
X162806260Y-83707706D01*
X162888155Y-83673785D01*
X162961858Y-83624538D01*
X163024538Y-83561858D01*
X163073785Y-83488155D01*
X163107706Y-83406260D01*
X163119456Y-83347192D01*
X163157452Y-83347192D01*
X163244391Y-83329898D01*
X163326286Y-83295977D01*
X163399989Y-83246730D01*
X163462669Y-83184050D01*
X163511916Y-83110347D01*
X163545837Y-83028452D01*
X163561442Y-82950000D01*
X173463863Y-82950000D01*
X173465000Y-83566250D01*
X173523750Y-83625000D01*
X174375000Y-83625000D01*
X174375000Y-82773750D01*
X174725000Y-82773750D01*
X174725000Y-83625000D01*
X175576250Y-83625000D01*
X175635000Y-83566250D01*
X175636137Y-82950000D01*
X175631600Y-82903932D01*
X175618162Y-82859634D01*
X175596341Y-82818809D01*
X175566974Y-82783026D01*
X175531191Y-82753659D01*
X175490366Y-82731838D01*
X175446068Y-82718400D01*
X175400000Y-82713863D01*
X174783750Y-82715000D01*
X174725000Y-82773750D01*
X174375000Y-82773750D01*
X174316250Y-82715000D01*
X173700000Y-82713863D01*
X173653932Y-82718400D01*
X173609634Y-82731838D01*
X173568809Y-82753659D01*
X173533026Y-82783026D01*
X173503659Y-82818809D01*
X173481838Y-82859634D01*
X173468400Y-82903932D01*
X173463863Y-82950000D01*
X163561442Y-82950000D01*
X163563131Y-82941513D01*
X163563131Y-82852871D01*
X163545837Y-82765932D01*
X163511916Y-82684037D01*
X163462669Y-82610334D01*
X163399989Y-82547654D01*
X163326286Y-82498407D01*
X163244391Y-82464486D01*
X163157452Y-82447192D01*
X163068810Y-82447192D01*
X162981871Y-82464486D01*
X162899976Y-82498407D01*
X162826273Y-82547654D01*
X162763593Y-82610334D01*
X162714346Y-82684037D01*
X162680425Y-82765932D01*
X162668675Y-82825000D01*
X162630679Y-82825000D01*
X162543740Y-82842294D01*
X162461845Y-82876215D01*
X162388142Y-82925462D01*
X162325462Y-82988142D01*
X162276215Y-83061845D01*
X162242294Y-83143740D01*
X162225000Y-83230679D01*
X158159829Y-83230679D01*
X158142648Y-83221496D01*
X158086098Y-83204341D01*
X158042021Y-83200000D01*
X158042011Y-83200000D01*
X158027288Y-83198550D01*
X158012565Y-83200000D01*
X157736390Y-83200000D01*
X157716206Y-83179816D01*
X157642503Y-83130569D01*
X157560608Y-83096648D01*
X157473669Y-83079354D01*
X157385027Y-83079354D01*
X157298088Y-83096648D01*
X157216193Y-83130569D01*
X157142490Y-83179816D01*
X157079810Y-83242496D01*
X157030563Y-83316199D01*
X156996642Y-83398094D01*
X156979348Y-83485033D01*
X155675000Y-83485033D01*
X155675000Y-81702118D01*
X163703561Y-81702118D01*
X163703561Y-81790760D01*
X163720855Y-81877699D01*
X163754776Y-81959594D01*
X163804023Y-82033297D01*
X163866703Y-82095977D01*
X163940406Y-82145224D01*
X164022301Y-82179145D01*
X164109240Y-82196439D01*
X164197882Y-82196439D01*
X164284821Y-82179145D01*
X164366716Y-82145224D01*
X164440419Y-82095977D01*
X164503099Y-82033297D01*
X164552346Y-81959594D01*
X164586267Y-81877699D01*
X164603561Y-81790760D01*
X164603561Y-81702118D01*
X164586267Y-81615179D01*
X164561623Y-81555679D01*
X169850000Y-81555679D01*
X169850000Y-81644321D01*
X169867294Y-81731260D01*
X169901215Y-81813155D01*
X169950462Y-81886858D01*
X170013142Y-81949538D01*
X170086845Y-81998785D01*
X170168740Y-82032706D01*
X170255679Y-82050000D01*
X170344321Y-82050000D01*
X170431260Y-82032706D01*
X170513155Y-81998785D01*
X170586858Y-81949538D01*
X170649538Y-81886858D01*
X170698785Y-81813155D01*
X170732706Y-81731260D01*
X170750000Y-81644321D01*
X170750000Y-81555679D01*
X170732706Y-81468740D01*
X170698785Y-81386845D01*
X170649538Y-81313142D01*
X170586858Y-81250462D01*
X170513155Y-81201215D01*
X170431260Y-81167294D01*
X170365043Y-81154122D01*
X173475000Y-81154122D01*
X173475000Y-81365878D01*
X173516312Y-81573566D01*
X173597348Y-81769203D01*
X173714993Y-81945272D01*
X173864728Y-82095007D01*
X174040797Y-82212652D01*
X174236434Y-82293688D01*
X174444122Y-82335000D01*
X174655878Y-82335000D01*
X174863566Y-82293688D01*
X175059203Y-82212652D01*
X175235272Y-82095007D01*
X175385007Y-81945272D01*
X175502652Y-81769203D01*
X175583688Y-81573566D01*
X175625000Y-81365878D01*
X175625000Y-81154122D01*
X175583688Y-80946434D01*
X175502652Y-80750797D01*
X175385007Y-80574728D01*
X175235272Y-80424993D01*
X175059203Y-80307348D01*
X174863566Y-80226312D01*
X174655878Y-80185000D01*
X174444122Y-80185000D01*
X174236434Y-80226312D01*
X174040797Y-80307348D01*
X173864728Y-80424993D01*
X173714993Y-80574728D01*
X173597348Y-80750797D01*
X173516312Y-80946434D01*
X173475000Y-81154122D01*
X170365043Y-81154122D01*
X170344321Y-81150000D01*
X170255679Y-81150000D01*
X170168740Y-81167294D01*
X170086845Y-81201215D01*
X170013142Y-81250462D01*
X169950462Y-81313142D01*
X169901215Y-81386845D01*
X169867294Y-81468740D01*
X169850000Y-81555679D01*
X164561623Y-81555679D01*
X164552346Y-81533284D01*
X164503099Y-81459581D01*
X164440419Y-81396901D01*
X164366716Y-81347654D01*
X164284821Y-81313733D01*
X164197882Y-81296439D01*
X164109240Y-81296439D01*
X164022301Y-81313733D01*
X163940406Y-81347654D01*
X163866703Y-81396901D01*
X163804023Y-81459581D01*
X163754776Y-81533284D01*
X163720855Y-81615179D01*
X163703561Y-81702118D01*
X155675000Y-81702118D01*
X155675000Y-79775454D01*
X155676814Y-79757038D01*
X155675000Y-79738619D01*
X155669574Y-79683525D01*
X155664274Y-79666055D01*
X157074650Y-78255679D01*
X163900000Y-78255679D01*
X163900000Y-78344321D01*
X163917294Y-78431260D01*
X163951215Y-78513155D01*
X164000462Y-78586858D01*
X164063142Y-78649538D01*
X164136845Y-78698785D01*
X164218740Y-78732706D01*
X164305679Y-78750000D01*
X164394321Y-78750000D01*
X164481260Y-78732706D01*
X164563155Y-78698785D01*
X164636858Y-78649538D01*
X164699538Y-78586858D01*
X164748785Y-78513155D01*
X164782706Y-78431260D01*
X164800000Y-78344321D01*
X164800000Y-78255679D01*
X164782706Y-78168740D01*
X164748785Y-78086845D01*
X164699538Y-78013142D01*
X164636858Y-77950462D01*
X164563155Y-77901215D01*
X164481260Y-77867294D01*
X164394321Y-77850000D01*
X164305679Y-77850000D01*
X164218740Y-77867294D01*
X164136845Y-77901215D01*
X164063142Y-77950462D01*
X164000462Y-78013142D01*
X163951215Y-78086845D01*
X163917294Y-78168740D01*
X163900000Y-78255679D01*
X157074650Y-78255679D01*
X158052138Y-77278192D01*
X158066447Y-77266449D01*
X158113308Y-77209348D01*
X158115269Y-77205679D01*
X162749996Y-77205679D01*
X162749996Y-77294321D01*
X162767290Y-77381260D01*
X162801211Y-77463155D01*
X162850458Y-77536858D01*
X162913138Y-77599538D01*
X162986841Y-77648785D01*
X163068736Y-77682706D01*
X163155675Y-77700000D01*
X163244317Y-77700000D01*
X163331256Y-77682706D01*
X163413151Y-77648785D01*
X163486854Y-77599538D01*
X163549534Y-77536858D01*
X163598781Y-77463155D01*
X163632702Y-77381260D01*
X163649996Y-77294321D01*
X163649996Y-77205679D01*
X163632702Y-77118740D01*
X163598781Y-77036845D01*
X163549534Y-76963142D01*
X163486854Y-76900462D01*
X163413151Y-76851215D01*
X163331256Y-76817294D01*
X163244317Y-76800000D01*
X163155675Y-76800000D01*
X163068736Y-76817294D01*
X162986841Y-76851215D01*
X162913138Y-76900462D01*
X162850458Y-76963142D01*
X162801211Y-77036845D01*
X162767290Y-77118740D01*
X162749996Y-77205679D01*
X158115269Y-77205679D01*
X158148130Y-77144201D01*
X158169573Y-77073514D01*
X158174999Y-77018420D01*
X158174999Y-77018418D01*
X158176813Y-77000002D01*
X158174999Y-76981586D01*
X158174999Y-75526116D01*
X158193896Y-75538743D01*
X158275791Y-75572664D01*
X158362730Y-75589958D01*
X158451372Y-75589958D01*
X158538311Y-75572664D01*
X158620206Y-75538743D01*
X158693909Y-75489496D01*
X158756589Y-75426816D01*
X158805836Y-75353113D01*
X158839757Y-75271218D01*
X158857051Y-75184279D01*
X158857051Y-75095637D01*
X158839757Y-75008698D01*
X158809666Y-74936049D01*
X158862057Y-74971056D01*
X158943952Y-75004977D01*
X159030891Y-75022271D01*
X159119533Y-75022271D01*
X159206472Y-75004977D01*
X159257830Y-74983704D01*
X159267290Y-75031260D01*
X159301211Y-75113155D01*
X159350458Y-75186858D01*
X159413138Y-75249538D01*
X159486841Y-75298785D01*
X159568736Y-75332706D01*
X159655675Y-75350000D01*
X159744317Y-75350000D01*
X159831256Y-75332706D01*
X159913151Y-75298785D01*
X159986854Y-75249538D01*
X160049534Y-75186858D01*
X160098781Y-75113155D01*
X160132702Y-75031260D01*
X160149996Y-74944321D01*
X160149996Y-74879157D01*
X160174955Y-74939415D01*
X160224202Y-75013118D01*
X160286882Y-75075798D01*
X160360585Y-75125045D01*
X160442480Y-75158966D01*
X160529419Y-75176260D01*
X160618061Y-75176260D01*
X160705000Y-75158966D01*
X160786895Y-75125045D01*
X160822492Y-75101260D01*
X161094482Y-75101260D01*
X161087477Y-75108265D01*
X161038230Y-75181968D01*
X161004309Y-75263863D01*
X160987015Y-75350802D01*
X160987015Y-75439444D01*
X161004309Y-75526383D01*
X161038230Y-75608278D01*
X161087477Y-75681981D01*
X161150157Y-75744661D01*
X161223860Y-75793908D01*
X161305755Y-75827829D01*
X161392694Y-75845123D01*
X161427170Y-75845123D01*
X161444304Y-75931260D01*
X161478225Y-76013155D01*
X161527472Y-76086858D01*
X161590152Y-76149538D01*
X161663855Y-76198785D01*
X161745750Y-76232706D01*
X161832689Y-76250000D01*
X161860708Y-76250000D01*
X161853990Y-76283774D01*
X161853990Y-76372416D01*
X161871284Y-76459355D01*
X161905205Y-76541250D01*
X161954452Y-76614953D01*
X162017132Y-76677633D01*
X162090835Y-76726880D01*
X162172730Y-76760801D01*
X162259669Y-76778095D01*
X162348311Y-76778095D01*
X162435250Y-76760801D01*
X162517145Y-76726880D01*
X162590848Y-76677633D01*
X162653528Y-76614953D01*
X162702775Y-76541250D01*
X162736696Y-76459355D01*
X162753990Y-76372416D01*
X162753990Y-76283774D01*
X162736696Y-76196835D01*
X162702775Y-76114940D01*
X162653528Y-76041237D01*
X162590848Y-75978557D01*
X162517145Y-75929310D01*
X162435250Y-75895389D01*
X162348311Y-75878095D01*
X162320292Y-75878095D01*
X162327010Y-75844321D01*
X162327010Y-75755679D01*
X162309716Y-75668740D01*
X162275795Y-75586845D01*
X162226548Y-75513142D01*
X162163868Y-75450462D01*
X162090165Y-75401215D01*
X162008270Y-75367294D01*
X161921331Y-75350000D01*
X161886855Y-75350000D01*
X161869721Y-75263863D01*
X161835800Y-75181968D01*
X161786553Y-75108265D01*
X161779548Y-75101260D01*
X162817763Y-75101260D01*
X165175000Y-77458499D01*
X165175001Y-80210984D01*
X165173592Y-80213093D01*
X165139671Y-80294988D01*
X165122377Y-80381927D01*
X165122377Y-80470569D01*
X165139671Y-80557508D01*
X165173592Y-80639403D01*
X165176242Y-80643368D01*
X165113155Y-80601215D01*
X165031260Y-80567294D01*
X164944321Y-80550000D01*
X164855679Y-80550000D01*
X164768740Y-80567294D01*
X164686845Y-80601215D01*
X164613142Y-80650462D01*
X164550462Y-80713142D01*
X164501215Y-80786845D01*
X164467294Y-80868740D01*
X164450000Y-80955679D01*
X164450000Y-81044321D01*
X164467294Y-81131260D01*
X164501215Y-81213155D01*
X164550462Y-81286858D01*
X164613142Y-81349538D01*
X164686845Y-81398785D01*
X164768740Y-81432706D01*
X164855679Y-81450000D01*
X164944321Y-81450000D01*
X165031260Y-81432706D01*
X165113155Y-81398785D01*
X165186858Y-81349538D01*
X165249538Y-81286858D01*
X165298785Y-81213155D01*
X165332706Y-81131260D01*
X165350000Y-81044321D01*
X165350000Y-80955679D01*
X165332706Y-80868740D01*
X165298785Y-80786845D01*
X165296135Y-80782880D01*
X165359222Y-80825033D01*
X165441117Y-80858954D01*
X165528056Y-80876248D01*
X165616698Y-80876248D01*
X165703637Y-80858954D01*
X165785532Y-80825033D01*
X165859235Y-80775786D01*
X165921915Y-80713106D01*
X165971162Y-80639403D01*
X166005083Y-80557508D01*
X166022377Y-80470569D01*
X166022377Y-80381927D01*
X166005083Y-80294988D01*
X165971162Y-80213093D01*
X165925000Y-80144007D01*
X165925000Y-78805679D01*
X167050000Y-78805679D01*
X167050000Y-78894321D01*
X167067294Y-78981260D01*
X167101215Y-79063155D01*
X167150462Y-79136858D01*
X167213142Y-79199538D01*
X167286845Y-79248785D01*
X167368740Y-79282706D01*
X167455679Y-79300000D01*
X167544321Y-79300000D01*
X167631260Y-79282706D01*
X167713155Y-79248785D01*
X167786858Y-79199538D01*
X167849538Y-79136858D01*
X167898785Y-79063155D01*
X167932706Y-78981260D01*
X167950000Y-78894321D01*
X167950000Y-78805679D01*
X167932706Y-78718740D01*
X167898785Y-78636845D01*
X167849538Y-78563142D01*
X167786858Y-78500462D01*
X167713155Y-78451215D01*
X167631260Y-78417294D01*
X167544321Y-78400000D01*
X167455679Y-78400000D01*
X167368740Y-78417294D01*
X167286845Y-78451215D01*
X167213142Y-78500462D01*
X167150462Y-78563142D01*
X167101215Y-78636845D01*
X167067294Y-78718740D01*
X167050000Y-78805679D01*
X165925000Y-78805679D01*
X165925000Y-77321583D01*
X165926814Y-77303167D01*
X165923667Y-77271213D01*
X165919574Y-77229655D01*
X165898131Y-77158968D01*
X165893276Y-77149884D01*
X165863309Y-77093821D01*
X165828189Y-77051026D01*
X165828186Y-77051023D01*
X165816448Y-77036720D01*
X165802146Y-77024983D01*
X163251287Y-74474126D01*
X163239540Y-74459812D01*
X163182439Y-74412951D01*
X163117292Y-74378129D01*
X163046605Y-74356686D01*
X162991511Y-74351260D01*
X162991508Y-74351260D01*
X162973092Y-74349446D01*
X162954676Y-74351260D01*
X160822492Y-74351260D01*
X160786895Y-74327475D01*
X160705000Y-74293554D01*
X160663012Y-74285202D01*
X160027676Y-73649867D01*
X160015929Y-73635553D01*
X159958828Y-73588692D01*
X159893681Y-73553870D01*
X159822994Y-73532427D01*
X159767900Y-73527001D01*
X159767897Y-73527001D01*
X159749481Y-73525187D01*
X159731065Y-73527001D01*
X159257331Y-73527001D01*
X158878195Y-73147866D01*
X158866448Y-73133552D01*
X158809347Y-73086691D01*
X158744200Y-73051869D01*
X158673513Y-73030426D01*
X158618419Y-73025000D01*
X158618416Y-73025000D01*
X158600000Y-73023186D01*
X158581584Y-73025000D01*
X157876402Y-73025000D01*
X157876814Y-73020820D01*
X157872710Y-72979152D01*
X157869574Y-72947307D01*
X157848131Y-72876620D01*
X157813309Y-72811473D01*
X157766448Y-72754372D01*
X157752140Y-72742630D01*
X157215189Y-72205679D01*
X164673000Y-72205679D01*
X164673000Y-72294321D01*
X164690294Y-72381260D01*
X164724215Y-72463155D01*
X164773462Y-72536858D01*
X164836142Y-72599538D01*
X164909845Y-72648785D01*
X164991740Y-72682706D01*
X165078679Y-72700000D01*
X165167321Y-72700000D01*
X165254260Y-72682706D01*
X165336155Y-72648785D01*
X165409858Y-72599538D01*
X165472538Y-72536858D01*
X165521785Y-72463155D01*
X165555706Y-72381260D01*
X165573000Y-72294321D01*
X165573000Y-72205679D01*
X165555706Y-72118740D01*
X165521785Y-72036845D01*
X165472538Y-71963142D01*
X165409858Y-71900462D01*
X165336155Y-71851215D01*
X165254260Y-71817294D01*
X165167321Y-71800000D01*
X165078679Y-71800000D01*
X164991740Y-71817294D01*
X164909845Y-71851215D01*
X164836142Y-71900462D01*
X164773462Y-71963142D01*
X164724215Y-72036845D01*
X164690294Y-72118740D01*
X164673000Y-72205679D01*
X157215189Y-72205679D01*
X156261511Y-71252001D01*
X157433400Y-71252001D01*
X157468997Y-71255507D01*
X157504594Y-71252001D01*
X157504604Y-71252001D01*
X157611122Y-71241510D01*
X157747785Y-71200054D01*
X157873734Y-71132732D01*
X157984129Y-71042133D01*
X158006829Y-71014473D01*
X158023303Y-70997999D01*
X162041404Y-70997999D01*
X162077001Y-71001505D01*
X162112598Y-70997999D01*
X162112608Y-70997999D01*
X162219126Y-70987508D01*
X162355789Y-70946052D01*
X162481738Y-70878730D01*
X162592133Y-70788131D01*
X162614833Y-70760471D01*
X162876974Y-70498330D01*
X162999698Y-70432732D01*
X163009119Y-70425000D01*
X165294208Y-70425000D01*
X166110591Y-71241383D01*
X166086845Y-71251219D01*
X166013142Y-71300466D01*
X165950462Y-71363146D01*
X165901215Y-71436849D01*
X165867294Y-71518744D01*
X165850000Y-71605683D01*
X165850000Y-71694325D01*
X165867294Y-71781264D01*
X165901215Y-71863159D01*
X165950462Y-71936862D01*
X166013142Y-71999542D01*
X166086845Y-72048789D01*
X166168740Y-72082710D01*
X166255679Y-72100004D01*
X166344321Y-72100004D01*
X166427002Y-72083557D01*
X166427001Y-74278669D01*
X166424703Y-74302001D01*
X166429274Y-74348414D01*
X166433874Y-74395116D01*
X166461035Y-74484654D01*
X166505142Y-74567174D01*
X166564500Y-74639502D01*
X166582635Y-74654385D01*
X168895620Y-76967371D01*
X168910498Y-76985500D01*
X168982826Y-77044858D01*
X169065345Y-77088965D01*
X169127721Y-77107887D01*
X169154882Y-77116126D01*
X169247998Y-77125297D01*
X169271330Y-77122999D01*
X174097211Y-77122999D01*
X174576584Y-77602373D01*
X174576589Y-77602377D01*
X174619212Y-77645000D01*
X174444122Y-77645000D01*
X174236434Y-77686312D01*
X174040797Y-77767348D01*
X173864728Y-77884993D01*
X173714993Y-78034728D01*
X173597348Y-78210797D01*
X173516312Y-78406434D01*
X173475000Y-78614122D01*
X173475000Y-78825878D01*
X173516312Y-79033566D01*
X173597348Y-79229203D01*
X173714993Y-79405272D01*
X173864728Y-79555007D01*
X174040797Y-79672652D01*
X174236434Y-79753688D01*
X174444122Y-79795000D01*
X174655878Y-79795000D01*
X174863566Y-79753688D01*
X175059203Y-79672652D01*
X175235272Y-79555007D01*
X175385007Y-79405272D01*
X175502652Y-79229203D01*
X175583688Y-79033566D01*
X175625000Y-78825878D01*
X175625000Y-78650789D01*
X177225158Y-80250948D01*
X177225157Y-84173017D01*
X177195333Y-84245020D01*
X177175157Y-84346449D01*
X177175157Y-84449865D01*
X177195333Y-84551294D01*
X177234908Y-84646838D01*
X177292363Y-84732825D01*
X177365489Y-84805951D01*
X177451476Y-84863406D01*
X177547020Y-84902981D01*
X177648449Y-84923157D01*
X177751865Y-84923157D01*
X177853294Y-84902981D01*
X177948838Y-84863406D01*
X178034825Y-84805951D01*
X178107951Y-84732825D01*
X178165406Y-84646838D01*
X178204981Y-84551294D01*
X178225157Y-84449865D01*
X178225157Y-84346449D01*
X178204981Y-84245020D01*
X178175157Y-84173017D01*
X178175157Y-80077527D01*
X178177455Y-80054195D01*
X178168284Y-79961079D01*
X178141123Y-79871541D01*
X178097016Y-79789022D01*
X178076848Y-79764447D01*
X178037658Y-79716694D01*
X178019534Y-79701820D01*
X175248339Y-76930627D01*
X175248335Y-76930622D01*
X174646345Y-76328633D01*
X174631462Y-76310498D01*
X174559134Y-76251140D01*
X174476615Y-76207033D01*
X174387077Y-76179872D01*
X174317293Y-76172999D01*
X174293961Y-76170701D01*
X174270629Y-76172999D01*
X169444750Y-76172999D01*
X169377430Y-76105679D01*
X189400000Y-76105679D01*
X189400000Y-76194321D01*
X189417294Y-76281260D01*
X189451215Y-76363155D01*
X189500462Y-76436858D01*
X189563142Y-76499538D01*
X189636845Y-76548785D01*
X189718740Y-76582706D01*
X189805679Y-76600000D01*
X189894321Y-76600000D01*
X189981260Y-76582706D01*
X190063155Y-76548785D01*
X190136858Y-76499538D01*
X190199538Y-76436858D01*
X190248785Y-76363155D01*
X190282706Y-76281260D01*
X190300000Y-76194321D01*
X190300000Y-76105679D01*
X190850000Y-76105679D01*
X190850000Y-76194321D01*
X190867294Y-76281260D01*
X190901215Y-76363155D01*
X190950462Y-76436858D01*
X191013142Y-76499538D01*
X191086845Y-76548785D01*
X191168740Y-76582706D01*
X191255679Y-76600000D01*
X191344321Y-76600000D01*
X191431260Y-76582706D01*
X191513155Y-76548785D01*
X191586858Y-76499538D01*
X191649538Y-76436858D01*
X191698785Y-76363155D01*
X191732706Y-76281260D01*
X191750000Y-76194321D01*
X191750000Y-76105679D01*
X191732706Y-76018740D01*
X191698785Y-75936845D01*
X191649538Y-75863142D01*
X191586858Y-75800462D01*
X191513155Y-75751215D01*
X191431260Y-75717294D01*
X191344321Y-75700000D01*
X191255679Y-75700000D01*
X191168740Y-75717294D01*
X191086845Y-75751215D01*
X191013142Y-75800462D01*
X190950462Y-75863142D01*
X190901215Y-75936845D01*
X190867294Y-76018740D01*
X190850000Y-76105679D01*
X190300000Y-76105679D01*
X190282706Y-76018740D01*
X190248785Y-75936845D01*
X190199538Y-75863142D01*
X190136858Y-75800462D01*
X190063155Y-75751215D01*
X189981260Y-75717294D01*
X189894321Y-75700000D01*
X189805679Y-75700000D01*
X189718740Y-75717294D01*
X189636845Y-75751215D01*
X189563142Y-75800462D01*
X189500462Y-75863142D01*
X189451215Y-75936845D01*
X189417294Y-76018740D01*
X189400000Y-76105679D01*
X169377430Y-76105679D01*
X168110194Y-74838443D01*
X171125000Y-74838443D01*
X171125000Y-74961557D01*
X171149019Y-75082306D01*
X171196132Y-75196048D01*
X171264531Y-75298414D01*
X171351586Y-75385469D01*
X171453952Y-75453868D01*
X171567694Y-75500981D01*
X171688443Y-75525000D01*
X171811557Y-75525000D01*
X171932306Y-75500981D01*
X172046048Y-75453868D01*
X172148414Y-75385469D01*
X172235469Y-75298414D01*
X172303868Y-75196048D01*
X172350981Y-75082306D01*
X172375000Y-74961557D01*
X172375000Y-74838443D01*
X172625000Y-74838443D01*
X172625000Y-74961557D01*
X172649019Y-75082306D01*
X172696132Y-75196048D01*
X172764531Y-75298414D01*
X172851586Y-75385469D01*
X172953952Y-75453868D01*
X173067694Y-75500981D01*
X173188443Y-75525000D01*
X173311557Y-75525000D01*
X173432306Y-75500981D01*
X173546048Y-75453868D01*
X173648414Y-75385469D01*
X173735469Y-75298414D01*
X173803868Y-75196048D01*
X173850981Y-75082306D01*
X173875000Y-74961557D01*
X173875000Y-74838443D01*
X174175000Y-74838443D01*
X174175000Y-74961557D01*
X174199019Y-75082306D01*
X174246132Y-75196048D01*
X174314531Y-75298414D01*
X174401586Y-75385469D01*
X174503952Y-75453868D01*
X174617694Y-75500981D01*
X174738443Y-75525000D01*
X174861557Y-75525000D01*
X174982306Y-75500981D01*
X175096048Y-75453868D01*
X175198414Y-75385469D01*
X175285469Y-75298414D01*
X175353868Y-75196048D01*
X175400981Y-75082306D01*
X175425000Y-74961557D01*
X175425000Y-74838443D01*
X175400981Y-74717694D01*
X175353868Y-74603952D01*
X175285469Y-74501586D01*
X175198414Y-74414531D01*
X175096048Y-74346132D01*
X174982306Y-74299019D01*
X174861557Y-74275000D01*
X174738443Y-74275000D01*
X174617694Y-74299019D01*
X174503952Y-74346132D01*
X174401586Y-74414531D01*
X174314531Y-74501586D01*
X174246132Y-74603952D01*
X174199019Y-74717694D01*
X174175000Y-74838443D01*
X173875000Y-74838443D01*
X173850981Y-74717694D01*
X173803868Y-74603952D01*
X173735469Y-74501586D01*
X173648414Y-74414531D01*
X173546048Y-74346132D01*
X173432306Y-74299019D01*
X173311557Y-74275000D01*
X173188443Y-74275000D01*
X173067694Y-74299019D01*
X172953952Y-74346132D01*
X172851586Y-74414531D01*
X172764531Y-74501586D01*
X172696132Y-74603952D01*
X172649019Y-74717694D01*
X172625000Y-74838443D01*
X172375000Y-74838443D01*
X172350981Y-74717694D01*
X172303868Y-74603952D01*
X172235469Y-74501586D01*
X172148414Y-74414531D01*
X172046048Y-74346132D01*
X171932306Y-74299019D01*
X171811557Y-74275000D01*
X171688443Y-74275000D01*
X171567694Y-74299019D01*
X171453952Y-74346132D01*
X171351586Y-74414531D01*
X171264531Y-74501586D01*
X171196132Y-74603952D01*
X171149019Y-74717694D01*
X171125000Y-74838443D01*
X168110194Y-74838443D01*
X167377001Y-74105251D01*
X167377001Y-73888443D01*
X170225000Y-73888443D01*
X170225000Y-74011557D01*
X170249019Y-74132306D01*
X170296132Y-74246048D01*
X170364531Y-74348414D01*
X170451586Y-74435469D01*
X170553952Y-74503868D01*
X170667694Y-74550981D01*
X170788443Y-74575000D01*
X170911557Y-74575000D01*
X171032306Y-74550981D01*
X171146048Y-74503868D01*
X171248414Y-74435469D01*
X171335469Y-74348414D01*
X171403868Y-74246048D01*
X171450981Y-74132306D01*
X171475000Y-74011557D01*
X171475000Y-73888443D01*
X171450981Y-73767694D01*
X171403868Y-73653952D01*
X171335469Y-73551586D01*
X171248414Y-73464531D01*
X171146048Y-73396132D01*
X171032306Y-73349019D01*
X170911557Y-73325000D01*
X170788443Y-73325000D01*
X170667694Y-73349019D01*
X170553952Y-73396132D01*
X170451586Y-73464531D01*
X170364531Y-73551586D01*
X170296132Y-73653952D01*
X170249019Y-73767694D01*
X170225000Y-73888443D01*
X167377001Y-73888443D01*
X167377001Y-73288443D01*
X180925000Y-73288443D01*
X180925000Y-73411557D01*
X180949019Y-73532306D01*
X180996132Y-73646048D01*
X181064531Y-73748414D01*
X181141117Y-73825000D01*
X181064531Y-73901586D01*
X180996132Y-74003952D01*
X180949019Y-74117694D01*
X180925000Y-74238443D01*
X180925000Y-74361557D01*
X180949019Y-74482306D01*
X180996132Y-74596048D01*
X181064531Y-74698414D01*
X181151586Y-74785469D01*
X181253952Y-74853868D01*
X181367694Y-74900981D01*
X181488443Y-74925000D01*
X181611557Y-74925000D01*
X181732306Y-74900981D01*
X181846048Y-74853868D01*
X181948414Y-74785469D01*
X182035469Y-74698414D01*
X182103868Y-74596048D01*
X182150981Y-74482306D01*
X182175000Y-74361557D01*
X182175000Y-74238443D01*
X182150981Y-74117694D01*
X182103868Y-74003952D01*
X182035469Y-73901586D01*
X181958883Y-73825000D01*
X182035469Y-73748414D01*
X182103868Y-73646048D01*
X182150981Y-73532306D01*
X182175000Y-73411557D01*
X182175000Y-73288443D01*
X182150981Y-73167694D01*
X182103868Y-73053952D01*
X182035469Y-72951586D01*
X182022326Y-72938443D01*
X184325000Y-72938443D01*
X184325000Y-73061557D01*
X184349019Y-73182306D01*
X184396132Y-73296048D01*
X184464531Y-73398414D01*
X184551586Y-73485469D01*
X184653952Y-73553868D01*
X184767694Y-73600981D01*
X184888443Y-73625000D01*
X185011557Y-73625000D01*
X185132306Y-73600981D01*
X185246048Y-73553868D01*
X185348414Y-73485469D01*
X185435469Y-73398414D01*
X185450000Y-73376667D01*
X185464531Y-73398414D01*
X185551586Y-73485469D01*
X185653952Y-73553868D01*
X185767694Y-73600981D01*
X185888443Y-73625000D01*
X186011557Y-73625000D01*
X186132306Y-73600981D01*
X186246048Y-73553868D01*
X186348414Y-73485469D01*
X186435469Y-73398414D01*
X186450000Y-73376667D01*
X186464531Y-73398414D01*
X186551586Y-73485469D01*
X186653952Y-73553868D01*
X186767694Y-73600981D01*
X186888443Y-73625000D01*
X187011557Y-73625000D01*
X187132306Y-73600981D01*
X187246048Y-73553868D01*
X187348414Y-73485469D01*
X187435469Y-73398414D01*
X187503868Y-73296048D01*
X187550981Y-73182306D01*
X187575000Y-73061557D01*
X187575000Y-72938443D01*
X187550981Y-72817694D01*
X187503868Y-72703952D01*
X187435469Y-72601586D01*
X187348414Y-72514531D01*
X187246048Y-72446132D01*
X187132306Y-72399019D01*
X187011557Y-72375000D01*
X186888443Y-72375000D01*
X186767694Y-72399019D01*
X186653952Y-72446132D01*
X186551586Y-72514531D01*
X186464531Y-72601586D01*
X186450000Y-72623333D01*
X186435469Y-72601586D01*
X186348414Y-72514531D01*
X186290880Y-72476088D01*
X186300000Y-72476088D01*
X186344108Y-72471744D01*
X186386520Y-72458878D01*
X186425608Y-72437985D01*
X186459868Y-72409868D01*
X186487985Y-72375608D01*
X186508878Y-72336520D01*
X186521744Y-72294108D01*
X186526088Y-72250000D01*
X186526088Y-71659971D01*
X186551586Y-71685469D01*
X186653952Y-71753868D01*
X186767694Y-71800981D01*
X186888443Y-71825000D01*
X187011557Y-71825000D01*
X187132306Y-71800981D01*
X187246048Y-71753868D01*
X187348414Y-71685469D01*
X187435469Y-71598414D01*
X187503868Y-71496048D01*
X187550981Y-71382306D01*
X187575000Y-71261557D01*
X187575000Y-71138443D01*
X187550981Y-71017694D01*
X187503868Y-70903952D01*
X187435469Y-70801586D01*
X187348414Y-70714531D01*
X187246048Y-70646132D01*
X187132306Y-70599019D01*
X187011557Y-70575000D01*
X186888443Y-70575000D01*
X186767694Y-70599019D01*
X186653952Y-70646132D01*
X186551586Y-70714531D01*
X186526088Y-70740029D01*
X186526088Y-70550000D01*
X186521744Y-70505892D01*
X186508878Y-70463480D01*
X186487985Y-70424392D01*
X186459868Y-70390132D01*
X186425608Y-70362015D01*
X186386520Y-70341122D01*
X186344108Y-70328256D01*
X186300000Y-70323912D01*
X184600000Y-70323912D01*
X184555892Y-70328256D01*
X184513480Y-70341122D01*
X184474392Y-70362015D01*
X184440132Y-70390132D01*
X184412015Y-70424392D01*
X184391122Y-70463480D01*
X184378256Y-70505892D01*
X184373912Y-70550000D01*
X184373912Y-72250000D01*
X184378256Y-72294108D01*
X184391122Y-72336520D01*
X184412015Y-72375608D01*
X184440132Y-72409868D01*
X184474392Y-72437985D01*
X184513480Y-72458878D01*
X184555892Y-72471744D01*
X184600000Y-72476088D01*
X184609120Y-72476088D01*
X184551586Y-72514531D01*
X184464531Y-72601586D01*
X184396132Y-72703952D01*
X184349019Y-72817694D01*
X184325000Y-72938443D01*
X182022326Y-72938443D01*
X181948414Y-72864531D01*
X181846048Y-72796132D01*
X181732306Y-72749019D01*
X181611557Y-72725000D01*
X181488443Y-72725000D01*
X181367694Y-72749019D01*
X181253952Y-72796132D01*
X181151586Y-72864531D01*
X181064531Y-72951586D01*
X180996132Y-73053952D01*
X180949019Y-73167694D01*
X180925000Y-73288443D01*
X167377001Y-73288443D01*
X167377001Y-72088443D01*
X174825000Y-72088443D01*
X174825000Y-72211557D01*
X174849019Y-72332306D01*
X174896132Y-72446048D01*
X174964531Y-72548414D01*
X175051586Y-72635469D01*
X175153952Y-72703868D01*
X175267694Y-72750981D01*
X175388443Y-72775000D01*
X175511557Y-72775000D01*
X175632306Y-72750981D01*
X175746048Y-72703868D01*
X175848414Y-72635469D01*
X175935469Y-72548414D01*
X176003868Y-72446048D01*
X176050981Y-72332306D01*
X176075000Y-72211557D01*
X176075000Y-72088443D01*
X176050981Y-71967694D01*
X176003868Y-71853952D01*
X175935469Y-71751586D01*
X175848414Y-71664531D01*
X175746048Y-71596132D01*
X175632306Y-71549019D01*
X175511557Y-71525000D01*
X175388443Y-71525000D01*
X175267694Y-71549019D01*
X175153952Y-71596132D01*
X175051586Y-71664531D01*
X174964531Y-71751586D01*
X174896132Y-71853952D01*
X174849019Y-71967694D01*
X174825000Y-72088443D01*
X167377001Y-72088443D01*
X167377001Y-71384374D01*
X167379299Y-71361042D01*
X167370128Y-71267926D01*
X167354770Y-71217298D01*
X167342967Y-71178389D01*
X167298860Y-71095870D01*
X167239502Y-71023542D01*
X167221372Y-71008663D01*
X165843342Y-69630634D01*
X165828459Y-69612499D01*
X165756131Y-69553141D01*
X165673612Y-69509034D01*
X165584074Y-69481873D01*
X165514290Y-69475000D01*
X165490958Y-69472702D01*
X165467626Y-69475000D01*
X163972267Y-69475000D01*
X164158824Y-69288443D01*
X186325000Y-69288443D01*
X186325000Y-69411557D01*
X186349019Y-69532306D01*
X186396132Y-69646048D01*
X186464531Y-69748414D01*
X186551586Y-69835469D01*
X186653952Y-69903868D01*
X186767694Y-69950981D01*
X186888443Y-69975000D01*
X187011557Y-69975000D01*
X187132306Y-69950981D01*
X187246048Y-69903868D01*
X187348414Y-69835469D01*
X187435469Y-69748414D01*
X187503868Y-69646048D01*
X187550981Y-69532306D01*
X187575000Y-69411557D01*
X187575000Y-69288443D01*
X187550981Y-69167694D01*
X187503868Y-69053952D01*
X187435469Y-68951586D01*
X187348414Y-68864531D01*
X187246048Y-68796132D01*
X187132306Y-68749019D01*
X187011557Y-68725000D01*
X186888443Y-68725000D01*
X186767694Y-68749019D01*
X186653952Y-68796132D01*
X186551586Y-68864531D01*
X186464531Y-68951586D01*
X186396132Y-69053952D01*
X186349019Y-69167694D01*
X186325000Y-69288443D01*
X164158824Y-69288443D01*
X164164478Y-69282789D01*
X164192133Y-69260093D01*
X164223995Y-69221270D01*
X164282732Y-69149698D01*
X164350054Y-69023749D01*
X164371883Y-68951787D01*
X164391510Y-68887086D01*
X164402001Y-68780567D01*
X164402001Y-68780561D01*
X164405507Y-68744961D01*
X164402001Y-68709361D01*
X164402001Y-68697164D01*
X164481731Y-68631731D01*
X164572330Y-68521336D01*
X164639652Y-68395387D01*
X164681108Y-68258724D01*
X164695106Y-68116599D01*
X164681108Y-67974474D01*
X164639652Y-67837811D01*
X164572330Y-67711862D01*
X164481731Y-67601467D01*
X164371336Y-67510868D01*
X164245387Y-67443546D01*
X164108724Y-67402090D01*
X164002206Y-67391599D01*
X163868997Y-67391599D01*
X163833400Y-67388093D01*
X163797803Y-67391599D01*
X163797794Y-67391599D01*
X163691276Y-67402090D01*
X163554613Y-67443546D01*
X163428664Y-67510868D01*
X163318269Y-67601467D01*
X163295569Y-67629127D01*
X163189525Y-67735171D01*
X163161869Y-67757868D01*
X163139173Y-67785523D01*
X163139171Y-67785525D01*
X163086214Y-67850054D01*
X163071270Y-67868263D01*
X163003948Y-67994212D01*
X162962492Y-68130875D01*
X162952001Y-68237393D01*
X162952001Y-68237402D01*
X162948495Y-68272999D01*
X162952001Y-68308596D01*
X162952001Y-68444656D01*
X162294657Y-69102001D01*
X160476088Y-69102001D01*
X160476088Y-67500000D01*
X160471744Y-67455892D01*
X160458878Y-67413480D01*
X160437985Y-67374392D01*
X160409868Y-67340132D01*
X160375608Y-67312015D01*
X160336520Y-67291122D01*
X160294108Y-67278256D01*
X160250000Y-67273912D01*
X158550000Y-67273912D01*
X158505892Y-67278256D01*
X158463480Y-67291122D01*
X158424392Y-67312015D01*
X158390132Y-67340132D01*
X158362015Y-67374392D01*
X158341122Y-67413480D01*
X158328256Y-67455892D01*
X158323912Y-67500000D01*
X158323912Y-68948607D01*
X157837474Y-68462170D01*
X157754736Y-68394269D01*
X157731323Y-68381755D01*
X157522254Y-68172686D01*
X157510093Y-68157867D01*
X157495274Y-68145706D01*
X156039095Y-66689527D01*
X156016397Y-66661869D01*
X155906002Y-66571270D01*
X155780053Y-66503948D01*
X155643390Y-66462492D01*
X155536872Y-66452001D01*
X155536862Y-66452001D01*
X155501265Y-66448495D01*
X155465668Y-66452001D01*
X155098278Y-66452001D01*
X155165007Y-66385272D01*
X155282652Y-66209203D01*
X155363688Y-66013566D01*
X155405000Y-65805878D01*
X155405000Y-65594122D01*
X155795000Y-65594122D01*
X155795000Y-65805878D01*
X155836312Y-66013566D01*
X155917348Y-66209203D01*
X156034993Y-66385272D01*
X156184728Y-66535007D01*
X156360797Y-66652652D01*
X156556434Y-66733688D01*
X156764122Y-66775000D01*
X156975878Y-66775000D01*
X157183566Y-66733688D01*
X157379203Y-66652652D01*
X157555272Y-66535007D01*
X157705007Y-66385272D01*
X157822652Y-66209203D01*
X157903688Y-66013566D01*
X157945000Y-65805878D01*
X157945000Y-65594122D01*
X158335000Y-65594122D01*
X158335000Y-65805878D01*
X158376312Y-66013566D01*
X158457348Y-66209203D01*
X158574993Y-66385272D01*
X158724728Y-66535007D01*
X158900797Y-66652652D01*
X159096434Y-66733688D01*
X159304122Y-66775000D01*
X159515878Y-66775000D01*
X159723566Y-66733688D01*
X159919203Y-66652652D01*
X160072833Y-66550000D01*
X160863863Y-66550000D01*
X160868400Y-66596068D01*
X160881838Y-66640366D01*
X160903659Y-66681191D01*
X160933026Y-66716974D01*
X160968809Y-66746341D01*
X161009634Y-66768162D01*
X161053932Y-66781600D01*
X161100000Y-66786137D01*
X161716250Y-66785000D01*
X161775000Y-66726250D01*
X161775000Y-65875000D01*
X162125000Y-65875000D01*
X162125000Y-66726250D01*
X162183750Y-66785000D01*
X162800000Y-66786137D01*
X162846068Y-66781600D01*
X162890366Y-66768162D01*
X162931191Y-66746341D01*
X162966974Y-66716974D01*
X162996341Y-66681191D01*
X163018162Y-66640366D01*
X163031600Y-66596068D01*
X163036137Y-66550000D01*
X163035000Y-65933750D01*
X162976250Y-65875000D01*
X162125000Y-65875000D01*
X161775000Y-65875000D01*
X160923750Y-65875000D01*
X160865000Y-65933750D01*
X160863863Y-66550000D01*
X160072833Y-66550000D01*
X160095272Y-66535007D01*
X160245007Y-66385272D01*
X160362652Y-66209203D01*
X160443688Y-66013566D01*
X160485000Y-65805878D01*
X160485000Y-65594122D01*
X160443688Y-65386434D01*
X160362652Y-65190797D01*
X160245007Y-65014728D01*
X160095272Y-64864993D01*
X160072834Y-64850000D01*
X160863863Y-64850000D01*
X160865000Y-65466250D01*
X160923750Y-65525000D01*
X161775000Y-65525000D01*
X161775000Y-64673750D01*
X162125000Y-64673750D01*
X162125000Y-65525000D01*
X162976250Y-65525000D01*
X163035000Y-65466250D01*
X163036137Y-64850000D01*
X163031600Y-64803932D01*
X163018162Y-64759634D01*
X162996341Y-64718809D01*
X162966974Y-64683026D01*
X162931191Y-64653659D01*
X162890366Y-64631838D01*
X162846068Y-64618400D01*
X162800000Y-64613863D01*
X162183750Y-64615000D01*
X162125000Y-64673750D01*
X161775000Y-64673750D01*
X161716250Y-64615000D01*
X161100000Y-64613863D01*
X161053932Y-64618400D01*
X161009634Y-64631838D01*
X160968809Y-64653659D01*
X160933026Y-64683026D01*
X160903659Y-64718809D01*
X160881838Y-64759634D01*
X160868400Y-64803932D01*
X160863863Y-64850000D01*
X160072834Y-64850000D01*
X159919203Y-64747348D01*
X159723566Y-64666312D01*
X159515878Y-64625000D01*
X159304122Y-64625000D01*
X159096434Y-64666312D01*
X158900797Y-64747348D01*
X158724728Y-64864993D01*
X158574993Y-65014728D01*
X158457348Y-65190797D01*
X158376312Y-65386434D01*
X158335000Y-65594122D01*
X157945000Y-65594122D01*
X157903688Y-65386434D01*
X157822652Y-65190797D01*
X157705007Y-65014728D01*
X157555272Y-64864993D01*
X157379203Y-64747348D01*
X157183566Y-64666312D01*
X156975878Y-64625000D01*
X156764122Y-64625000D01*
X156556434Y-64666312D01*
X156360797Y-64747348D01*
X156184728Y-64864993D01*
X156034993Y-65014728D01*
X155917348Y-65190797D01*
X155836312Y-65386434D01*
X155795000Y-65594122D01*
X155405000Y-65594122D01*
X155363688Y-65386434D01*
X155282652Y-65190797D01*
X155165007Y-65014728D01*
X155015272Y-64864993D01*
X154839203Y-64747348D01*
X154643566Y-64666312D01*
X154435878Y-64625000D01*
X154224122Y-64625000D01*
X154016434Y-64666312D01*
X153820797Y-64747348D01*
X153644728Y-64864993D01*
X153494993Y-65014728D01*
X153377348Y-65190797D01*
X153296312Y-65386434D01*
X153255000Y-65594122D01*
X153255000Y-65805878D01*
X153296312Y-66013566D01*
X153377348Y-66209203D01*
X153494993Y-66385272D01*
X153561722Y-66452001D01*
X153464158Y-66452001D01*
X153454736Y-66444269D01*
X153388166Y-66408686D01*
X153337698Y-66367268D01*
X153211749Y-66299946D01*
X153075086Y-66258490D01*
X152968568Y-66247999D01*
X152968558Y-66247999D01*
X152932961Y-66244493D01*
X152897364Y-66247999D01*
X151502635Y-66247999D01*
X151467038Y-66244493D01*
X151431441Y-66247999D01*
X148612598Y-66247999D01*
X148577001Y-66244493D01*
X148541404Y-66247999D01*
X148541394Y-66247999D01*
X148434876Y-66258490D01*
X148298213Y-66299946D01*
X148172264Y-66367268D01*
X148089526Y-66435169D01*
X148089524Y-66435171D01*
X148061869Y-66457867D01*
X148039173Y-66485522D01*
X147355339Y-67169356D01*
X147425000Y-66819143D01*
X147425000Y-66380857D01*
X147339495Y-65950991D01*
X147171770Y-65546067D01*
X146928270Y-65181645D01*
X146618355Y-64871730D01*
X146253933Y-64628230D01*
X145849009Y-64460505D01*
X145419143Y-64375000D01*
X144980857Y-64375000D01*
X144550991Y-64460505D01*
X144146067Y-64628230D01*
X143781645Y-64871730D01*
X143471730Y-65181645D01*
X143228230Y-65546067D01*
X143060505Y-65950991D01*
X142975000Y-66380857D01*
X142975000Y-66819143D01*
X143060505Y-67249009D01*
X143228230Y-67653933D01*
X143471730Y-68018355D01*
X143781645Y-68328270D01*
X144146067Y-68571770D01*
X144550991Y-68739495D01*
X144980857Y-68825000D01*
X145419143Y-68825000D01*
X145769357Y-68755339D01*
X138899696Y-75625000D01*
X110235596Y-75625000D01*
X110199999Y-75621494D01*
X110164402Y-75625000D01*
X110164393Y-75625000D01*
X110057875Y-75635491D01*
X109921212Y-75676947D01*
X109795263Y-75744269D01*
X109712525Y-75812170D01*
X109712523Y-75812172D01*
X109684868Y-75834868D01*
X109662172Y-75862523D01*
X108325000Y-77199696D01*
X108137474Y-77012170D01*
X108054736Y-76944269D01*
X107928787Y-76876947D01*
X107792124Y-76835492D01*
X107650000Y-76821494D01*
X107507876Y-76835492D01*
X107371213Y-76876947D01*
X107245264Y-76944269D01*
X107134868Y-77034868D01*
X107044269Y-77145264D01*
X106976947Y-77271213D01*
X106935492Y-77407876D01*
X106921494Y-77550000D01*
X106935492Y-77692124D01*
X106976947Y-77828787D01*
X107044269Y-77954736D01*
X107112170Y-78037474D01*
X107577002Y-78502307D01*
X107577002Y-78816447D01*
X107494321Y-78800000D01*
X107405679Y-78800000D01*
X107318740Y-78817294D01*
X107236845Y-78851215D01*
X107163142Y-78900462D01*
X107100462Y-78963142D01*
X107051215Y-79036845D01*
X107017294Y-79118740D01*
X107000000Y-79205679D01*
X107000000Y-79294321D01*
X107017294Y-79381260D01*
X107051215Y-79463155D01*
X107100462Y-79536858D01*
X107163142Y-79599538D01*
X107236845Y-79648785D01*
X107318740Y-79682706D01*
X107405679Y-79700000D01*
X107494321Y-79700000D01*
X107577002Y-79683553D01*
X107577002Y-79816447D01*
X107494321Y-79800000D01*
X107405679Y-79800000D01*
X107318740Y-79817294D01*
X107236845Y-79851215D01*
X107163142Y-79900462D01*
X107100462Y-79963142D01*
X107051215Y-80036845D01*
X107017294Y-80118740D01*
X107000000Y-80205679D01*
X107000000Y-80294321D01*
X107017294Y-80381260D01*
X107051215Y-80463155D01*
X107100462Y-80536858D01*
X107163142Y-80599538D01*
X107236845Y-80648785D01*
X107318740Y-80682706D01*
X107405679Y-80700000D01*
X107494321Y-80700000D01*
X107577001Y-80683553D01*
X107577001Y-81422694D01*
X107087170Y-81912526D01*
X107019269Y-81995264D01*
X106951947Y-82121213D01*
X106910492Y-82257876D01*
X106896494Y-82400000D01*
X105638926Y-82400000D01*
X105603137Y-82385176D01*
X105501708Y-82365000D01*
X105398292Y-82365000D01*
X105296863Y-82385176D01*
X105201319Y-82424751D01*
X105115332Y-82482206D01*
X105042206Y-82555332D01*
X104984751Y-82641319D01*
X104945176Y-82736863D01*
X104925000Y-82838292D01*
X100250000Y-82838292D01*
X100250000Y-77058292D01*
X104925000Y-77058292D01*
X104925000Y-77161708D01*
X104945176Y-77263137D01*
X104984751Y-77358681D01*
X105042206Y-77444668D01*
X105115332Y-77517794D01*
X105201319Y-77575249D01*
X105296863Y-77614824D01*
X105398292Y-77635000D01*
X105501708Y-77635000D01*
X105603137Y-77614824D01*
X105698681Y-77575249D01*
X105784668Y-77517794D01*
X105857794Y-77444668D01*
X105915249Y-77358681D01*
X105954824Y-77263137D01*
X105975000Y-77161708D01*
X105975000Y-77058292D01*
X105954824Y-76956863D01*
X105915249Y-76861319D01*
X105857794Y-76775332D01*
X105784668Y-76702206D01*
X105698681Y-76644751D01*
X105603137Y-76605176D01*
X105501708Y-76585000D01*
X105398292Y-76585000D01*
X105296863Y-76605176D01*
X105201319Y-76644751D01*
X105115332Y-76702206D01*
X105042206Y-76775332D01*
X104984751Y-76861319D01*
X104945176Y-76956863D01*
X104925000Y-77058292D01*
X100250000Y-77058292D01*
X100250000Y-75956447D01*
X100733261Y-75956447D01*
X100751888Y-76040625D01*
X100833927Y-76152332D01*
X100936183Y-76245888D01*
X101054726Y-76317697D01*
X101185000Y-76365000D01*
X101585000Y-76365000D01*
X101585000Y-75855000D01*
X101935000Y-75855000D01*
X101935000Y-76365000D01*
X102335000Y-76365000D01*
X102465274Y-76317697D01*
X102583817Y-76245888D01*
X102686073Y-76152332D01*
X102768112Y-76040625D01*
X102786739Y-75956447D01*
X104753261Y-75956447D01*
X104771888Y-76040625D01*
X104853927Y-76152332D01*
X104956183Y-76245888D01*
X105074726Y-76317697D01*
X105205000Y-76365000D01*
X105755000Y-76365000D01*
X105755000Y-75855000D01*
X106105000Y-75855000D01*
X106105000Y-76365000D01*
X106655000Y-76365000D01*
X106785274Y-76317697D01*
X106903817Y-76245888D01*
X107006073Y-76152332D01*
X107088112Y-76040625D01*
X107106739Y-75956447D01*
X107081302Y-75855000D01*
X106105000Y-75855000D01*
X105755000Y-75855000D01*
X104778698Y-75855000D01*
X104753261Y-75956447D01*
X102786739Y-75956447D01*
X102761302Y-75855000D01*
X101935000Y-75855000D01*
X101585000Y-75855000D01*
X100758698Y-75855000D01*
X100733261Y-75956447D01*
X100250000Y-75956447D01*
X100250000Y-75403553D01*
X100733261Y-75403553D01*
X100758698Y-75505000D01*
X101585000Y-75505000D01*
X101585000Y-74995000D01*
X101935000Y-74995000D01*
X101935000Y-75505000D01*
X102761302Y-75505000D01*
X102786739Y-75403553D01*
X104753261Y-75403553D01*
X104778698Y-75505000D01*
X105755000Y-75505000D01*
X105755000Y-74995000D01*
X106105000Y-74995000D01*
X106105000Y-75505000D01*
X107081302Y-75505000D01*
X107106739Y-75403553D01*
X107088112Y-75319375D01*
X107006073Y-75207668D01*
X106903817Y-75114112D01*
X106785274Y-75042303D01*
X106655000Y-74995000D01*
X106105000Y-74995000D01*
X105755000Y-74995000D01*
X105205000Y-74995000D01*
X105074726Y-75042303D01*
X104956183Y-75114112D01*
X104853927Y-75207668D01*
X104771888Y-75319375D01*
X104753261Y-75403553D01*
X102786739Y-75403553D01*
X102768112Y-75319375D01*
X102686073Y-75207668D01*
X102583817Y-75114112D01*
X102465274Y-75042303D01*
X102335000Y-74995000D01*
X101935000Y-74995000D01*
X101585000Y-74995000D01*
X101185000Y-74995000D01*
X101054726Y-75042303D01*
X100936183Y-75114112D01*
X100833927Y-75207668D01*
X100751888Y-75319375D01*
X100733261Y-75403553D01*
X100250000Y-75403553D01*
X100250000Y-70855679D01*
X104650000Y-70855679D01*
X104650000Y-70944321D01*
X104667294Y-71031260D01*
X104701215Y-71113155D01*
X104750462Y-71186858D01*
X104813142Y-71249538D01*
X104886845Y-71298785D01*
X104968740Y-71332706D01*
X105055679Y-71350000D01*
X105144321Y-71350000D01*
X105231260Y-71332706D01*
X105313155Y-71298785D01*
X105386858Y-71249538D01*
X105449538Y-71186858D01*
X105498785Y-71113155D01*
X105532706Y-71031260D01*
X105550000Y-70944321D01*
X105550000Y-70855679D01*
X105532706Y-70768740D01*
X105498785Y-70686845D01*
X105449538Y-70613142D01*
X105386858Y-70550462D01*
X105313155Y-70501215D01*
X105231260Y-70467294D01*
X105144321Y-70450000D01*
X105055679Y-70450000D01*
X104968740Y-70467294D01*
X104886845Y-70501215D01*
X104813142Y-70550462D01*
X104750462Y-70613142D01*
X104701215Y-70686845D01*
X104667294Y-70768740D01*
X104650000Y-70855679D01*
X100250000Y-70855679D01*
X100250000Y-68705679D01*
X104650000Y-68705679D01*
X104650000Y-68794321D01*
X104667294Y-68881260D01*
X104701215Y-68963155D01*
X104750462Y-69036858D01*
X104813142Y-69099538D01*
X104886845Y-69148785D01*
X104968740Y-69182706D01*
X105055679Y-69200000D01*
X105144321Y-69200000D01*
X105231260Y-69182706D01*
X105313155Y-69148785D01*
X105386858Y-69099538D01*
X105449538Y-69036858D01*
X105498785Y-68963155D01*
X105532706Y-68881260D01*
X105550000Y-68794321D01*
X105550000Y-68705679D01*
X105532706Y-68618740D01*
X105498785Y-68536845D01*
X105449538Y-68463142D01*
X105386858Y-68400462D01*
X105313155Y-68351215D01*
X105310222Y-68350000D01*
X117613863Y-68350000D01*
X117618400Y-68396068D01*
X117631838Y-68440366D01*
X117653659Y-68481191D01*
X117683026Y-68516974D01*
X117718809Y-68546341D01*
X117759634Y-68568162D01*
X117803932Y-68581600D01*
X117850000Y-68586137D01*
X118466250Y-68585000D01*
X118525000Y-68526250D01*
X118525000Y-67675000D01*
X118875000Y-67675000D01*
X118875000Y-68526250D01*
X118933750Y-68585000D01*
X119550000Y-68586137D01*
X119596068Y-68581600D01*
X119640366Y-68568162D01*
X119681191Y-68546341D01*
X119716974Y-68516974D01*
X119746341Y-68481191D01*
X119768162Y-68440366D01*
X119781600Y-68396068D01*
X119786137Y-68350000D01*
X119785000Y-67733750D01*
X119726250Y-67675000D01*
X118875000Y-67675000D01*
X118525000Y-67675000D01*
X117673750Y-67675000D01*
X117615000Y-67733750D01*
X117613863Y-68350000D01*
X105310222Y-68350000D01*
X105231260Y-68317294D01*
X105144321Y-68300000D01*
X105055679Y-68300000D01*
X104968740Y-68317294D01*
X104886845Y-68351215D01*
X104813142Y-68400462D01*
X104750462Y-68463142D01*
X104701215Y-68536845D01*
X104667294Y-68618740D01*
X104650000Y-68705679D01*
X100250000Y-68705679D01*
X100250000Y-67394122D01*
X120165000Y-67394122D01*
X120165000Y-67605878D01*
X120206312Y-67813566D01*
X120287348Y-68009203D01*
X120404993Y-68185272D01*
X120554728Y-68335007D01*
X120730797Y-68452652D01*
X120926434Y-68533688D01*
X121134122Y-68575000D01*
X121345878Y-68575000D01*
X121553566Y-68533688D01*
X121749203Y-68452652D01*
X121925272Y-68335007D01*
X122075007Y-68185272D01*
X122192652Y-68009203D01*
X122273688Y-67813566D01*
X122315000Y-67605878D01*
X122315000Y-67394122D01*
X122705000Y-67394122D01*
X122705000Y-67605878D01*
X122746312Y-67813566D01*
X122827348Y-68009203D01*
X122944993Y-68185272D01*
X123094728Y-68335007D01*
X123270797Y-68452652D01*
X123466434Y-68533688D01*
X123674122Y-68575000D01*
X123885878Y-68575000D01*
X124093566Y-68533688D01*
X124289203Y-68452652D01*
X124465272Y-68335007D01*
X124615007Y-68185272D01*
X124732652Y-68009203D01*
X124813688Y-67813566D01*
X124855000Y-67605878D01*
X124855000Y-67394122D01*
X125245000Y-67394122D01*
X125245000Y-67605878D01*
X125286312Y-67813566D01*
X125367348Y-68009203D01*
X125484993Y-68185272D01*
X125634728Y-68335007D01*
X125810797Y-68452652D01*
X126006434Y-68533688D01*
X126214122Y-68575000D01*
X126425878Y-68575000D01*
X126633566Y-68533688D01*
X126829203Y-68452652D01*
X127005272Y-68335007D01*
X127155007Y-68185272D01*
X127272652Y-68009203D01*
X127353688Y-67813566D01*
X127395000Y-67605878D01*
X127395000Y-67394122D01*
X127353688Y-67186434D01*
X127272652Y-66990797D01*
X127155007Y-66814728D01*
X127005272Y-66664993D01*
X126829203Y-66547348D01*
X126633566Y-66466312D01*
X126425878Y-66425000D01*
X126214122Y-66425000D01*
X126006434Y-66466312D01*
X125810797Y-66547348D01*
X125634728Y-66664993D01*
X125484993Y-66814728D01*
X125367348Y-66990797D01*
X125286312Y-67186434D01*
X125245000Y-67394122D01*
X124855000Y-67394122D01*
X124813688Y-67186434D01*
X124732652Y-66990797D01*
X124615007Y-66814728D01*
X124465272Y-66664993D01*
X124289203Y-66547348D01*
X124093566Y-66466312D01*
X123885878Y-66425000D01*
X123674122Y-66425000D01*
X123466434Y-66466312D01*
X123270797Y-66547348D01*
X123094728Y-66664993D01*
X122944993Y-66814728D01*
X122827348Y-66990797D01*
X122746312Y-67186434D01*
X122705000Y-67394122D01*
X122315000Y-67394122D01*
X122273688Y-67186434D01*
X122192652Y-66990797D01*
X122075007Y-66814728D01*
X121925272Y-66664993D01*
X121749203Y-66547348D01*
X121553566Y-66466312D01*
X121345878Y-66425000D01*
X121134122Y-66425000D01*
X120926434Y-66466312D01*
X120730797Y-66547348D01*
X120554728Y-66664993D01*
X120404993Y-66814728D01*
X120287348Y-66990797D01*
X120206312Y-67186434D01*
X120165000Y-67394122D01*
X100250000Y-67394122D01*
X100249999Y-66650000D01*
X117613863Y-66650000D01*
X117615000Y-67266250D01*
X117673750Y-67325000D01*
X118525000Y-67325000D01*
X118525000Y-66473750D01*
X118875000Y-66473750D01*
X118875000Y-67325000D01*
X119726250Y-67325000D01*
X119785000Y-67266250D01*
X119786137Y-66650000D01*
X119781600Y-66603932D01*
X119768162Y-66559634D01*
X119746341Y-66518809D01*
X119716974Y-66483026D01*
X119681191Y-66453659D01*
X119640366Y-66431838D01*
X119596068Y-66418400D01*
X119550000Y-66413863D01*
X118933750Y-66415000D01*
X118875000Y-66473750D01*
X118525000Y-66473750D01*
X118466250Y-66415000D01*
X117850000Y-66413863D01*
X117803932Y-66418400D01*
X117759634Y-66431838D01*
X117718809Y-66453659D01*
X117683026Y-66483026D01*
X117653659Y-66518809D01*
X117631838Y-66559634D01*
X117618400Y-66603932D01*
X117613863Y-66650000D01*
X100249999Y-66650000D01*
X100249998Y-66012239D01*
X100284504Y-65660322D01*
X100383152Y-65333583D01*
X100543387Y-65032226D01*
X100759103Y-64767732D01*
X101022082Y-64550177D01*
X101322309Y-64387845D01*
X101648359Y-64286916D01*
X101999576Y-64250002D01*
X102000592Y-64249998D01*
X190275000Y-64250000D01*
G37*
X190275000Y-64250000D02*
X190275000Y-73250000D01*
X190276441Y-73264632D01*
X190280709Y-73278701D01*
X190287640Y-73291668D01*
X190296967Y-73303033D01*
X190415332Y-73421398D01*
X190417294Y-73431260D01*
X190451215Y-73513155D01*
X190500462Y-73586858D01*
X190563142Y-73649538D01*
X190636845Y-73698785D01*
X190718740Y-73732706D01*
X190805679Y-73750000D01*
X190894321Y-73750000D01*
X190981260Y-73732706D01*
X191063155Y-73698785D01*
X191098752Y-73675000D01*
X192568934Y-73675000D01*
X192875000Y-73981066D01*
X192875000Y-78122256D01*
X192615505Y-78425000D01*
X181000000Y-78425000D01*
X180985368Y-78426441D01*
X180971299Y-78430709D01*
X180958332Y-78437640D01*
X180946967Y-78446967D01*
X180937640Y-78458332D01*
X180930709Y-78471299D01*
X180926441Y-78485368D01*
X180925000Y-78500000D01*
X180925000Y-85968934D01*
X180468934Y-86425000D01*
X165500000Y-86425000D01*
X165485368Y-86426441D01*
X165471299Y-86430709D01*
X165458332Y-86437640D01*
X165446967Y-86446967D01*
X164946967Y-86946967D01*
X164937640Y-86958332D01*
X164930709Y-86971299D01*
X164926441Y-86985368D01*
X164925000Y-87000000D01*
X164925000Y-95750001D01*
X102012239Y-95750002D01*
X101660321Y-95715496D01*
X101333584Y-95616848D01*
X101032225Y-95456613D01*
X100767734Y-95240899D01*
X100550177Y-94977918D01*
X100387845Y-94677691D01*
X100286916Y-94351642D01*
X100250002Y-94000424D01*
X100250000Y-93999978D01*
X100250000Y-93180857D01*
X142975000Y-93180857D01*
X142975000Y-93619143D01*
X143060505Y-94049009D01*
X143228230Y-94453933D01*
X143471730Y-94818355D01*
X143781645Y-95128270D01*
X144146067Y-95371770D01*
X144550991Y-95539495D01*
X144980857Y-95625000D01*
X145419143Y-95625000D01*
X145849009Y-95539495D01*
X146253933Y-95371770D01*
X146618355Y-95128270D01*
X146928270Y-94818355D01*
X147171770Y-94453933D01*
X147339495Y-94049009D01*
X147425000Y-93619143D01*
X147425000Y-93180857D01*
X147339495Y-92750991D01*
X147185236Y-92378575D01*
X151568912Y-92378575D01*
X151679152Y-92514613D01*
X151887102Y-92596730D01*
X152107076Y-92636700D01*
X152330620Y-92632988D01*
X152549145Y-92585736D01*
X152720848Y-92514613D01*
X152831088Y-92378575D01*
X152200000Y-91747487D01*
X151568912Y-92378575D01*
X147185236Y-92378575D01*
X147171770Y-92346067D01*
X146928270Y-91981645D01*
X146618355Y-91671730D01*
X146253933Y-91428230D01*
X146202863Y-91407076D01*
X151063300Y-91407076D01*
X151067012Y-91630620D01*
X151114264Y-91849145D01*
X151185387Y-92020848D01*
X151321425Y-92131088D01*
X151952513Y-91500000D01*
X152447487Y-91500000D01*
X153078575Y-92131088D01*
X153214613Y-92020848D01*
X153296730Y-91812898D01*
X153336700Y-91592924D01*
X153332988Y-91369380D01*
X153285736Y-91150855D01*
X153214613Y-90979152D01*
X153078575Y-90868912D01*
X152447487Y-91500000D01*
X151952513Y-91500000D01*
X151321425Y-90868912D01*
X151185387Y-90979152D01*
X151103270Y-91187102D01*
X151063300Y-91407076D01*
X146202863Y-91407076D01*
X145849009Y-91260505D01*
X145419143Y-91175000D01*
X144980857Y-91175000D01*
X144550991Y-91260505D01*
X144146067Y-91428230D01*
X143781645Y-91671730D01*
X143471730Y-91981645D01*
X143228230Y-92346067D01*
X143060505Y-92750991D01*
X142975000Y-93180857D01*
X100250000Y-93180857D01*
X100250000Y-90621425D01*
X151568912Y-90621425D01*
X152200000Y-91252513D01*
X152831088Y-90621425D01*
X152720848Y-90485387D01*
X152512898Y-90403270D01*
X152292924Y-90363300D01*
X152069380Y-90367012D01*
X151850855Y-90414264D01*
X151679152Y-90485387D01*
X151568912Y-90621425D01*
X100250000Y-90621425D01*
X100250000Y-88889197D01*
X151075000Y-88889197D01*
X151075000Y-89110803D01*
X151118233Y-89328150D01*
X151203038Y-89532887D01*
X151326156Y-89717145D01*
X151482855Y-89873844D01*
X151667113Y-89996962D01*
X151871850Y-90081767D01*
X152089197Y-90125000D01*
X152310803Y-90125000D01*
X152528150Y-90081767D01*
X152732887Y-89996962D01*
X152917145Y-89873844D01*
X153073844Y-89717145D01*
X153196962Y-89532887D01*
X153281767Y-89328150D01*
X153325000Y-89110803D01*
X153325000Y-88889197D01*
X153281767Y-88671850D01*
X153196962Y-88467113D01*
X153185528Y-88450000D01*
X155423912Y-88450000D01*
X155423912Y-90150000D01*
X155428256Y-90194108D01*
X155441122Y-90236520D01*
X155462015Y-90275608D01*
X155490132Y-90309868D01*
X155524392Y-90337985D01*
X155563480Y-90358878D01*
X155605892Y-90371744D01*
X155650000Y-90376088D01*
X157350000Y-90376088D01*
X157394108Y-90371744D01*
X157436520Y-90358878D01*
X157475608Y-90337985D01*
X157509868Y-90309868D01*
X157537985Y-90275608D01*
X157558878Y-90236520D01*
X157571744Y-90194108D01*
X157576088Y-90150000D01*
X157576088Y-88450000D01*
X158323912Y-88450000D01*
X158323912Y-90150000D01*
X158328256Y-90194108D01*
X158341122Y-90236520D01*
X158362015Y-90275608D01*
X158390132Y-90309868D01*
X158424392Y-90337985D01*
X158463480Y-90358878D01*
X158505892Y-90371744D01*
X158550000Y-90376088D01*
X160250000Y-90376088D01*
X160294108Y-90371744D01*
X160336520Y-90358878D01*
X160375608Y-90337985D01*
X160409868Y-90309868D01*
X160437985Y-90275608D01*
X160458878Y-90236520D01*
X160471744Y-90194108D01*
X160476088Y-90150000D01*
X160476088Y-88450000D01*
X160471744Y-88405892D01*
X160458878Y-88363480D01*
X160437985Y-88324392D01*
X160409868Y-88290132D01*
X160375608Y-88262015D01*
X160336520Y-88241122D01*
X160294108Y-88228256D01*
X160250000Y-88223912D01*
X158550000Y-88223912D01*
X158505892Y-88228256D01*
X158463480Y-88241122D01*
X158424392Y-88262015D01*
X158390132Y-88290132D01*
X158362015Y-88324392D01*
X158341122Y-88363480D01*
X158328256Y-88405892D01*
X158323912Y-88450000D01*
X157576088Y-88450000D01*
X157571744Y-88405892D01*
X157558878Y-88363480D01*
X157537985Y-88324392D01*
X157509868Y-88290132D01*
X157475608Y-88262015D01*
X157436520Y-88241122D01*
X157394108Y-88228256D01*
X157350000Y-88223912D01*
X155650000Y-88223912D01*
X155605892Y-88228256D01*
X155563480Y-88241122D01*
X155524392Y-88262015D01*
X155490132Y-88290132D01*
X155462015Y-88324392D01*
X155441122Y-88363480D01*
X155428256Y-88405892D01*
X155423912Y-88450000D01*
X153185528Y-88450000D01*
X153073844Y-88282855D01*
X152917145Y-88126156D01*
X152732887Y-88003038D01*
X152528150Y-87918233D01*
X152310803Y-87875000D01*
X152089197Y-87875000D01*
X151871850Y-87918233D01*
X151667113Y-88003038D01*
X151482855Y-88126156D01*
X151326156Y-88282855D01*
X151203038Y-88467113D01*
X151118233Y-88671850D01*
X151075000Y-88889197D01*
X100250000Y-88889197D01*
X100250000Y-84596447D01*
X100733261Y-84596447D01*
X100751888Y-84680625D01*
X100833927Y-84792332D01*
X100936183Y-84885888D01*
X101054726Y-84957697D01*
X101185000Y-85005000D01*
X101585000Y-85005000D01*
X101585000Y-84495000D01*
X101935000Y-84495000D01*
X101935000Y-85005000D01*
X102335000Y-85005000D01*
X102465274Y-84957697D01*
X102583817Y-84885888D01*
X102686073Y-84792332D01*
X102768112Y-84680625D01*
X102786739Y-84596447D01*
X104753261Y-84596447D01*
X104771888Y-84680625D01*
X104853927Y-84792332D01*
X104956183Y-84885888D01*
X105074726Y-84957697D01*
X105205000Y-85005000D01*
X105755000Y-85005000D01*
X105755000Y-84495000D01*
X106105000Y-84495000D01*
X106105000Y-85005000D01*
X106655000Y-85005000D01*
X106785274Y-84957697D01*
X106903817Y-84885888D01*
X107006073Y-84792332D01*
X107088112Y-84680625D01*
X107106739Y-84596447D01*
X107081302Y-84495000D01*
X106105000Y-84495000D01*
X105755000Y-84495000D01*
X104778698Y-84495000D01*
X104753261Y-84596447D01*
X102786739Y-84596447D01*
X102761302Y-84495000D01*
X101935000Y-84495000D01*
X101585000Y-84495000D01*
X100758698Y-84495000D01*
X100733261Y-84596447D01*
X100250000Y-84596447D01*
X100250000Y-84380857D01*
X142975000Y-84380857D01*
X142975000Y-84819143D01*
X143060505Y-85249009D01*
X143228230Y-85653933D01*
X143471730Y-86018355D01*
X143781645Y-86328270D01*
X144146067Y-86571770D01*
X144550991Y-86739495D01*
X144980857Y-86825000D01*
X145419143Y-86825000D01*
X145849009Y-86739495D01*
X146253933Y-86571770D01*
X146618355Y-86328270D01*
X146928270Y-86018355D01*
X147171770Y-85653933D01*
X147339495Y-85249009D01*
X147425000Y-84819143D01*
X147425000Y-84380857D01*
X147339495Y-83950991D01*
X147171770Y-83546067D01*
X146928270Y-83181645D01*
X146618355Y-82871730D01*
X146253933Y-82628230D01*
X145849009Y-82460505D01*
X145419143Y-82375000D01*
X144980857Y-82375000D01*
X144550991Y-82460505D01*
X144146067Y-82628230D01*
X143781645Y-82871730D01*
X143471730Y-83181645D01*
X143228230Y-83546067D01*
X143060505Y-83950991D01*
X142975000Y-84380857D01*
X100250000Y-84380857D01*
X100250000Y-84043553D01*
X100733261Y-84043553D01*
X100758698Y-84145000D01*
X101585000Y-84145000D01*
X101585000Y-83635000D01*
X101935000Y-83635000D01*
X101935000Y-84145000D01*
X102761302Y-84145000D01*
X102786739Y-84043553D01*
X104753261Y-84043553D01*
X104778698Y-84145000D01*
X105755000Y-84145000D01*
X105755000Y-83635000D01*
X106105000Y-83635000D01*
X106105000Y-84145000D01*
X107081302Y-84145000D01*
X107106739Y-84043553D01*
X107088112Y-83959375D01*
X107006073Y-83847668D01*
X106903817Y-83754112D01*
X106785274Y-83682303D01*
X106655000Y-83635000D01*
X106105000Y-83635000D01*
X105755000Y-83635000D01*
X105205000Y-83635000D01*
X105074726Y-83682303D01*
X104956183Y-83754112D01*
X104853927Y-83847668D01*
X104771888Y-83959375D01*
X104753261Y-84043553D01*
X102786739Y-84043553D01*
X102768112Y-83959375D01*
X102686073Y-83847668D01*
X102583817Y-83754112D01*
X102465274Y-83682303D01*
X102335000Y-83635000D01*
X101935000Y-83635000D01*
X101585000Y-83635000D01*
X101185000Y-83635000D01*
X101054726Y-83682303D01*
X100936183Y-83754112D01*
X100833927Y-83847668D01*
X100751888Y-83959375D01*
X100733261Y-84043553D01*
X100250000Y-84043553D01*
X100250000Y-82838292D01*
X104925000Y-82838292D01*
X104925000Y-82941708D01*
X104945176Y-83043137D01*
X104984751Y-83138681D01*
X105042206Y-83224668D01*
X105115332Y-83297794D01*
X105201319Y-83355249D01*
X105296863Y-83394824D01*
X105398292Y-83415000D01*
X105501708Y-83415000D01*
X105603137Y-83394824D01*
X105698681Y-83355249D01*
X105784668Y-83297794D01*
X105857794Y-83224668D01*
X105915249Y-83138681D01*
X105954824Y-83043137D01*
X105975000Y-82941708D01*
X105975000Y-82838292D01*
X105954824Y-82736863D01*
X105915249Y-82641319D01*
X105857794Y-82555332D01*
X105784668Y-82482206D01*
X105698681Y-82424751D01*
X105638926Y-82400000D01*
X106896494Y-82400000D01*
X106910492Y-82542124D01*
X106951947Y-82678787D01*
X107019269Y-82804736D01*
X107109868Y-82915132D01*
X107220264Y-83005731D01*
X107346213Y-83073053D01*
X107482876Y-83114508D01*
X107625000Y-83128506D01*
X107767124Y-83114508D01*
X107903787Y-83073053D01*
X108029736Y-83005731D01*
X108112474Y-82937830D01*
X108789483Y-82260822D01*
X108817132Y-82238131D01*
X108839824Y-82210481D01*
X108839831Y-82210474D01*
X108907732Y-82127736D01*
X108975054Y-82001787D01*
X108990903Y-81949538D01*
X109016510Y-81865124D01*
X109027001Y-81758606D01*
X109027001Y-81758596D01*
X109030507Y-81722999D01*
X109027001Y-81687402D01*
X109027001Y-81555679D01*
X140600000Y-81555679D01*
X140600000Y-81644321D01*
X140617294Y-81731260D01*
X140651215Y-81813155D01*
X140700462Y-81886858D01*
X140763142Y-81949538D01*
X140836845Y-81998785D01*
X140918740Y-82032706D01*
X141005679Y-82050000D01*
X141094321Y-82050000D01*
X141181260Y-82032706D01*
X141263155Y-81998785D01*
X141336858Y-81949538D01*
X141399538Y-81886858D01*
X141448785Y-81813155D01*
X141482706Y-81731260D01*
X141500000Y-81644321D01*
X141500000Y-81555679D01*
X141482706Y-81468740D01*
X141448785Y-81386845D01*
X141399538Y-81313142D01*
X141336858Y-81250462D01*
X141263155Y-81201215D01*
X141181260Y-81167294D01*
X141094321Y-81150000D01*
X141005679Y-81150000D01*
X140918740Y-81167294D01*
X140836845Y-81201215D01*
X140763142Y-81250462D01*
X140700462Y-81313142D01*
X140651215Y-81386845D01*
X140617294Y-81468740D01*
X140600000Y-81555679D01*
X109027001Y-81555679D01*
X109027001Y-80905679D01*
X138250000Y-80905679D01*
X138250000Y-80994321D01*
X138267294Y-81081260D01*
X138301215Y-81163155D01*
X138350462Y-81236858D01*
X138413142Y-81299538D01*
X138486845Y-81348785D01*
X138568740Y-81382706D01*
X138655679Y-81400000D01*
X138744321Y-81400000D01*
X138831260Y-81382706D01*
X138913155Y-81348785D01*
X138986858Y-81299538D01*
X139049538Y-81236858D01*
X139098785Y-81163155D01*
X139132706Y-81081260D01*
X139150000Y-80994321D01*
X139150000Y-80905679D01*
X139132706Y-80818740D01*
X139098785Y-80736845D01*
X139049538Y-80663142D01*
X138986858Y-80600462D01*
X138913155Y-80551215D01*
X138831260Y-80517294D01*
X138744321Y-80500000D01*
X138655679Y-80500000D01*
X138568740Y-80517294D01*
X138486845Y-80551215D01*
X138413142Y-80600462D01*
X138350462Y-80663142D01*
X138301215Y-80736845D01*
X138267294Y-80818740D01*
X138250000Y-80905679D01*
X109027001Y-80905679D01*
X109027001Y-79398303D01*
X109419625Y-79005679D01*
X138250000Y-79005679D01*
X138250000Y-79094321D01*
X138267294Y-79181260D01*
X138301215Y-79263155D01*
X138350462Y-79336858D01*
X138413142Y-79399538D01*
X138486845Y-79448785D01*
X138568740Y-79482706D01*
X138655679Y-79500000D01*
X138744321Y-79500000D01*
X138831260Y-79482706D01*
X138913155Y-79448785D01*
X138986858Y-79399538D01*
X139049538Y-79336858D01*
X139098785Y-79263155D01*
X139132706Y-79181260D01*
X139150000Y-79094321D01*
X139150000Y-79005679D01*
X139132706Y-78918740D01*
X139098785Y-78836845D01*
X139049538Y-78763142D01*
X138986858Y-78700462D01*
X138913155Y-78651215D01*
X138831260Y-78617294D01*
X138744321Y-78600000D01*
X138655679Y-78600000D01*
X138568740Y-78617294D01*
X138486845Y-78651215D01*
X138413142Y-78700462D01*
X138350462Y-78763142D01*
X138301215Y-78836845D01*
X138267294Y-78918740D01*
X138250000Y-79005679D01*
X109419625Y-79005679D01*
X110069625Y-78355679D01*
X140600000Y-78355679D01*
X140600000Y-78444321D01*
X140617294Y-78531260D01*
X140651215Y-78613155D01*
X140700462Y-78686858D01*
X140763142Y-78749538D01*
X140836845Y-78798785D01*
X140918740Y-78832706D01*
X141005679Y-78850000D01*
X141094321Y-78850000D01*
X141181260Y-78832706D01*
X141263155Y-78798785D01*
X141336858Y-78749538D01*
X141399538Y-78686858D01*
X141448785Y-78613155D01*
X141482706Y-78531260D01*
X141500000Y-78444321D01*
X141500000Y-78355679D01*
X141482706Y-78268740D01*
X141448785Y-78186845D01*
X141399538Y-78113142D01*
X141336858Y-78050462D01*
X141263155Y-78001215D01*
X141181260Y-77967294D01*
X141094321Y-77950000D01*
X141005679Y-77950000D01*
X140918740Y-77967294D01*
X140836845Y-78001215D01*
X140763142Y-78050462D01*
X140700462Y-78113142D01*
X140651215Y-78186845D01*
X140617294Y-78268740D01*
X140600000Y-78355679D01*
X110069625Y-78355679D01*
X110500305Y-77925000D01*
X139476441Y-77925000D01*
X139512038Y-77928506D01*
X139547635Y-77925000D01*
X139547645Y-77925000D01*
X139654163Y-77914509D01*
X139790826Y-77873053D01*
X139916775Y-77805731D01*
X140027170Y-77715132D01*
X140049870Y-77687472D01*
X143112939Y-74624403D01*
X143060505Y-74750991D01*
X142975000Y-75180857D01*
X142975000Y-75619143D01*
X143060505Y-76049009D01*
X143228230Y-76453933D01*
X143471730Y-76818355D01*
X143781645Y-77128270D01*
X144146067Y-77371770D01*
X144550991Y-77539495D01*
X144980857Y-77625000D01*
X145419143Y-77625000D01*
X145849009Y-77539495D01*
X146253933Y-77371770D01*
X146618355Y-77128270D01*
X146928270Y-76818355D01*
X147171770Y-76453933D01*
X147339495Y-76049009D01*
X147425000Y-75619143D01*
X147425000Y-75180857D01*
X147339495Y-74750991D01*
X147171770Y-74346067D01*
X146928270Y-73981645D01*
X146618355Y-73671730D01*
X146253933Y-73428230D01*
X145849009Y-73260505D01*
X145419143Y-73175000D01*
X144980857Y-73175000D01*
X144550991Y-73260505D01*
X144424404Y-73312939D01*
X144476869Y-73260474D01*
X144476874Y-73260468D01*
X146226764Y-71510578D01*
X146245176Y-71603137D01*
X146284751Y-71698681D01*
X146342206Y-71784668D01*
X146415332Y-71857794D01*
X146501319Y-71915249D01*
X146596863Y-71954824D01*
X146698292Y-71975000D01*
X146744671Y-71975000D01*
X149698810Y-74929140D01*
X149710553Y-74943449D01*
X149724860Y-74955190D01*
X149767654Y-74990311D01*
X149812108Y-75014071D01*
X149832801Y-75025132D01*
X149903488Y-75046575D01*
X149958582Y-75052001D01*
X149958585Y-75052001D01*
X149977001Y-75053815D01*
X149995417Y-75052001D01*
X152746545Y-75052001D01*
X152764961Y-75053815D01*
X152783377Y-75052001D01*
X152783380Y-75052001D01*
X152838474Y-75046575D01*
X152909161Y-75025132D01*
X152974308Y-74990310D01*
X153031409Y-74943449D01*
X153043156Y-74929135D01*
X153532332Y-74439961D01*
X154763280Y-74439961D01*
X154713142Y-74473462D01*
X154650462Y-74536142D01*
X154601215Y-74609845D01*
X154567294Y-74691740D01*
X154550000Y-74778679D01*
X154550000Y-74867321D01*
X154567294Y-74954260D01*
X154601215Y-75036155D01*
X154650462Y-75109858D01*
X154700001Y-75159397D01*
X154700000Y-76585277D01*
X154698550Y-76600000D01*
X154700000Y-76614723D01*
X154700000Y-76614732D01*
X154704341Y-76658809D01*
X154721496Y-76715359D01*
X154734464Y-76739620D01*
X154749353Y-76767477D01*
X154755800Y-76775332D01*
X154786842Y-76813158D01*
X154798290Y-76822553D01*
X155700000Y-77724264D01*
X155700000Y-77751130D01*
X155694321Y-77750000D01*
X155605679Y-77750000D01*
X155518740Y-77767294D01*
X155436845Y-77801215D01*
X155363142Y-77850462D01*
X155300462Y-77913142D01*
X155251215Y-77986845D01*
X155217294Y-78068740D01*
X155200000Y-78155679D01*
X155200000Y-78175736D01*
X154108694Y-77084431D01*
X154108694Y-75476354D01*
X154158232Y-75426816D01*
X154207479Y-75353113D01*
X154241400Y-75271218D01*
X154258694Y-75184279D01*
X154258694Y-75095637D01*
X154241400Y-75008698D01*
X154207479Y-74926803D01*
X154158232Y-74853100D01*
X154095552Y-74790420D01*
X154021849Y-74741173D01*
X153939954Y-74707252D01*
X153853015Y-74689958D01*
X153764373Y-74689958D01*
X153677434Y-74707252D01*
X153595539Y-74741173D01*
X153521836Y-74790420D01*
X153459156Y-74853100D01*
X153409909Y-74926803D01*
X153375988Y-75008698D01*
X153358694Y-75095637D01*
X153358694Y-75184279D01*
X153375988Y-75271218D01*
X153409909Y-75353113D01*
X153459156Y-75426816D01*
X153508695Y-75476355D01*
X153508694Y-77193971D01*
X153507244Y-77208694D01*
X153508694Y-77223417D01*
X153508694Y-77223426D01*
X153513035Y-77267503D01*
X153530190Y-77324053D01*
X153530191Y-77324054D01*
X153558047Y-77376171D01*
X153575052Y-77396892D01*
X153595536Y-77421852D01*
X153606984Y-77431247D01*
X154800000Y-78624264D01*
X154800000Y-78694321D01*
X154817294Y-78781260D01*
X154851215Y-78863155D01*
X154900462Y-78936858D01*
X154963142Y-78999538D01*
X155036845Y-79048785D01*
X155118740Y-79082706D01*
X155175645Y-79094026D01*
X155096169Y-79173502D01*
X155092962Y-79173186D01*
X155074546Y-79175000D01*
X154898752Y-79175000D01*
X154863155Y-79151215D01*
X154781260Y-79117294D01*
X154694321Y-79100000D01*
X154605679Y-79100000D01*
X154518740Y-79117294D01*
X154504966Y-79122999D01*
X139570417Y-79122999D01*
X139552001Y-79121185D01*
X139533585Y-79122999D01*
X139533582Y-79122999D01*
X139478488Y-79128425D01*
X139407801Y-79149868D01*
X139387108Y-79160929D01*
X139342654Y-79184689D01*
X139309893Y-79211576D01*
X139285553Y-79231551D01*
X139273810Y-79245860D01*
X138961694Y-79557977D01*
X138914856Y-79567294D01*
X138832961Y-79601215D01*
X138759258Y-79650462D01*
X138696578Y-79713142D01*
X138647331Y-79786845D01*
X138613410Y-79868740D01*
X138596116Y-79955679D01*
X138596116Y-80044321D01*
X138613410Y-80131260D01*
X138647331Y-80213155D01*
X138696578Y-80286858D01*
X138759258Y-80349538D01*
X138832961Y-80398785D01*
X138914856Y-80432706D01*
X139001795Y-80450000D01*
X139090437Y-80450000D01*
X139177376Y-80432706D01*
X139259271Y-80398785D01*
X139332974Y-80349538D01*
X139395654Y-80286858D01*
X139444901Y-80213155D01*
X139478822Y-80131260D01*
X139486210Y-80094119D01*
X139707331Y-79872999D01*
X154336603Y-79872999D01*
X154363142Y-79899538D01*
X154436845Y-79948785D01*
X154518740Y-79982706D01*
X154605679Y-80000000D01*
X154694321Y-80000000D01*
X154781260Y-79982706D01*
X154863155Y-79948785D01*
X154898752Y-79925000D01*
X154925000Y-79925000D01*
X154925001Y-84751247D01*
X154901215Y-84786845D01*
X154875057Y-84849999D01*
X153493416Y-84849999D01*
X153475000Y-84848185D01*
X153456584Y-84849999D01*
X153456582Y-84849999D01*
X153401488Y-84855425D01*
X153330801Y-84876868D01*
X153330799Y-84876869D01*
X153265653Y-84911690D01*
X153258602Y-84917477D01*
X153208553Y-84958551D01*
X153196811Y-84972859D01*
X152686038Y-85483632D01*
X152528150Y-85418233D01*
X152310803Y-85375000D01*
X152089197Y-85375000D01*
X151871850Y-85418233D01*
X151667113Y-85503038D01*
X151482855Y-85626156D01*
X151326156Y-85782855D01*
X151203038Y-85967113D01*
X151118233Y-86171850D01*
X151075000Y-86389197D01*
X151075000Y-86610803D01*
X151118233Y-86828150D01*
X151203038Y-87032887D01*
X151326156Y-87217145D01*
X151482855Y-87373844D01*
X151667113Y-87496962D01*
X151871850Y-87581767D01*
X152089197Y-87625000D01*
X152310803Y-87625000D01*
X152528150Y-87581767D01*
X152732887Y-87496962D01*
X152917145Y-87373844D01*
X153073844Y-87217145D01*
X153196962Y-87032887D01*
X153281767Y-86828150D01*
X153325000Y-86610803D01*
X153325000Y-86389197D01*
X153281767Y-86171850D01*
X153216368Y-86013962D01*
X153324651Y-85905679D01*
X159450000Y-85905679D01*
X159450000Y-85994321D01*
X159467294Y-86081260D01*
X159501215Y-86163155D01*
X159550462Y-86236858D01*
X159613142Y-86299538D01*
X159686845Y-86348785D01*
X159768740Y-86382706D01*
X159855679Y-86400000D01*
X159944321Y-86400000D01*
X160031260Y-86382706D01*
X160113155Y-86348785D01*
X160186858Y-86299538D01*
X160249538Y-86236858D01*
X160298785Y-86163155D01*
X160332706Y-86081260D01*
X160350000Y-85994321D01*
X160350000Y-85905679D01*
X160332706Y-85818740D01*
X160298785Y-85736845D01*
X160249538Y-85663142D01*
X160186858Y-85600462D01*
X160113155Y-85551215D01*
X160031260Y-85517294D01*
X159944321Y-85500000D01*
X159855679Y-85500000D01*
X159768740Y-85517294D01*
X159686845Y-85551215D01*
X159613142Y-85600462D01*
X159550462Y-85663142D01*
X159501215Y-85736845D01*
X159467294Y-85818740D01*
X159450000Y-85905679D01*
X153324651Y-85905679D01*
X153630331Y-85599999D01*
X155056585Y-85599999D01*
X155075001Y-85601813D01*
X155093417Y-85599999D01*
X155093420Y-85599999D01*
X155148514Y-85594573D01*
X155219201Y-85573130D01*
X155284348Y-85538308D01*
X155341449Y-85491447D01*
X155353196Y-85477133D01*
X155389270Y-85441059D01*
X155431260Y-85432706D01*
X155513155Y-85398785D01*
X155586858Y-85349538D01*
X155649538Y-85286858D01*
X155698785Y-85213155D01*
X155732706Y-85131260D01*
X155750000Y-85044321D01*
X155750000Y-84955679D01*
X155732706Y-84868740D01*
X155698785Y-84786845D01*
X155675000Y-84751248D01*
X155675000Y-83485033D01*
X156979348Y-83485033D01*
X156979348Y-83573675D01*
X156996642Y-83660614D01*
X157030563Y-83742509D01*
X157079810Y-83816212D01*
X157142490Y-83878892D01*
X157216193Y-83928139D01*
X157298088Y-83962060D01*
X157385027Y-83979354D01*
X157387448Y-83979354D01*
X157387448Y-83981593D01*
X157404742Y-84068532D01*
X157438663Y-84150427D01*
X157487910Y-84224130D01*
X157550590Y-84286810D01*
X157624293Y-84336057D01*
X157706188Y-84369978D01*
X157793025Y-84387252D01*
X157793025Y-84392020D01*
X157810319Y-84478959D01*
X157844240Y-84560854D01*
X157893487Y-84634557D01*
X157956167Y-84697237D01*
X158029870Y-84746484D01*
X158111765Y-84780405D01*
X158198704Y-84797699D01*
X158260618Y-84797699D01*
X158267294Y-84831260D01*
X158301215Y-84913155D01*
X158350462Y-84986858D01*
X158413142Y-85049538D01*
X158486845Y-85098785D01*
X158568740Y-85132706D01*
X158655679Y-85150000D01*
X158744321Y-85150000D01*
X158831260Y-85132706D01*
X158913155Y-85098785D01*
X158986858Y-85049538D01*
X159049538Y-84986858D01*
X159080689Y-84940237D01*
X159138442Y-84940237D01*
X159138442Y-85028879D01*
X159155736Y-85115818D01*
X159189657Y-85197713D01*
X159238904Y-85271416D01*
X159301584Y-85334096D01*
X159375287Y-85383343D01*
X159457182Y-85417264D01*
X159544121Y-85434558D01*
X159632763Y-85434558D01*
X159719702Y-85417264D01*
X159801597Y-85383343D01*
X159875300Y-85334096D01*
X159937980Y-85271416D01*
X159987227Y-85197713D01*
X160021148Y-85115818D01*
X160023740Y-85102785D01*
X160331372Y-85102785D01*
X160331372Y-85191427D01*
X160348666Y-85278366D01*
X160382587Y-85360261D01*
X160431834Y-85433964D01*
X160494514Y-85496644D01*
X160568217Y-85545891D01*
X160650112Y-85579812D01*
X160737051Y-85597106D01*
X160825693Y-85597106D01*
X160912632Y-85579812D01*
X160925001Y-85574689D01*
X160925000Y-88185277D01*
X160923550Y-88200000D01*
X160925000Y-88214723D01*
X160925000Y-88214732D01*
X160929341Y-88258809D01*
X160946496Y-88315359D01*
X160959464Y-88339620D01*
X160974353Y-88367477D01*
X160986523Y-88382306D01*
X161011842Y-88413158D01*
X161023290Y-88422553D01*
X161223912Y-88623175D01*
X161223912Y-90150000D01*
X161228256Y-90194108D01*
X161241122Y-90236520D01*
X161262015Y-90275608D01*
X161290132Y-90309868D01*
X161324392Y-90337985D01*
X161363480Y-90358878D01*
X161405892Y-90371744D01*
X161450000Y-90376088D01*
X163150000Y-90376088D01*
X163194108Y-90371744D01*
X163236520Y-90358878D01*
X163275608Y-90337985D01*
X163309868Y-90309868D01*
X163337985Y-90275608D01*
X163358878Y-90236520D01*
X163371744Y-90194108D01*
X163376088Y-90150000D01*
X163376088Y-88450000D01*
X163371744Y-88405892D01*
X163358878Y-88363480D01*
X163337985Y-88324392D01*
X163309868Y-88290132D01*
X163275608Y-88262015D01*
X163236520Y-88241122D01*
X163194108Y-88228256D01*
X163150000Y-88223912D01*
X161673175Y-88223912D01*
X161525000Y-88075737D01*
X161525000Y-86805679D01*
X161900000Y-86805679D01*
X161900000Y-86894321D01*
X161917294Y-86981260D01*
X161951215Y-87063155D01*
X162000462Y-87136858D01*
X162063142Y-87199538D01*
X162136845Y-87248785D01*
X162218740Y-87282706D01*
X162305679Y-87300000D01*
X162394321Y-87300000D01*
X162481260Y-87282706D01*
X162563155Y-87248785D01*
X162636858Y-87199538D01*
X162699538Y-87136858D01*
X162748785Y-87063155D01*
X162782706Y-86981260D01*
X162800000Y-86894321D01*
X162800000Y-86805679D01*
X162782706Y-86718740D01*
X162748785Y-86636845D01*
X162699538Y-86563142D01*
X162636858Y-86500462D01*
X162563155Y-86451215D01*
X162481260Y-86417294D01*
X162394321Y-86400000D01*
X162305679Y-86400000D01*
X162218740Y-86417294D01*
X162136845Y-86451215D01*
X162063142Y-86500462D01*
X162000462Y-86563142D01*
X161951215Y-86636845D01*
X161917294Y-86718740D01*
X161900000Y-86805679D01*
X161525000Y-86805679D01*
X161525000Y-85061396D01*
X161549538Y-85036858D01*
X161598785Y-84963155D01*
X161632706Y-84881260D01*
X161650000Y-84794321D01*
X161650000Y-84790014D01*
X161661339Y-84790014D01*
X161748278Y-84772720D01*
X161830173Y-84738799D01*
X161903876Y-84689552D01*
X161943428Y-84650000D01*
X173463863Y-84650000D01*
X173468400Y-84696068D01*
X173481838Y-84740366D01*
X173503659Y-84781191D01*
X173533026Y-84816974D01*
X173568809Y-84846341D01*
X173609634Y-84868162D01*
X173653932Y-84881600D01*
X173700000Y-84886137D01*
X174316250Y-84885000D01*
X174375000Y-84826250D01*
X174375000Y-83975000D01*
X174725000Y-83975000D01*
X174725000Y-84826250D01*
X174783750Y-84885000D01*
X175400000Y-84886137D01*
X175446068Y-84881600D01*
X175490366Y-84868162D01*
X175531191Y-84846341D01*
X175566974Y-84816974D01*
X175596341Y-84781191D01*
X175618162Y-84740366D01*
X175631600Y-84696068D01*
X175636137Y-84650000D01*
X175635000Y-84033750D01*
X175576250Y-83975000D01*
X174725000Y-83975000D01*
X174375000Y-83975000D01*
X173523750Y-83975000D01*
X173465000Y-84033750D01*
X173463863Y-84650000D01*
X161943428Y-84650000D01*
X161966556Y-84626872D01*
X162015803Y-84553169D01*
X162049724Y-84471274D01*
X162062522Y-84406936D01*
X162092827Y-84406936D01*
X162179766Y-84389642D01*
X162261661Y-84355721D01*
X162335364Y-84306474D01*
X162398044Y-84243794D01*
X162447291Y-84170091D01*
X162481212Y-84088196D01*
X162498506Y-84001257D01*
X162498506Y-83912615D01*
X162481212Y-83825676D01*
X162447291Y-83743781D01*
X162398044Y-83670078D01*
X162335364Y-83607398D01*
X162261661Y-83558151D01*
X162179766Y-83524230D01*
X162092827Y-83506936D01*
X162004185Y-83506936D01*
X161917246Y-83524230D01*
X161835351Y-83558151D01*
X161761648Y-83607398D01*
X161698968Y-83670078D01*
X161649721Y-83743781D01*
X161615800Y-83825676D01*
X161603002Y-83890014D01*
X161572697Y-83890014D01*
X161485758Y-83907308D01*
X161403863Y-83941229D01*
X161330160Y-83990476D01*
X161267480Y-84053156D01*
X161218233Y-84126859D01*
X161184312Y-84208754D01*
X161167018Y-84295693D01*
X161167018Y-84300000D01*
X161155679Y-84300000D01*
X161068740Y-84317294D01*
X160986845Y-84351215D01*
X160913142Y-84400462D01*
X160850462Y-84463142D01*
X160801215Y-84536845D01*
X160767294Y-84618740D01*
X160751705Y-84697106D01*
X160737051Y-84697106D01*
X160650112Y-84714400D01*
X160568217Y-84748321D01*
X160494514Y-84797568D01*
X160431834Y-84860248D01*
X160382587Y-84933951D01*
X160348666Y-85015846D01*
X160331372Y-85102785D01*
X160023740Y-85102785D01*
X160038442Y-85028879D01*
X160038442Y-84940237D01*
X160021148Y-84853298D01*
X159987227Y-84771403D01*
X159937980Y-84697700D01*
X159875300Y-84635020D01*
X159801597Y-84585773D01*
X159719702Y-84551852D01*
X159632763Y-84534558D01*
X159544121Y-84534558D01*
X159457182Y-84551852D01*
X159375287Y-84585773D01*
X159301584Y-84635020D01*
X159238904Y-84697700D01*
X159189657Y-84771403D01*
X159155736Y-84853298D01*
X159138442Y-84940237D01*
X159080689Y-84940237D01*
X159098785Y-84913155D01*
X159132706Y-84831260D01*
X159150000Y-84744321D01*
X159150000Y-84655679D01*
X159132706Y-84568740D01*
X159098785Y-84486845D01*
X159049538Y-84413142D01*
X159000000Y-84363604D01*
X159000000Y-84187434D01*
X159001450Y-84172711D01*
X159000000Y-84157988D01*
X159000000Y-84157979D01*
X158995659Y-84113902D01*
X158978504Y-84057352D01*
X158955054Y-84013480D01*
X158950647Y-84005234D01*
X158922549Y-83970997D01*
X158913158Y-83959554D01*
X158901715Y-83950163D01*
X158249841Y-83298290D01*
X158240446Y-83286842D01*
X158194765Y-83249353D01*
X158159829Y-83230679D01*
X162225000Y-83230679D01*
X162225000Y-83319321D01*
X162242294Y-83406260D01*
X162276215Y-83488155D01*
X162325462Y-83561858D01*
X162388142Y-83624538D01*
X162461845Y-83673785D01*
X162543740Y-83707706D01*
X162630679Y-83725000D01*
X162719321Y-83725000D01*
X162806260Y-83707706D01*
X162888155Y-83673785D01*
X162961858Y-83624538D01*
X163024538Y-83561858D01*
X163073785Y-83488155D01*
X163107706Y-83406260D01*
X163119456Y-83347192D01*
X163157452Y-83347192D01*
X163244391Y-83329898D01*
X163326286Y-83295977D01*
X163399989Y-83246730D01*
X163462669Y-83184050D01*
X163511916Y-83110347D01*
X163545837Y-83028452D01*
X163561442Y-82950000D01*
X173463863Y-82950000D01*
X173465000Y-83566250D01*
X173523750Y-83625000D01*
X174375000Y-83625000D01*
X174375000Y-82773750D01*
X174725000Y-82773750D01*
X174725000Y-83625000D01*
X175576250Y-83625000D01*
X175635000Y-83566250D01*
X175636137Y-82950000D01*
X175631600Y-82903932D01*
X175618162Y-82859634D01*
X175596341Y-82818809D01*
X175566974Y-82783026D01*
X175531191Y-82753659D01*
X175490366Y-82731838D01*
X175446068Y-82718400D01*
X175400000Y-82713863D01*
X174783750Y-82715000D01*
X174725000Y-82773750D01*
X174375000Y-82773750D01*
X174316250Y-82715000D01*
X173700000Y-82713863D01*
X173653932Y-82718400D01*
X173609634Y-82731838D01*
X173568809Y-82753659D01*
X173533026Y-82783026D01*
X173503659Y-82818809D01*
X173481838Y-82859634D01*
X173468400Y-82903932D01*
X173463863Y-82950000D01*
X163561442Y-82950000D01*
X163563131Y-82941513D01*
X163563131Y-82852871D01*
X163545837Y-82765932D01*
X163511916Y-82684037D01*
X163462669Y-82610334D01*
X163399989Y-82547654D01*
X163326286Y-82498407D01*
X163244391Y-82464486D01*
X163157452Y-82447192D01*
X163068810Y-82447192D01*
X162981871Y-82464486D01*
X162899976Y-82498407D01*
X162826273Y-82547654D01*
X162763593Y-82610334D01*
X162714346Y-82684037D01*
X162680425Y-82765932D01*
X162668675Y-82825000D01*
X162630679Y-82825000D01*
X162543740Y-82842294D01*
X162461845Y-82876215D01*
X162388142Y-82925462D01*
X162325462Y-82988142D01*
X162276215Y-83061845D01*
X162242294Y-83143740D01*
X162225000Y-83230679D01*
X158159829Y-83230679D01*
X158142648Y-83221496D01*
X158086098Y-83204341D01*
X158042021Y-83200000D01*
X158042011Y-83200000D01*
X158027288Y-83198550D01*
X158012565Y-83200000D01*
X157736390Y-83200000D01*
X157716206Y-83179816D01*
X157642503Y-83130569D01*
X157560608Y-83096648D01*
X157473669Y-83079354D01*
X157385027Y-83079354D01*
X157298088Y-83096648D01*
X157216193Y-83130569D01*
X157142490Y-83179816D01*
X157079810Y-83242496D01*
X157030563Y-83316199D01*
X156996642Y-83398094D01*
X156979348Y-83485033D01*
X155675000Y-83485033D01*
X155675000Y-81702118D01*
X163703561Y-81702118D01*
X163703561Y-81790760D01*
X163720855Y-81877699D01*
X163754776Y-81959594D01*
X163804023Y-82033297D01*
X163866703Y-82095977D01*
X163940406Y-82145224D01*
X164022301Y-82179145D01*
X164109240Y-82196439D01*
X164197882Y-82196439D01*
X164284821Y-82179145D01*
X164366716Y-82145224D01*
X164440419Y-82095977D01*
X164503099Y-82033297D01*
X164552346Y-81959594D01*
X164586267Y-81877699D01*
X164603561Y-81790760D01*
X164603561Y-81702118D01*
X164586267Y-81615179D01*
X164561623Y-81555679D01*
X169850000Y-81555679D01*
X169850000Y-81644321D01*
X169867294Y-81731260D01*
X169901215Y-81813155D01*
X169950462Y-81886858D01*
X170013142Y-81949538D01*
X170086845Y-81998785D01*
X170168740Y-82032706D01*
X170255679Y-82050000D01*
X170344321Y-82050000D01*
X170431260Y-82032706D01*
X170513155Y-81998785D01*
X170586858Y-81949538D01*
X170649538Y-81886858D01*
X170698785Y-81813155D01*
X170732706Y-81731260D01*
X170750000Y-81644321D01*
X170750000Y-81555679D01*
X170732706Y-81468740D01*
X170698785Y-81386845D01*
X170649538Y-81313142D01*
X170586858Y-81250462D01*
X170513155Y-81201215D01*
X170431260Y-81167294D01*
X170365043Y-81154122D01*
X173475000Y-81154122D01*
X173475000Y-81365878D01*
X173516312Y-81573566D01*
X173597348Y-81769203D01*
X173714993Y-81945272D01*
X173864728Y-82095007D01*
X174040797Y-82212652D01*
X174236434Y-82293688D01*
X174444122Y-82335000D01*
X174655878Y-82335000D01*
X174863566Y-82293688D01*
X175059203Y-82212652D01*
X175235272Y-82095007D01*
X175385007Y-81945272D01*
X175502652Y-81769203D01*
X175583688Y-81573566D01*
X175625000Y-81365878D01*
X175625000Y-81154122D01*
X175583688Y-80946434D01*
X175502652Y-80750797D01*
X175385007Y-80574728D01*
X175235272Y-80424993D01*
X175059203Y-80307348D01*
X174863566Y-80226312D01*
X174655878Y-80185000D01*
X174444122Y-80185000D01*
X174236434Y-80226312D01*
X174040797Y-80307348D01*
X173864728Y-80424993D01*
X173714993Y-80574728D01*
X173597348Y-80750797D01*
X173516312Y-80946434D01*
X173475000Y-81154122D01*
X170365043Y-81154122D01*
X170344321Y-81150000D01*
X170255679Y-81150000D01*
X170168740Y-81167294D01*
X170086845Y-81201215D01*
X170013142Y-81250462D01*
X169950462Y-81313142D01*
X169901215Y-81386845D01*
X169867294Y-81468740D01*
X169850000Y-81555679D01*
X164561623Y-81555679D01*
X164552346Y-81533284D01*
X164503099Y-81459581D01*
X164440419Y-81396901D01*
X164366716Y-81347654D01*
X164284821Y-81313733D01*
X164197882Y-81296439D01*
X164109240Y-81296439D01*
X164022301Y-81313733D01*
X163940406Y-81347654D01*
X163866703Y-81396901D01*
X163804023Y-81459581D01*
X163754776Y-81533284D01*
X163720855Y-81615179D01*
X163703561Y-81702118D01*
X155675000Y-81702118D01*
X155675000Y-79775454D01*
X155676814Y-79757038D01*
X155675000Y-79738619D01*
X155669574Y-79683525D01*
X155664274Y-79666055D01*
X157074650Y-78255679D01*
X163900000Y-78255679D01*
X163900000Y-78344321D01*
X163917294Y-78431260D01*
X163951215Y-78513155D01*
X164000462Y-78586858D01*
X164063142Y-78649538D01*
X164136845Y-78698785D01*
X164218740Y-78732706D01*
X164305679Y-78750000D01*
X164394321Y-78750000D01*
X164481260Y-78732706D01*
X164563155Y-78698785D01*
X164636858Y-78649538D01*
X164699538Y-78586858D01*
X164748785Y-78513155D01*
X164782706Y-78431260D01*
X164800000Y-78344321D01*
X164800000Y-78255679D01*
X164782706Y-78168740D01*
X164748785Y-78086845D01*
X164699538Y-78013142D01*
X164636858Y-77950462D01*
X164563155Y-77901215D01*
X164481260Y-77867294D01*
X164394321Y-77850000D01*
X164305679Y-77850000D01*
X164218740Y-77867294D01*
X164136845Y-77901215D01*
X164063142Y-77950462D01*
X164000462Y-78013142D01*
X163951215Y-78086845D01*
X163917294Y-78168740D01*
X163900000Y-78255679D01*
X157074650Y-78255679D01*
X158052138Y-77278192D01*
X158066447Y-77266449D01*
X158113308Y-77209348D01*
X158115269Y-77205679D01*
X162749996Y-77205679D01*
X162749996Y-77294321D01*
X162767290Y-77381260D01*
X162801211Y-77463155D01*
X162850458Y-77536858D01*
X162913138Y-77599538D01*
X162986841Y-77648785D01*
X163068736Y-77682706D01*
X163155675Y-77700000D01*
X163244317Y-77700000D01*
X163331256Y-77682706D01*
X163413151Y-77648785D01*
X163486854Y-77599538D01*
X163549534Y-77536858D01*
X163598781Y-77463155D01*
X163632702Y-77381260D01*
X163649996Y-77294321D01*
X163649996Y-77205679D01*
X163632702Y-77118740D01*
X163598781Y-77036845D01*
X163549534Y-76963142D01*
X163486854Y-76900462D01*
X163413151Y-76851215D01*
X163331256Y-76817294D01*
X163244317Y-76800000D01*
X163155675Y-76800000D01*
X163068736Y-76817294D01*
X162986841Y-76851215D01*
X162913138Y-76900462D01*
X162850458Y-76963142D01*
X162801211Y-77036845D01*
X162767290Y-77118740D01*
X162749996Y-77205679D01*
X158115269Y-77205679D01*
X158148130Y-77144201D01*
X158169573Y-77073514D01*
X158174999Y-77018420D01*
X158174999Y-77018418D01*
X158176813Y-77000002D01*
X158174999Y-76981586D01*
X158174999Y-75526116D01*
X158193896Y-75538743D01*
X158275791Y-75572664D01*
X158362730Y-75589958D01*
X158451372Y-75589958D01*
X158538311Y-75572664D01*
X158620206Y-75538743D01*
X158693909Y-75489496D01*
X158756589Y-75426816D01*
X158805836Y-75353113D01*
X158839757Y-75271218D01*
X158857051Y-75184279D01*
X158857051Y-75095637D01*
X158839757Y-75008698D01*
X158809666Y-74936049D01*
X158862057Y-74971056D01*
X158943952Y-75004977D01*
X159030891Y-75022271D01*
X159119533Y-75022271D01*
X159206472Y-75004977D01*
X159257830Y-74983704D01*
X159267290Y-75031260D01*
X159301211Y-75113155D01*
X159350458Y-75186858D01*
X159413138Y-75249538D01*
X159486841Y-75298785D01*
X159568736Y-75332706D01*
X159655675Y-75350000D01*
X159744317Y-75350000D01*
X159831256Y-75332706D01*
X159913151Y-75298785D01*
X159986854Y-75249538D01*
X160049534Y-75186858D01*
X160098781Y-75113155D01*
X160132702Y-75031260D01*
X160149996Y-74944321D01*
X160149996Y-74879157D01*
X160174955Y-74939415D01*
X160224202Y-75013118D01*
X160286882Y-75075798D01*
X160360585Y-75125045D01*
X160442480Y-75158966D01*
X160529419Y-75176260D01*
X160618061Y-75176260D01*
X160705000Y-75158966D01*
X160786895Y-75125045D01*
X160822492Y-75101260D01*
X161094482Y-75101260D01*
X161087477Y-75108265D01*
X161038230Y-75181968D01*
X161004309Y-75263863D01*
X160987015Y-75350802D01*
X160987015Y-75439444D01*
X161004309Y-75526383D01*
X161038230Y-75608278D01*
X161087477Y-75681981D01*
X161150157Y-75744661D01*
X161223860Y-75793908D01*
X161305755Y-75827829D01*
X161392694Y-75845123D01*
X161427170Y-75845123D01*
X161444304Y-75931260D01*
X161478225Y-76013155D01*
X161527472Y-76086858D01*
X161590152Y-76149538D01*
X161663855Y-76198785D01*
X161745750Y-76232706D01*
X161832689Y-76250000D01*
X161860708Y-76250000D01*
X161853990Y-76283774D01*
X161853990Y-76372416D01*
X161871284Y-76459355D01*
X161905205Y-76541250D01*
X161954452Y-76614953D01*
X162017132Y-76677633D01*
X162090835Y-76726880D01*
X162172730Y-76760801D01*
X162259669Y-76778095D01*
X162348311Y-76778095D01*
X162435250Y-76760801D01*
X162517145Y-76726880D01*
X162590848Y-76677633D01*
X162653528Y-76614953D01*
X162702775Y-76541250D01*
X162736696Y-76459355D01*
X162753990Y-76372416D01*
X162753990Y-76283774D01*
X162736696Y-76196835D01*
X162702775Y-76114940D01*
X162653528Y-76041237D01*
X162590848Y-75978557D01*
X162517145Y-75929310D01*
X162435250Y-75895389D01*
X162348311Y-75878095D01*
X162320292Y-75878095D01*
X162327010Y-75844321D01*
X162327010Y-75755679D01*
X162309716Y-75668740D01*
X162275795Y-75586845D01*
X162226548Y-75513142D01*
X162163868Y-75450462D01*
X162090165Y-75401215D01*
X162008270Y-75367294D01*
X161921331Y-75350000D01*
X161886855Y-75350000D01*
X161869721Y-75263863D01*
X161835800Y-75181968D01*
X161786553Y-75108265D01*
X161779548Y-75101260D01*
X162817763Y-75101260D01*
X165175000Y-77458499D01*
X165175001Y-80210984D01*
X165173592Y-80213093D01*
X165139671Y-80294988D01*
X165122377Y-80381927D01*
X165122377Y-80470569D01*
X165139671Y-80557508D01*
X165173592Y-80639403D01*
X165176242Y-80643368D01*
X165113155Y-80601215D01*
X165031260Y-80567294D01*
X164944321Y-80550000D01*
X164855679Y-80550000D01*
X164768740Y-80567294D01*
X164686845Y-80601215D01*
X164613142Y-80650462D01*
X164550462Y-80713142D01*
X164501215Y-80786845D01*
X164467294Y-80868740D01*
X164450000Y-80955679D01*
X164450000Y-81044321D01*
X164467294Y-81131260D01*
X164501215Y-81213155D01*
X164550462Y-81286858D01*
X164613142Y-81349538D01*
X164686845Y-81398785D01*
X164768740Y-81432706D01*
X164855679Y-81450000D01*
X164944321Y-81450000D01*
X165031260Y-81432706D01*
X165113155Y-81398785D01*
X165186858Y-81349538D01*
X165249538Y-81286858D01*
X165298785Y-81213155D01*
X165332706Y-81131260D01*
X165350000Y-81044321D01*
X165350000Y-80955679D01*
X165332706Y-80868740D01*
X165298785Y-80786845D01*
X165296135Y-80782880D01*
X165359222Y-80825033D01*
X165441117Y-80858954D01*
X165528056Y-80876248D01*
X165616698Y-80876248D01*
X165703637Y-80858954D01*
X165785532Y-80825033D01*
X165859235Y-80775786D01*
X165921915Y-80713106D01*
X165971162Y-80639403D01*
X166005083Y-80557508D01*
X166022377Y-80470569D01*
X166022377Y-80381927D01*
X166005083Y-80294988D01*
X165971162Y-80213093D01*
X165925000Y-80144007D01*
X165925000Y-78805679D01*
X167050000Y-78805679D01*
X167050000Y-78894321D01*
X167067294Y-78981260D01*
X167101215Y-79063155D01*
X167150462Y-79136858D01*
X167213142Y-79199538D01*
X167286845Y-79248785D01*
X167368740Y-79282706D01*
X167455679Y-79300000D01*
X167544321Y-79300000D01*
X167631260Y-79282706D01*
X167713155Y-79248785D01*
X167786858Y-79199538D01*
X167849538Y-79136858D01*
X167898785Y-79063155D01*
X167932706Y-78981260D01*
X167950000Y-78894321D01*
X167950000Y-78805679D01*
X167932706Y-78718740D01*
X167898785Y-78636845D01*
X167849538Y-78563142D01*
X167786858Y-78500462D01*
X167713155Y-78451215D01*
X167631260Y-78417294D01*
X167544321Y-78400000D01*
X167455679Y-78400000D01*
X167368740Y-78417294D01*
X167286845Y-78451215D01*
X167213142Y-78500462D01*
X167150462Y-78563142D01*
X167101215Y-78636845D01*
X167067294Y-78718740D01*
X167050000Y-78805679D01*
X165925000Y-78805679D01*
X165925000Y-77321583D01*
X165926814Y-77303167D01*
X165923667Y-77271213D01*
X165919574Y-77229655D01*
X165898131Y-77158968D01*
X165893276Y-77149884D01*
X165863309Y-77093821D01*
X165828189Y-77051026D01*
X165828186Y-77051023D01*
X165816448Y-77036720D01*
X165802146Y-77024983D01*
X163251287Y-74474126D01*
X163239540Y-74459812D01*
X163182439Y-74412951D01*
X163117292Y-74378129D01*
X163046605Y-74356686D01*
X162991511Y-74351260D01*
X162991508Y-74351260D01*
X162973092Y-74349446D01*
X162954676Y-74351260D01*
X160822492Y-74351260D01*
X160786895Y-74327475D01*
X160705000Y-74293554D01*
X160663012Y-74285202D01*
X160027676Y-73649867D01*
X160015929Y-73635553D01*
X159958828Y-73588692D01*
X159893681Y-73553870D01*
X159822994Y-73532427D01*
X159767900Y-73527001D01*
X159767897Y-73527001D01*
X159749481Y-73525187D01*
X159731065Y-73527001D01*
X159257331Y-73527001D01*
X158878195Y-73147866D01*
X158866448Y-73133552D01*
X158809347Y-73086691D01*
X158744200Y-73051869D01*
X158673513Y-73030426D01*
X158618419Y-73025000D01*
X158618416Y-73025000D01*
X158600000Y-73023186D01*
X158581584Y-73025000D01*
X157876402Y-73025000D01*
X157876814Y-73020820D01*
X157872710Y-72979152D01*
X157869574Y-72947307D01*
X157848131Y-72876620D01*
X157813309Y-72811473D01*
X157766448Y-72754372D01*
X157752140Y-72742630D01*
X157215189Y-72205679D01*
X164673000Y-72205679D01*
X164673000Y-72294321D01*
X164690294Y-72381260D01*
X164724215Y-72463155D01*
X164773462Y-72536858D01*
X164836142Y-72599538D01*
X164909845Y-72648785D01*
X164991740Y-72682706D01*
X165078679Y-72700000D01*
X165167321Y-72700000D01*
X165254260Y-72682706D01*
X165336155Y-72648785D01*
X165409858Y-72599538D01*
X165472538Y-72536858D01*
X165521785Y-72463155D01*
X165555706Y-72381260D01*
X165573000Y-72294321D01*
X165573000Y-72205679D01*
X165555706Y-72118740D01*
X165521785Y-72036845D01*
X165472538Y-71963142D01*
X165409858Y-71900462D01*
X165336155Y-71851215D01*
X165254260Y-71817294D01*
X165167321Y-71800000D01*
X165078679Y-71800000D01*
X164991740Y-71817294D01*
X164909845Y-71851215D01*
X164836142Y-71900462D01*
X164773462Y-71963142D01*
X164724215Y-72036845D01*
X164690294Y-72118740D01*
X164673000Y-72205679D01*
X157215189Y-72205679D01*
X156261511Y-71252001D01*
X157433400Y-71252001D01*
X157468997Y-71255507D01*
X157504594Y-71252001D01*
X157504604Y-71252001D01*
X157611122Y-71241510D01*
X157747785Y-71200054D01*
X157873734Y-71132732D01*
X157984129Y-71042133D01*
X158006829Y-71014473D01*
X158023303Y-70997999D01*
X162041404Y-70997999D01*
X162077001Y-71001505D01*
X162112598Y-70997999D01*
X162112608Y-70997999D01*
X162219126Y-70987508D01*
X162355789Y-70946052D01*
X162481738Y-70878730D01*
X162592133Y-70788131D01*
X162614833Y-70760471D01*
X162876974Y-70498330D01*
X162999698Y-70432732D01*
X163009119Y-70425000D01*
X165294208Y-70425000D01*
X166110591Y-71241383D01*
X166086845Y-71251219D01*
X166013142Y-71300466D01*
X165950462Y-71363146D01*
X165901215Y-71436849D01*
X165867294Y-71518744D01*
X165850000Y-71605683D01*
X165850000Y-71694325D01*
X165867294Y-71781264D01*
X165901215Y-71863159D01*
X165950462Y-71936862D01*
X166013142Y-71999542D01*
X166086845Y-72048789D01*
X166168740Y-72082710D01*
X166255679Y-72100004D01*
X166344321Y-72100004D01*
X166427002Y-72083557D01*
X166427001Y-74278669D01*
X166424703Y-74302001D01*
X166429274Y-74348414D01*
X166433874Y-74395116D01*
X166461035Y-74484654D01*
X166505142Y-74567174D01*
X166564500Y-74639502D01*
X166582635Y-74654385D01*
X168895620Y-76967371D01*
X168910498Y-76985500D01*
X168982826Y-77044858D01*
X169065345Y-77088965D01*
X169127721Y-77107887D01*
X169154882Y-77116126D01*
X169247998Y-77125297D01*
X169271330Y-77122999D01*
X174097211Y-77122999D01*
X174576584Y-77602373D01*
X174576589Y-77602377D01*
X174619212Y-77645000D01*
X174444122Y-77645000D01*
X174236434Y-77686312D01*
X174040797Y-77767348D01*
X173864728Y-77884993D01*
X173714993Y-78034728D01*
X173597348Y-78210797D01*
X173516312Y-78406434D01*
X173475000Y-78614122D01*
X173475000Y-78825878D01*
X173516312Y-79033566D01*
X173597348Y-79229203D01*
X173714993Y-79405272D01*
X173864728Y-79555007D01*
X174040797Y-79672652D01*
X174236434Y-79753688D01*
X174444122Y-79795000D01*
X174655878Y-79795000D01*
X174863566Y-79753688D01*
X175059203Y-79672652D01*
X175235272Y-79555007D01*
X175385007Y-79405272D01*
X175502652Y-79229203D01*
X175583688Y-79033566D01*
X175625000Y-78825878D01*
X175625000Y-78650789D01*
X177225158Y-80250948D01*
X177225157Y-84173017D01*
X177195333Y-84245020D01*
X177175157Y-84346449D01*
X177175157Y-84449865D01*
X177195333Y-84551294D01*
X177234908Y-84646838D01*
X177292363Y-84732825D01*
X177365489Y-84805951D01*
X177451476Y-84863406D01*
X177547020Y-84902981D01*
X177648449Y-84923157D01*
X177751865Y-84923157D01*
X177853294Y-84902981D01*
X177948838Y-84863406D01*
X178034825Y-84805951D01*
X178107951Y-84732825D01*
X178165406Y-84646838D01*
X178204981Y-84551294D01*
X178225157Y-84449865D01*
X178225157Y-84346449D01*
X178204981Y-84245020D01*
X178175157Y-84173017D01*
X178175157Y-80077527D01*
X178177455Y-80054195D01*
X178168284Y-79961079D01*
X178141123Y-79871541D01*
X178097016Y-79789022D01*
X178076848Y-79764447D01*
X178037658Y-79716694D01*
X178019534Y-79701820D01*
X175248339Y-76930627D01*
X175248335Y-76930622D01*
X174646345Y-76328633D01*
X174631462Y-76310498D01*
X174559134Y-76251140D01*
X174476615Y-76207033D01*
X174387077Y-76179872D01*
X174317293Y-76172999D01*
X174293961Y-76170701D01*
X174270629Y-76172999D01*
X169444750Y-76172999D01*
X169377430Y-76105679D01*
X189400000Y-76105679D01*
X189400000Y-76194321D01*
X189417294Y-76281260D01*
X189451215Y-76363155D01*
X189500462Y-76436858D01*
X189563142Y-76499538D01*
X189636845Y-76548785D01*
X189718740Y-76582706D01*
X189805679Y-76600000D01*
X189894321Y-76600000D01*
X189981260Y-76582706D01*
X190063155Y-76548785D01*
X190136858Y-76499538D01*
X190199538Y-76436858D01*
X190248785Y-76363155D01*
X190282706Y-76281260D01*
X190300000Y-76194321D01*
X190300000Y-76105679D01*
X190850000Y-76105679D01*
X190850000Y-76194321D01*
X190867294Y-76281260D01*
X190901215Y-76363155D01*
X190950462Y-76436858D01*
X191013142Y-76499538D01*
X191086845Y-76548785D01*
X191168740Y-76582706D01*
X191255679Y-76600000D01*
X191344321Y-76600000D01*
X191431260Y-76582706D01*
X191513155Y-76548785D01*
X191586858Y-76499538D01*
X191649538Y-76436858D01*
X191698785Y-76363155D01*
X191732706Y-76281260D01*
X191750000Y-76194321D01*
X191750000Y-76105679D01*
X191732706Y-76018740D01*
X191698785Y-75936845D01*
X191649538Y-75863142D01*
X191586858Y-75800462D01*
X191513155Y-75751215D01*
X191431260Y-75717294D01*
X191344321Y-75700000D01*
X191255679Y-75700000D01*
X191168740Y-75717294D01*
X191086845Y-75751215D01*
X191013142Y-75800462D01*
X190950462Y-75863142D01*
X190901215Y-75936845D01*
X190867294Y-76018740D01*
X190850000Y-76105679D01*
X190300000Y-76105679D01*
X190282706Y-76018740D01*
X190248785Y-75936845D01*
X190199538Y-75863142D01*
X190136858Y-75800462D01*
X190063155Y-75751215D01*
X189981260Y-75717294D01*
X189894321Y-75700000D01*
X189805679Y-75700000D01*
X189718740Y-75717294D01*
X189636845Y-75751215D01*
X189563142Y-75800462D01*
X189500462Y-75863142D01*
X189451215Y-75936845D01*
X189417294Y-76018740D01*
X189400000Y-76105679D01*
X169377430Y-76105679D01*
X168110194Y-74838443D01*
X171125000Y-74838443D01*
X171125000Y-74961557D01*
X171149019Y-75082306D01*
X171196132Y-75196048D01*
X171264531Y-75298414D01*
X171351586Y-75385469D01*
X171453952Y-75453868D01*
X171567694Y-75500981D01*
X171688443Y-75525000D01*
X171811557Y-75525000D01*
X171932306Y-75500981D01*
X172046048Y-75453868D01*
X172148414Y-75385469D01*
X172235469Y-75298414D01*
X172303868Y-75196048D01*
X172350981Y-75082306D01*
X172375000Y-74961557D01*
X172375000Y-74838443D01*
X172625000Y-74838443D01*
X172625000Y-74961557D01*
X172649019Y-75082306D01*
X172696132Y-75196048D01*
X172764531Y-75298414D01*
X172851586Y-75385469D01*
X172953952Y-75453868D01*
X173067694Y-75500981D01*
X173188443Y-75525000D01*
X173311557Y-75525000D01*
X173432306Y-75500981D01*
X173546048Y-75453868D01*
X173648414Y-75385469D01*
X173735469Y-75298414D01*
X173803868Y-75196048D01*
X173850981Y-75082306D01*
X173875000Y-74961557D01*
X173875000Y-74838443D01*
X174175000Y-74838443D01*
X174175000Y-74961557D01*
X174199019Y-75082306D01*
X174246132Y-75196048D01*
X174314531Y-75298414D01*
X174401586Y-75385469D01*
X174503952Y-75453868D01*
X174617694Y-75500981D01*
X174738443Y-75525000D01*
X174861557Y-75525000D01*
X174982306Y-75500981D01*
X175096048Y-75453868D01*
X175198414Y-75385469D01*
X175285469Y-75298414D01*
X175353868Y-75196048D01*
X175400981Y-75082306D01*
X175425000Y-74961557D01*
X175425000Y-74838443D01*
X175400981Y-74717694D01*
X175353868Y-74603952D01*
X175285469Y-74501586D01*
X175198414Y-74414531D01*
X175096048Y-74346132D01*
X174982306Y-74299019D01*
X174861557Y-74275000D01*
X174738443Y-74275000D01*
X174617694Y-74299019D01*
X174503952Y-74346132D01*
X174401586Y-74414531D01*
X174314531Y-74501586D01*
X174246132Y-74603952D01*
X174199019Y-74717694D01*
X174175000Y-74838443D01*
X173875000Y-74838443D01*
X173850981Y-74717694D01*
X173803868Y-74603952D01*
X173735469Y-74501586D01*
X173648414Y-74414531D01*
X173546048Y-74346132D01*
X173432306Y-74299019D01*
X173311557Y-74275000D01*
X173188443Y-74275000D01*
X173067694Y-74299019D01*
X172953952Y-74346132D01*
X172851586Y-74414531D01*
X172764531Y-74501586D01*
X172696132Y-74603952D01*
X172649019Y-74717694D01*
X172625000Y-74838443D01*
X172375000Y-74838443D01*
X172350981Y-74717694D01*
X172303868Y-74603952D01*
X172235469Y-74501586D01*
X172148414Y-74414531D01*
X172046048Y-74346132D01*
X171932306Y-74299019D01*
X171811557Y-74275000D01*
X171688443Y-74275000D01*
X171567694Y-74299019D01*
X171453952Y-74346132D01*
X171351586Y-74414531D01*
X171264531Y-74501586D01*
X171196132Y-74603952D01*
X171149019Y-74717694D01*
X171125000Y-74838443D01*
X168110194Y-74838443D01*
X167377001Y-74105251D01*
X167377001Y-73888443D01*
X170225000Y-73888443D01*
X170225000Y-74011557D01*
X170249019Y-74132306D01*
X170296132Y-74246048D01*
X170364531Y-74348414D01*
X170451586Y-74435469D01*
X170553952Y-74503868D01*
X170667694Y-74550981D01*
X170788443Y-74575000D01*
X170911557Y-74575000D01*
X171032306Y-74550981D01*
X171146048Y-74503868D01*
X171248414Y-74435469D01*
X171335469Y-74348414D01*
X171403868Y-74246048D01*
X171450981Y-74132306D01*
X171475000Y-74011557D01*
X171475000Y-73888443D01*
X171450981Y-73767694D01*
X171403868Y-73653952D01*
X171335469Y-73551586D01*
X171248414Y-73464531D01*
X171146048Y-73396132D01*
X171032306Y-73349019D01*
X170911557Y-73325000D01*
X170788443Y-73325000D01*
X170667694Y-73349019D01*
X170553952Y-73396132D01*
X170451586Y-73464531D01*
X170364531Y-73551586D01*
X170296132Y-73653952D01*
X170249019Y-73767694D01*
X170225000Y-73888443D01*
X167377001Y-73888443D01*
X167377001Y-73288443D01*
X180925000Y-73288443D01*
X180925000Y-73411557D01*
X180949019Y-73532306D01*
X180996132Y-73646048D01*
X181064531Y-73748414D01*
X181141117Y-73825000D01*
X181064531Y-73901586D01*
X180996132Y-74003952D01*
X180949019Y-74117694D01*
X180925000Y-74238443D01*
X180925000Y-74361557D01*
X180949019Y-74482306D01*
X180996132Y-74596048D01*
X181064531Y-74698414D01*
X181151586Y-74785469D01*
X181253952Y-74853868D01*
X181367694Y-74900981D01*
X181488443Y-74925000D01*
X181611557Y-74925000D01*
X181732306Y-74900981D01*
X181846048Y-74853868D01*
X181948414Y-74785469D01*
X182035469Y-74698414D01*
X182103868Y-74596048D01*
X182150981Y-74482306D01*
X182175000Y-74361557D01*
X182175000Y-74238443D01*
X182150981Y-74117694D01*
X182103868Y-74003952D01*
X182035469Y-73901586D01*
X181958883Y-73825000D01*
X182035469Y-73748414D01*
X182103868Y-73646048D01*
X182150981Y-73532306D01*
X182175000Y-73411557D01*
X182175000Y-73288443D01*
X182150981Y-73167694D01*
X182103868Y-73053952D01*
X182035469Y-72951586D01*
X182022326Y-72938443D01*
X184325000Y-72938443D01*
X184325000Y-73061557D01*
X184349019Y-73182306D01*
X184396132Y-73296048D01*
X184464531Y-73398414D01*
X184551586Y-73485469D01*
X184653952Y-73553868D01*
X184767694Y-73600981D01*
X184888443Y-73625000D01*
X185011557Y-73625000D01*
X185132306Y-73600981D01*
X185246048Y-73553868D01*
X185348414Y-73485469D01*
X185435469Y-73398414D01*
X185450000Y-73376667D01*
X185464531Y-73398414D01*
X185551586Y-73485469D01*
X185653952Y-73553868D01*
X185767694Y-73600981D01*
X185888443Y-73625000D01*
X186011557Y-73625000D01*
X186132306Y-73600981D01*
X186246048Y-73553868D01*
X186348414Y-73485469D01*
X186435469Y-73398414D01*
X186450000Y-73376667D01*
X186464531Y-73398414D01*
X186551586Y-73485469D01*
X186653952Y-73553868D01*
X186767694Y-73600981D01*
X186888443Y-73625000D01*
X187011557Y-73625000D01*
X187132306Y-73600981D01*
X187246048Y-73553868D01*
X187348414Y-73485469D01*
X187435469Y-73398414D01*
X187503868Y-73296048D01*
X187550981Y-73182306D01*
X187575000Y-73061557D01*
X187575000Y-72938443D01*
X187550981Y-72817694D01*
X187503868Y-72703952D01*
X187435469Y-72601586D01*
X187348414Y-72514531D01*
X187246048Y-72446132D01*
X187132306Y-72399019D01*
X187011557Y-72375000D01*
X186888443Y-72375000D01*
X186767694Y-72399019D01*
X186653952Y-72446132D01*
X186551586Y-72514531D01*
X186464531Y-72601586D01*
X186450000Y-72623333D01*
X186435469Y-72601586D01*
X186348414Y-72514531D01*
X186290880Y-72476088D01*
X186300000Y-72476088D01*
X186344108Y-72471744D01*
X186386520Y-72458878D01*
X186425608Y-72437985D01*
X186459868Y-72409868D01*
X186487985Y-72375608D01*
X186508878Y-72336520D01*
X186521744Y-72294108D01*
X186526088Y-72250000D01*
X186526088Y-71659971D01*
X186551586Y-71685469D01*
X186653952Y-71753868D01*
X186767694Y-71800981D01*
X186888443Y-71825000D01*
X187011557Y-71825000D01*
X187132306Y-71800981D01*
X187246048Y-71753868D01*
X187348414Y-71685469D01*
X187435469Y-71598414D01*
X187503868Y-71496048D01*
X187550981Y-71382306D01*
X187575000Y-71261557D01*
X187575000Y-71138443D01*
X187550981Y-71017694D01*
X187503868Y-70903952D01*
X187435469Y-70801586D01*
X187348414Y-70714531D01*
X187246048Y-70646132D01*
X187132306Y-70599019D01*
X187011557Y-70575000D01*
X186888443Y-70575000D01*
X186767694Y-70599019D01*
X186653952Y-70646132D01*
X186551586Y-70714531D01*
X186526088Y-70740029D01*
X186526088Y-70550000D01*
X186521744Y-70505892D01*
X186508878Y-70463480D01*
X186487985Y-70424392D01*
X186459868Y-70390132D01*
X186425608Y-70362015D01*
X186386520Y-70341122D01*
X186344108Y-70328256D01*
X186300000Y-70323912D01*
X184600000Y-70323912D01*
X184555892Y-70328256D01*
X184513480Y-70341122D01*
X184474392Y-70362015D01*
X184440132Y-70390132D01*
X184412015Y-70424392D01*
X184391122Y-70463480D01*
X184378256Y-70505892D01*
X184373912Y-70550000D01*
X184373912Y-72250000D01*
X184378256Y-72294108D01*
X184391122Y-72336520D01*
X184412015Y-72375608D01*
X184440132Y-72409868D01*
X184474392Y-72437985D01*
X184513480Y-72458878D01*
X184555892Y-72471744D01*
X184600000Y-72476088D01*
X184609120Y-72476088D01*
X184551586Y-72514531D01*
X184464531Y-72601586D01*
X184396132Y-72703952D01*
X184349019Y-72817694D01*
X184325000Y-72938443D01*
X182022326Y-72938443D01*
X181948414Y-72864531D01*
X181846048Y-72796132D01*
X181732306Y-72749019D01*
X181611557Y-72725000D01*
X181488443Y-72725000D01*
X181367694Y-72749019D01*
X181253952Y-72796132D01*
X181151586Y-72864531D01*
X181064531Y-72951586D01*
X180996132Y-73053952D01*
X180949019Y-73167694D01*
X180925000Y-73288443D01*
X167377001Y-73288443D01*
X167377001Y-72088443D01*
X174825000Y-72088443D01*
X174825000Y-72211557D01*
X174849019Y-72332306D01*
X174896132Y-72446048D01*
X174964531Y-72548414D01*
X175051586Y-72635469D01*
X175153952Y-72703868D01*
X175267694Y-72750981D01*
X175388443Y-72775000D01*
X175511557Y-72775000D01*
X175632306Y-72750981D01*
X175746048Y-72703868D01*
X175848414Y-72635469D01*
X175935469Y-72548414D01*
X176003868Y-72446048D01*
X176050981Y-72332306D01*
X176075000Y-72211557D01*
X176075000Y-72088443D01*
X176050981Y-71967694D01*
X176003868Y-71853952D01*
X175935469Y-71751586D01*
X175848414Y-71664531D01*
X175746048Y-71596132D01*
X175632306Y-71549019D01*
X175511557Y-71525000D01*
X175388443Y-71525000D01*
X175267694Y-71549019D01*
X175153952Y-71596132D01*
X175051586Y-71664531D01*
X174964531Y-71751586D01*
X174896132Y-71853952D01*
X174849019Y-71967694D01*
X174825000Y-72088443D01*
X167377001Y-72088443D01*
X167377001Y-71384374D01*
X167379299Y-71361042D01*
X167370128Y-71267926D01*
X167354770Y-71217298D01*
X167342967Y-71178389D01*
X167298860Y-71095870D01*
X167239502Y-71023542D01*
X167221372Y-71008663D01*
X165843342Y-69630634D01*
X165828459Y-69612499D01*
X165756131Y-69553141D01*
X165673612Y-69509034D01*
X165584074Y-69481873D01*
X165514290Y-69475000D01*
X165490958Y-69472702D01*
X165467626Y-69475000D01*
X163972267Y-69475000D01*
X164158824Y-69288443D01*
X186325000Y-69288443D01*
X186325000Y-69411557D01*
X186349019Y-69532306D01*
X186396132Y-69646048D01*
X186464531Y-69748414D01*
X186551586Y-69835469D01*
X186653952Y-69903868D01*
X186767694Y-69950981D01*
X186888443Y-69975000D01*
X187011557Y-69975000D01*
X187132306Y-69950981D01*
X187246048Y-69903868D01*
X187348414Y-69835469D01*
X187435469Y-69748414D01*
X187503868Y-69646048D01*
X187550981Y-69532306D01*
X187575000Y-69411557D01*
X187575000Y-69288443D01*
X187550981Y-69167694D01*
X187503868Y-69053952D01*
X187435469Y-68951586D01*
X187348414Y-68864531D01*
X187246048Y-68796132D01*
X187132306Y-68749019D01*
X187011557Y-68725000D01*
X186888443Y-68725000D01*
X186767694Y-68749019D01*
X186653952Y-68796132D01*
X186551586Y-68864531D01*
X186464531Y-68951586D01*
X186396132Y-69053952D01*
X186349019Y-69167694D01*
X186325000Y-69288443D01*
X164158824Y-69288443D01*
X164164478Y-69282789D01*
X164192133Y-69260093D01*
X164223995Y-69221270D01*
X164282732Y-69149698D01*
X164350054Y-69023749D01*
X164371883Y-68951787D01*
X164391510Y-68887086D01*
X164402001Y-68780567D01*
X164402001Y-68780561D01*
X164405507Y-68744961D01*
X164402001Y-68709361D01*
X164402001Y-68697164D01*
X164481731Y-68631731D01*
X164572330Y-68521336D01*
X164639652Y-68395387D01*
X164681108Y-68258724D01*
X164695106Y-68116599D01*
X164681108Y-67974474D01*
X164639652Y-67837811D01*
X164572330Y-67711862D01*
X164481731Y-67601467D01*
X164371336Y-67510868D01*
X164245387Y-67443546D01*
X164108724Y-67402090D01*
X164002206Y-67391599D01*
X163868997Y-67391599D01*
X163833400Y-67388093D01*
X163797803Y-67391599D01*
X163797794Y-67391599D01*
X163691276Y-67402090D01*
X163554613Y-67443546D01*
X163428664Y-67510868D01*
X163318269Y-67601467D01*
X163295569Y-67629127D01*
X163189525Y-67735171D01*
X163161869Y-67757868D01*
X163139173Y-67785523D01*
X163139171Y-67785525D01*
X163086214Y-67850054D01*
X163071270Y-67868263D01*
X163003948Y-67994212D01*
X162962492Y-68130875D01*
X162952001Y-68237393D01*
X162952001Y-68237402D01*
X162948495Y-68272999D01*
X162952001Y-68308596D01*
X162952001Y-68444656D01*
X162294657Y-69102001D01*
X160476088Y-69102001D01*
X160476088Y-67500000D01*
X160471744Y-67455892D01*
X160458878Y-67413480D01*
X160437985Y-67374392D01*
X160409868Y-67340132D01*
X160375608Y-67312015D01*
X160336520Y-67291122D01*
X160294108Y-67278256D01*
X160250000Y-67273912D01*
X158550000Y-67273912D01*
X158505892Y-67278256D01*
X158463480Y-67291122D01*
X158424392Y-67312015D01*
X158390132Y-67340132D01*
X158362015Y-67374392D01*
X158341122Y-67413480D01*
X158328256Y-67455892D01*
X158323912Y-67500000D01*
X158323912Y-68948607D01*
X157837474Y-68462170D01*
X157754736Y-68394269D01*
X157731323Y-68381755D01*
X157522254Y-68172686D01*
X157510093Y-68157867D01*
X157495274Y-68145706D01*
X156039095Y-66689527D01*
X156016397Y-66661869D01*
X155906002Y-66571270D01*
X155780053Y-66503948D01*
X155643390Y-66462492D01*
X155536872Y-66452001D01*
X155536862Y-66452001D01*
X155501265Y-66448495D01*
X155465668Y-66452001D01*
X155098278Y-66452001D01*
X155165007Y-66385272D01*
X155282652Y-66209203D01*
X155363688Y-66013566D01*
X155405000Y-65805878D01*
X155405000Y-65594122D01*
X155795000Y-65594122D01*
X155795000Y-65805878D01*
X155836312Y-66013566D01*
X155917348Y-66209203D01*
X156034993Y-66385272D01*
X156184728Y-66535007D01*
X156360797Y-66652652D01*
X156556434Y-66733688D01*
X156764122Y-66775000D01*
X156975878Y-66775000D01*
X157183566Y-66733688D01*
X157379203Y-66652652D01*
X157555272Y-66535007D01*
X157705007Y-66385272D01*
X157822652Y-66209203D01*
X157903688Y-66013566D01*
X157945000Y-65805878D01*
X157945000Y-65594122D01*
X158335000Y-65594122D01*
X158335000Y-65805878D01*
X158376312Y-66013566D01*
X158457348Y-66209203D01*
X158574993Y-66385272D01*
X158724728Y-66535007D01*
X158900797Y-66652652D01*
X159096434Y-66733688D01*
X159304122Y-66775000D01*
X159515878Y-66775000D01*
X159723566Y-66733688D01*
X159919203Y-66652652D01*
X160072833Y-66550000D01*
X160863863Y-66550000D01*
X160868400Y-66596068D01*
X160881838Y-66640366D01*
X160903659Y-66681191D01*
X160933026Y-66716974D01*
X160968809Y-66746341D01*
X161009634Y-66768162D01*
X161053932Y-66781600D01*
X161100000Y-66786137D01*
X161716250Y-66785000D01*
X161775000Y-66726250D01*
X161775000Y-65875000D01*
X162125000Y-65875000D01*
X162125000Y-66726250D01*
X162183750Y-66785000D01*
X162800000Y-66786137D01*
X162846068Y-66781600D01*
X162890366Y-66768162D01*
X162931191Y-66746341D01*
X162966974Y-66716974D01*
X162996341Y-66681191D01*
X163018162Y-66640366D01*
X163031600Y-66596068D01*
X163036137Y-66550000D01*
X163035000Y-65933750D01*
X162976250Y-65875000D01*
X162125000Y-65875000D01*
X161775000Y-65875000D01*
X160923750Y-65875000D01*
X160865000Y-65933750D01*
X160863863Y-66550000D01*
X160072833Y-66550000D01*
X160095272Y-66535007D01*
X160245007Y-66385272D01*
X160362652Y-66209203D01*
X160443688Y-66013566D01*
X160485000Y-65805878D01*
X160485000Y-65594122D01*
X160443688Y-65386434D01*
X160362652Y-65190797D01*
X160245007Y-65014728D01*
X160095272Y-64864993D01*
X160072834Y-64850000D01*
X160863863Y-64850000D01*
X160865000Y-65466250D01*
X160923750Y-65525000D01*
X161775000Y-65525000D01*
X161775000Y-64673750D01*
X162125000Y-64673750D01*
X162125000Y-65525000D01*
X162976250Y-65525000D01*
X163035000Y-65466250D01*
X163036137Y-64850000D01*
X163031600Y-64803932D01*
X163018162Y-64759634D01*
X162996341Y-64718809D01*
X162966974Y-64683026D01*
X162931191Y-64653659D01*
X162890366Y-64631838D01*
X162846068Y-64618400D01*
X162800000Y-64613863D01*
X162183750Y-64615000D01*
X162125000Y-64673750D01*
X161775000Y-64673750D01*
X161716250Y-64615000D01*
X161100000Y-64613863D01*
X161053932Y-64618400D01*
X161009634Y-64631838D01*
X160968809Y-64653659D01*
X160933026Y-64683026D01*
X160903659Y-64718809D01*
X160881838Y-64759634D01*
X160868400Y-64803932D01*
X160863863Y-64850000D01*
X160072834Y-64850000D01*
X159919203Y-64747348D01*
X159723566Y-64666312D01*
X159515878Y-64625000D01*
X159304122Y-64625000D01*
X159096434Y-64666312D01*
X158900797Y-64747348D01*
X158724728Y-64864993D01*
X158574993Y-65014728D01*
X158457348Y-65190797D01*
X158376312Y-65386434D01*
X158335000Y-65594122D01*
X157945000Y-65594122D01*
X157903688Y-65386434D01*
X157822652Y-65190797D01*
X157705007Y-65014728D01*
X157555272Y-64864993D01*
X157379203Y-64747348D01*
X157183566Y-64666312D01*
X156975878Y-64625000D01*
X156764122Y-64625000D01*
X156556434Y-64666312D01*
X156360797Y-64747348D01*
X156184728Y-64864993D01*
X156034993Y-65014728D01*
X155917348Y-65190797D01*
X155836312Y-65386434D01*
X155795000Y-65594122D01*
X155405000Y-65594122D01*
X155363688Y-65386434D01*
X155282652Y-65190797D01*
X155165007Y-65014728D01*
X155015272Y-64864993D01*
X154839203Y-64747348D01*
X154643566Y-64666312D01*
X154435878Y-64625000D01*
X154224122Y-64625000D01*
X154016434Y-64666312D01*
X153820797Y-64747348D01*
X153644728Y-64864993D01*
X153494993Y-65014728D01*
X153377348Y-65190797D01*
X153296312Y-65386434D01*
X153255000Y-65594122D01*
X153255000Y-65805878D01*
X153296312Y-66013566D01*
X153377348Y-66209203D01*
X153494993Y-66385272D01*
X153561722Y-66452001D01*
X153464158Y-66452001D01*
X153454736Y-66444269D01*
X153388166Y-66408686D01*
X153337698Y-66367268D01*
X153211749Y-66299946D01*
X153075086Y-66258490D01*
X152968568Y-66247999D01*
X152968558Y-66247999D01*
X152932961Y-66244493D01*
X152897364Y-66247999D01*
X151502635Y-66247999D01*
X151467038Y-66244493D01*
X151431441Y-66247999D01*
X148612598Y-66247999D01*
X148577001Y-66244493D01*
X148541404Y-66247999D01*
X148541394Y-66247999D01*
X148434876Y-66258490D01*
X148298213Y-66299946D01*
X148172264Y-66367268D01*
X148089526Y-66435169D01*
X148089524Y-66435171D01*
X148061869Y-66457867D01*
X148039173Y-66485522D01*
X147355339Y-67169356D01*
X147425000Y-66819143D01*
X147425000Y-66380857D01*
X147339495Y-65950991D01*
X147171770Y-65546067D01*
X146928270Y-65181645D01*
X146618355Y-64871730D01*
X146253933Y-64628230D01*
X145849009Y-64460505D01*
X145419143Y-64375000D01*
X144980857Y-64375000D01*
X144550991Y-64460505D01*
X144146067Y-64628230D01*
X143781645Y-64871730D01*
X143471730Y-65181645D01*
X143228230Y-65546067D01*
X143060505Y-65950991D01*
X142975000Y-66380857D01*
X142975000Y-66819143D01*
X143060505Y-67249009D01*
X143228230Y-67653933D01*
X143471730Y-68018355D01*
X143781645Y-68328270D01*
X144146067Y-68571770D01*
X144550991Y-68739495D01*
X144980857Y-68825000D01*
X145419143Y-68825000D01*
X145769357Y-68755339D01*
X138899696Y-75625000D01*
X110235596Y-75625000D01*
X110199999Y-75621494D01*
X110164402Y-75625000D01*
X110164393Y-75625000D01*
X110057875Y-75635491D01*
X109921212Y-75676947D01*
X109795263Y-75744269D01*
X109712525Y-75812170D01*
X109712523Y-75812172D01*
X109684868Y-75834868D01*
X109662172Y-75862523D01*
X108325000Y-77199696D01*
X108137474Y-77012170D01*
X108054736Y-76944269D01*
X107928787Y-76876947D01*
X107792124Y-76835492D01*
X107650000Y-76821494D01*
X107507876Y-76835492D01*
X107371213Y-76876947D01*
X107245264Y-76944269D01*
X107134868Y-77034868D01*
X107044269Y-77145264D01*
X106976947Y-77271213D01*
X106935492Y-77407876D01*
X106921494Y-77550000D01*
X106935492Y-77692124D01*
X106976947Y-77828787D01*
X107044269Y-77954736D01*
X107112170Y-78037474D01*
X107577002Y-78502307D01*
X107577002Y-78816447D01*
X107494321Y-78800000D01*
X107405679Y-78800000D01*
X107318740Y-78817294D01*
X107236845Y-78851215D01*
X107163142Y-78900462D01*
X107100462Y-78963142D01*
X107051215Y-79036845D01*
X107017294Y-79118740D01*
X107000000Y-79205679D01*
X107000000Y-79294321D01*
X107017294Y-79381260D01*
X107051215Y-79463155D01*
X107100462Y-79536858D01*
X107163142Y-79599538D01*
X107236845Y-79648785D01*
X107318740Y-79682706D01*
X107405679Y-79700000D01*
X107494321Y-79700000D01*
X107577002Y-79683553D01*
X107577002Y-79816447D01*
X107494321Y-79800000D01*
X107405679Y-79800000D01*
X107318740Y-79817294D01*
X107236845Y-79851215D01*
X107163142Y-79900462D01*
X107100462Y-79963142D01*
X107051215Y-80036845D01*
X107017294Y-80118740D01*
X107000000Y-80205679D01*
X107000000Y-80294321D01*
X107017294Y-80381260D01*
X107051215Y-80463155D01*
X107100462Y-80536858D01*
X107163142Y-80599538D01*
X107236845Y-80648785D01*
X107318740Y-80682706D01*
X107405679Y-80700000D01*
X107494321Y-80700000D01*
X107577001Y-80683553D01*
X107577001Y-81422694D01*
X107087170Y-81912526D01*
X107019269Y-81995264D01*
X106951947Y-82121213D01*
X106910492Y-82257876D01*
X106896494Y-82400000D01*
X105638926Y-82400000D01*
X105603137Y-82385176D01*
X105501708Y-82365000D01*
X105398292Y-82365000D01*
X105296863Y-82385176D01*
X105201319Y-82424751D01*
X105115332Y-82482206D01*
X105042206Y-82555332D01*
X104984751Y-82641319D01*
X104945176Y-82736863D01*
X104925000Y-82838292D01*
X100250000Y-82838292D01*
X100250000Y-77058292D01*
X104925000Y-77058292D01*
X104925000Y-77161708D01*
X104945176Y-77263137D01*
X104984751Y-77358681D01*
X105042206Y-77444668D01*
X105115332Y-77517794D01*
X105201319Y-77575249D01*
X105296863Y-77614824D01*
X105398292Y-77635000D01*
X105501708Y-77635000D01*
X105603137Y-77614824D01*
X105698681Y-77575249D01*
X105784668Y-77517794D01*
X105857794Y-77444668D01*
X105915249Y-77358681D01*
X105954824Y-77263137D01*
X105975000Y-77161708D01*
X105975000Y-77058292D01*
X105954824Y-76956863D01*
X105915249Y-76861319D01*
X105857794Y-76775332D01*
X105784668Y-76702206D01*
X105698681Y-76644751D01*
X105603137Y-76605176D01*
X105501708Y-76585000D01*
X105398292Y-76585000D01*
X105296863Y-76605176D01*
X105201319Y-76644751D01*
X105115332Y-76702206D01*
X105042206Y-76775332D01*
X104984751Y-76861319D01*
X104945176Y-76956863D01*
X104925000Y-77058292D01*
X100250000Y-77058292D01*
X100250000Y-75956447D01*
X100733261Y-75956447D01*
X100751888Y-76040625D01*
X100833927Y-76152332D01*
X100936183Y-76245888D01*
X101054726Y-76317697D01*
X101185000Y-76365000D01*
X101585000Y-76365000D01*
X101585000Y-75855000D01*
X101935000Y-75855000D01*
X101935000Y-76365000D01*
X102335000Y-76365000D01*
X102465274Y-76317697D01*
X102583817Y-76245888D01*
X102686073Y-76152332D01*
X102768112Y-76040625D01*
X102786739Y-75956447D01*
X104753261Y-75956447D01*
X104771888Y-76040625D01*
X104853927Y-76152332D01*
X104956183Y-76245888D01*
X105074726Y-76317697D01*
X105205000Y-76365000D01*
X105755000Y-76365000D01*
X105755000Y-75855000D01*
X106105000Y-75855000D01*
X106105000Y-76365000D01*
X106655000Y-76365000D01*
X106785274Y-76317697D01*
X106903817Y-76245888D01*
X107006073Y-76152332D01*
X107088112Y-76040625D01*
X107106739Y-75956447D01*
X107081302Y-75855000D01*
X106105000Y-75855000D01*
X105755000Y-75855000D01*
X104778698Y-75855000D01*
X104753261Y-75956447D01*
X102786739Y-75956447D01*
X102761302Y-75855000D01*
X101935000Y-75855000D01*
X101585000Y-75855000D01*
X100758698Y-75855000D01*
X100733261Y-75956447D01*
X100250000Y-75956447D01*
X100250000Y-75403553D01*
X100733261Y-75403553D01*
X100758698Y-75505000D01*
X101585000Y-75505000D01*
X101585000Y-74995000D01*
X101935000Y-74995000D01*
X101935000Y-75505000D01*
X102761302Y-75505000D01*
X102786739Y-75403553D01*
X104753261Y-75403553D01*
X104778698Y-75505000D01*
X105755000Y-75505000D01*
X105755000Y-74995000D01*
X106105000Y-74995000D01*
X106105000Y-75505000D01*
X107081302Y-75505000D01*
X107106739Y-75403553D01*
X107088112Y-75319375D01*
X107006073Y-75207668D01*
X106903817Y-75114112D01*
X106785274Y-75042303D01*
X106655000Y-74995000D01*
X106105000Y-74995000D01*
X105755000Y-74995000D01*
X105205000Y-74995000D01*
X105074726Y-75042303D01*
X104956183Y-75114112D01*
X104853927Y-75207668D01*
X104771888Y-75319375D01*
X104753261Y-75403553D01*
X102786739Y-75403553D01*
X102768112Y-75319375D01*
X102686073Y-75207668D01*
X102583817Y-75114112D01*
X102465274Y-75042303D01*
X102335000Y-74995000D01*
X101935000Y-74995000D01*
X101585000Y-74995000D01*
X101185000Y-74995000D01*
X101054726Y-75042303D01*
X100936183Y-75114112D01*
X100833927Y-75207668D01*
X100751888Y-75319375D01*
X100733261Y-75403553D01*
X100250000Y-75403553D01*
X100250000Y-70855679D01*
X104650000Y-70855679D01*
X104650000Y-70944321D01*
X104667294Y-71031260D01*
X104701215Y-71113155D01*
X104750462Y-71186858D01*
X104813142Y-71249538D01*
X104886845Y-71298785D01*
X104968740Y-71332706D01*
X105055679Y-71350000D01*
X105144321Y-71350000D01*
X105231260Y-71332706D01*
X105313155Y-71298785D01*
X105386858Y-71249538D01*
X105449538Y-71186858D01*
X105498785Y-71113155D01*
X105532706Y-71031260D01*
X105550000Y-70944321D01*
X105550000Y-70855679D01*
X105532706Y-70768740D01*
X105498785Y-70686845D01*
X105449538Y-70613142D01*
X105386858Y-70550462D01*
X105313155Y-70501215D01*
X105231260Y-70467294D01*
X105144321Y-70450000D01*
X105055679Y-70450000D01*
X104968740Y-70467294D01*
X104886845Y-70501215D01*
X104813142Y-70550462D01*
X104750462Y-70613142D01*
X104701215Y-70686845D01*
X104667294Y-70768740D01*
X104650000Y-70855679D01*
X100250000Y-70855679D01*
X100250000Y-68705679D01*
X104650000Y-68705679D01*
X104650000Y-68794321D01*
X104667294Y-68881260D01*
X104701215Y-68963155D01*
X104750462Y-69036858D01*
X104813142Y-69099538D01*
X104886845Y-69148785D01*
X104968740Y-69182706D01*
X105055679Y-69200000D01*
X105144321Y-69200000D01*
X105231260Y-69182706D01*
X105313155Y-69148785D01*
X105386858Y-69099538D01*
X105449538Y-69036858D01*
X105498785Y-68963155D01*
X105532706Y-68881260D01*
X105550000Y-68794321D01*
X105550000Y-68705679D01*
X105532706Y-68618740D01*
X105498785Y-68536845D01*
X105449538Y-68463142D01*
X105386858Y-68400462D01*
X105313155Y-68351215D01*
X105310222Y-68350000D01*
X117613863Y-68350000D01*
X117618400Y-68396068D01*
X117631838Y-68440366D01*
X117653659Y-68481191D01*
X117683026Y-68516974D01*
X117718809Y-68546341D01*
X117759634Y-68568162D01*
X117803932Y-68581600D01*
X117850000Y-68586137D01*
X118466250Y-68585000D01*
X118525000Y-68526250D01*
X118525000Y-67675000D01*
X118875000Y-67675000D01*
X118875000Y-68526250D01*
X118933750Y-68585000D01*
X119550000Y-68586137D01*
X119596068Y-68581600D01*
X119640366Y-68568162D01*
X119681191Y-68546341D01*
X119716974Y-68516974D01*
X119746341Y-68481191D01*
X119768162Y-68440366D01*
X119781600Y-68396068D01*
X119786137Y-68350000D01*
X119785000Y-67733750D01*
X119726250Y-67675000D01*
X118875000Y-67675000D01*
X118525000Y-67675000D01*
X117673750Y-67675000D01*
X117615000Y-67733750D01*
X117613863Y-68350000D01*
X105310222Y-68350000D01*
X105231260Y-68317294D01*
X105144321Y-68300000D01*
X105055679Y-68300000D01*
X104968740Y-68317294D01*
X104886845Y-68351215D01*
X104813142Y-68400462D01*
X104750462Y-68463142D01*
X104701215Y-68536845D01*
X104667294Y-68618740D01*
X104650000Y-68705679D01*
X100250000Y-68705679D01*
X100250000Y-67394122D01*
X120165000Y-67394122D01*
X120165000Y-67605878D01*
X120206312Y-67813566D01*
X120287348Y-68009203D01*
X120404993Y-68185272D01*
X120554728Y-68335007D01*
X120730797Y-68452652D01*
X120926434Y-68533688D01*
X121134122Y-68575000D01*
X121345878Y-68575000D01*
X121553566Y-68533688D01*
X121749203Y-68452652D01*
X121925272Y-68335007D01*
X122075007Y-68185272D01*
X122192652Y-68009203D01*
X122273688Y-67813566D01*
X122315000Y-67605878D01*
X122315000Y-67394122D01*
X122705000Y-67394122D01*
X122705000Y-67605878D01*
X122746312Y-67813566D01*
X122827348Y-68009203D01*
X122944993Y-68185272D01*
X123094728Y-68335007D01*
X123270797Y-68452652D01*
X123466434Y-68533688D01*
X123674122Y-68575000D01*
X123885878Y-68575000D01*
X124093566Y-68533688D01*
X124289203Y-68452652D01*
X124465272Y-68335007D01*
X124615007Y-68185272D01*
X124732652Y-68009203D01*
X124813688Y-67813566D01*
X124855000Y-67605878D01*
X124855000Y-67394122D01*
X125245000Y-67394122D01*
X125245000Y-67605878D01*
X125286312Y-67813566D01*
X125367348Y-68009203D01*
X125484993Y-68185272D01*
X125634728Y-68335007D01*
X125810797Y-68452652D01*
X126006434Y-68533688D01*
X126214122Y-68575000D01*
X126425878Y-68575000D01*
X126633566Y-68533688D01*
X126829203Y-68452652D01*
X127005272Y-68335007D01*
X127155007Y-68185272D01*
X127272652Y-68009203D01*
X127353688Y-67813566D01*
X127395000Y-67605878D01*
X127395000Y-67394122D01*
X127353688Y-67186434D01*
X127272652Y-66990797D01*
X127155007Y-66814728D01*
X127005272Y-66664993D01*
X126829203Y-66547348D01*
X126633566Y-66466312D01*
X126425878Y-66425000D01*
X126214122Y-66425000D01*
X126006434Y-66466312D01*
X125810797Y-66547348D01*
X125634728Y-66664993D01*
X125484993Y-66814728D01*
X125367348Y-66990797D01*
X125286312Y-67186434D01*
X125245000Y-67394122D01*
X124855000Y-67394122D01*
X124813688Y-67186434D01*
X124732652Y-66990797D01*
X124615007Y-66814728D01*
X124465272Y-66664993D01*
X124289203Y-66547348D01*
X124093566Y-66466312D01*
X123885878Y-66425000D01*
X123674122Y-66425000D01*
X123466434Y-66466312D01*
X123270797Y-66547348D01*
X123094728Y-66664993D01*
X122944993Y-66814728D01*
X122827348Y-66990797D01*
X122746312Y-67186434D01*
X122705000Y-67394122D01*
X122315000Y-67394122D01*
X122273688Y-67186434D01*
X122192652Y-66990797D01*
X122075007Y-66814728D01*
X121925272Y-66664993D01*
X121749203Y-66547348D01*
X121553566Y-66466312D01*
X121345878Y-66425000D01*
X121134122Y-66425000D01*
X120926434Y-66466312D01*
X120730797Y-66547348D01*
X120554728Y-66664993D01*
X120404993Y-66814728D01*
X120287348Y-66990797D01*
X120206312Y-67186434D01*
X120165000Y-67394122D01*
X100250000Y-67394122D01*
X100249999Y-66650000D01*
X117613863Y-66650000D01*
X117615000Y-67266250D01*
X117673750Y-67325000D01*
X118525000Y-67325000D01*
X118525000Y-66473750D01*
X118875000Y-66473750D01*
X118875000Y-67325000D01*
X119726250Y-67325000D01*
X119785000Y-67266250D01*
X119786137Y-66650000D01*
X119781600Y-66603932D01*
X119768162Y-66559634D01*
X119746341Y-66518809D01*
X119716974Y-66483026D01*
X119681191Y-66453659D01*
X119640366Y-66431838D01*
X119596068Y-66418400D01*
X119550000Y-66413863D01*
X118933750Y-66415000D01*
X118875000Y-66473750D01*
X118525000Y-66473750D01*
X118466250Y-66415000D01*
X117850000Y-66413863D01*
X117803932Y-66418400D01*
X117759634Y-66431838D01*
X117718809Y-66453659D01*
X117683026Y-66483026D01*
X117653659Y-66518809D01*
X117631838Y-66559634D01*
X117618400Y-66603932D01*
X117613863Y-66650000D01*
X100249999Y-66650000D01*
X100249998Y-66012239D01*
X100284504Y-65660322D01*
X100383152Y-65333583D01*
X100543387Y-65032226D01*
X100759103Y-64767732D01*
X101022082Y-64550177D01*
X101322309Y-64387845D01*
X101648359Y-64286916D01*
X101999576Y-64250002D01*
X102000592Y-64249998D01*
X190275000Y-64250000D01*
G36*
X157425000Y-76488604D02*
G01*
X157386858Y-76450462D01*
X157313155Y-76401215D01*
X157231260Y-76367294D01*
X157144321Y-76350000D01*
X157055679Y-76350000D01*
X156968740Y-76367294D01*
X156886845Y-76401215D01*
X156813142Y-76450462D01*
X156750462Y-76513142D01*
X156701215Y-76586845D01*
X156667294Y-76668740D01*
X156650000Y-76755679D01*
X156650000Y-76800000D01*
X156605679Y-76800000D01*
X156518740Y-76817294D01*
X156436845Y-76851215D01*
X156363142Y-76900462D01*
X156300462Y-76963142D01*
X156251215Y-77036845D01*
X156217294Y-77118740D01*
X156200000Y-77205679D01*
X156200000Y-77294321D01*
X156201410Y-77301410D01*
X156194321Y-77300000D01*
X156124264Y-77300000D01*
X155300000Y-76475737D01*
X155300000Y-75159396D01*
X155349538Y-75109858D01*
X155398785Y-75036155D01*
X155432706Y-74954260D01*
X155450000Y-74867321D01*
X155450000Y-74778679D01*
X155432706Y-74691740D01*
X155398785Y-74609845D01*
X155349538Y-74536142D01*
X155286858Y-74473462D01*
X155236720Y-74439961D01*
X156816623Y-74439961D01*
X156835039Y-74441775D01*
X156853455Y-74439961D01*
X156853458Y-74439961D01*
X156908552Y-74434535D01*
X156979239Y-74413092D01*
X157044386Y-74378270D01*
X157101487Y-74331409D01*
X157113234Y-74317095D01*
X157424999Y-74005330D01*
X157425000Y-76488604D01*
G37*
X157425000Y-76488604D02*
X157386858Y-76450462D01*
X157313155Y-76401215D01*
X157231260Y-76367294D01*
X157144321Y-76350000D01*
X157055679Y-76350000D01*
X156968740Y-76367294D01*
X156886845Y-76401215D01*
X156813142Y-76450462D01*
X156750462Y-76513142D01*
X156701215Y-76586845D01*
X156667294Y-76668740D01*
X156650000Y-76755679D01*
X156650000Y-76800000D01*
X156605679Y-76800000D01*
X156518740Y-76817294D01*
X156436845Y-76851215D01*
X156363142Y-76900462D01*
X156300462Y-76963142D01*
X156251215Y-77036845D01*
X156217294Y-77118740D01*
X156200000Y-77205679D01*
X156200000Y-77294321D01*
X156201410Y-77301410D01*
X156194321Y-77300000D01*
X156124264Y-77300000D01*
X155300000Y-76475737D01*
X155300000Y-75159396D01*
X155349538Y-75109858D01*
X155398785Y-75036155D01*
X155432706Y-74954260D01*
X155450000Y-74867321D01*
X155450000Y-74778679D01*
X155432706Y-74691740D01*
X155398785Y-74609845D01*
X155349538Y-74536142D01*
X155286858Y-74473462D01*
X155236720Y-74439961D01*
X156816623Y-74439961D01*
X156835039Y-74441775D01*
X156853455Y-74439961D01*
X156853458Y-74439961D01*
X156908552Y-74434535D01*
X156979239Y-74413092D01*
X157044386Y-74378270D01*
X157101487Y-74331409D01*
X157113234Y-74317095D01*
X157424999Y-74005330D01*
X157425000Y-76488604D01*
G36*
X151075000Y-68389197D02*
G01*
X151075000Y-68610803D01*
X151118233Y-68828150D01*
X151203038Y-69032887D01*
X151326156Y-69217145D01*
X151482855Y-69373844D01*
X151667113Y-69496962D01*
X151871850Y-69581767D01*
X152089197Y-69625000D01*
X152310803Y-69625000D01*
X152528150Y-69581767D01*
X152732887Y-69496962D01*
X152917145Y-69373844D01*
X153073844Y-69217145D01*
X153110755Y-69161904D01*
X157060954Y-73112104D01*
X157034751Y-73151319D01*
X156995176Y-73246863D01*
X156975000Y-73348292D01*
X156975000Y-73394670D01*
X156679710Y-73689961D01*
X153395416Y-73689961D01*
X153377000Y-73688147D01*
X153358584Y-73689961D01*
X153358582Y-73689961D01*
X153318348Y-73693923D01*
X153336700Y-73592924D01*
X153332988Y-73369380D01*
X153285736Y-73150855D01*
X153214613Y-72979152D01*
X153078575Y-72868912D01*
X152447487Y-73500000D01*
X152461630Y-73514143D01*
X152214143Y-73761630D01*
X152200000Y-73747487D01*
X152185858Y-73761630D01*
X151938371Y-73514143D01*
X151952513Y-73500000D01*
X151321425Y-72868912D01*
X151185387Y-72979152D01*
X151103270Y-73187102D01*
X151063300Y-73407076D01*
X151067012Y-73630620D01*
X151114264Y-73849145D01*
X151185387Y-74020848D01*
X151321423Y-74131087D01*
X151270062Y-74182448D01*
X151389615Y-74302001D01*
X150132331Y-74302001D01*
X148451755Y-72621425D01*
X151568912Y-72621425D01*
X152200000Y-73252513D01*
X152831088Y-72621425D01*
X152720848Y-72485387D01*
X152512898Y-72403270D01*
X152292924Y-72363300D01*
X152069380Y-72367012D01*
X151850855Y-72414264D01*
X151679152Y-72485387D01*
X151568912Y-72621425D01*
X148451755Y-72621425D01*
X147275000Y-71444671D01*
X147275000Y-71398292D01*
X147254824Y-71296863D01*
X147215249Y-71201319D01*
X147157794Y-71115332D01*
X147084668Y-71042206D01*
X146998681Y-70984751D01*
X146903137Y-70945176D01*
X146810578Y-70926764D01*
X146848145Y-70889197D01*
X151075000Y-70889197D01*
X151075000Y-71110803D01*
X151118233Y-71328150D01*
X151203038Y-71532887D01*
X151326156Y-71717145D01*
X151482855Y-71873844D01*
X151667113Y-71996962D01*
X151871850Y-72081767D01*
X152089197Y-72125000D01*
X152310803Y-72125000D01*
X152528150Y-72081767D01*
X152732887Y-71996962D01*
X152917145Y-71873844D01*
X153073844Y-71717145D01*
X153196962Y-71532887D01*
X153281767Y-71328150D01*
X153325000Y-71110803D01*
X153325000Y-70889197D01*
X153281767Y-70671850D01*
X153196962Y-70467113D01*
X153073844Y-70282855D01*
X152917145Y-70126156D01*
X152732887Y-70003038D01*
X152528150Y-69918233D01*
X152310803Y-69875000D01*
X152089197Y-69875000D01*
X151871850Y-69918233D01*
X151667113Y-70003038D01*
X151482855Y-70126156D01*
X151326156Y-70282855D01*
X151203038Y-70467113D01*
X151118233Y-70671850D01*
X151075000Y-70889197D01*
X146848145Y-70889197D01*
X149245304Y-68492039D01*
X150637402Y-68492039D01*
X150672999Y-68495545D01*
X150708596Y-68492039D01*
X150708606Y-68492039D01*
X150815124Y-68481548D01*
X150951787Y-68440092D01*
X151077736Y-68372770D01*
X151078371Y-68372249D01*
X151075000Y-68389197D01*
G37*
X151075000Y-68389197D02*
X151075000Y-68610803D01*
X151118233Y-68828150D01*
X151203038Y-69032887D01*
X151326156Y-69217145D01*
X151482855Y-69373844D01*
X151667113Y-69496962D01*
X151871850Y-69581767D01*
X152089197Y-69625000D01*
X152310803Y-69625000D01*
X152528150Y-69581767D01*
X152732887Y-69496962D01*
X152917145Y-69373844D01*
X153073844Y-69217145D01*
X153110755Y-69161904D01*
X157060954Y-73112104D01*
X157034751Y-73151319D01*
X156995176Y-73246863D01*
X156975000Y-73348292D01*
X156975000Y-73394670D01*
X156679710Y-73689961D01*
X153395416Y-73689961D01*
X153377000Y-73688147D01*
X153358584Y-73689961D01*
X153358582Y-73689961D01*
X153318348Y-73693923D01*
X153336700Y-73592924D01*
X153332988Y-73369380D01*
X153285736Y-73150855D01*
X153214613Y-72979152D01*
X153078575Y-72868912D01*
X152447487Y-73500000D01*
X152461630Y-73514143D01*
X152214143Y-73761630D01*
X152200000Y-73747487D01*
X152185858Y-73761630D01*
X151938371Y-73514143D01*
X151952513Y-73500000D01*
X151321425Y-72868912D01*
X151185387Y-72979152D01*
X151103270Y-73187102D01*
X151063300Y-73407076D01*
X151067012Y-73630620D01*
X151114264Y-73849145D01*
X151185387Y-74020848D01*
X151321423Y-74131087D01*
X151270062Y-74182448D01*
X151389615Y-74302001D01*
X150132331Y-74302001D01*
X148451755Y-72621425D01*
X151568912Y-72621425D01*
X152200000Y-73252513D01*
X152831088Y-72621425D01*
X152720848Y-72485387D01*
X152512898Y-72403270D01*
X152292924Y-72363300D01*
X152069380Y-72367012D01*
X151850855Y-72414264D01*
X151679152Y-72485387D01*
X151568912Y-72621425D01*
X148451755Y-72621425D01*
X147275000Y-71444671D01*
X147275000Y-71398292D01*
X147254824Y-71296863D01*
X147215249Y-71201319D01*
X147157794Y-71115332D01*
X147084668Y-71042206D01*
X146998681Y-70984751D01*
X146903137Y-70945176D01*
X146810578Y-70926764D01*
X146848145Y-70889197D01*
X151075000Y-70889197D01*
X151075000Y-71110803D01*
X151118233Y-71328150D01*
X151203038Y-71532887D01*
X151326156Y-71717145D01*
X151482855Y-71873844D01*
X151667113Y-71996962D01*
X151871850Y-72081767D01*
X152089197Y-72125000D01*
X152310803Y-72125000D01*
X152528150Y-72081767D01*
X152732887Y-71996962D01*
X152917145Y-71873844D01*
X153073844Y-71717145D01*
X153196962Y-71532887D01*
X153281767Y-71328150D01*
X153325000Y-71110803D01*
X153325000Y-70889197D01*
X153281767Y-70671850D01*
X153196962Y-70467113D01*
X153073844Y-70282855D01*
X152917145Y-70126156D01*
X152732887Y-70003038D01*
X152528150Y-69918233D01*
X152310803Y-69875000D01*
X152089197Y-69875000D01*
X151871850Y-69918233D01*
X151667113Y-70003038D01*
X151482855Y-70126156D01*
X151326156Y-70282855D01*
X151203038Y-70467113D01*
X151118233Y-70671850D01*
X151075000Y-70889197D01*
X146848145Y-70889197D01*
X149245304Y-68492039D01*
X150637402Y-68492039D01*
X150672999Y-68495545D01*
X150708596Y-68492039D01*
X150708606Y-68492039D01*
X150815124Y-68481548D01*
X150951787Y-68440092D01*
X151077736Y-68372770D01*
X151078371Y-68372249D01*
X151075000Y-68389197D01*
G36*
X156752001Y-69455343D02*
G01*
X156752001Y-69744657D01*
X156694657Y-69802001D01*
X156405343Y-69802001D01*
X156347999Y-69744657D01*
X156347999Y-69455343D01*
X156405343Y-69397999D01*
X156694657Y-69397999D01*
X156752001Y-69455343D01*
G37*
X156752001Y-69455343D02*
X156752001Y-69744657D01*
X156694657Y-69802001D01*
X156405343Y-69802001D01*
X156347999Y-69744657D01*
X156347999Y-69455343D01*
X156405343Y-69397999D01*
X156694657Y-69397999D01*
X156752001Y-69455343D01*
M02*
