G04 #@! TF.GenerationSoftware,KiCad,Pcbnew,5.1.5+dfsg1-2build2*
G04 #@! TF.CreationDate,2021-02-20T19:42:40+01:00*
G04 #@! TF.ProjectId,charge-hf,63686172-6765-42d6-9866-2e6b69636164,rev?*
G04 #@! TF.SameCoordinates,Original*
G04 #@! TF.FileFunction,Soldermask,Bot*
G04 #@! TF.FilePolarity,Negative*
%FSLAX46Y46*%
G04 Gerber Fmt 4.6, Leading zero omitted, Abs format (unit mm)*
G04 Created by KiCad (PCBNEW 5.1.5+dfsg1-2build2) date 2021-02-20 19:42:40*
%MOMM*%
%LPD*%
G04 APERTURE LIST*
%ADD10C,0.100000*%
G04 APERTURE END LIST*
D10*
G36*
X163800000Y-93000000D02*
G01*
X163800000Y-95600000D01*
X163500000Y-95850000D01*
X155000000Y-95850000D01*
X154750000Y-95600000D01*
X154750000Y-93000000D01*
X155050000Y-92700000D01*
X163500000Y-92700000D01*
X163800000Y-93000000D01*
G37*
X163800000Y-93000000D02*
X163800000Y-95600000D01*
X163500000Y-95850000D01*
X155000000Y-95850000D01*
X154750000Y-95600000D01*
X154750000Y-93000000D01*
X155050000Y-92700000D01*
X163500000Y-92700000D01*
X163800000Y-93000000D01*
G36*
X145783378Y-91476859D02*
G01*
X146147355Y-91627623D01*
X146474926Y-91846499D01*
X146753501Y-92125074D01*
X146972377Y-92452645D01*
X147123141Y-92816622D01*
X147200000Y-93203017D01*
X147200000Y-93596983D01*
X147123141Y-93983378D01*
X146972377Y-94347355D01*
X146753501Y-94674926D01*
X146474926Y-94953501D01*
X146147355Y-95172377D01*
X145783378Y-95323141D01*
X145396983Y-95400000D01*
X145003017Y-95400000D01*
X144616622Y-95323141D01*
X144252645Y-95172377D01*
X143925074Y-94953501D01*
X143646499Y-94674926D01*
X143427623Y-94347355D01*
X143276859Y-93983378D01*
X143200000Y-93596983D01*
X143200000Y-93203017D01*
X143276859Y-92816622D01*
X143427623Y-92452645D01*
X143646499Y-92125074D01*
X143925074Y-91846499D01*
X144252645Y-91627623D01*
X144616622Y-91476859D01*
X145003017Y-91400000D01*
X145396983Y-91400000D01*
X145783378Y-91476859D01*
G37*
G36*
X152462520Y-90634586D02*
G01*
X152626310Y-90702430D01*
X152773717Y-90800924D01*
X152899076Y-90926283D01*
X152997570Y-91073690D01*
X153065414Y-91237480D01*
X153100000Y-91411358D01*
X153100000Y-91588642D01*
X153065414Y-91762520D01*
X152997570Y-91926310D01*
X152899076Y-92073717D01*
X152773717Y-92199076D01*
X152626310Y-92297570D01*
X152462520Y-92365414D01*
X152288642Y-92400000D01*
X152111358Y-92400000D01*
X151937480Y-92365414D01*
X151773690Y-92297570D01*
X151626283Y-92199076D01*
X151500924Y-92073717D01*
X151402430Y-91926310D01*
X151334586Y-91762520D01*
X151300000Y-91588642D01*
X151300000Y-91411358D01*
X151334586Y-91237480D01*
X151402430Y-91073690D01*
X151500924Y-90926283D01*
X151626283Y-90800924D01*
X151773690Y-90702430D01*
X151937480Y-90634586D01*
X152111358Y-90600000D01*
X152288642Y-90600000D01*
X152462520Y-90634586D01*
G37*
G36*
X163150000Y-90150000D02*
G01*
X161450000Y-90150000D01*
X161450000Y-88450000D01*
X163150000Y-88450000D01*
X163150000Y-90150000D01*
G37*
G36*
X160250000Y-90150000D02*
G01*
X158550000Y-90150000D01*
X158550000Y-88450000D01*
X160250000Y-88450000D01*
X160250000Y-90150000D01*
G37*
G36*
X157350000Y-90150000D02*
G01*
X155650000Y-90150000D01*
X155650000Y-88450000D01*
X157350000Y-88450000D01*
X157350000Y-90150000D01*
G37*
G36*
X152462520Y-88134586D02*
G01*
X152626310Y-88202430D01*
X152773717Y-88300924D01*
X152899076Y-88426283D01*
X152997570Y-88573690D01*
X153065414Y-88737480D01*
X153100000Y-88911358D01*
X153100000Y-89088642D01*
X153065414Y-89262520D01*
X152997570Y-89426310D01*
X152899076Y-89573717D01*
X152773717Y-89699076D01*
X152626310Y-89797570D01*
X152462520Y-89865414D01*
X152288642Y-89900000D01*
X152111358Y-89900000D01*
X151937480Y-89865414D01*
X151773690Y-89797570D01*
X151626283Y-89699076D01*
X151500924Y-89573717D01*
X151402430Y-89426310D01*
X151334586Y-89262520D01*
X151300000Y-89088642D01*
X151300000Y-88911358D01*
X151334586Y-88737480D01*
X151402430Y-88573690D01*
X151500924Y-88426283D01*
X151626283Y-88300924D01*
X151773690Y-88202430D01*
X151937480Y-88134586D01*
X152111358Y-88100000D01*
X152288642Y-88100000D01*
X152462520Y-88134586D01*
G37*
G36*
X152462520Y-85634586D02*
G01*
X152626310Y-85702430D01*
X152773717Y-85800924D01*
X152899076Y-85926283D01*
X152997570Y-86073690D01*
X153065414Y-86237480D01*
X153100000Y-86411358D01*
X153100000Y-86588642D01*
X153065414Y-86762520D01*
X152997570Y-86926310D01*
X152899076Y-87073717D01*
X152773717Y-87199076D01*
X152626310Y-87297570D01*
X152462520Y-87365414D01*
X152288642Y-87400000D01*
X152111358Y-87400000D01*
X151937480Y-87365414D01*
X151773690Y-87297570D01*
X151626283Y-87199076D01*
X151500924Y-87073717D01*
X151402430Y-86926310D01*
X151334586Y-86762520D01*
X151300000Y-86588642D01*
X151300000Y-86411358D01*
X151334586Y-86237480D01*
X151402430Y-86073690D01*
X151500924Y-85926283D01*
X151626283Y-85800924D01*
X151773690Y-85702430D01*
X151937480Y-85634586D01*
X152111358Y-85600000D01*
X152288642Y-85600000D01*
X152462520Y-85634586D01*
G37*
G36*
X145783378Y-82676859D02*
G01*
X146147355Y-82827623D01*
X146474926Y-83046499D01*
X146753501Y-83325074D01*
X146972377Y-83652645D01*
X147123141Y-84016622D01*
X147200000Y-84403017D01*
X147200000Y-84796983D01*
X147123141Y-85183378D01*
X146972377Y-85547355D01*
X146753501Y-85874926D01*
X146474926Y-86153501D01*
X146147355Y-86372377D01*
X145783378Y-86523141D01*
X145396983Y-86600000D01*
X145003017Y-86600000D01*
X144616622Y-86523141D01*
X144252645Y-86372377D01*
X143925074Y-86153501D01*
X143646499Y-85874926D01*
X143427623Y-85547355D01*
X143276859Y-85183378D01*
X143200000Y-84796983D01*
X143200000Y-84403017D01*
X143276859Y-84016622D01*
X143427623Y-83652645D01*
X143646499Y-83325074D01*
X143925074Y-83046499D01*
X144252645Y-82827623D01*
X144616622Y-82676859D01*
X145003017Y-82600000D01*
X145396983Y-82600000D01*
X145783378Y-82676859D01*
G37*
G36*
X187500000Y-85800000D02*
G01*
X185800000Y-85800000D01*
X185800000Y-84100000D01*
X187500000Y-84100000D01*
X187500000Y-85800000D01*
G37*
G36*
X199790000Y-85000000D02*
G01*
X194710000Y-85000000D01*
X194710000Y-83500000D01*
X199790000Y-83500000D01*
X199790000Y-85000000D01*
G37*
G36*
X106568215Y-83876511D02*
G01*
X106638126Y-83897718D01*
X106653045Y-83902244D01*
X106731217Y-83944029D01*
X106799738Y-84000262D01*
X106855971Y-84068783D01*
X106897756Y-84146955D01*
X106897757Y-84146959D01*
X106923489Y-84231785D01*
X106932177Y-84320000D01*
X106923489Y-84408215D01*
X106902282Y-84478126D01*
X106897756Y-84493045D01*
X106855971Y-84571217D01*
X106799738Y-84639738D01*
X106731217Y-84695971D01*
X106653045Y-84737756D01*
X106638126Y-84742281D01*
X106568215Y-84763489D01*
X106502105Y-84770000D01*
X105357895Y-84770000D01*
X105291785Y-84763489D01*
X105221874Y-84742281D01*
X105206955Y-84737756D01*
X105128783Y-84695971D01*
X105060262Y-84639738D01*
X105004029Y-84571217D01*
X104962244Y-84493045D01*
X104957718Y-84478126D01*
X104936511Y-84408215D01*
X104927823Y-84320000D01*
X104936511Y-84231785D01*
X104962243Y-84146959D01*
X104962244Y-84146955D01*
X105004029Y-84068783D01*
X105060262Y-84000262D01*
X105128783Y-83944029D01*
X105206955Y-83902244D01*
X105221874Y-83897718D01*
X105291785Y-83876511D01*
X105357895Y-83870000D01*
X106502105Y-83870000D01*
X106568215Y-83876511D01*
G37*
G36*
X102248215Y-83876511D02*
G01*
X102318126Y-83897718D01*
X102333045Y-83902244D01*
X102411217Y-83944029D01*
X102479738Y-84000262D01*
X102535971Y-84068783D01*
X102577756Y-84146955D01*
X102577757Y-84146959D01*
X102603489Y-84231785D01*
X102612177Y-84320000D01*
X102603489Y-84408215D01*
X102582282Y-84478126D01*
X102577756Y-84493045D01*
X102535971Y-84571217D01*
X102479738Y-84639738D01*
X102411217Y-84695971D01*
X102333045Y-84737756D01*
X102318126Y-84742281D01*
X102248215Y-84763489D01*
X102182105Y-84770000D01*
X101337895Y-84770000D01*
X101271785Y-84763489D01*
X101201874Y-84742281D01*
X101186955Y-84737756D01*
X101108783Y-84695971D01*
X101040262Y-84639738D01*
X100984029Y-84571217D01*
X100942244Y-84493045D01*
X100937718Y-84478126D01*
X100916511Y-84408215D01*
X100907823Y-84320000D01*
X100916511Y-84231785D01*
X100942243Y-84146959D01*
X100942244Y-84146955D01*
X100984029Y-84068783D01*
X101040262Y-84000262D01*
X101108783Y-83944029D01*
X101186955Y-83902244D01*
X101201874Y-83897718D01*
X101271785Y-83876511D01*
X101337895Y-83870000D01*
X102182105Y-83870000D01*
X102248215Y-83876511D01*
G37*
G36*
X175400000Y-84650000D02*
G01*
X173700000Y-84650000D01*
X173700000Y-82950000D01*
X175400000Y-82950000D01*
X175400000Y-84650000D01*
G37*
G36*
X105537507Y-82601528D02*
G01*
X105592103Y-82624143D01*
X105641239Y-82656974D01*
X105683026Y-82698761D01*
X105715857Y-82747897D01*
X105738472Y-82802493D01*
X105750000Y-82860453D01*
X105750000Y-82919547D01*
X105738472Y-82977507D01*
X105715857Y-83032103D01*
X105683026Y-83081239D01*
X105641239Y-83123026D01*
X105592103Y-83155857D01*
X105537507Y-83178472D01*
X105479547Y-83190000D01*
X105420453Y-83190000D01*
X105362493Y-83178472D01*
X105307897Y-83155857D01*
X105258761Y-83123026D01*
X105216974Y-83081239D01*
X105184143Y-83032103D01*
X105161528Y-82977507D01*
X105150000Y-82919547D01*
X105150000Y-82860453D01*
X105161528Y-82802493D01*
X105184143Y-82747897D01*
X105216974Y-82698761D01*
X105258761Y-82656974D01*
X105307897Y-82624143D01*
X105362493Y-82601528D01*
X105420453Y-82590000D01*
X105479547Y-82590000D01*
X105537507Y-82601528D01*
G37*
G36*
X174743197Y-80431777D02*
G01*
X174797937Y-80442665D01*
X174952626Y-80506739D01*
X175091845Y-80599763D01*
X175210237Y-80718155D01*
X175303261Y-80857374D01*
X175367335Y-81012063D01*
X175400000Y-81176284D01*
X175400000Y-81343716D01*
X175367335Y-81507937D01*
X175303261Y-81662626D01*
X175210237Y-81801845D01*
X175091845Y-81920237D01*
X174952626Y-82013261D01*
X174797937Y-82077335D01*
X174743197Y-82088223D01*
X174633718Y-82110000D01*
X174466282Y-82110000D01*
X174356803Y-82088223D01*
X174302063Y-82077335D01*
X174147374Y-82013261D01*
X174008155Y-81920237D01*
X173889763Y-81801845D01*
X173796739Y-81662626D01*
X173732665Y-81507937D01*
X173700000Y-81343716D01*
X173700000Y-81176284D01*
X173732665Y-81012063D01*
X173796739Y-80857374D01*
X173889763Y-80718155D01*
X174008155Y-80599763D01*
X174147374Y-80506739D01*
X174302063Y-80442665D01*
X174356803Y-80431777D01*
X174466282Y-80410000D01*
X174633718Y-80410000D01*
X174743197Y-80431777D01*
G37*
G36*
X174743197Y-77891777D02*
G01*
X174797937Y-77902665D01*
X174952626Y-77966739D01*
X175091845Y-78059763D01*
X175210237Y-78178155D01*
X175303261Y-78317374D01*
X175367335Y-78472063D01*
X175400000Y-78636284D01*
X175400000Y-78803716D01*
X175367335Y-78967937D01*
X175303261Y-79122626D01*
X175210237Y-79261845D01*
X175091845Y-79380237D01*
X174952626Y-79473261D01*
X174797937Y-79537335D01*
X174743197Y-79548223D01*
X174633718Y-79570000D01*
X174466282Y-79570000D01*
X174356803Y-79548223D01*
X174302063Y-79537335D01*
X174147374Y-79473261D01*
X174008155Y-79380237D01*
X173889763Y-79261845D01*
X173796739Y-79122626D01*
X173732665Y-78967937D01*
X173700000Y-78803716D01*
X173700000Y-78636284D01*
X173732665Y-78472063D01*
X173796739Y-78317374D01*
X173889763Y-78178155D01*
X174008155Y-78059763D01*
X174147374Y-77966739D01*
X174302063Y-77902665D01*
X174356803Y-77891777D01*
X174466282Y-77870000D01*
X174633718Y-77870000D01*
X174743197Y-77891777D01*
G37*
G36*
X105537507Y-76821528D02*
G01*
X105592103Y-76844143D01*
X105641239Y-76876974D01*
X105683026Y-76918761D01*
X105715857Y-76967897D01*
X105738472Y-77022493D01*
X105750000Y-77080453D01*
X105750000Y-77139547D01*
X105738472Y-77197507D01*
X105715857Y-77252103D01*
X105683026Y-77301239D01*
X105641239Y-77343026D01*
X105592103Y-77375857D01*
X105537507Y-77398472D01*
X105479547Y-77410000D01*
X105420453Y-77410000D01*
X105362493Y-77398472D01*
X105307897Y-77375857D01*
X105258761Y-77343026D01*
X105216974Y-77301239D01*
X105184143Y-77252103D01*
X105161528Y-77197507D01*
X105150000Y-77139547D01*
X105150000Y-77080453D01*
X105161528Y-77022493D01*
X105184143Y-76967897D01*
X105216974Y-76918761D01*
X105258761Y-76876974D01*
X105307897Y-76844143D01*
X105362493Y-76821528D01*
X105420453Y-76810000D01*
X105479547Y-76810000D01*
X105537507Y-76821528D01*
G37*
G36*
X145783378Y-73476859D02*
G01*
X146147355Y-73627623D01*
X146474926Y-73846499D01*
X146753501Y-74125074D01*
X146972377Y-74452645D01*
X147123141Y-74816622D01*
X147200000Y-75203017D01*
X147200000Y-75596983D01*
X147123141Y-75983378D01*
X146972377Y-76347355D01*
X146753501Y-76674926D01*
X146474926Y-76953501D01*
X146147355Y-77172377D01*
X145783378Y-77323141D01*
X145396983Y-77400000D01*
X145003017Y-77400000D01*
X144616622Y-77323141D01*
X144252645Y-77172377D01*
X143925074Y-76953501D01*
X143646499Y-76674926D01*
X143427623Y-76347355D01*
X143276859Y-75983378D01*
X143200000Y-75596983D01*
X143200000Y-75203017D01*
X143276859Y-74816622D01*
X143427623Y-74452645D01*
X143646499Y-74125074D01*
X143925074Y-73846499D01*
X144252645Y-73627623D01*
X144616622Y-73476859D01*
X145003017Y-73400000D01*
X145396983Y-73400000D01*
X145783378Y-73476859D01*
G37*
G36*
X199790000Y-76500000D02*
G01*
X194710000Y-76500000D01*
X194710000Y-75000000D01*
X199790000Y-75000000D01*
X199790000Y-76500000D01*
G37*
G36*
X102248215Y-75236511D02*
G01*
X102318126Y-75257718D01*
X102333045Y-75262244D01*
X102411217Y-75304029D01*
X102479738Y-75360262D01*
X102535971Y-75428783D01*
X102577756Y-75506955D01*
X102577757Y-75506959D01*
X102603489Y-75591785D01*
X102612177Y-75680000D01*
X102603489Y-75768215D01*
X102582281Y-75838126D01*
X102577756Y-75853045D01*
X102535971Y-75931217D01*
X102479738Y-75999738D01*
X102411217Y-76055971D01*
X102333045Y-76097756D01*
X102318126Y-76102282D01*
X102248215Y-76123489D01*
X102182105Y-76130000D01*
X101337895Y-76130000D01*
X101271785Y-76123489D01*
X101201874Y-76102282D01*
X101186955Y-76097756D01*
X101108783Y-76055971D01*
X101040262Y-75999738D01*
X100984029Y-75931217D01*
X100942244Y-75853045D01*
X100937719Y-75838126D01*
X100916511Y-75768215D01*
X100907823Y-75680000D01*
X100916511Y-75591785D01*
X100942243Y-75506959D01*
X100942244Y-75506955D01*
X100984029Y-75428783D01*
X101040262Y-75360262D01*
X101108783Y-75304029D01*
X101186955Y-75262244D01*
X101201874Y-75257718D01*
X101271785Y-75236511D01*
X101337895Y-75230000D01*
X102182105Y-75230000D01*
X102248215Y-75236511D01*
G37*
G36*
X106568215Y-75236511D02*
G01*
X106638126Y-75257718D01*
X106653045Y-75262244D01*
X106731217Y-75304029D01*
X106799738Y-75360262D01*
X106855971Y-75428783D01*
X106897756Y-75506955D01*
X106897757Y-75506959D01*
X106923489Y-75591785D01*
X106932177Y-75680000D01*
X106923489Y-75768215D01*
X106902281Y-75838126D01*
X106897756Y-75853045D01*
X106855971Y-75931217D01*
X106799738Y-75999738D01*
X106731217Y-76055971D01*
X106653045Y-76097756D01*
X106638126Y-76102282D01*
X106568215Y-76123489D01*
X106502105Y-76130000D01*
X105357895Y-76130000D01*
X105291785Y-76123489D01*
X105221874Y-76102282D01*
X105206955Y-76097756D01*
X105128783Y-76055971D01*
X105060262Y-75999738D01*
X105004029Y-75931217D01*
X104962244Y-75853045D01*
X104957719Y-75838126D01*
X104936511Y-75768215D01*
X104927823Y-75680000D01*
X104936511Y-75591785D01*
X104962243Y-75506959D01*
X104962244Y-75506955D01*
X105004029Y-75428783D01*
X105060262Y-75360262D01*
X105128783Y-75304029D01*
X105206955Y-75262244D01*
X105221874Y-75257718D01*
X105291785Y-75236511D01*
X105357895Y-75230000D01*
X106502105Y-75230000D01*
X106568215Y-75236511D01*
G37*
G36*
X152462520Y-72634586D02*
G01*
X152626310Y-72702430D01*
X152773717Y-72800924D01*
X152899076Y-72926283D01*
X152997570Y-73073690D01*
X153065414Y-73237480D01*
X153100000Y-73411358D01*
X153100000Y-73588642D01*
X153065414Y-73762520D01*
X152997570Y-73926310D01*
X152899076Y-74073717D01*
X152773717Y-74199076D01*
X152626310Y-74297570D01*
X152462520Y-74365414D01*
X152288642Y-74400000D01*
X152111358Y-74400000D01*
X151937480Y-74365414D01*
X151773690Y-74297570D01*
X151626283Y-74199076D01*
X151500924Y-74073717D01*
X151402430Y-73926310D01*
X151334586Y-73762520D01*
X151300000Y-73588642D01*
X151300000Y-73411358D01*
X151334586Y-73237480D01*
X151402430Y-73073690D01*
X151500924Y-72926283D01*
X151626283Y-72800924D01*
X151773690Y-72702430D01*
X151937480Y-72634586D01*
X152111358Y-72600000D01*
X152288642Y-72600000D01*
X152462520Y-72634586D01*
G37*
G36*
X186300000Y-72250000D02*
G01*
X184600000Y-72250000D01*
X184600000Y-70550000D01*
X186300000Y-70550000D01*
X186300000Y-72250000D01*
G37*
G36*
X152462520Y-70134586D02*
G01*
X152626310Y-70202430D01*
X152773717Y-70300924D01*
X152899076Y-70426283D01*
X152997570Y-70573690D01*
X153065414Y-70737480D01*
X153100000Y-70911358D01*
X153100000Y-71088642D01*
X153065414Y-71262520D01*
X152997570Y-71426310D01*
X152899076Y-71573717D01*
X152773717Y-71699076D01*
X152626310Y-71797570D01*
X152462520Y-71865414D01*
X152288642Y-71900000D01*
X152111358Y-71900000D01*
X151937480Y-71865414D01*
X151773690Y-71797570D01*
X151626283Y-71699076D01*
X151500924Y-71573717D01*
X151402430Y-71426310D01*
X151334586Y-71262520D01*
X151300000Y-71088642D01*
X151300000Y-70911358D01*
X151334586Y-70737480D01*
X151402430Y-70573690D01*
X151500924Y-70426283D01*
X151626283Y-70300924D01*
X151773690Y-70202430D01*
X151937480Y-70134586D01*
X152111358Y-70100000D01*
X152288642Y-70100000D01*
X152462520Y-70134586D01*
G37*
G36*
X152462520Y-67634586D02*
G01*
X152626310Y-67702430D01*
X152773717Y-67800924D01*
X152899076Y-67926283D01*
X152997570Y-68073690D01*
X153065414Y-68237480D01*
X153100000Y-68411358D01*
X153100000Y-68588642D01*
X153065414Y-68762520D01*
X152997570Y-68926310D01*
X152899076Y-69073717D01*
X152773717Y-69199076D01*
X152626310Y-69297570D01*
X152462520Y-69365414D01*
X152288642Y-69400000D01*
X152111358Y-69400000D01*
X151937480Y-69365414D01*
X151773690Y-69297570D01*
X151626283Y-69199076D01*
X151500924Y-69073717D01*
X151402430Y-68926310D01*
X151334586Y-68762520D01*
X151300000Y-68588642D01*
X151300000Y-68411358D01*
X151334586Y-68237480D01*
X151402430Y-68073690D01*
X151500924Y-67926283D01*
X151626283Y-67800924D01*
X151773690Y-67702430D01*
X151937480Y-67634586D01*
X152111358Y-67600000D01*
X152288642Y-67600000D01*
X152462520Y-67634586D01*
G37*
G36*
X160250000Y-69200000D02*
G01*
X158550000Y-69200000D01*
X158550000Y-67500000D01*
X160250000Y-67500000D01*
X160250000Y-69200000D01*
G37*
G36*
X145783378Y-64676859D02*
G01*
X146147355Y-64827623D01*
X146474926Y-65046499D01*
X146753501Y-65325074D01*
X146972377Y-65652645D01*
X147123141Y-66016622D01*
X147200000Y-66403017D01*
X147200000Y-66796983D01*
X147123141Y-67183378D01*
X146972377Y-67547355D01*
X146753501Y-67874926D01*
X146474926Y-68153501D01*
X146147355Y-68372377D01*
X145783378Y-68523141D01*
X145396983Y-68600000D01*
X145003017Y-68600000D01*
X144616622Y-68523141D01*
X144252645Y-68372377D01*
X143925074Y-68153501D01*
X143646499Y-67874926D01*
X143427623Y-67547355D01*
X143276859Y-67183378D01*
X143200000Y-66796983D01*
X143200000Y-66403017D01*
X143276859Y-66016622D01*
X143427623Y-65652645D01*
X143646499Y-65325074D01*
X143925074Y-65046499D01*
X144252645Y-64827623D01*
X144616622Y-64676859D01*
X145003017Y-64600000D01*
X145396983Y-64600000D01*
X145783378Y-64676859D01*
G37*
G36*
X126513197Y-66671777D02*
G01*
X126567937Y-66682665D01*
X126722626Y-66746739D01*
X126861845Y-66839763D01*
X126980237Y-66958155D01*
X127073261Y-67097374D01*
X127108885Y-67183379D01*
X127137335Y-67252064D01*
X127170000Y-67416282D01*
X127170000Y-67583718D01*
X127148223Y-67693197D01*
X127137335Y-67747937D01*
X127073261Y-67902626D01*
X126980237Y-68041845D01*
X126861845Y-68160237D01*
X126722626Y-68253261D01*
X126567937Y-68317335D01*
X126513197Y-68328223D01*
X126403718Y-68350000D01*
X126236282Y-68350000D01*
X126126803Y-68328223D01*
X126072063Y-68317335D01*
X125917374Y-68253261D01*
X125778155Y-68160237D01*
X125659763Y-68041845D01*
X125566739Y-67902626D01*
X125502665Y-67747937D01*
X125491777Y-67693197D01*
X125470000Y-67583718D01*
X125470000Y-67416282D01*
X125502665Y-67252064D01*
X125531115Y-67183379D01*
X125566739Y-67097374D01*
X125659763Y-66958155D01*
X125778155Y-66839763D01*
X125917374Y-66746739D01*
X126072063Y-66682665D01*
X126126803Y-66671777D01*
X126236282Y-66650000D01*
X126403718Y-66650000D01*
X126513197Y-66671777D01*
G37*
G36*
X123973197Y-66671777D02*
G01*
X124027937Y-66682665D01*
X124182626Y-66746739D01*
X124321845Y-66839763D01*
X124440237Y-66958155D01*
X124533261Y-67097374D01*
X124568885Y-67183379D01*
X124597335Y-67252064D01*
X124630000Y-67416282D01*
X124630000Y-67583718D01*
X124608223Y-67693197D01*
X124597335Y-67747937D01*
X124533261Y-67902626D01*
X124440237Y-68041845D01*
X124321845Y-68160237D01*
X124182626Y-68253261D01*
X124027937Y-68317335D01*
X123973197Y-68328223D01*
X123863718Y-68350000D01*
X123696282Y-68350000D01*
X123586803Y-68328223D01*
X123532063Y-68317335D01*
X123377374Y-68253261D01*
X123238155Y-68160237D01*
X123119763Y-68041845D01*
X123026739Y-67902626D01*
X122962665Y-67747937D01*
X122951777Y-67693197D01*
X122930000Y-67583718D01*
X122930000Y-67416282D01*
X122962665Y-67252064D01*
X122991115Y-67183379D01*
X123026739Y-67097374D01*
X123119763Y-66958155D01*
X123238155Y-66839763D01*
X123377374Y-66746739D01*
X123532063Y-66682665D01*
X123586803Y-66671777D01*
X123696282Y-66650000D01*
X123863718Y-66650000D01*
X123973197Y-66671777D01*
G37*
G36*
X119550000Y-68350000D02*
G01*
X117850000Y-68350000D01*
X117850000Y-66650000D01*
X119550000Y-66650000D01*
X119550000Y-68350000D01*
G37*
G36*
X121433197Y-66671777D02*
G01*
X121487937Y-66682665D01*
X121642626Y-66746739D01*
X121781845Y-66839763D01*
X121900237Y-66958155D01*
X121993261Y-67097374D01*
X122028885Y-67183379D01*
X122057335Y-67252064D01*
X122090000Y-67416282D01*
X122090000Y-67583718D01*
X122068223Y-67693197D01*
X122057335Y-67747937D01*
X121993261Y-67902626D01*
X121900237Y-68041845D01*
X121781845Y-68160237D01*
X121642626Y-68253261D01*
X121487937Y-68317335D01*
X121433197Y-68328223D01*
X121323718Y-68350000D01*
X121156282Y-68350000D01*
X121046803Y-68328223D01*
X120992063Y-68317335D01*
X120837374Y-68253261D01*
X120698155Y-68160237D01*
X120579763Y-68041845D01*
X120486739Y-67902626D01*
X120422665Y-67747937D01*
X120411777Y-67693197D01*
X120390000Y-67583718D01*
X120390000Y-67416282D01*
X120422665Y-67252064D01*
X120451115Y-67183379D01*
X120486739Y-67097374D01*
X120579763Y-66958155D01*
X120698155Y-66839763D01*
X120837374Y-66746739D01*
X120992063Y-66682665D01*
X121046803Y-66671777D01*
X121156282Y-66650000D01*
X121323718Y-66650000D01*
X121433197Y-66671777D01*
G37*
G36*
X159603197Y-64871777D02*
G01*
X159657937Y-64882665D01*
X159812626Y-64946739D01*
X159951845Y-65039763D01*
X160070237Y-65158155D01*
X160163261Y-65297374D01*
X160227335Y-65452063D01*
X160260000Y-65616284D01*
X160260000Y-65783716D01*
X160227335Y-65947937D01*
X160163261Y-66102626D01*
X160070237Y-66241845D01*
X159951845Y-66360237D01*
X159812626Y-66453261D01*
X159657937Y-66517335D01*
X159603197Y-66528223D01*
X159493718Y-66550000D01*
X159326282Y-66550000D01*
X159216803Y-66528223D01*
X159162063Y-66517335D01*
X159007374Y-66453261D01*
X158868155Y-66360237D01*
X158749763Y-66241845D01*
X158656739Y-66102626D01*
X158592665Y-65947937D01*
X158560000Y-65783716D01*
X158560000Y-65616284D01*
X158592665Y-65452063D01*
X158656739Y-65297374D01*
X158749763Y-65158155D01*
X158868155Y-65039763D01*
X159007374Y-64946739D01*
X159162063Y-64882665D01*
X159216803Y-64871777D01*
X159326282Y-64850000D01*
X159493718Y-64850000D01*
X159603197Y-64871777D01*
G37*
G36*
X162800000Y-66550000D02*
G01*
X161100000Y-66550000D01*
X161100000Y-64850000D01*
X162800000Y-64850000D01*
X162800000Y-66550000D01*
G37*
G36*
X157063197Y-64871777D02*
G01*
X157117937Y-64882665D01*
X157272626Y-64946739D01*
X157411845Y-65039763D01*
X157530237Y-65158155D01*
X157623261Y-65297374D01*
X157687335Y-65452063D01*
X157720000Y-65616284D01*
X157720000Y-65783716D01*
X157687335Y-65947937D01*
X157623261Y-66102626D01*
X157530237Y-66241845D01*
X157411845Y-66360237D01*
X157272626Y-66453261D01*
X157117937Y-66517335D01*
X157063197Y-66528223D01*
X156953718Y-66550000D01*
X156786282Y-66550000D01*
X156676803Y-66528223D01*
X156622063Y-66517335D01*
X156467374Y-66453261D01*
X156328155Y-66360237D01*
X156209763Y-66241845D01*
X156116739Y-66102626D01*
X156052665Y-65947937D01*
X156020000Y-65783716D01*
X156020000Y-65616284D01*
X156052665Y-65452063D01*
X156116739Y-65297374D01*
X156209763Y-65158155D01*
X156328155Y-65039763D01*
X156467374Y-64946739D01*
X156622063Y-64882665D01*
X156676803Y-64871777D01*
X156786282Y-64850000D01*
X156953718Y-64850000D01*
X157063197Y-64871777D01*
G37*
G36*
X154523197Y-64871777D02*
G01*
X154577937Y-64882665D01*
X154732626Y-64946739D01*
X154871845Y-65039763D01*
X154990237Y-65158155D01*
X155083261Y-65297374D01*
X155147335Y-65452063D01*
X155180000Y-65616284D01*
X155180000Y-65783716D01*
X155147335Y-65947937D01*
X155083261Y-66102626D01*
X154990237Y-66241845D01*
X154871845Y-66360237D01*
X154732626Y-66453261D01*
X154577937Y-66517335D01*
X154523197Y-66528223D01*
X154413718Y-66550000D01*
X154246282Y-66550000D01*
X154136803Y-66528223D01*
X154082063Y-66517335D01*
X153927374Y-66453261D01*
X153788155Y-66360237D01*
X153669763Y-66241845D01*
X153576739Y-66102626D01*
X153512665Y-65947937D01*
X153480000Y-65783716D01*
X153480000Y-65616284D01*
X153512665Y-65452063D01*
X153576739Y-65297374D01*
X153669763Y-65158155D01*
X153788155Y-65039763D01*
X153927374Y-64946739D01*
X154082063Y-64882665D01*
X154136803Y-64871777D01*
X154246282Y-64850000D01*
X154413718Y-64850000D01*
X154523197Y-64871777D01*
G37*
M02*
